<svg width="1068" height="800" viewBox="0 0 1068 800" fill="none" xmlns="http://www.w3.org/2000/svg">
<g filter="url(#filter0_dd_1_778)">
<rect x="111" y="353" width="600" height="86" rx="16" fill="white"/>
</g>
<circle cx="156.5" cy="393.5" r="22.5" fill="#FB9C46"/>
<path d="M155.8 396.491C160.572 396.491 164.6 397.267 164.6 400.259C164.6 403.252 160.546 404 155.8 404C151.029 404 147 403.224 147 400.232C147 397.239 151.054 396.491 155.8 396.491ZM155.8 382C159.033 382 161.623 384.589 161.623 387.82C161.623 391.051 159.033 393.641 155.8 393.641C152.568 393.641 149.977 391.051 149.977 387.82C149.977 384.589 152.568 382 155.8 382Z" fill="white"/>
<path d="M222.478 378.454V379.786H217.024V384.016H221.452V385.348H217.024V391H215.386V378.454H222.478ZM225.302 379.534C224.99 379.534 224.726 379.426 224.51 379.21C224.294 378.994 224.186 378.73 224.186 378.418C224.186 378.106 224.294 377.842 224.51 377.626C224.726 377.41 224.99 377.302 225.302 377.302C225.602 377.302 225.854 377.41 226.058 377.626C226.274 377.842 226.382 378.106 226.382 378.418C226.382 378.73 226.274 378.994 226.058 379.21C225.854 379.426 225.602 379.534 225.302 379.534ZM226.094 381.136V391H224.456V381.136H226.094ZM233.692 380.956C234.892 380.956 235.864 381.322 236.608 382.054C237.352 382.774 237.724 383.818 237.724 385.186V391H236.104V385.42C236.104 384.436 235.858 383.686 235.366 383.17C234.874 382.642 234.202 382.378 233.35 382.378C232.486 382.378 231.796 382.648 231.28 383.188C230.776 383.728 230.524 384.514 230.524 385.546V391H228.886V381.136H230.524V382.54C230.848 382.036 231.286 381.646 231.838 381.37C232.402 381.094 233.02 380.956 233.692 380.956ZM239.788 386.032C239.788 385.024 239.992 384.142 240.4 383.386C240.808 382.618 241.366 382.024 242.074 381.604C242.794 381.184 243.598 380.974 244.486 380.974C245.254 380.974 245.968 381.154 246.628 381.514C247.288 381.862 247.792 382.324 248.14 382.9V377.68H249.796V391H248.14V389.146C247.816 389.734 247.336 390.22 246.7 390.604C246.064 390.976 245.32 391.162 244.468 391.162C243.592 391.162 242.794 390.946 242.074 390.514C241.366 390.082 240.808 389.476 240.4 388.696C239.992 387.916 239.788 387.028 239.788 386.032ZM248.14 386.05C248.14 385.306 247.99 384.658 247.69 384.106C247.39 383.554 246.982 383.134 246.466 382.846C245.962 382.546 245.404 382.396 244.792 382.396C244.18 382.396 243.622 382.54 243.118 382.828C242.614 383.116 242.212 383.536 241.912 384.088C241.612 384.64 241.462 385.288 241.462 386.032C241.462 386.788 241.612 387.448 241.912 388.012C242.212 388.564 242.614 388.99 243.118 389.29C243.622 389.578 244.18 389.722 244.792 389.722C245.404 389.722 245.962 389.578 246.466 389.29C246.982 388.99 247.39 388.564 247.69 388.012C247.99 387.448 248.14 386.794 248.14 386.05ZM256.751 386.032C256.751 385.024 256.955 384.142 257.363 383.386C257.771 382.618 258.329 382.024 259.037 381.604C259.757 381.184 260.555 380.974 261.431 380.974C262.295 380.974 263.045 381.16 263.681 381.532C264.317 381.904 264.791 382.372 265.103 382.936V381.136H266.759V391H265.103V389.164C264.779 389.74 264.293 390.22 263.645 390.604C263.009 390.976 262.265 391.162 261.413 391.162C260.537 391.162 259.745 390.946 259.037 390.514C258.329 390.082 257.771 389.476 257.363 388.696C256.955 387.916 256.751 387.028 256.751 386.032ZM265.103 386.05C265.103 385.306 264.953 384.658 264.653 384.106C264.353 383.554 263.945 383.134 263.429 382.846C262.925 382.546 262.367 382.396 261.755 382.396C261.143 382.396 260.585 382.54 260.081 382.828C259.577 383.116 259.175 383.536 258.875 384.088C258.575 384.64 258.425 385.288 258.425 386.032C258.425 386.788 258.575 387.448 258.875 388.012C259.175 388.564 259.577 388.99 260.081 389.29C260.585 389.578 261.143 389.722 261.755 389.722C262.367 389.722 262.925 389.578 263.429 389.29C263.945 388.99 264.353 388.564 264.653 388.012C264.953 387.448 265.103 386.794 265.103 386.05ZM276.323 382.486V388.3C276.323 388.78 276.425 389.122 276.629 389.326C276.833 389.518 277.187 389.614 277.691 389.614H278.897V391H277.421C276.509 391 275.825 390.79 275.369 390.37C274.913 389.95 274.685 389.26 274.685 388.3V382.486H273.407V381.136H274.685V378.652H276.323V381.136H278.897V382.486H276.323ZM289.63 381.136V391H287.992V389.542C287.68 390.046 287.242 390.442 286.678 390.73C286.126 391.006 285.514 391.144 284.842 391.144C284.074 391.144 283.384 390.988 282.772 390.676C282.16 390.352 281.674 389.872 281.314 389.236C280.966 388.6 280.792 387.826 280.792 386.914V381.136H282.412V386.698C282.412 387.67 282.658 388.42 283.15 388.948C283.642 389.464 284.314 389.722 285.166 389.722C286.042 389.722 286.732 389.452 287.236 388.912C287.74 388.372 287.992 387.586 287.992 386.554V381.136H289.63ZM294.394 382.486V388.3C294.394 388.78 294.496 389.122 294.7 389.326C294.904 389.518 295.258 389.614 295.762 389.614H296.968V391H295.492C294.58 391 293.896 390.79 293.44 390.37C292.984 389.95 292.756 389.26 292.756 388.3V382.486H291.478V381.136H292.756V378.652H294.394V381.136H296.968V382.486H294.394ZM303.254 391.162C302.33 391.162 301.49 390.952 300.734 390.532C299.99 390.112 299.402 389.518 298.97 388.75C298.55 387.97 298.34 387.07 298.34 386.05C298.34 385.042 298.556 384.154 298.988 383.386C299.432 382.606 300.032 382.012 300.788 381.604C301.544 381.184 302.39 380.974 303.326 380.974C304.262 380.974 305.108 381.184 305.864 381.604C306.62 382.012 307.214 382.6 307.646 383.368C308.09 384.136 308.312 385.03 308.312 386.05C308.312 387.07 308.084 387.97 307.628 388.75C307.184 389.518 306.578 390.112 305.81 390.532C305.042 390.952 304.19 391.162 303.254 391.162ZM303.254 389.722C303.842 389.722 304.394 389.584 304.91 389.308C305.426 389.032 305.84 388.618 306.152 388.066C306.476 387.514 306.638 386.842 306.638 386.05C306.638 385.258 306.482 384.586 306.17 384.034C305.858 383.482 305.45 383.074 304.946 382.81C304.442 382.534 303.896 382.396 303.308 382.396C302.708 382.396 302.156 382.534 301.652 382.81C301.16 383.074 300.764 383.482 300.464 384.034C300.164 384.586 300.014 385.258 300.014 386.05C300.014 386.854 300.158 387.532 300.446 388.084C300.746 388.636 301.142 389.05 301.634 389.326C302.126 389.59 302.666 389.722 303.254 389.722ZM312.104 382.738C312.392 382.174 312.8 381.736 313.328 381.424C313.868 381.112 314.522 380.956 315.29 380.956V382.648H314.858C313.022 382.648 312.104 383.644 312.104 385.636V391H310.466V381.136H312.104V382.738Z" fill="#FB9C46"/>
<path d="M214.672 410.1C214.672 409.139 214.882 408.28 215.302 407.524C215.722 406.759 216.296 406.166 217.024 405.746C217.752 405.317 218.564 405.102 219.46 405.102C220.552 405.102 221.485 405.363 222.26 405.886C223.044 406.399 223.613 407.127 223.968 408.07H222.82C222.54 407.407 222.111 406.889 221.532 406.516C220.963 406.143 220.272 405.956 219.46 405.956C218.741 405.956 218.093 406.124 217.514 406.46C216.945 406.796 216.497 407.281 216.17 407.916C215.843 408.541 215.68 409.269 215.68 410.1C215.68 410.931 215.843 411.659 216.17 412.284C216.497 412.909 216.945 413.39 217.514 413.726C218.093 414.062 218.741 414.23 219.46 414.23C220.272 414.23 220.963 414.048 221.532 413.684C222.111 413.311 222.54 412.797 222.82 412.144H223.968C223.613 413.077 223.044 413.801 222.26 414.314C221.476 414.827 220.543 415.084 219.46 415.084C218.564 415.084 217.752 414.874 217.024 414.454C216.296 414.025 215.722 413.432 215.302 412.676C214.882 411.92 214.672 411.061 214.672 410.1ZM229.561 407.216C230.139 407.216 230.657 407.337 231.115 407.58C231.581 407.823 231.945 408.196 232.207 408.7C232.477 409.195 232.613 409.801 232.613 410.52V415H231.647V410.632C231.647 409.801 231.437 409.167 231.017 408.728C230.606 408.289 230.041 408.07 229.323 408.07C228.585 408.07 227.997 408.303 227.559 408.77C227.12 409.237 226.901 409.923 226.901 410.828V415H225.921V404.64H226.901V408.658C227.143 408.201 227.498 407.846 227.965 407.594C228.441 407.342 228.973 407.216 229.561 407.216ZM238.126 415.112C237.407 415.112 236.759 414.953 236.18 414.636C235.611 414.309 235.158 413.852 234.822 413.264C234.495 412.667 234.332 411.971 234.332 411.178C234.332 410.385 234.5 409.694 234.836 409.106C235.172 408.509 235.629 408.051 236.208 407.734C236.787 407.407 237.435 407.244 238.154 407.244C238.873 407.244 239.521 407.407 240.1 407.734C240.688 408.051 241.145 408.509 241.472 409.106C241.808 409.694 241.976 410.385 241.976 411.178C241.976 411.962 241.808 412.653 241.472 413.25C241.136 413.847 240.674 414.309 240.086 414.636C239.498 414.953 238.845 415.112 238.126 415.112ZM238.126 414.258C238.63 414.258 239.097 414.146 239.526 413.922C239.955 413.689 240.301 413.343 240.562 412.886C240.833 412.419 240.968 411.85 240.968 411.178C240.968 410.506 240.837 409.941 240.576 409.484C240.315 409.017 239.969 408.672 239.54 408.448C239.111 408.215 238.644 408.098 238.14 408.098C237.636 408.098 237.169 408.215 236.74 408.448C236.311 408.672 235.965 409.017 235.704 409.484C235.452 409.941 235.326 410.506 235.326 411.178C235.326 411.85 235.452 412.419 235.704 412.886C235.965 413.343 236.306 413.689 236.726 413.922C237.155 414.146 237.622 414.258 238.126 414.258ZM247.109 415.112C246.39 415.112 245.741 414.953 245.163 414.636C244.593 414.309 244.141 413.852 243.805 413.264C243.478 412.667 243.315 411.971 243.315 411.178C243.315 410.385 243.483 409.694 243.819 409.106C244.155 408.509 244.612 408.051 245.191 407.734C245.769 407.407 246.418 407.244 247.137 407.244C247.855 407.244 248.504 407.407 249.083 407.734C249.671 408.051 250.128 408.509 250.455 409.106C250.791 409.694 250.959 410.385 250.959 411.178C250.959 411.962 250.791 412.653 250.455 413.25C250.119 413.847 249.657 414.309 249.069 414.636C248.481 414.953 247.827 415.112 247.109 415.112ZM247.109 414.258C247.613 414.258 248.079 414.146 248.509 413.922C248.938 413.689 249.283 413.343 249.545 412.886C249.815 412.419 249.951 411.85 249.951 411.178C249.951 410.506 249.82 409.941 249.559 409.484C249.297 409.017 248.952 408.672 248.523 408.448C248.093 408.215 247.627 408.098 247.123 408.098C246.619 408.098 246.152 408.215 245.723 408.448C245.293 408.672 244.948 409.017 244.687 409.484C244.435 409.941 244.309 410.506 244.309 411.178C244.309 411.85 244.435 412.419 244.687 412.886C244.948 413.343 245.289 413.689 245.709 413.922C246.138 414.146 246.605 414.258 247.109 414.258ZM255.377 415.112C254.5 415.112 253.781 414.911 253.221 414.51C252.67 414.099 252.362 413.544 252.297 412.844H253.305C253.352 413.273 253.552 413.623 253.907 413.894C254.271 414.155 254.756 414.286 255.363 414.286C255.895 414.286 256.31 414.16 256.609 413.908C256.917 413.656 257.071 413.343 257.071 412.97C257.071 412.709 256.987 412.494 256.819 412.326C256.651 412.158 256.436 412.027 256.175 411.934C255.923 411.831 255.578 411.724 255.139 411.612C254.57 411.463 254.108 411.313 253.753 411.164C253.398 411.015 253.095 410.795 252.843 410.506C252.6 410.207 252.479 409.811 252.479 409.316C252.479 408.943 252.591 408.597 252.815 408.28C253.039 407.963 253.356 407.711 253.767 407.524C254.178 407.337 254.644 407.244 255.167 407.244C255.988 407.244 256.651 407.454 257.155 407.874C257.659 408.285 257.93 408.854 257.967 409.582H256.987C256.959 409.134 256.782 408.775 256.455 408.504C256.138 408.224 255.699 408.084 255.139 408.084C254.644 408.084 254.243 408.201 253.935 408.434C253.627 408.667 253.473 408.957 253.473 409.302C253.473 409.601 253.562 409.848 253.739 410.044C253.926 410.231 254.154 410.38 254.425 410.492C254.696 410.595 255.06 410.711 255.517 410.842C256.068 410.991 256.506 411.136 256.833 411.276C257.16 411.416 257.44 411.621 257.673 411.892C257.906 412.163 258.028 412.522 258.037 412.97C258.037 413.381 257.925 413.749 257.701 414.076C257.477 414.393 257.164 414.645 256.763 414.832C256.362 415.019 255.9 415.112 255.377 415.112ZM266.798 410.786C266.798 411.122 266.788 411.379 266.77 411.556H260.428C260.456 412.135 260.596 412.629 260.848 413.04C261.1 413.451 261.431 413.763 261.842 413.978C262.252 414.183 262.7 414.286 263.186 414.286C263.82 414.286 264.352 414.132 264.782 413.824C265.22 413.516 265.51 413.101 265.65 412.578H266.686C266.499 413.325 266.098 413.936 265.482 414.412C264.875 414.879 264.11 415.112 263.186 415.112C262.467 415.112 261.823 414.953 261.254 414.636C260.684 414.309 260.236 413.852 259.91 413.264C259.592 412.667 259.434 411.971 259.434 411.178C259.434 410.385 259.592 409.689 259.91 409.092C260.227 408.495 260.67 408.037 261.24 407.72C261.809 407.403 262.458 407.244 263.186 407.244C263.914 407.244 264.548 407.403 265.09 407.72C265.64 408.037 266.06 408.467 266.35 409.008C266.648 409.54 266.798 410.133 266.798 410.786ZM265.804 410.758C265.813 410.189 265.696 409.703 265.454 409.302C265.22 408.901 264.898 408.597 264.488 408.392C264.077 408.187 263.629 408.084 263.144 408.084C262.416 408.084 261.795 408.317 261.282 408.784C260.768 409.251 260.484 409.909 260.428 410.758H265.804ZM278.733 407.356L274.197 418.598H273.175L274.659 414.958L271.523 407.356H272.601L275.205 413.88L277.725 407.356H278.733ZM283.407 415.112C282.689 415.112 282.04 414.953 281.461 414.636C280.892 414.309 280.439 413.852 280.103 413.264C279.777 412.667 279.613 411.971 279.613 411.178C279.613 410.385 279.781 409.694 280.117 409.106C280.453 408.509 280.911 408.051 281.489 407.734C282.068 407.407 282.717 407.244 283.435 407.244C284.154 407.244 284.803 407.407 285.381 407.734C285.969 408.051 286.427 408.509 286.753 409.106C287.089 409.694 287.257 410.385 287.257 411.178C287.257 411.962 287.089 412.653 286.753 413.25C286.417 413.847 285.955 414.309 285.367 414.636C284.779 414.953 284.126 415.112 283.407 415.112ZM283.407 414.258C283.911 414.258 284.378 414.146 284.807 413.922C285.237 413.689 285.582 413.343 285.843 412.886C286.114 412.419 286.249 411.85 286.249 411.178C286.249 410.506 286.119 409.941 285.857 409.484C285.596 409.017 285.251 408.672 284.821 408.448C284.392 408.215 283.925 408.098 283.421 408.098C282.917 408.098 282.451 408.215 282.021 408.448C281.592 408.672 281.247 409.017 280.985 409.484C280.733 409.941 280.607 410.506 280.607 411.178C280.607 411.85 280.733 412.419 280.985 412.886C281.247 413.343 281.587 413.689 282.007 413.922C282.437 414.146 282.903 414.258 283.407 414.258ZM295.666 407.356V415H294.686V413.656C294.462 414.132 294.116 414.496 293.65 414.748C293.183 415 292.66 415.126 292.082 415.126C291.167 415.126 290.42 414.846 289.842 414.286C289.263 413.717 288.974 412.895 288.974 411.822V407.356H289.94V411.71C289.94 412.541 290.145 413.175 290.556 413.614C290.976 414.053 291.545 414.272 292.264 414.272C293.001 414.272 293.589 414.039 294.028 413.572C294.466 413.105 294.686 412.419 294.686 411.514V407.356H295.666ZM298.883 408.714C299.098 408.238 299.425 407.869 299.863 407.608C300.311 407.347 300.857 407.216 301.501 407.216V408.238H301.235C300.526 408.238 299.957 408.429 299.527 408.812C299.098 409.195 298.883 409.834 298.883 410.73V415H297.903V407.356H298.883V408.714ZM307.307 405.914C307.111 405.914 306.943 405.844 306.803 405.704C306.663 405.564 306.593 405.391 306.593 405.186C306.593 404.981 306.663 404.813 306.803 404.682C306.943 404.542 307.111 404.472 307.307 404.472C307.503 404.472 307.671 404.542 307.811 404.682C307.951 404.813 308.021 404.981 308.021 405.186C308.021 405.391 307.951 405.564 307.811 405.704C307.671 405.844 307.503 405.914 307.307 405.914ZM307.797 407.356V415H306.817V407.356H307.797ZM309.568 411.164C309.568 410.38 309.727 409.694 310.044 409.106C310.362 408.509 310.796 408.051 311.346 407.734C311.906 407.407 312.536 407.244 313.236 407.244C313.908 407.244 314.515 407.407 315.056 407.734C315.598 408.061 315.994 408.485 316.246 409.008V404.64H317.226V415H316.246V413.292C316.013 413.824 315.63 414.263 315.098 414.608C314.566 414.944 313.941 415.112 313.222 415.112C312.522 415.112 311.892 414.949 311.332 414.622C310.782 414.295 310.348 413.833 310.03 413.236C309.722 412.639 309.568 411.948 309.568 411.164ZM316.246 411.178C316.246 410.562 316.12 410.021 315.868 409.554C315.616 409.087 315.271 408.728 314.832 408.476C314.403 408.224 313.927 408.098 313.404 408.098C312.863 408.098 312.378 408.219 311.948 408.462C311.519 408.705 311.178 409.059 310.926 409.526C310.684 409.983 310.562 410.529 310.562 411.164C310.562 411.789 310.684 412.34 310.926 412.816C311.178 413.283 311.519 413.642 311.948 413.894C312.378 414.137 312.863 414.258 313.404 414.258C313.927 414.258 314.403 414.132 314.832 413.88C315.271 413.628 315.616 413.269 315.868 412.802C316.12 412.335 316.246 411.794 316.246 411.178ZM326.38 410.786C326.38 411.122 326.37 411.379 326.352 411.556H320.01C320.038 412.135 320.178 412.629 320.43 413.04C320.682 413.451 321.013 413.763 321.424 413.978C321.834 414.183 322.282 414.286 322.768 414.286C323.402 414.286 323.934 414.132 324.364 413.824C324.802 413.516 325.092 413.101 325.232 412.578H326.268C326.081 413.325 325.68 413.936 325.064 414.412C324.457 414.879 323.692 415.112 322.768 415.112C322.049 415.112 321.405 414.953 320.836 414.636C320.266 414.309 319.818 413.852 319.492 413.264C319.174 412.667 319.016 411.971 319.016 411.178C319.016 410.385 319.174 409.689 319.492 409.092C319.809 408.495 320.252 408.037 320.822 407.72C321.391 407.403 322.04 407.244 322.768 407.244C323.496 407.244 324.13 407.403 324.672 407.72C325.222 408.037 325.642 408.467 325.932 409.008C326.23 409.54 326.38 410.133 326.38 410.786ZM325.386 410.758C325.395 410.189 325.278 409.703 325.036 409.302C324.802 408.901 324.48 408.597 324.07 408.392C323.659 408.187 323.211 408.084 322.726 408.084C321.998 408.084 321.377 408.317 320.864 408.784C320.35 409.251 320.066 409.909 320.01 410.758H325.386ZM327.725 411.164C327.725 410.38 327.879 409.694 328.187 409.106C328.504 408.509 328.938 408.051 329.489 407.734C330.049 407.407 330.679 407.244 331.379 407.244C332.107 407.244 332.732 407.412 333.255 407.748C333.787 408.084 334.169 408.513 334.403 409.036V407.356H335.383V415H334.403V413.306C334.16 413.829 333.773 414.263 333.241 414.608C332.718 414.944 332.093 415.112 331.365 415.112C330.674 415.112 330.049 414.949 329.489 414.622C328.938 414.295 328.504 413.833 328.187 413.236C327.879 412.639 327.725 411.948 327.725 411.164ZM334.403 411.178C334.403 410.562 334.277 410.021 334.025 409.554C333.773 409.087 333.427 408.728 332.989 408.476C332.559 408.224 332.083 408.098 331.561 408.098C331.019 408.098 330.534 408.219 330.105 408.462C329.675 408.705 329.335 409.059 329.083 409.526C328.84 409.983 328.719 410.529 328.719 411.164C328.719 411.789 328.84 412.34 329.083 412.816C329.335 413.283 329.675 413.642 330.105 413.894C330.534 414.137 331.019 414.258 331.561 414.258C332.083 414.258 332.559 414.132 332.989 413.88C333.427 413.628 333.773 413.269 334.025 412.802C334.277 412.335 334.403 411.794 334.403 411.178ZM338.6 404.64V415H337.62V404.64H338.6ZM345.935 408.182V412.928C345.935 413.395 346.024 413.717 346.201 413.894C346.378 414.071 346.691 414.16 347.139 414.16H348.035V415H346.985C346.294 415 345.781 414.841 345.445 414.524C345.109 414.197 344.941 413.665 344.941 412.928V408.182H343.877V407.356H344.941V405.438H345.935V407.356H348.035V408.182H345.935ZM356.567 410.786C356.567 411.122 356.558 411.379 356.539 411.556H350.197C350.225 412.135 350.365 412.629 350.617 413.04C350.869 413.451 351.201 413.763 351.611 413.978C352.022 414.183 352.47 414.286 352.955 414.286C353.59 414.286 354.122 414.132 354.551 413.824C354.99 413.516 355.279 413.101 355.419 412.578H356.455C356.269 413.325 355.867 413.936 355.251 414.412C354.645 414.879 353.879 415.112 352.955 415.112C352.237 415.112 351.593 414.953 351.023 414.636C350.454 414.309 350.006 413.852 349.679 413.264C349.362 412.667 349.203 411.971 349.203 411.178C349.203 410.385 349.362 409.689 349.679 409.092C349.997 408.495 350.44 408.037 351.009 407.72C351.579 407.403 352.227 407.244 352.955 407.244C353.683 407.244 354.318 407.403 354.859 407.72C355.41 408.037 355.83 408.467 356.119 409.008C356.418 409.54 356.567 410.133 356.567 410.786ZM355.573 410.758C355.583 410.189 355.466 409.703 355.223 409.302C354.99 408.901 354.668 408.597 354.257 408.392C353.847 408.187 353.399 408.084 352.913 408.084C352.185 408.084 351.565 408.317 351.051 408.784C350.538 409.251 350.253 409.909 350.197 410.758H355.573ZM357.912 411.164C357.912 410.38 358.066 409.694 358.374 409.106C358.692 408.509 359.126 408.051 359.676 407.734C360.236 407.407 360.866 407.244 361.566 407.244C362.294 407.244 362.92 407.412 363.442 407.748C363.974 408.084 364.357 408.513 364.59 409.036V407.356H365.57V415H364.59V413.306C364.348 413.829 363.96 414.263 363.428 414.608C362.906 414.944 362.28 415.112 361.552 415.112C360.862 415.112 360.236 414.949 359.676 414.622C359.126 414.295 358.692 413.833 358.374 413.236C358.066 412.639 357.912 411.948 357.912 411.164ZM364.59 411.178C364.59 410.562 364.464 410.021 364.212 409.554C363.96 409.087 363.615 408.728 363.176 408.476C362.747 408.224 362.271 408.098 361.748 408.098C361.207 408.098 360.722 408.219 360.292 408.462C359.863 408.705 359.522 409.059 359.27 409.526C359.028 409.983 358.906 410.529 358.906 411.164C358.906 411.789 359.028 412.34 359.27 412.816C359.522 413.283 359.863 413.642 360.292 413.894C360.722 414.137 361.207 414.258 361.748 414.258C362.271 414.258 362.747 414.132 363.176 413.88C363.615 413.628 363.96 413.269 364.212 412.802C364.464 412.335 364.59 411.794 364.59 411.178ZM367.36 411.178C367.36 410.385 367.518 409.694 367.836 409.106C368.153 408.509 368.592 408.051 369.152 407.734C369.712 407.407 370.351 407.244 371.07 407.244C372.012 407.244 372.787 407.477 373.394 407.944C374.01 408.411 374.406 409.045 374.584 409.848H373.534C373.403 409.297 373.118 408.868 372.68 408.56C372.25 408.243 371.714 408.084 371.07 408.084C370.556 408.084 370.094 408.201 369.684 408.434C369.273 408.667 368.946 409.017 368.704 409.484C368.47 409.941 368.354 410.506 368.354 411.178C368.354 411.85 368.47 412.419 368.704 412.886C368.946 413.353 369.273 413.703 369.684 413.936C370.094 414.169 370.556 414.286 371.07 414.286C371.714 414.286 372.25 414.132 372.68 413.824C373.118 413.507 373.403 413.068 373.534 412.508H374.584C374.406 413.292 374.01 413.922 373.394 414.398C372.778 414.874 372.003 415.112 371.07 415.112C370.351 415.112 369.712 414.953 369.152 414.636C368.592 414.309 368.153 413.852 367.836 413.264C367.518 412.667 367.36 411.971 367.36 411.178ZM380.033 407.216C380.612 407.216 381.13 407.337 381.587 407.58C382.054 407.823 382.418 408.196 382.679 408.7C382.95 409.195 383.085 409.801 383.085 410.52V415H382.119V410.632C382.119 409.801 381.909 409.167 381.489 408.728C381.079 408.289 380.514 408.07 379.795 408.07C379.058 408.07 378.47 408.303 378.031 408.77C377.593 409.237 377.373 409.923 377.373 410.828V415H376.393V404.64H377.373V408.658C377.616 408.201 377.971 407.846 378.437 407.594C378.913 407.342 379.445 407.216 380.033 407.216ZM392.169 410.786C392.169 411.122 392.159 411.379 392.141 411.556H385.799C385.827 412.135 385.967 412.629 386.219 413.04C386.471 413.451 386.802 413.763 387.213 413.978C387.623 414.183 388.071 414.286 388.557 414.286C389.191 414.286 389.723 414.132 390.153 413.824C390.591 413.516 390.881 413.101 391.021 412.578H392.057C391.87 413.325 391.469 413.936 390.853 414.412C390.246 414.879 389.481 415.112 388.557 415.112C387.838 415.112 387.194 414.953 386.625 414.636C386.055 414.309 385.607 413.852 385.281 413.264C384.963 412.667 384.805 411.971 384.805 411.178C384.805 410.385 384.963 409.689 385.281 409.092C385.598 408.495 386.041 408.037 386.611 407.72C387.18 407.403 387.829 407.244 388.557 407.244C389.285 407.244 389.919 407.403 390.461 407.72C391.011 408.037 391.431 408.467 391.721 409.008C392.019 409.54 392.169 410.133 392.169 410.786ZM391.175 410.758C391.184 410.189 391.067 409.703 390.825 409.302C390.591 408.901 390.269 408.597 389.859 408.392C389.448 408.187 389 408.084 388.515 408.084C387.787 408.084 387.166 408.317 386.653 408.784C386.139 409.251 385.855 409.909 385.799 410.758H391.175ZM394.942 408.714C395.156 408.238 395.483 407.869 395.922 407.608C396.37 407.347 396.916 407.216 397.56 407.216V408.238H397.294C396.584 408.238 396.015 408.429 395.586 408.812C395.156 409.195 394.942 409.834 394.942 410.73V415H393.962V407.356H394.942V408.714ZM405.886 408.182H404.108V415H403.128V408.182H402.064V407.356H403.128V406.824C403.128 405.993 403.338 405.382 403.758 404.99C404.187 404.598 404.878 404.402 405.83 404.402V405.242C405.195 405.242 404.747 405.363 404.486 405.606C404.234 405.849 404.108 406.255 404.108 406.824V407.356H405.886V408.182ZM408.409 408.714C408.623 408.238 408.95 407.869 409.389 407.608C409.837 407.347 410.383 407.216 411.027 407.216V408.238H410.761C410.051 408.238 409.482 408.429 409.053 408.812C408.623 409.195 408.409 409.834 408.409 410.73V415H407.429V407.356H408.409V408.714ZM415.847 415.112C415.128 415.112 414.48 414.953 413.901 414.636C413.332 414.309 412.879 413.852 412.543 413.264C412.216 412.667 412.053 411.971 412.053 411.178C412.053 410.385 412.221 409.694 412.557 409.106C412.893 408.509 413.35 408.051 413.929 407.734C414.508 407.407 415.156 407.244 415.875 407.244C416.594 407.244 417.242 407.407 417.821 407.734C418.409 408.051 418.866 408.509 419.193 409.106C419.529 409.694 419.697 410.385 419.697 411.178C419.697 411.962 419.529 412.653 419.193 413.25C418.857 413.847 418.395 414.309 417.807 414.636C417.219 414.953 416.566 415.112 415.847 415.112ZM415.847 414.258C416.351 414.258 416.818 414.146 417.247 413.922C417.676 413.689 418.022 413.343 418.283 412.886C418.554 412.419 418.689 411.85 418.689 411.178C418.689 410.506 418.558 409.941 418.297 409.484C418.036 409.017 417.69 408.672 417.261 408.448C416.832 408.215 416.365 408.098 415.861 408.098C415.357 408.098 414.89 408.215 414.461 408.448C414.032 408.672 413.686 409.017 413.425 409.484C413.173 409.941 413.047 410.506 413.047 411.178C413.047 411.85 413.173 412.419 413.425 412.886C413.686 413.343 414.027 413.689 414.447 413.922C414.876 414.146 415.343 414.258 415.847 414.258ZM430.583 407.216C431.479 407.216 432.207 407.501 432.767 408.07C433.337 408.63 433.621 409.447 433.621 410.52V415H432.655V410.632C432.655 409.801 432.455 409.167 432.053 408.728C431.652 408.289 431.106 408.07 430.415 408.07C429.697 408.07 429.123 408.308 428.693 408.784C428.264 409.26 428.049 409.951 428.049 410.856V415H427.083V410.632C427.083 409.801 426.883 409.167 426.481 408.728C426.08 408.289 425.529 408.07 424.829 408.07C424.111 408.07 423.537 408.308 423.107 408.784C422.678 409.26 422.463 409.951 422.463 410.856V415H421.483V407.356H422.463V408.672C422.706 408.196 423.051 407.837 423.499 407.594C423.947 407.342 424.447 407.216 424.997 407.216C425.66 407.216 426.239 407.375 426.733 407.692C427.237 408.009 427.601 408.476 427.825 409.092C428.031 408.485 428.381 408.023 428.875 407.706C429.379 407.379 429.949 407.216 430.583 407.216ZM442.986 415.112C442.267 415.112 441.618 414.953 441.04 414.636C440.47 414.309 440.018 413.852 439.682 413.264C439.355 412.667 439.192 411.971 439.192 411.178C439.192 410.385 439.36 409.694 439.696 409.106C440.032 408.509 440.489 408.051 441.068 407.734C441.646 407.407 442.295 407.244 443.014 407.244C443.732 407.244 444.381 407.407 444.96 407.734C445.548 408.051 446.005 408.509 446.332 409.106C446.668 409.694 446.836 410.385 446.836 411.178C446.836 411.962 446.668 412.653 446.332 413.25C445.996 413.847 445.534 414.309 444.946 414.636C444.358 414.953 443.704 415.112 442.986 415.112ZM442.986 414.258C443.49 414.258 443.956 414.146 444.386 413.922C444.815 413.689 445.16 413.343 445.422 412.886C445.692 412.419 445.828 411.85 445.828 411.178C445.828 410.506 445.697 409.941 445.436 409.484C445.174 409.017 444.829 408.672 444.4 408.448C443.97 408.215 443.504 408.098 443 408.098C442.496 408.098 442.029 408.215 441.6 408.448C441.17 408.672 440.825 409.017 440.564 409.484C440.312 409.941 440.186 410.506 440.186 411.178C440.186 411.85 440.312 412.419 440.564 412.886C440.825 413.343 441.166 413.689 441.586 413.922C442.015 414.146 442.482 414.258 442.986 414.258ZM451.338 414.048L453.914 407.356H454.95L451.884 415H450.778L447.712 407.356H448.762L451.338 414.048ZM463.194 410.786C463.194 411.122 463.185 411.379 463.166 411.556H456.824C456.852 412.135 456.992 412.629 457.244 413.04C457.496 413.451 457.828 413.763 458.238 413.978C458.649 414.183 459.097 414.286 459.582 414.286C460.217 414.286 460.749 414.132 461.178 413.824C461.617 413.516 461.906 413.101 462.046 412.578H463.082C462.896 413.325 462.494 413.936 461.878 414.412C461.272 414.879 460.506 415.112 459.582 415.112C458.864 415.112 458.22 414.953 457.65 414.636C457.081 414.309 456.633 413.852 456.306 413.264C455.989 412.667 455.83 411.971 455.83 411.178C455.83 410.385 455.989 409.689 456.306 409.092C456.624 408.495 457.067 408.037 457.636 407.72C458.206 407.403 458.854 407.244 459.582 407.244C460.31 407.244 460.945 407.403 461.486 407.72C462.037 408.037 462.457 408.467 462.746 409.008C463.045 409.54 463.194 410.133 463.194 410.786ZM462.2 410.758C462.21 410.189 462.093 409.703 461.85 409.302C461.617 408.901 461.295 408.597 460.884 408.392C460.474 408.187 460.026 408.084 459.54 408.084C458.812 408.084 458.192 408.317 457.678 408.784C457.165 409.251 456.88 409.909 456.824 410.758H462.2ZM465.967 408.714C466.182 408.238 466.509 407.869 466.947 407.608C467.395 407.347 467.941 407.216 468.585 407.216V408.238H468.319C467.61 408.238 467.041 408.429 466.611 408.812C466.182 409.195 465.967 409.834 465.967 410.73V415H464.987V407.356H465.967V408.714ZM473.215 405.844V404.962H475.595V415H474.601V405.844H473.215ZM477.779 409.89C477.779 408.285 478.026 407.039 478.521 406.152C479.016 405.265 479.902 404.822 481.181 404.822C482.46 404.822 483.346 405.265 483.841 406.152C484.336 407.039 484.583 408.285 484.583 409.89C484.583 411.523 484.336 412.788 483.841 413.684C483.346 414.58 482.46 415.028 481.181 415.028C479.893 415.028 479.002 414.58 478.507 413.684C478.022 412.788 477.779 411.523 477.779 409.89ZM483.617 409.89C483.617 409.022 483.556 408.289 483.435 407.692C483.314 407.095 483.076 406.614 482.721 406.25C482.366 405.886 481.853 405.704 481.181 405.704C480.509 405.704 479.996 405.886 479.641 406.25C479.286 406.614 479.048 407.095 478.927 407.692C478.806 408.289 478.745 409.022 478.745 409.89C478.745 410.786 478.806 411.537 478.927 412.144C479.048 412.741 479.286 413.222 479.641 413.586C479.996 413.95 480.509 414.132 481.181 414.132C481.853 414.132 482.366 413.95 482.721 413.586C483.076 413.222 483.314 412.741 483.435 412.144C483.556 411.537 483.617 410.786 483.617 409.89ZM487.512 413.376L486.056 417.044H485.384L486.42 413.376H487.512ZM488.826 409.89C488.826 408.285 489.073 407.039 489.568 406.152C490.063 405.265 490.949 404.822 492.228 404.822C493.507 404.822 494.393 405.265 494.888 406.152C495.383 407.039 495.63 408.285 495.63 409.89C495.63 411.523 495.383 412.788 494.888 413.684C494.393 414.58 493.507 415.028 492.228 415.028C490.94 415.028 490.049 414.58 489.554 413.684C489.069 412.788 488.826 411.523 488.826 409.89ZM494.664 409.89C494.664 409.022 494.603 408.289 494.482 407.692C494.361 407.095 494.123 406.614 493.768 406.25C493.413 405.886 492.9 405.704 492.228 405.704C491.556 405.704 491.043 405.886 490.688 406.25C490.333 406.614 490.095 407.095 489.974 407.692C489.853 408.289 489.792 409.022 489.792 409.89C489.792 410.786 489.853 411.537 489.974 412.144C490.095 412.741 490.333 413.222 490.688 413.586C491.043 413.95 491.556 414.132 492.228 414.132C492.9 414.132 493.413 413.95 493.768 413.586C494.123 413.222 494.361 412.741 494.482 412.144C494.603 411.537 494.664 410.786 494.664 409.89ZM497.453 409.89C497.453 408.285 497.7 407.039 498.195 406.152C498.69 405.265 499.576 404.822 500.855 404.822C502.134 404.822 503.02 405.265 503.515 406.152C504.01 407.039 504.257 408.285 504.257 409.89C504.257 411.523 504.01 412.788 503.515 413.684C503.02 414.58 502.134 415.028 500.855 415.028C499.567 415.028 498.676 414.58 498.181 413.684C497.696 412.788 497.453 411.523 497.453 409.89ZM503.291 409.89C503.291 409.022 503.23 408.289 503.109 407.692C502.988 407.095 502.75 406.614 502.395 406.25C502.04 405.886 501.527 405.704 500.855 405.704C500.183 405.704 499.67 405.886 499.315 406.25C498.96 406.614 498.722 407.095 498.601 407.692C498.48 408.289 498.419 409.022 498.419 409.89C498.419 410.786 498.48 411.537 498.601 412.144C498.722 412.741 498.96 413.222 499.315 413.586C499.67 413.95 500.183 414.132 500.855 414.132C501.527 414.132 502.04 413.95 502.395 413.586C502.75 413.222 502.988 412.741 503.109 412.144C503.23 411.537 503.291 410.786 503.291 409.89ZM506.08 409.89C506.08 408.285 506.327 407.039 506.822 406.152C507.317 405.265 508.203 404.822 509.482 404.822C510.761 404.822 511.647 405.265 512.142 406.152C512.637 407.039 512.884 408.285 512.884 409.89C512.884 411.523 512.637 412.788 512.142 413.684C511.647 414.58 510.761 415.028 509.482 415.028C508.194 415.028 507.303 414.58 506.808 413.684C506.323 412.788 506.08 411.523 506.08 409.89ZM511.918 409.89C511.918 409.022 511.857 408.289 511.736 407.692C511.615 407.095 511.377 406.614 511.022 406.25C510.667 405.886 510.154 405.704 509.482 405.704C508.81 405.704 508.297 405.886 507.942 406.25C507.587 406.614 507.349 407.095 507.228 407.692C507.107 408.289 507.046 409.022 507.046 409.89C507.046 410.786 507.107 411.537 507.228 412.144C507.349 412.741 507.587 413.222 507.942 413.586C508.297 413.95 508.81 414.132 509.482 414.132C510.154 414.132 510.667 413.95 511.022 413.586C511.377 413.222 511.615 412.741 511.736 412.144C511.857 411.537 511.918 410.786 511.918 409.89ZM518.311 411.164C518.311 410.38 518.469 409.694 518.787 409.106C519.104 408.509 519.538 408.051 520.089 407.734C520.649 407.407 521.279 407.244 521.979 407.244C522.697 407.244 523.323 407.417 523.855 407.762C524.387 408.098 524.765 408.523 524.989 409.036V407.356H525.969V418.612H524.989V413.32C524.765 413.833 524.382 414.263 523.841 414.608C523.309 414.944 522.679 415.112 521.951 415.112C521.26 415.112 520.635 414.949 520.075 414.622C519.524 414.295 519.09 413.833 518.773 413.236C518.465 412.639 518.311 411.948 518.311 411.164ZM524.989 411.178C524.989 410.562 524.863 410.021 524.611 409.554C524.359 409.087 524.013 408.728 523.575 408.476C523.145 408.224 522.669 408.098 522.147 408.098C521.605 408.098 521.12 408.219 520.691 408.462C520.261 408.705 519.921 409.059 519.669 409.526C519.426 409.983 519.305 410.529 519.305 411.164C519.305 411.789 519.426 412.34 519.669 412.816C519.921 413.283 520.261 413.642 520.691 413.894C521.12 414.137 521.605 414.258 522.147 414.258C522.669 414.258 523.145 414.132 523.575 413.88C524.013 413.628 524.359 413.269 524.611 412.802C524.863 412.335 524.989 411.794 524.989 411.178ZM534.828 407.356V415H533.848V413.656C533.624 414.132 533.279 414.496 532.812 414.748C532.345 415 531.823 415.126 531.244 415.126C530.329 415.126 529.583 414.846 529.004 414.286C528.425 413.717 528.136 412.895 528.136 411.822V407.356H529.102V411.71C529.102 412.541 529.307 413.175 529.718 413.614C530.138 414.053 530.707 414.272 531.426 414.272C532.163 414.272 532.751 414.039 533.19 413.572C533.629 413.105 533.848 412.419 533.848 411.514V407.356H534.828ZM536.617 411.164C536.617 410.38 536.771 409.694 537.079 409.106C537.397 408.509 537.831 408.051 538.381 407.734C538.941 407.407 539.571 407.244 540.271 407.244C540.999 407.244 541.625 407.412 542.147 407.748C542.679 408.084 543.062 408.513 543.295 409.036V407.356H544.275V415H543.295V413.306C543.053 413.829 542.665 414.263 542.133 414.608C541.611 414.944 540.985 415.112 540.257 415.112C539.567 415.112 538.941 414.949 538.381 414.622C537.831 414.295 537.397 413.833 537.079 413.236C536.771 412.639 536.617 411.948 536.617 411.164ZM543.295 411.178C543.295 410.562 543.169 410.021 542.917 409.554C542.665 409.087 542.32 408.728 541.881 408.476C541.452 408.224 540.976 408.098 540.453 408.098C539.912 408.098 539.427 408.219 538.997 408.462C538.568 408.705 538.227 409.059 537.975 409.526C537.733 409.983 537.611 410.529 537.611 411.164C537.611 411.789 537.733 412.34 537.975 412.816C538.227 413.283 538.568 413.642 538.997 413.894C539.427 414.137 539.912 414.258 540.453 414.258C540.976 414.258 541.452 414.132 541.881 413.88C542.32 413.628 542.665 413.269 542.917 412.802C543.169 412.335 543.295 411.794 543.295 411.178ZM547.493 404.64V415H546.513V404.64H547.493ZM550.202 405.914C550.006 405.914 549.838 405.844 549.698 405.704C549.558 405.564 549.488 405.391 549.488 405.186C549.488 404.981 549.558 404.813 549.698 404.682C549.838 404.542 550.006 404.472 550.202 404.472C550.398 404.472 550.566 404.542 550.706 404.682C550.846 404.813 550.916 404.981 550.916 405.186C550.916 405.391 550.846 405.564 550.706 405.704C550.566 405.844 550.398 405.914 550.202 405.914ZM550.692 407.356V415H549.712V407.356H550.692ZM555.921 408.182H554.143V415H553.163V408.182H552.099V407.356H553.163V406.824C553.163 405.993 553.373 405.382 553.793 404.99C554.222 404.598 554.913 404.402 555.865 404.402V405.242C555.23 405.242 554.782 405.363 554.521 405.606C554.269 405.849 554.143 406.255 554.143 406.824V407.356H555.921V408.182ZM557.954 405.914C557.758 405.914 557.59 405.844 557.45 405.704C557.31 405.564 557.24 405.391 557.24 405.186C557.24 404.981 557.31 404.813 557.45 404.682C557.59 404.542 557.758 404.472 557.954 404.472C558.15 404.472 558.318 404.542 558.458 404.682C558.598 404.813 558.668 404.981 558.668 405.186C558.668 405.391 558.598 405.564 558.458 405.704C558.318 405.844 558.15 405.914 557.954 405.914ZM558.444 407.356V415H557.464V407.356H558.444ZM567.579 410.786C567.579 411.122 567.57 411.379 567.551 411.556H561.209C561.237 412.135 561.377 412.629 561.629 413.04C561.881 413.451 562.212 413.763 562.623 413.978C563.034 414.183 563.482 414.286 563.967 414.286C564.602 414.286 565.134 414.132 565.563 413.824C566.002 413.516 566.291 413.101 566.431 412.578H567.467C567.28 413.325 566.879 413.936 566.263 414.412C565.656 414.879 564.891 415.112 563.967 415.112C563.248 415.112 562.604 414.953 562.035 414.636C561.466 414.309 561.018 413.852 560.691 413.264C560.374 412.667 560.215 411.971 560.215 411.178C560.215 410.385 560.374 409.689 560.691 409.092C561.008 408.495 561.452 408.037 562.021 407.72C562.59 407.403 563.239 407.244 563.967 407.244C564.695 407.244 565.33 407.403 565.871 407.72C566.422 408.037 566.842 408.467 567.131 409.008C567.43 409.54 567.579 410.133 567.579 410.786ZM566.585 410.758C566.594 410.189 566.478 409.703 566.235 409.302C566.002 408.901 565.68 408.597 565.269 408.392C564.858 408.187 564.41 408.084 563.925 408.084C563.197 408.084 562.576 408.317 562.063 408.784C561.55 409.251 561.265 409.909 561.209 410.758H566.585ZM568.924 411.164C568.924 410.38 569.083 409.694 569.4 409.106C569.717 408.509 570.151 408.051 570.702 407.734C571.262 407.407 571.892 407.244 572.592 407.244C573.264 407.244 573.871 407.407 574.412 407.734C574.953 408.061 575.35 408.485 575.602 409.008V404.64H576.582V415H575.602V413.292C575.369 413.824 574.986 414.263 574.454 414.608C573.922 414.944 573.297 415.112 572.578 415.112C571.878 415.112 571.248 414.949 570.688 414.622C570.137 414.295 569.703 413.833 569.386 413.236C569.078 412.639 568.924 411.948 568.924 411.164ZM575.602 411.178C575.602 410.562 575.476 410.021 575.224 409.554C574.972 409.087 574.627 408.728 574.188 408.476C573.759 408.224 573.283 408.098 572.76 408.098C572.219 408.098 571.733 408.219 571.304 408.462C570.875 408.705 570.534 409.059 570.282 409.526C570.039 409.983 569.918 410.529 569.918 411.164C569.918 411.789 570.039 412.34 570.282 412.816C570.534 413.283 570.875 413.642 571.304 413.894C571.733 414.137 572.219 414.258 572.76 414.258C573.283 414.258 573.759 414.132 574.188 413.88C574.627 413.628 574.972 413.269 575.224 412.802C575.476 412.335 575.602 411.794 575.602 411.178ZM583.641 404.64V415H582.661V404.64H583.641ZM585.412 411.164C585.412 410.38 585.566 409.694 585.874 409.106C586.192 408.509 586.626 408.051 587.176 407.734C587.736 407.407 588.366 407.244 589.066 407.244C589.794 407.244 590.42 407.412 590.942 407.748C591.474 408.084 591.857 408.513 592.09 409.036V407.356H593.07V415H592.09V413.306C591.848 413.829 591.46 414.263 590.928 414.608C590.406 414.944 589.78 415.112 589.052 415.112C588.362 415.112 587.736 414.949 587.176 414.622C586.626 414.295 586.192 413.833 585.874 413.236C585.566 412.639 585.412 411.948 585.412 411.164ZM592.09 411.178C592.09 410.562 591.964 410.021 591.712 409.554C591.46 409.087 591.115 408.728 590.676 408.476C590.247 408.224 589.771 408.098 589.248 408.098C588.707 408.098 588.222 408.219 587.792 408.462C587.363 408.705 587.022 409.059 586.77 409.526C586.528 409.983 586.406 410.529 586.406 411.164C586.406 411.789 586.528 412.34 586.77 412.816C587.022 413.283 587.363 413.642 587.792 413.894C588.222 414.137 588.707 414.258 589.248 414.258C589.771 414.258 590.247 414.132 590.676 413.88C591.115 413.628 591.46 413.269 591.712 412.802C591.964 412.335 592.09 411.794 592.09 411.178ZM598.892 407.216C599.806 407.216 600.553 407.501 601.132 408.07C601.71 408.63 602 409.447 602 410.52V415H601.034V410.632C601.034 409.801 600.824 409.167 600.404 408.728C599.993 408.289 599.428 408.07 598.71 408.07C597.972 408.07 597.384 408.303 596.946 408.77C596.507 409.237 596.288 409.923 596.288 410.828V415H595.308V407.356H596.288V408.658C596.53 408.191 596.88 407.837 597.338 407.594C597.795 407.342 598.313 407.216 598.892 407.216ZM607.373 407.244C608.092 407.244 608.717 407.412 609.249 407.748C609.781 408.084 610.164 408.509 610.397 409.022V407.356H611.377V415.196C611.377 415.896 611.223 416.517 610.915 417.058C610.616 417.599 610.196 418.015 609.655 418.304C609.114 418.603 608.498 418.752 607.807 418.752C606.827 418.752 606.01 418.519 605.357 418.052C604.713 417.585 604.312 416.951 604.153 416.148H605.119C605.287 416.68 605.604 417.105 606.071 417.422C606.547 417.739 607.126 417.898 607.807 417.898C608.302 417.898 608.745 417.791 609.137 417.576C609.529 417.371 609.837 417.063 610.061 416.652C610.285 416.241 610.397 415.756 610.397 415.196V413.306C610.154 413.829 609.767 414.263 609.235 414.608C608.712 414.944 608.092 415.112 607.373 415.112C606.673 415.112 606.043 414.949 605.483 414.622C604.932 414.295 604.498 413.833 604.181 413.236C603.873 412.639 603.719 411.948 603.719 411.164C603.719 410.38 603.873 409.694 604.181 409.106C604.498 408.509 604.932 408.051 605.483 407.734C606.043 407.407 606.673 407.244 607.373 407.244ZM610.397 411.178C610.397 410.562 610.271 410.021 610.019 409.554C609.767 409.087 609.422 408.728 608.983 408.476C608.554 408.224 608.078 408.098 607.555 408.098C607.014 408.098 606.528 408.219 606.099 408.462C605.67 408.705 605.329 409.059 605.077 409.526C604.834 409.983 604.713 410.529 604.713 411.164C604.713 411.789 604.834 412.34 605.077 412.816C605.329 413.283 605.67 413.642 606.099 413.894C606.528 414.137 607.014 414.258 607.555 414.258C608.078 414.258 608.554 414.132 608.983 413.88C609.422 413.628 609.767 413.269 610.019 412.802C610.271 412.335 610.397 411.794 610.397 411.178ZM620.236 407.356V415H619.256V413.656C619.032 414.132 618.687 414.496 618.22 414.748C617.753 415 617.231 415.126 616.652 415.126C615.737 415.126 614.991 414.846 614.412 414.286C613.833 413.717 613.544 412.895 613.544 411.822V407.356H614.51V411.71C614.51 412.541 614.715 413.175 615.126 413.614C615.546 414.053 616.115 414.272 616.834 414.272C617.571 414.272 618.159 414.039 618.598 413.572C619.037 413.105 619.256 412.419 619.256 411.514V407.356H620.236ZM622.026 411.164C622.026 410.38 622.18 409.694 622.488 409.106C622.805 408.509 623.239 408.051 623.79 407.734C624.35 407.407 624.98 407.244 625.68 407.244C626.408 407.244 627.033 407.412 627.556 407.748C628.088 408.084 628.47 408.513 628.704 409.036V407.356H629.684V415H628.704V413.306C628.461 413.829 628.074 414.263 627.542 414.608C627.019 414.944 626.394 415.112 625.666 415.112C624.975 415.112 624.35 414.949 623.79 414.622C623.239 414.295 622.805 413.833 622.488 413.236C622.18 412.639 622.026 411.948 622.026 411.164ZM628.704 411.178C628.704 410.562 628.578 410.021 628.326 409.554C628.074 409.087 627.728 408.728 627.29 408.476C626.86 408.224 626.384 408.098 625.862 408.098C625.32 408.098 624.835 408.219 624.406 408.462C623.976 408.705 623.636 409.059 623.384 409.526C623.141 409.983 623.02 410.529 623.02 411.164C623.02 411.789 623.141 412.34 623.384 412.816C623.636 413.283 623.976 413.642 624.406 413.894C624.835 414.137 625.32 414.258 625.862 414.258C626.384 414.258 626.86 414.132 627.29 413.88C627.728 413.628 628.074 413.269 628.326 412.802C628.578 412.335 628.704 411.794 628.704 411.178ZM635.127 407.244C635.845 407.244 636.471 407.412 637.003 407.748C637.535 408.084 637.917 408.509 638.151 409.022V407.356H639.131V415.196C639.131 415.896 638.977 416.517 638.669 417.058C638.37 417.599 637.95 418.015 637.409 418.304C636.867 418.603 636.251 418.752 635.561 418.752C634.581 418.752 633.764 418.519 633.111 418.052C632.467 417.585 632.065 416.951 631.907 416.148H632.873C633.041 416.68 633.358 417.105 633.825 417.422C634.301 417.739 634.879 417.898 635.561 417.898C636.055 417.898 636.499 417.791 636.891 417.576C637.283 417.371 637.591 417.063 637.815 416.652C638.039 416.241 638.151 415.756 638.151 415.196V413.306C637.908 413.829 637.521 414.263 636.989 414.608C636.466 414.944 635.845 415.112 635.127 415.112C634.427 415.112 633.797 414.949 633.237 414.622C632.686 414.295 632.252 413.833 631.935 413.236C631.627 412.639 631.473 411.948 631.473 411.164C631.473 410.38 631.627 409.694 631.935 409.106C632.252 408.509 632.686 408.051 633.237 407.734C633.797 407.407 634.427 407.244 635.127 407.244ZM638.151 411.178C638.151 410.562 638.025 410.021 637.773 409.554C637.521 409.087 637.175 408.728 636.737 408.476C636.307 408.224 635.831 408.098 635.309 408.098C634.767 408.098 634.282 408.219 633.853 408.462C633.423 408.705 633.083 409.059 632.831 409.526C632.588 409.983 632.467 410.529 632.467 411.164C632.467 411.789 632.588 412.34 632.831 412.816C633.083 413.283 633.423 413.642 633.853 413.894C634.282 414.137 634.767 414.258 635.309 414.258C635.831 414.258 636.307 414.132 636.737 413.88C637.175 413.628 637.521 413.269 637.773 412.802C638.025 412.335 638.151 411.794 638.151 411.178ZM648.284 410.786C648.284 411.122 648.275 411.379 648.256 411.556H641.914C641.942 412.135 642.082 412.629 642.334 413.04C642.586 413.451 642.917 413.763 643.328 413.978C643.739 414.183 644.187 414.286 644.672 414.286C645.307 414.286 645.839 414.132 646.268 413.824C646.707 413.516 646.996 413.101 647.136 412.578H648.172C647.985 413.325 647.584 413.936 646.968 414.412C646.361 414.879 645.596 415.112 644.672 415.112C643.953 415.112 643.309 414.953 642.74 414.636C642.171 414.309 641.723 413.852 641.396 413.264C641.079 412.667 640.92 411.971 640.92 411.178C640.92 410.385 641.079 409.689 641.396 409.092C641.713 408.495 642.157 408.037 642.726 407.72C643.295 407.403 643.944 407.244 644.672 407.244C645.4 407.244 646.035 407.403 646.576 407.72C647.127 408.037 647.547 408.467 647.836 409.008C648.135 409.54 648.284 410.133 648.284 410.786ZM647.29 410.758C647.299 410.189 647.183 409.703 646.94 409.302C646.707 408.901 646.385 408.597 645.974 408.392C645.563 408.187 645.115 408.084 644.63 408.084C643.902 408.084 643.281 408.317 642.768 408.784C642.255 409.251 641.97 409.909 641.914 410.758H647.29ZM655.193 408.182V412.928C655.193 413.395 655.281 413.717 655.459 413.894C655.636 414.071 655.949 414.16 656.397 414.16H657.293V415H656.243C655.552 415 655.039 414.841 654.703 414.524C654.367 414.197 654.199 413.665 654.199 412.928V408.182H653.135V407.356H654.199V405.438H655.193V407.356H657.293V408.182H655.193ZM665.531 407.356V415H664.551V413.656C664.327 414.132 663.982 414.496 663.515 414.748C663.048 415 662.526 415.126 661.947 415.126C661.032 415.126 660.286 414.846 659.707 414.286C659.128 413.717 658.839 412.895 658.839 411.822V407.356H659.805V411.71C659.805 412.541 660.01 413.175 660.421 413.614C660.841 414.053 661.41 414.272 662.129 414.272C662.866 414.272 663.454 414.039 663.893 413.572C664.332 413.105 664.551 412.419 664.551 411.514V407.356H665.531ZM669.042 408.182V412.928C669.042 413.395 669.131 413.717 669.308 413.894C669.486 414.071 669.798 414.16 670.246 414.16H671.142V415H670.092C669.402 415 668.888 414.841 668.552 414.524C668.216 414.197 668.048 413.665 668.048 412.928V408.182H666.984V407.356H668.048V405.438H669.042V407.356H671.142V408.182H669.042ZM676.105 415.112C675.386 415.112 674.737 414.953 674.159 414.636C673.589 414.309 673.137 413.852 672.801 413.264C672.474 412.667 672.311 411.971 672.311 411.178C672.311 410.385 672.479 409.694 672.815 409.106C673.151 408.509 673.608 408.051 674.187 407.734C674.765 407.407 675.414 407.244 676.133 407.244C676.851 407.244 677.5 407.407 678.079 407.734C678.667 408.051 679.124 408.509 679.451 409.106C679.787 409.694 679.955 410.385 679.955 411.178C679.955 411.962 679.787 412.653 679.451 413.25C679.115 413.847 678.653 414.309 678.065 414.636C677.477 414.953 676.823 415.112 676.105 415.112ZM676.105 414.258C676.609 414.258 677.075 414.146 677.505 413.922C677.934 413.689 678.279 413.343 678.541 412.886C678.811 412.419 678.947 411.85 678.947 411.178C678.947 410.506 678.816 409.941 678.555 409.484C678.293 409.017 677.948 408.672 677.519 408.448C677.089 408.215 676.623 408.098 676.119 408.098C675.615 408.098 675.148 408.215 674.719 408.448C674.289 408.672 673.944 409.017 673.683 409.484C673.431 409.941 673.305 410.506 673.305 411.178C673.305 411.85 673.431 412.419 673.683 412.886C673.944 413.343 674.285 413.689 674.705 413.922C675.134 414.146 675.601 414.258 676.105 414.258ZM682.721 408.714C682.936 408.238 683.262 407.869 683.701 407.608C684.149 407.347 684.695 407.216 685.339 407.216V408.238H685.073C684.364 408.238 683.794 408.429 683.365 408.812C682.936 409.195 682.721 409.834 682.721 410.73V415H681.741V407.356H682.721V408.714ZM689.445 415.112C688.568 415.112 687.849 414.911 687.289 414.51C686.739 414.099 686.431 413.544 686.365 412.844H687.373C687.42 413.273 687.621 413.623 687.975 413.894C688.339 414.155 688.825 414.286 689.431 414.286C689.963 414.286 690.379 414.16 690.677 413.908C690.985 413.656 691.139 413.343 691.139 412.97C691.139 412.709 691.055 412.494 690.887 412.326C690.719 412.158 690.505 412.027 690.243 411.934C689.991 411.831 689.646 411.724 689.207 411.612C688.638 411.463 688.176 411.313 687.821 411.164C687.467 411.015 687.163 410.795 686.911 410.506C686.669 410.207 686.547 409.811 686.547 409.316C686.547 408.943 686.659 408.597 686.883 408.28C687.107 407.963 687.425 407.711 687.835 407.524C688.246 407.337 688.713 407.244 689.235 407.244C690.057 407.244 690.719 407.454 691.223 407.874C691.727 408.285 691.998 408.854 692.035 409.582H691.055C691.027 409.134 690.85 408.775 690.523 408.504C690.206 408.224 689.767 408.084 689.207 408.084C688.713 408.084 688.311 408.201 688.003 408.434C687.695 408.667 687.541 408.957 687.541 409.302C687.541 409.601 687.63 409.848 687.807 410.044C687.994 410.231 688.223 410.38 688.493 410.492C688.764 410.595 689.128 410.711 689.585 410.842C690.136 410.991 690.575 411.136 690.901 411.276C691.228 411.416 691.508 411.621 691.741 411.892C691.975 412.163 692.096 412.522 692.105 412.97C692.105 413.381 691.993 413.749 691.769 414.076C691.545 414.393 691.233 414.645 690.831 414.832C690.43 415.019 689.968 415.112 689.445 415.112ZM694.118 415.07C693.913 415.07 693.74 415 693.6 414.86C693.469 414.72 693.404 414.547 693.404 414.342C693.404 414.137 693.469 413.969 693.6 413.838C693.74 413.698 693.913 413.628 694.118 413.628C694.314 413.628 694.477 413.698 694.608 413.838C694.748 413.969 694.818 414.137 694.818 414.342C694.818 414.547 694.748 414.72 694.608 414.86C694.477 415 694.314 415.07 694.118 415.07Z" fill="#393939"/>
<defs>
<filter id="filter0_dd_1_778" x="-246" y="0" width="1314" height="800" filterUnits="userSpaceOnUse" color-interpolation-filters="sRGB">
<feFlood flood-opacity="0" result="BackgroundImageFix"/>
<feColorMatrix in="SourceAlpha" type="matrix" values="0 0 0 0 0 0 0 0 0 0 0 0 0 0 0 0 0 0 127 0" result="hardAlpha"/>
<feOffset dy="0.500862"/>
<feGaussianBlur stdDeviation="22.351"/>
<feColorMatrix type="matrix" values="0 0 0 0 1 0 0 0 0 0.572549 0 0 0 0 0.184314 0 0 0 0.075 0"/>
<feBlend mode="normal" in2="BackgroundImageFix" result="effect1_dropShadow_1_778"/>
<feColorMatrix in="SourceAlpha" type="matrix" values="0 0 0 0 0 0 0 0 0 0 0 0 0 0 0 0 0 0 127 0" result="hardAlpha"/>
<feOffset dy="4"/>
<feGaussianBlur stdDeviation="178.5"/>
<feColorMatrix type="matrix" values="0 0 0 0 1 0 0 0 0 0.572549 0 0 0 0 0.184314 0 0 0 0.15 0"/>
<feBlend mode="normal" in2="effect1_dropShadow_1_778" result="effect2_dropShadow_1_778"/>
<feBlend mode="normal" in="SourceGraphic" in2="effect2_dropShadow_1_778" result="shape"/>
</filter>
</defs>
</svg>
