<svg width="437" height="69" viewBox="0 0 437 69" fill="none" xmlns="http://www.w3.org/2000/svg">
<path d="M86.248 11.288C86.248 11.8853 86.104 12.4453 85.816 12.968C85.5387 13.4907 85.096 13.912 84.488 14.232C83.8907 14.552 83.1333 14.712 82.216 14.712H80.344V19H78.104V7.832H82.216C83.08 7.832 83.816 7.98133 84.424 8.28C85.032 8.57867 85.4853 8.98933 85.784 9.512C86.0933 10.0347 86.248 10.6267 86.248 11.288ZM82.12 12.904C82.7387 12.904 83.1973 12.7653 83.496 12.488C83.7947 12.2 83.944 11.8 83.944 11.288C83.944 10.2 83.336 9.656 82.12 9.656H80.344V12.904H82.12ZM90.0784 11.512C90.3664 11.0427 90.7397 10.6747 91.1984 10.408C91.6677 10.1413 92.201 10.008 92.7984 10.008V12.36H92.2064C91.5024 12.36 90.969 12.5253 90.6064 12.856C90.2544 13.1867 90.0784 13.7627 90.0784 14.584V19H87.8384V10.136H90.0784V11.512ZM93.7311 14.536C93.7311 13.64 93.9071 12.8453 94.2591 12.152C94.6218 11.4587 95.1071 10.9253 95.7151 10.552C96.3338 10.1787 97.0218 9.992 97.7791 9.992C98.4405 9.992 99.0165 10.1253 99.5071 10.392C100.008 10.6587 100.408 10.9947 100.707 11.4V10.136H102.963V19H100.707V17.704C100.419 18.12 100.019 18.4667 99.5071 18.744C99.0058 19.0107 98.4245 19.144 97.7631 19.144C97.0165 19.144 96.3338 18.952 95.7151 18.568C95.1071 18.184 94.6218 17.6453 94.2591 16.952C93.9071 16.248 93.7311 15.4427 93.7311 14.536ZM100.707 14.568C100.707 14.024 100.6 13.56 100.387 13.176C100.174 12.7813 99.8858 12.4827 99.5231 12.28C99.1605 12.0667 98.7711 11.96 98.3551 11.96C97.9391 11.96 97.5551 12.0613 97.2031 12.264C96.8511 12.4667 96.5631 12.7653 96.3391 13.16C96.1258 13.544 96.0191 14.0027 96.0191 14.536C96.0191 15.0693 96.1258 15.5387 96.3391 15.944C96.5631 16.3387 96.8511 16.6427 97.2031 16.856C97.5658 17.0693 97.9498 17.176 98.3551 17.176C98.7711 17.176 99.1605 17.0747 99.5231 16.872C99.8858 16.6587 100.174 16.36 100.387 15.976C100.6 15.5813 100.707 15.112 100.707 14.568ZM104.575 14.568C104.575 13.6507 104.762 12.8507 105.135 12.168C105.508 11.4747 106.026 10.9413 106.687 10.568C107.348 10.184 108.106 9.992 108.959 9.992C110.058 9.992 110.964 10.2693 111.679 10.824C112.404 11.368 112.89 12.136 113.135 13.128H110.719C110.591 12.744 110.372 12.4453 110.063 12.232C109.764 12.008 109.391 11.896 108.943 11.896C108.303 11.896 107.796 12.1307 107.423 12.6C107.05 13.0587 106.863 13.7147 106.863 14.568C106.863 15.4107 107.05 16.0667 107.423 16.536C107.796 16.9947 108.303 17.224 108.943 17.224C109.85 17.224 110.442 16.8187 110.719 16.008H113.135C112.89 16.968 112.404 17.7307 111.679 18.296C110.954 18.8613 110.047 19.144 108.959 19.144C108.106 19.144 107.348 18.9573 106.687 18.584C106.026 18.2 105.508 17.6667 105.135 16.984C104.762 16.2907 104.575 15.4853 104.575 14.568ZM117.384 11.976V16.264C117.384 16.5627 117.453 16.7813 117.592 16.92C117.741 17.048 117.987 17.112 118.328 17.112H119.368V19H117.96C116.072 19 115.128 18.0827 115.128 16.248V11.976H114.072V10.136H115.128V7.944H117.384V10.136H119.368V11.976H117.384ZM122.115 9.08C121.72 9.08 121.39 8.95733 121.123 8.712C120.867 8.456 120.739 8.14133 120.739 7.768C120.739 7.39467 120.867 7.08533 121.123 6.84C121.39 6.584 121.72 6.456 122.115 6.456C122.51 6.456 122.835 6.584 123.091 6.84C123.358 7.08533 123.491 7.39467 123.491 7.768C123.491 8.14133 123.358 8.456 123.091 8.712C122.835 8.95733 122.51 9.08 122.115 9.08ZM123.219 10.136V19H120.979V10.136H123.219ZM124.856 14.568C124.856 13.6507 125.043 12.8507 125.416 12.168C125.789 11.4747 126.307 10.9413 126.968 10.568C127.629 10.184 128.387 9.992 129.24 9.992C130.339 9.992 131.245 10.2693 131.96 10.824C132.685 11.368 133.171 12.136 133.416 13.128H131C130.872 12.744 130.653 12.4453 130.344 12.232C130.045 12.008 129.672 11.896 129.224 11.896C128.584 11.896 128.077 12.1307 127.704 12.6C127.331 13.0587 127.144 13.7147 127.144 14.568C127.144 15.4107 127.331 16.0667 127.704 16.536C128.077 16.9947 128.584 17.224 129.224 17.224C130.131 17.224 130.723 16.8187 131 16.008H133.416C133.171 16.968 132.685 17.7307 131.96 18.296C131.235 18.8613 130.328 19.144 129.24 19.144C128.387 19.144 127.629 18.9573 126.968 18.584C126.307 18.2 125.789 17.6667 125.416 16.984C125.043 16.2907 124.856 15.4853 124.856 14.568ZM143.297 14.376C143.297 14.696 143.276 14.984 143.233 15.24H136.753C136.806 15.88 137.03 16.3813 137.425 16.744C137.82 17.1067 138.305 17.288 138.881 17.288C139.713 17.288 140.305 16.9307 140.657 16.216H143.073C142.817 17.0693 142.326 17.7733 141.601 18.328C140.876 18.872 139.985 19.144 138.929 19.144C138.076 19.144 137.308 18.9573 136.625 18.584C135.953 18.2 135.425 17.6613 135.041 16.968C134.668 16.2747 134.481 15.4747 134.481 14.568C134.481 13.6507 134.668 12.8453 135.041 12.152C135.414 11.4587 135.937 10.9253 136.609 10.552C137.281 10.1787 138.054 9.992 138.929 9.992C139.772 9.992 140.524 10.1733 141.185 10.536C141.857 10.8987 142.374 11.416 142.737 12.088C143.11 12.7493 143.297 13.512 143.297 14.376ZM140.977 13.736C140.966 13.16 140.758 12.7013 140.353 12.36C139.948 12.008 139.452 11.832 138.865 11.832C138.31 11.832 137.841 12.0027 137.457 12.344C137.084 12.6747 136.854 13.1387 136.769 13.736H140.977ZM152.809 11.976H151.257V19H148.985V11.976H147.977V10.136H148.985V9.688C148.985 8.6 149.294 7.8 149.913 7.288C150.531 6.776 151.465 6.536 152.713 6.568V8.456C152.169 8.44533 151.79 8.536 151.577 8.728C151.363 8.92 151.257 9.26667 151.257 9.768V10.136H152.809V11.976ZM158.196 19.144C157.343 19.144 156.575 18.9573 155.892 18.584C155.21 18.2 154.671 17.6613 154.276 16.968C153.892 16.2747 153.7 15.4747 153.7 14.568C153.7 13.6613 153.898 12.8613 154.292 12.168C154.698 11.4747 155.247 10.9413 155.94 10.568C156.634 10.184 157.407 9.992 158.26 9.992C159.114 9.992 159.887 10.184 160.58 10.568C161.274 10.9413 161.818 11.4747 162.212 12.168C162.618 12.8613 162.82 13.6613 162.82 14.568C162.82 15.4747 162.612 16.2747 162.196 16.968C161.791 17.6613 161.236 18.2 160.532 18.584C159.839 18.9573 159.06 19.144 158.196 19.144ZM158.196 17.192C158.602 17.192 158.98 17.096 159.332 16.904C159.695 16.7013 159.983 16.4027 160.196 16.008C160.41 15.6133 160.516 15.1333 160.516 14.568C160.516 13.7253 160.292 13.08 159.844 12.632C159.407 12.1733 158.868 11.944 158.228 11.944C157.588 11.944 157.05 12.1733 156.612 12.632C156.186 13.08 155.972 13.7253 155.972 14.568C155.972 15.4107 156.18 16.0613 156.596 16.52C157.023 16.968 157.556 17.192 158.196 17.192ZM166.703 11.512C166.991 11.0427 167.365 10.6747 167.823 10.408C168.293 10.1413 168.826 10.008 169.423 10.008V12.36H168.831C168.127 12.36 167.594 12.5253 167.231 12.856C166.879 13.1867 166.703 13.7627 166.703 14.584V19H164.463V10.136H166.703V11.512ZM178.809 11.976H177.257V19H174.985V11.976H173.977V10.136H174.985V9.688C174.985 8.6 175.294 7.8 175.913 7.288C176.531 6.776 177.465 6.536 178.713 6.568V8.456C178.169 8.44533 177.79 8.536 177.577 8.728C177.363 8.92 177.257 9.26667 177.257 9.768V10.136H178.809V11.976ZM182.5 11.512C182.788 11.0427 183.162 10.6747 183.62 10.408C184.09 10.1413 184.623 10.008 185.22 10.008V12.36H184.628C183.924 12.36 183.391 12.5253 183.028 12.856C182.676 13.1867 182.5 13.7627 182.5 14.584V19H180.26V10.136H182.5V11.512ZM194.969 14.376C194.969 14.696 194.948 14.984 194.905 15.24H188.425C188.478 15.88 188.702 16.3813 189.097 16.744C189.492 17.1067 189.977 17.288 190.553 17.288C191.385 17.288 191.977 16.9307 192.329 16.216H194.745C194.489 17.0693 193.998 17.7733 193.273 18.328C192.548 18.872 191.657 19.144 190.601 19.144C189.748 19.144 188.98 18.9573 188.297 18.584C187.625 18.2 187.097 17.6613 186.713 16.968C186.34 16.2747 186.153 15.4747 186.153 14.568C186.153 13.6507 186.34 12.8453 186.713 12.152C187.086 11.4587 187.609 10.9253 188.281 10.552C188.953 10.1787 189.726 9.992 190.601 9.992C191.444 9.992 192.196 10.1733 192.857 10.536C193.529 10.8987 194.046 11.416 194.409 12.088C194.782 12.7493 194.969 13.512 194.969 14.376ZM192.649 13.736C192.638 13.16 192.43 12.7013 192.025 12.36C191.62 12.008 191.124 11.832 190.537 11.832C189.982 11.832 189.513 12.0027 189.129 12.344C188.756 12.6747 188.526 13.1387 188.441 13.736H192.649ZM204.844 14.376C204.844 14.696 204.823 14.984 204.78 15.24H198.3C198.353 15.88 198.577 16.3813 198.972 16.744C199.367 17.1067 199.852 17.288 200.428 17.288C201.26 17.288 201.852 16.9307 202.204 16.216H204.62C204.364 17.0693 203.873 17.7733 203.148 18.328C202.423 18.872 201.532 19.144 200.476 19.144C199.623 19.144 198.855 18.9573 198.172 18.584C197.5 18.2 196.972 17.6613 196.588 16.968C196.215 16.2747 196.028 15.4747 196.028 14.568C196.028 13.6507 196.215 12.8453 196.588 12.152C196.961 11.4587 197.484 10.9253 198.156 10.552C198.828 10.1787 199.601 9.992 200.476 9.992C201.319 9.992 202.071 10.1733 202.732 10.536C203.404 10.8987 203.921 11.416 204.284 12.088C204.657 12.7493 204.844 13.512 204.844 14.376ZM202.524 13.736C202.513 13.16 202.305 12.7013 201.9 12.36C201.495 12.008 200.999 11.832 200.412 11.832C199.857 11.832 199.388 12.0027 199.004 12.344C198.631 12.6747 198.401 13.1387 198.316 13.736H202.524ZM222.58 10.136L219.988 19H217.572L215.956 12.808L214.34 19H211.908L209.3 10.136H211.572L213.14 16.888L214.836 10.136H217.204L218.868 16.872L220.436 10.136H222.58ZM224.928 9.08C224.533 9.08 224.202 8.95733 223.936 8.712C223.68 8.456 223.552 8.14133 223.552 7.768C223.552 7.39467 223.68 7.08533 223.936 6.84C224.202 6.584 224.533 6.456 224.928 6.456C225.322 6.456 225.648 6.584 225.904 6.84C226.17 7.08533 226.304 7.39467 226.304 7.768C226.304 8.14133 226.17 8.456 225.904 8.712C225.648 8.95733 225.322 9.08 224.928 9.08ZM226.032 10.136V19H223.792V10.136H226.032ZM230.853 11.976V16.264C230.853 16.5627 230.922 16.7813 231.061 16.92C231.21 17.048 231.455 17.112 231.797 17.112H232.837V19H231.429C229.541 19 228.597 18.0827 228.597 16.248V11.976H227.541V10.136H228.597V7.944H230.853V10.136H232.837V11.976H230.853ZM239.44 10.008C240.112 10.008 240.709 10.1573 241.232 10.456C241.754 10.744 242.16 11.176 242.448 11.752C242.746 12.3173 242.896 13 242.896 13.8V19H240.656V14.104C240.656 13.4 240.48 12.8613 240.128 12.488C239.776 12.104 239.296 11.912 238.688 11.912C238.069 11.912 237.578 12.104 237.216 12.488C236.864 12.8613 236.688 13.4 236.688 14.104V19H234.448V7.16H236.688V11.24C236.976 10.856 237.36 10.5573 237.84 10.344C238.32 10.12 238.853 10.008 239.44 10.008ZM251.446 11.976V16.264C251.446 16.5627 251.516 16.7813 251.654 16.92C251.804 17.048 252.049 17.112 252.39 17.112H253.43V19H252.022C250.134 19 249.19 18.0827 249.19 16.248V11.976H248.134V10.136H249.19V7.944H251.446V10.136H253.43V11.976H251.446ZM260.034 10.008C260.706 10.008 261.303 10.1573 261.826 10.456C262.348 10.744 262.754 11.176 263.042 11.752C263.34 12.3173 263.49 13 263.49 13.8V19H261.25V14.104C261.25 13.4 261.074 12.8613 260.722 12.488C260.37 12.104 259.89 11.912 259.282 11.912C258.663 11.912 258.172 12.104 257.81 12.488C257.458 12.8613 257.282 13.4 257.282 14.104V19H255.042V7.16H257.282V11.24C257.57 10.856 257.954 10.5573 258.434 10.344C258.914 10.12 259.447 10.008 260.034 10.008ZM273.86 14.376C273.86 14.696 273.838 14.984 273.796 15.24H267.316C267.369 15.88 267.593 16.3813 267.988 16.744C268.382 17.1067 268.868 17.288 269.444 17.288C270.276 17.288 270.868 16.9307 271.22 16.216H273.636C273.38 17.0693 272.889 17.7733 272.164 18.328C271.438 18.872 270.548 19.144 269.492 19.144C268.638 19.144 267.87 18.9573 267.188 18.584C266.516 18.2 265.988 17.6613 265.604 16.968C265.23 16.2747 265.044 15.4747 265.044 14.568C265.044 13.6507 265.23 12.8453 265.604 12.152C265.977 11.4587 266.5 10.9253 267.172 10.552C267.844 10.1787 268.617 9.992 269.492 9.992C270.334 9.992 271.086 10.1733 271.748 10.536C272.42 10.8987 272.937 11.416 273.3 12.088C273.673 12.7493 273.86 13.512 273.86 14.376ZM271.54 13.736C271.529 13.16 271.321 12.7013 270.916 12.36C270.51 12.008 270.014 11.832 269.428 11.832C268.873 11.832 268.404 12.0027 268.02 12.344C267.646 12.6747 267.417 13.1387 267.332 13.736H271.54ZM280.443 9.08C280.048 9.08 279.718 8.95733 279.451 8.712C279.195 8.456 279.067 8.14133 279.067 7.768C279.067 7.39467 279.195 7.08533 279.451 6.84C279.718 6.584 280.048 6.456 280.443 6.456C280.838 6.456 281.163 6.584 281.419 6.84C281.686 7.08533 281.819 7.39467 281.819 7.768C281.819 8.14133 281.686 8.456 281.419 8.712C281.163 8.95733 280.838 9.08 280.443 9.08ZM281.547 10.136V19H279.307V10.136H281.547ZM286.368 11.976V16.264C286.368 16.5627 286.438 16.7813 286.576 16.92C286.726 17.048 286.971 17.112 287.312 17.112H288.352V19H286.944C285.056 19 284.112 18.0827 284.112 16.248V11.976H283.056V10.136H284.112V7.944H286.368V10.136H288.352V11.976H286.368ZM289.387 14.536C289.387 13.64 289.563 12.8453 289.915 12.152C290.278 11.4587 290.763 10.9253 291.371 10.552C291.99 10.1787 292.678 9.992 293.435 9.992C294.097 9.992 294.673 10.1253 295.163 10.392C295.665 10.6587 296.065 10.9947 296.363 11.4V10.136H298.619V19H296.363V17.704C296.075 18.12 295.675 18.4667 295.163 18.744C294.662 19.0107 294.081 19.144 293.419 19.144C292.673 19.144 291.99 18.952 291.371 18.568C290.763 18.184 290.278 17.6453 289.915 16.952C289.563 16.248 289.387 15.4427 289.387 14.536ZM296.363 14.568C296.363 14.024 296.257 13.56 296.043 13.176C295.83 12.7813 295.542 12.4827 295.179 12.28C294.817 12.0667 294.427 11.96 294.011 11.96C293.595 11.96 293.211 12.0613 292.859 12.264C292.507 12.4667 292.219 12.7653 291.995 13.16C291.782 13.544 291.675 14.0027 291.675 14.536C291.675 15.0693 291.782 15.5387 291.995 15.944C292.219 16.3387 292.507 16.6427 292.859 16.856C293.222 17.0693 293.606 17.176 294.011 17.176C294.427 17.176 294.817 17.0747 295.179 16.872C295.542 16.6587 295.83 16.36 296.043 15.976C296.257 15.5813 296.363 15.112 296.363 14.568ZM303.047 7.16V19H300.807V7.16H303.047ZM310.508 19L307.5 15.224V19H305.26V7.16H307.5V13.896L310.476 10.136H313.388L309.484 14.584L313.42 19H310.508ZM315.74 9.08C315.345 9.08 315.015 8.95733 314.748 8.712C314.492 8.456 314.364 8.14133 314.364 7.768C314.364 7.39467 314.492 7.08533 314.748 6.84C315.015 6.584 315.345 6.456 315.74 6.456C316.135 6.456 316.46 6.584 316.716 6.84C316.983 7.08533 317.116 7.39467 317.116 7.768C317.116 8.14133 316.983 8.456 316.716 8.712C316.46 8.95733 316.135 9.08 315.74 9.08ZM316.844 10.136V19H314.604V10.136H316.844ZM322.294 14.568C322.294 13.6507 322.48 12.8507 322.854 12.168C323.227 11.4747 323.744 10.9413 324.406 10.568C325.067 10.184 325.824 9.992 326.678 9.992C327.776 9.992 328.683 10.2693 329.398 10.824C330.123 11.368 330.608 12.136 330.854 13.128H328.438C328.31 12.744 328.091 12.4453 327.782 12.232C327.483 12.008 327.11 11.896 326.662 11.896C326.022 11.896 325.515 12.1307 325.142 12.6C324.768 13.0587 324.582 13.7147 324.582 14.568C324.582 15.4107 324.768 16.0667 325.142 16.536C325.515 16.9947 326.022 17.224 326.662 17.224C327.568 17.224 328.16 16.8187 328.438 16.008H330.854C330.608 16.968 330.123 17.7307 329.398 18.296C328.672 18.8613 327.766 19.144 326.678 19.144C325.824 19.144 325.067 18.9573 324.406 18.584C323.744 18.2 323.227 17.6667 322.854 16.984C322.48 16.2907 322.294 15.4853 322.294 14.568ZM336.431 19.144C335.577 19.144 334.809 18.9573 334.127 18.584C333.444 18.2 332.905 17.6613 332.511 16.968C332.127 16.2747 331.935 15.4747 331.935 14.568C331.935 13.6613 332.132 12.8613 332.527 12.168C332.932 11.4747 333.481 10.9413 334.175 10.568C334.868 10.184 335.641 9.992 336.495 9.992C337.348 9.992 338.121 10.184 338.815 10.568C339.508 10.9413 340.052 11.4747 340.447 12.168C340.852 12.8613 341.055 13.6613 341.055 14.568C341.055 15.4747 340.847 16.2747 340.431 16.968C340.025 17.6613 339.471 18.2 338.767 18.584C338.073 18.9573 337.295 19.144 336.431 19.144ZM336.431 17.192C336.836 17.192 337.215 17.096 337.567 16.904C337.929 16.7013 338.217 16.4027 338.431 16.008C338.644 15.6133 338.751 15.1333 338.751 14.568C338.751 13.7253 338.527 13.08 338.079 12.632C337.641 12.1733 337.103 11.944 336.463 11.944C335.823 11.944 335.284 12.1733 334.847 12.632C334.42 13.08 334.207 13.7253 334.207 14.568C334.207 15.4107 334.415 16.0613 334.831 16.52C335.257 16.968 335.791 17.192 336.431 17.192ZM353.706 10.008C354.794 10.008 355.668 10.344 356.33 11.016C357.002 11.6773 357.338 12.6053 357.338 13.8V19H355.098V14.104C355.098 13.4107 354.922 12.8827 354.57 12.52C354.218 12.1467 353.738 11.96 353.13 11.96C352.522 11.96 352.036 12.1467 351.674 12.52C351.322 12.8827 351.146 13.4107 351.146 14.104V19H348.906V14.104C348.906 13.4107 348.73 12.8827 348.378 12.52C348.026 12.1467 347.546 11.96 346.938 11.96C346.319 11.96 345.828 12.1467 345.466 12.52C345.114 12.8827 344.938 13.4107 344.938 14.104V19H342.698V10.136H344.938V11.208C345.226 10.8347 345.594 10.5413 346.042 10.328C346.5 10.1147 347.002 10.008 347.546 10.008C348.239 10.008 348.858 10.1573 349.402 10.456C349.946 10.744 350.367 11.16 350.666 11.704C350.954 11.192 351.37 10.7813 351.914 10.472C352.468 10.1627 353.066 10.008 353.706 10.008ZM370.471 10.008C371.559 10.008 372.434 10.344 373.095 11.016C373.767 11.6773 374.103 12.6053 374.103 13.8V19H371.863V14.104C371.863 13.4107 371.687 12.8827 371.335 12.52C370.983 12.1467 370.503 11.96 369.895 11.96C369.287 11.96 368.802 12.1467 368.439 12.52C368.087 12.8827 367.911 13.4107 367.911 14.104V19H365.671V14.104C365.671 13.4107 365.495 12.8827 365.143 12.52C364.791 12.1467 364.311 11.96 363.703 11.96C363.085 11.96 362.594 12.1467 362.231 12.52C361.879 12.8827 361.703 13.4107 361.703 14.104V19H359.463V10.136H361.703V11.208C361.991 10.8347 362.359 10.5413 362.807 10.328C363.266 10.1147 363.767 10.008 364.311 10.008C365.005 10.008 365.623 10.1573 366.167 10.456C366.711 10.744 367.133 11.16 367.431 11.704C367.719 11.192 368.135 10.7813 368.679 10.472C369.234 10.1627 369.831 10.008 370.471 10.008ZM384.597 10.136V19H382.341V17.88C382.053 18.264 381.674 18.568 381.205 18.792C380.746 19.0053 380.245 19.112 379.701 19.112C379.008 19.112 378.394 18.968 377.861 18.68C377.328 18.3813 376.906 17.9493 376.597 17.384C376.298 16.808 376.149 16.1253 376.149 15.336V10.136H378.389V15.016C378.389 15.72 378.565 16.264 378.917 16.648C379.269 17.0213 379.749 17.208 380.357 17.208C380.976 17.208 381.461 17.0213 381.813 16.648C382.165 16.264 382.341 15.72 382.341 15.016V10.136H384.597ZM391.719 10.008C392.775 10.008 393.628 10.344 394.279 11.016C394.93 11.6773 395.255 12.6053 395.255 13.8V19H393.015V14.104C393.015 13.4 392.839 12.8613 392.487 12.488C392.135 12.104 391.655 11.912 391.047 11.912C390.428 11.912 389.938 12.104 389.575 12.488C389.223 12.8613 389.047 13.4 389.047 14.104V19H386.807V10.136H389.047V11.24C389.346 10.856 389.724 10.5573 390.183 10.344C390.652 10.12 391.164 10.008 391.719 10.008ZM398.521 9.08C398.127 9.08 397.796 8.95733 397.529 8.712C397.273 8.456 397.145 8.14133 397.145 7.768C397.145 7.39467 397.273 7.08533 397.529 6.84C397.796 6.584 398.127 6.456 398.521 6.456C398.916 6.456 399.241 6.584 399.497 6.84C399.764 7.08533 399.897 7.39467 399.897 7.768C399.897 8.14133 399.764 8.456 399.497 8.712C399.241 8.95733 398.916 9.08 398.521 9.08ZM399.625 10.136V19H397.385V10.136H399.625ZM404.446 11.976V16.264C404.446 16.5627 404.516 16.7813 404.654 16.92C404.804 17.048 405.049 17.112 405.39 17.112H406.43V19H405.022C403.134 19 402.19 18.0827 402.19 16.248V11.976H401.134V10.136H402.19V7.944H404.446V10.136H406.43V11.976H404.446ZM416.522 10.136L411.034 23.192H408.65L410.57 18.776L407.018 10.136H409.53L411.818 16.328L414.138 10.136H416.522Z" fill="#393939"/>
<path d="M35.4034 4.33313C42.7484 4.33313 47.6667 9.4898 47.6667 17.1598V34.8636C47.6667 42.5098 42.7484 47.6665 35.4034 47.6665H16.6184C9.27342 47.6665 4.33342 42.5098 4.33342 34.8636V17.1598C4.33342 9.4898 9.27342 4.33313 16.6184 4.33313H35.4034ZM35.0568 19.4998C34.3201 18.7631 33.1068 18.7631 32.3701 19.4998L23.4218 28.4481L19.6301 24.6565C18.8934 23.9198 17.6801 23.9198 16.9434 24.6565C16.2068 25.3931 16.2068 26.5848 16.9434 27.3431L22.1001 32.4781C22.4684 32.8465 22.9451 33.0198 23.4218 33.0198C23.9201 33.0198 24.3968 32.8465 24.7651 32.4781L35.0568 22.1865C35.7934 21.4498 35.7934 20.2581 35.0568 19.4998Z" fill="#058E6E"/>
<path d="M83.4852 42.046C83.0092 42.046 82.6032 41.8827 82.2672 41.556C81.9406 41.22 81.7772 40.814 81.7772 40.338C81.7772 39.8527 81.9406 39.4467 82.2672 39.12C82.6032 38.784 83.0092 38.616 83.4852 38.616C83.9706 38.616 84.3812 38.784 84.7172 39.12C85.0532 39.4467 85.2212 39.8527 85.2212 40.338C85.2212 40.814 85.0532 41.22 84.7172 41.556C84.3812 41.8827 83.9706 42.046 83.4852 42.046ZM98.116 35.242C99.18 35.242 100.099 35.4427 100.874 35.844C101.658 36.236 102.255 36.8007 102.666 37.538C103.086 38.2753 103.296 39.1433 103.296 40.142C103.296 41.1407 103.086 42.0087 102.666 42.746C102.255 43.474 101.658 44.034 100.874 44.426C100.099 44.8087 99.18 45 98.116 45H95.078V35.242H98.116ZM98.116 43.95C99.376 43.95 100.337 43.6187 101 42.956C101.663 42.284 101.994 41.346 101.994 40.142C101.994 38.9287 101.658 37.9813 100.986 37.3C100.323 36.6187 99.3667 36.278 98.116 36.278H96.352V43.95H98.116ZM111.976 40.87C111.976 41.1127 111.962 41.3693 111.934 41.64H105.802C105.849 42.396 106.106 42.9887 106.572 43.418C107.048 43.838 107.622 44.048 108.294 44.048C108.845 44.048 109.302 43.922 109.666 43.67C110.04 43.4087 110.301 43.0633 110.45 42.634H111.822C111.617 43.3713 111.206 43.9733 110.59 44.44C109.974 44.8973 109.209 45.126 108.294 45.126C107.566 45.126 106.913 44.9627 106.334 44.636C105.765 44.3093 105.317 43.8473 104.99 43.25C104.664 42.6433 104.5 41.9433 104.5 41.15C104.5 40.3567 104.659 39.6613 104.976 39.064C105.294 38.4667 105.737 38.0093 106.306 37.692C106.885 37.3653 107.548 37.202 108.294 37.202C109.022 37.202 109.666 37.3607 110.226 37.678C110.786 37.9953 111.216 38.434 111.514 38.994C111.822 39.5447 111.976 40.17 111.976 40.87ZM110.66 40.604C110.66 40.1187 110.553 39.7033 110.338 39.358C110.124 39.0033 109.83 38.7373 109.456 38.56C109.092 38.3733 108.686 38.28 108.238 38.28C107.594 38.28 107.044 38.4853 106.586 38.896C106.138 39.3067 105.882 39.876 105.816 40.604H110.66ZM116.514 43.824L118.894 37.328H120.252L117.242 45H115.758L112.748 37.328H114.12L116.514 43.824ZM128.506 40.87C128.506 41.1127 128.492 41.3693 128.464 41.64H122.332C122.378 42.396 122.635 42.9887 123.102 43.418C123.578 43.838 124.152 44.048 124.824 44.048C125.374 44.048 125.832 43.922 126.196 43.67C126.569 43.4087 126.83 43.0633 126.98 42.634H128.352C128.146 43.3713 127.736 43.9733 127.12 44.44C126.504 44.8973 125.738 45.126 124.824 45.126C124.096 45.126 123.442 44.9627 122.864 44.636C122.294 44.3093 121.846 43.8473 121.52 43.25C121.193 42.6433 121.03 41.9433 121.03 41.15C121.03 40.3567 121.188 39.6613 121.506 39.064C121.823 38.4667 122.266 38.0093 122.836 37.692C123.414 37.3653 124.077 37.202 124.824 37.202C125.552 37.202 126.196 37.3607 126.756 37.678C127.316 37.9953 127.745 38.434 128.044 38.994C128.352 39.5447 128.506 40.17 128.506 40.87ZM127.19 40.604C127.19 40.1187 127.082 39.7033 126.868 39.358C126.653 39.0033 126.359 38.7373 125.986 38.56C125.622 38.3733 125.216 38.28 124.768 38.28C124.124 38.28 123.573 38.4853 123.116 38.896C122.668 39.3067 122.411 39.876 122.346 40.604H127.19ZM131.461 34.64V45H130.187V34.64H131.461ZM136.979 45.126C136.26 45.126 135.607 44.9627 135.019 44.636C134.44 44.3093 133.983 43.8473 133.647 43.25C133.32 42.6433 133.157 41.9433 133.157 41.15C133.157 40.366 133.325 39.6753 133.661 39.078C134.006 38.4713 134.473 38.0093 135.061 37.692C135.649 37.3653 136.307 37.202 137.035 37.202C137.763 37.202 138.421 37.3653 139.009 37.692C139.597 38.0093 140.059 38.4667 140.395 39.064C140.74 39.6613 140.913 40.3567 140.913 41.15C140.913 41.9433 140.735 42.6433 140.381 43.25C140.035 43.8473 139.564 44.3093 138.967 44.636C138.369 44.9627 137.707 45.126 136.979 45.126ZM136.979 44.006C137.436 44.006 137.865 43.8987 138.267 43.684C138.668 43.4693 138.99 43.1473 139.233 42.718C139.485 42.2887 139.611 41.766 139.611 41.15C139.611 40.534 139.489 40.0113 139.247 39.582C139.004 39.1527 138.687 38.8353 138.295 38.63C137.903 38.4153 137.478 38.308 137.021 38.308C136.554 38.308 136.125 38.4153 135.733 38.63C135.35 38.8353 135.042 39.1527 134.809 39.582C134.575 40.0113 134.459 40.534 134.459 41.15C134.459 41.7753 134.571 42.3027 134.795 42.732C135.028 43.1613 135.336 43.4833 135.719 43.698C136.101 43.9033 136.521 44.006 136.979 44.006ZM143.862 38.742C144.114 38.3033 144.487 37.9393 144.982 37.65C145.486 37.3513 146.069 37.202 146.732 37.202C147.413 37.202 148.029 37.3653 148.58 37.692C149.14 38.0187 149.578 38.4807 149.896 39.078C150.213 39.666 150.372 40.352 150.372 41.136C150.372 41.9107 150.213 42.6013 149.896 43.208C149.578 43.8147 149.14 44.286 148.58 44.622C148.029 44.958 147.413 45.126 146.732 45.126C146.078 45.126 145.5 44.9813 144.996 44.692C144.501 44.3933 144.123 44.0247 143.862 43.586V48.64H142.588V37.328H143.862V38.742ZM149.07 41.136C149.07 40.5573 148.953 40.0533 148.72 39.624C148.486 39.1947 148.169 38.868 147.768 38.644C147.376 38.42 146.942 38.308 146.466 38.308C145.999 38.308 145.565 38.4247 145.164 38.658C144.772 38.882 144.454 39.2133 144.212 39.652C143.978 40.0813 143.862 40.5807 143.862 41.15C143.862 41.7287 143.978 42.2373 144.212 42.676C144.454 43.1053 144.772 43.4367 145.164 43.67C145.565 43.894 145.999 44.006 146.466 44.006C146.942 44.006 147.376 43.894 147.768 43.67C148.169 43.4367 148.486 43.1053 148.72 42.676C148.953 42.2373 149.07 41.724 149.07 41.136ZM162.389 37.328L157.769 48.612H156.453L157.965 44.916L154.871 37.328H156.285L158.693 43.544L161.073 37.328H162.389ZM167.016 45.126C166.297 45.126 165.644 44.9627 165.056 44.636C164.477 44.3093 164.02 43.8473 163.684 43.25C163.357 42.6433 163.194 41.9433 163.194 41.15C163.194 40.366 163.362 39.6753 163.698 39.078C164.043 38.4713 164.51 38.0093 165.098 37.692C165.686 37.3653 166.344 37.202 167.072 37.202C167.8 37.202 168.458 37.3653 169.046 37.692C169.634 38.0093 170.096 38.4667 170.432 39.064C170.777 39.6613 170.95 40.3567 170.95 41.15C170.95 41.9433 170.772 42.6433 170.418 43.25C170.072 43.8473 169.601 44.3093 169.004 44.636C168.406 44.9627 167.744 45.126 167.016 45.126ZM167.016 44.006C167.473 44.006 167.902 43.8987 168.304 43.684C168.705 43.4693 169.027 43.1473 169.27 42.718C169.522 42.2887 169.648 41.766 169.648 41.15C169.648 40.534 169.526 40.0113 169.284 39.582C169.041 39.1527 168.724 38.8353 168.332 38.63C167.94 38.4153 167.515 38.308 167.058 38.308C166.591 38.308 166.162 38.4153 165.77 38.63C165.387 38.8353 165.079 39.1527 164.846 39.582C164.612 40.0113 164.496 40.534 164.496 41.15C164.496 41.7753 164.608 42.3027 164.832 42.732C165.065 43.1613 165.373 43.4833 165.756 43.698C166.138 43.9033 166.558 44.006 167.016 44.006ZM179.429 37.328V45H178.155V43.866C177.912 44.258 177.572 44.566 177.133 44.79C176.704 45.0047 176.228 45.112 175.705 45.112C175.108 45.112 174.571 44.9907 174.095 44.748C173.619 44.496 173.241 44.1227 172.961 43.628C172.69 43.1333 172.555 42.5313 172.555 41.822V37.328H173.815V41.654C173.815 42.41 174.006 42.9933 174.389 43.404C174.772 43.8053 175.294 44.006 175.957 44.006C176.638 44.006 177.175 43.796 177.567 43.376C177.959 42.956 178.155 42.3447 178.155 41.542V37.328H179.429ZM182.854 38.574C183.078 38.1353 183.395 37.7947 183.806 37.552C184.226 37.3093 184.735 37.188 185.332 37.188V38.504H184.996C183.568 38.504 182.854 39.2787 182.854 40.828V45H181.58V37.328H182.854V38.574ZM191.809 34.64V45H190.535V34.64H191.809ZM193.504 41.136C193.504 40.352 193.663 39.666 193.98 39.078C194.298 38.4807 194.732 38.0187 195.282 37.692C195.842 37.3653 196.463 37.202 197.144 37.202C197.816 37.202 198.4 37.3467 198.894 37.636C199.389 37.9253 199.758 38.2893 200 38.728V37.328H201.288V45H200V43.572C199.748 44.02 199.37 44.3933 198.866 44.692C198.372 44.9813 197.793 45.126 197.13 45.126C196.449 45.126 195.833 44.958 195.282 44.622C194.732 44.286 194.298 43.8147 193.98 43.208C193.663 42.6013 193.504 41.9107 193.504 41.136ZM200 41.15C200 40.5713 199.884 40.0673 199.65 39.638C199.417 39.2087 199.1 38.882 198.698 38.658C198.306 38.4247 197.872 38.308 197.396 38.308C196.92 38.308 196.486 38.42 196.094 38.644C195.702 38.868 195.39 39.1947 195.156 39.624C194.923 40.0533 194.806 40.5573 194.806 41.136C194.806 41.724 194.923 42.2373 195.156 42.676C195.39 43.1053 195.702 43.4367 196.094 43.67C196.486 43.894 196.92 44.006 197.396 44.006C197.872 44.006 198.306 43.894 198.698 43.67C199.1 43.4367 199.417 43.1053 199.65 42.676C199.884 42.2373 200 41.7287 200 41.15ZM207.179 37.188C208.113 37.188 208.869 37.4727 209.447 38.042C210.026 38.602 210.315 39.414 210.315 40.478V45H209.055V40.66C209.055 39.8947 208.864 39.3113 208.481 38.91C208.099 38.4993 207.576 38.294 206.913 38.294C206.241 38.294 205.705 38.504 205.303 38.924C204.911 39.344 204.715 39.9553 204.715 40.758V45H203.441V37.328H204.715V38.42C204.967 38.028 205.308 37.7247 205.737 37.51C206.176 37.2953 206.657 37.188 207.179 37.188ZM215.56 37.202C216.223 37.202 216.802 37.3467 217.296 37.636C217.8 37.9253 218.174 38.2893 218.416 38.728V37.328H219.704V45.168C219.704 45.868 219.555 46.4887 219.256 47.03C218.958 47.5807 218.528 48.01 217.968 48.318C217.418 48.626 216.774 48.78 216.036 48.78C215.028 48.78 214.188 48.542 213.516 48.066C212.844 47.59 212.448 46.9413 212.326 46.12H213.586C213.726 46.5867 214.016 46.96 214.454 47.24C214.893 47.5293 215.42 47.674 216.036 47.674C216.736 47.674 217.306 47.4547 217.744 47.016C218.192 46.5773 218.416 45.9613 218.416 45.168V43.558C218.164 44.006 217.791 44.3793 217.296 44.678C216.802 44.9767 216.223 45.126 215.56 45.126C214.879 45.126 214.258 44.958 213.698 44.622C213.148 44.286 212.714 43.8147 212.396 43.208C212.079 42.6013 211.92 41.9107 211.92 41.136C211.92 40.352 212.079 39.666 212.396 39.078C212.714 38.4807 213.148 38.0187 213.698 37.692C214.258 37.3653 214.879 37.202 215.56 37.202ZM218.416 41.15C218.416 40.5713 218.3 40.0673 218.066 39.638C217.833 39.2087 217.516 38.882 217.114 38.658C216.722 38.4247 216.288 38.308 215.812 38.308C215.336 38.308 214.902 38.42 214.51 38.644C214.118 38.868 213.806 39.1947 213.572 39.624C213.339 40.0533 213.222 40.5573 213.222 41.136C213.222 41.724 213.339 42.2373 213.572 42.676C213.806 43.1053 214.118 43.4367 214.51 43.67C214.902 43.894 215.336 44.006 215.812 44.006C216.288 44.006 216.722 43.894 217.114 43.67C217.516 43.4367 217.833 43.1053 218.066 42.676C218.3 42.2373 218.416 41.7287 218.416 41.15ZM228.661 37.328V45H227.387V43.866C227.145 44.258 226.804 44.566 226.365 44.79C225.936 45.0047 225.46 45.112 224.937 45.112C224.34 45.112 223.803 44.9907 223.327 44.748C222.851 44.496 222.473 44.1227 222.193 43.628C221.923 43.1333 221.787 42.5313 221.787 41.822V37.328H223.047V41.654C223.047 42.41 223.239 42.9933 223.621 43.404C224.004 43.8053 224.527 44.006 225.189 44.006C225.871 44.006 226.407 43.796 226.799 43.376C227.191 42.956 227.387 42.3447 227.387 41.542V37.328H228.661ZM230.336 41.136C230.336 40.352 230.495 39.666 230.812 39.078C231.13 38.4807 231.564 38.0187 232.114 37.692C232.674 37.3653 233.295 37.202 233.976 37.202C234.648 37.202 235.232 37.3467 235.726 37.636C236.221 37.9253 236.59 38.2893 236.832 38.728V37.328H238.12V45H236.832V43.572C236.58 44.02 236.202 44.3933 235.698 44.692C235.204 44.9813 234.625 45.126 233.962 45.126C233.281 45.126 232.665 44.958 232.114 44.622C231.564 44.286 231.13 43.8147 230.812 43.208C230.495 42.6013 230.336 41.9107 230.336 41.136ZM236.832 41.15C236.832 40.5713 236.716 40.0673 236.482 39.638C236.249 39.2087 235.932 38.882 235.53 38.658C235.138 38.4247 234.704 38.308 234.228 38.308C233.752 38.308 233.318 38.42 232.926 38.644C232.534 38.868 232.222 39.1947 231.988 39.624C231.755 40.0533 231.638 40.5573 231.638 41.136C231.638 41.724 231.755 42.2373 231.988 42.676C232.222 43.1053 232.534 43.4367 232.926 43.67C233.318 43.894 233.752 44.006 234.228 44.006C234.704 44.006 235.138 43.894 235.53 43.67C235.932 43.4367 236.249 43.1053 236.482 42.676C236.716 42.2373 236.832 41.7287 236.832 41.15ZM243.437 37.202C244.1 37.202 244.679 37.3467 245.173 37.636C245.677 37.9253 246.051 38.2893 246.293 38.728V37.328H247.581V45.168C247.581 45.868 247.432 46.4887 247.133 47.03C246.835 47.5807 246.405 48.01 245.845 48.318C245.295 48.626 244.651 48.78 243.913 48.78C242.905 48.78 242.065 48.542 241.393 48.066C240.721 47.59 240.325 46.9413 240.203 46.12H241.463C241.603 46.5867 241.893 46.96 242.331 47.24C242.77 47.5293 243.297 47.674 243.913 47.674C244.613 47.674 245.183 47.4547 245.621 47.016C246.069 46.5773 246.293 45.9613 246.293 45.168V43.558C246.041 44.006 245.668 44.3793 245.173 44.678C244.679 44.9767 244.1 45.126 243.437 45.126C242.756 45.126 242.135 44.958 241.575 44.622C241.025 44.286 240.591 43.8147 240.273 43.208C239.956 42.6013 239.797 41.9107 239.797 41.136C239.797 40.352 239.956 39.666 240.273 39.078C240.591 38.4807 241.025 38.0187 241.575 37.692C242.135 37.3653 242.756 37.202 243.437 37.202ZM246.293 41.15C246.293 40.5713 246.177 40.0673 245.943 39.638C245.71 39.2087 245.393 38.882 244.991 38.658C244.599 38.4247 244.165 38.308 243.689 38.308C243.213 38.308 242.779 38.42 242.387 38.644C241.995 38.868 241.683 39.1947 241.449 39.624C241.216 40.0533 241.099 40.5573 241.099 41.136C241.099 41.724 241.216 42.2373 241.449 42.676C241.683 43.1053 241.995 43.4367 242.387 43.67C242.779 43.894 243.213 44.006 243.689 44.006C244.165 44.006 244.599 43.894 244.991 43.67C245.393 43.4367 245.71 43.1053 245.943 42.676C246.177 42.2373 246.293 41.7287 246.293 41.15ZM256.734 40.87C256.734 41.1127 256.72 41.3693 256.692 41.64H250.56C250.607 42.396 250.864 42.9887 251.33 43.418C251.806 43.838 252.38 44.048 253.052 44.048C253.603 44.048 254.06 43.922 254.424 43.67C254.798 43.4087 255.059 43.0633 255.208 42.634H256.58C256.375 43.3713 255.964 43.9733 255.348 44.44C254.732 44.8973 253.967 45.126 253.052 45.126C252.324 45.126 251.671 44.9627 251.092 44.636C250.523 44.3093 250.075 43.8473 249.748 43.25C249.422 42.6433 249.258 41.9433 249.258 41.15C249.258 40.3567 249.417 39.6613 249.734 39.064C250.052 38.4667 250.495 38.0093 251.064 37.692C251.643 37.3653 252.306 37.202 253.052 37.202C253.78 37.202 254.424 37.3607 254.984 37.678C255.544 37.9953 255.974 38.434 256.272 38.994C256.58 39.5447 256.734 40.17 256.734 40.87ZM255.418 40.604C255.418 40.1187 255.311 39.7033 255.096 39.358C254.882 39.0033 254.588 38.7373 254.214 38.56C253.85 38.3733 253.444 38.28 252.996 38.28C252.352 38.28 251.802 38.4853 251.344 38.896C250.896 39.3067 250.64 39.876 250.574 40.604H255.418ZM264.864 45.126C264.276 45.126 263.749 45.028 263.282 44.832C262.816 44.6267 262.447 44.3467 262.176 43.992C261.906 43.628 261.756 43.2127 261.728 42.746H263.044C263.082 43.1287 263.259 43.4413 263.576 43.684C263.903 43.9267 264.328 44.048 264.85 44.048C265.336 44.048 265.718 43.9407 265.998 43.726C266.278 43.5113 266.418 43.2407 266.418 42.914C266.418 42.578 266.269 42.3307 265.97 42.172C265.672 42.004 265.21 41.8407 264.584 41.682C264.015 41.5327 263.548 41.3833 263.184 41.234C262.83 41.0753 262.522 40.8467 262.26 40.548C262.008 40.24 261.882 39.8387 261.882 39.344C261.882 38.952 261.999 38.5927 262.232 38.266C262.466 37.9393 262.797 37.6827 263.226 37.496C263.656 37.3 264.146 37.202 264.696 37.202C265.546 37.202 266.232 37.4167 266.754 37.846C267.277 38.2753 267.557 38.8633 267.594 39.61H266.32C266.292 39.2087 266.129 38.8867 265.83 38.644C265.541 38.4013 265.149 38.28 264.654 38.28C264.197 38.28 263.833 38.378 263.562 38.574C263.292 38.77 263.156 39.0267 263.156 39.344C263.156 39.596 263.236 39.806 263.394 39.974C263.562 40.1327 263.768 40.2633 264.01 40.366C264.262 40.4593 264.608 40.5667 265.046 40.688C265.597 40.8373 266.045 40.9867 266.39 41.136C266.736 41.276 267.03 41.4907 267.272 41.78C267.524 42.0693 267.655 42.4473 267.664 42.914C267.664 43.334 267.548 43.712 267.314 44.048C267.081 44.384 266.75 44.65 266.32 44.846C265.9 45.0327 265.415 45.126 264.864 45.126ZM273.747 45L270.737 41.612V45H269.463V34.64H270.737V40.73L273.691 37.328H275.469L271.857 41.15L275.483 45H273.747ZM277.326 36.082C277.083 36.082 276.878 35.998 276.71 35.83C276.542 35.662 276.458 35.4567 276.458 35.214C276.458 34.9713 276.542 34.766 276.71 34.598C276.878 34.43 277.083 34.346 277.326 34.346C277.559 34.346 277.755 34.43 277.914 34.598C278.082 34.766 278.166 34.9713 278.166 35.214C278.166 35.4567 278.082 35.662 277.914 35.83C277.755 35.998 277.559 36.082 277.326 36.082ZM277.942 37.328V45H276.668V37.328H277.942ZM281.387 34.64V45H280.113V34.64H281.387ZM284.832 34.64V45H283.558V34.64H284.832ZM289.72 45.126C289.132 45.126 288.604 45.028 288.138 44.832C287.671 44.6267 287.302 44.3467 287.032 43.992C286.761 43.628 286.612 43.2127 286.584 42.746H287.9C287.937 43.1287 288.114 43.4413 288.432 43.684C288.758 43.9267 289.183 44.048 289.706 44.048C290.191 44.048 290.574 43.9407 290.854 43.726C291.134 43.5113 291.274 43.2407 291.274 42.914C291.274 42.578 291.124 42.3307 290.826 42.172C290.527 42.004 290.065 41.8407 289.44 41.682C288.87 41.5327 288.404 41.3833 288.04 41.234C287.685 41.0753 287.377 40.8467 287.116 40.548C286.864 40.24 286.738 39.8387 286.738 39.344C286.738 38.952 286.854 38.5927 287.088 38.266C287.321 37.9393 287.652 37.6827 288.082 37.496C288.511 37.3 289.001 37.202 289.552 37.202C290.401 37.202 291.087 37.4167 291.61 37.846C292.132 38.2753 292.412 38.8633 292.45 39.61H291.176C291.148 39.2087 290.984 38.8867 290.686 38.644C290.396 38.4013 290.004 38.28 289.51 38.28C289.052 38.28 288.688 38.378 288.418 38.574C288.147 38.77 288.012 39.0267 288.012 39.344C288.012 39.596 288.091 39.806 288.25 39.974C288.418 40.1327 288.623 40.2633 288.866 40.366C289.118 40.4593 289.463 40.5667 289.902 40.688C290.452 40.8373 290.9 40.9867 291.246 41.136C291.591 41.276 291.885 41.4907 292.128 41.78C292.38 42.0693 292.51 42.4473 292.52 42.914C292.52 43.334 292.403 43.712 292.17 44.048C291.936 44.384 291.605 44.65 291.176 44.846C290.756 45.0327 290.27 45.126 289.72 45.126ZM299.325 38.756C299.586 38.2987 299.969 37.9253 300.473 37.636C300.977 37.3467 301.551 37.202 302.195 37.202C302.885 37.202 303.506 37.3653 304.057 37.692C304.607 38.0187 305.041 38.4807 305.359 39.078C305.676 39.666 305.835 40.352 305.835 41.136C305.835 41.9107 305.676 42.6013 305.359 43.208C305.041 43.8147 304.603 44.286 304.043 44.622C303.492 44.958 302.876 45.126 302.195 45.126C301.532 45.126 300.949 44.9813 300.445 44.692C299.95 44.4027 299.577 44.034 299.325 43.586V45H298.051V34.64H299.325V38.756ZM304.533 41.136C304.533 40.5573 304.416 40.0533 304.183 39.624C303.949 39.1947 303.632 38.868 303.231 38.644C302.839 38.42 302.405 38.308 301.929 38.308C301.462 38.308 301.028 38.4247 300.627 38.658C300.235 38.882 299.917 39.2133 299.675 39.652C299.441 40.0813 299.325 40.5807 299.325 41.15C299.325 41.7287 299.441 42.2373 299.675 42.676C299.917 43.1053 300.235 43.4367 300.627 43.67C301.028 43.894 301.462 44.006 301.929 44.006C302.405 44.006 302.839 43.894 303.231 43.67C303.632 43.4367 303.949 43.1053 304.183 42.676C304.416 42.2373 304.533 41.724 304.533 41.136ZM314.12 37.328L309.5 48.612H308.184L309.696 44.916L306.602 37.328H308.016L310.424 43.544L312.804 37.328H314.12ZM320.407 38.756C320.668 38.2987 321.051 37.9253 321.555 37.636C322.059 37.3467 322.633 37.202 323.277 37.202C323.967 37.202 324.588 37.3653 325.139 37.692C325.689 38.0187 326.123 38.4807 326.441 39.078C326.758 39.666 326.917 40.352 326.917 41.136C326.917 41.9107 326.758 42.6013 326.441 43.208C326.123 43.8147 325.685 44.286 325.125 44.622C324.574 44.958 323.958 45.126 323.277 45.126C322.614 45.126 322.031 44.9813 321.527 44.692C321.032 44.4027 320.659 44.034 320.407 43.586V45H319.133V34.64H320.407V38.756ZM325.615 41.136C325.615 40.5573 325.498 40.0533 325.265 39.624C325.031 39.1947 324.714 38.868 324.313 38.644C323.921 38.42 323.487 38.308 323.011 38.308C322.544 38.308 322.11 38.4247 321.709 38.658C321.317 38.882 320.999 39.2133 320.757 39.652C320.523 40.0813 320.407 40.5807 320.407 41.15C320.407 41.7287 320.523 42.2373 320.757 42.676C320.999 43.1053 321.317 43.4367 321.709 43.67C322.11 43.894 322.544 44.006 323.011 44.006C323.487 44.006 323.921 43.894 324.313 43.67C324.714 43.4367 325.031 43.1053 325.265 42.676C325.498 42.2373 325.615 41.724 325.615 41.136ZM335.398 37.328V45H334.124V43.866C333.881 44.258 333.54 44.566 333.102 44.79C332.672 45.0047 332.196 45.112 331.674 45.112C331.076 45.112 330.54 44.9907 330.064 44.748C329.588 44.496 329.21 44.1227 328.93 43.628C328.659 43.1333 328.524 42.5313 328.524 41.822V37.328H329.784V41.654C329.784 42.41 329.975 42.9933 330.358 43.404C330.74 43.8053 331.263 44.006 331.926 44.006C332.607 44.006 333.144 43.796 333.536 43.376C333.928 42.956 334.124 42.3447 334.124 41.542V37.328H335.398ZM338.207 36.082C337.964 36.082 337.759 35.998 337.591 35.83C337.423 35.662 337.339 35.4567 337.339 35.214C337.339 34.9713 337.423 34.766 337.591 34.598C337.759 34.43 337.964 34.346 338.207 34.346C338.44 34.346 338.636 34.43 338.795 34.598C338.963 34.766 339.047 34.9713 339.047 35.214C339.047 35.4567 338.963 35.662 338.795 35.83C338.636 35.998 338.44 36.082 338.207 36.082ZM338.823 37.328V45H337.549V37.328H338.823ZM342.268 34.64V45H340.994V34.64H342.268ZM343.963 41.136C343.963 40.352 344.122 39.666 344.439 39.078C344.757 38.4807 345.191 38.0187 345.741 37.692C346.301 37.3653 346.927 37.202 347.617 37.202C348.215 37.202 348.77 37.342 349.283 37.622C349.797 37.8927 350.189 38.252 350.459 38.7V34.64H351.747V45H350.459V43.558C350.207 44.0153 349.834 44.3933 349.339 44.692C348.845 44.9813 348.266 45.126 347.603 45.126C346.922 45.126 346.301 44.958 345.741 44.622C345.191 44.286 344.757 43.8147 344.439 43.208C344.122 42.6013 343.963 41.9107 343.963 41.136ZM350.459 41.15C350.459 40.5713 350.343 40.0673 350.109 39.638C349.876 39.2087 349.559 38.882 349.157 38.658C348.765 38.4247 348.331 38.308 347.855 38.308C347.379 38.308 346.945 38.42 346.553 38.644C346.161 38.868 345.849 39.1947 345.615 39.624C345.382 40.0533 345.265 40.5573 345.265 41.136C345.265 41.724 345.382 42.2373 345.615 42.676C345.849 43.1053 346.161 43.4367 346.553 43.67C346.945 43.894 347.379 44.006 347.855 44.006C348.331 44.006 348.765 43.894 349.157 43.67C349.559 43.4367 349.876 43.1053 350.109 42.676C350.343 42.2373 350.459 41.7287 350.459 41.15ZM354.558 36.082C354.316 36.082 354.11 35.998 353.942 35.83C353.774 35.662 353.69 35.4567 353.69 35.214C353.69 34.9713 353.774 34.766 353.942 34.598C354.11 34.43 354.316 34.346 354.558 34.346C354.792 34.346 354.988 34.43 355.146 34.598C355.314 34.766 355.398 34.9713 355.398 35.214C355.398 35.4567 355.314 35.662 355.146 35.83C354.988 35.998 354.792 36.082 354.558 36.082ZM355.174 37.328V45H353.9V37.328H355.174ZM361.084 37.188C362.017 37.188 362.773 37.4727 363.352 38.042C363.93 38.602 364.22 39.414 364.22 40.478V45H362.96V40.66C362.96 39.8947 362.768 39.3113 362.386 38.91C362.003 38.4993 361.48 38.294 360.818 38.294C360.146 38.294 359.609 38.504 359.208 38.924C358.816 39.344 358.62 39.9553 358.62 40.758V45H357.346V37.328H358.62V38.42C358.872 38.028 359.212 37.7247 359.642 37.51C360.08 37.2953 360.561 37.188 361.084 37.188ZM369.465 37.202C370.127 37.202 370.706 37.3467 371.201 37.636C371.705 37.9253 372.078 38.2893 372.321 38.728V37.328H373.609V45.168C373.609 45.868 373.459 46.4887 373.161 47.03C372.862 47.5807 372.433 48.01 371.873 48.318C371.322 48.626 370.678 48.78 369.941 48.78C368.933 48.78 368.093 48.542 367.421 48.066C366.749 47.59 366.352 46.9413 366.231 46.12H367.491C367.631 46.5867 367.92 46.96 368.359 47.24C368.797 47.5293 369.325 47.674 369.941 47.674C370.641 47.674 371.21 47.4547 371.649 47.016C372.097 46.5773 372.321 45.9613 372.321 45.168V43.558C372.069 44.006 371.695 44.3793 371.201 44.678C370.706 44.9767 370.127 45.126 369.465 45.126C368.783 45.126 368.163 44.958 367.603 44.622C367.052 44.286 366.618 43.8147 366.301 43.208C365.983 42.6013 365.825 41.9107 365.825 41.136C365.825 40.352 365.983 39.666 366.301 39.078C366.618 38.4807 367.052 38.0187 367.603 37.692C368.163 37.3653 368.783 37.202 369.465 37.202ZM372.321 41.15C372.321 40.5713 372.204 40.0673 371.971 39.638C371.737 39.2087 371.42 38.882 371.019 38.658C370.627 38.4247 370.193 38.308 369.717 38.308C369.241 38.308 368.807 38.42 368.415 38.644C368.023 38.868 367.71 39.1947 367.477 39.624C367.243 40.0533 367.127 40.5573 367.127 41.136C367.127 41.724 367.243 42.2373 367.477 42.676C367.71 43.1053 368.023 43.4367 368.415 43.67C368.807 43.894 369.241 44.006 369.717 44.006C370.193 44.006 370.627 43.894 371.019 43.67C371.42 43.4367 371.737 43.1053 371.971 42.676C372.204 42.2373 372.321 41.7287 372.321 41.15ZM94.602 63.15C94.602 62.3567 94.7607 61.666 95.078 61.078C95.3953 60.4807 95.834 60.0187 96.394 59.692C96.9633 59.3653 97.612 59.202 98.34 59.202C99.2827 59.202 100.057 59.4307 100.664 59.888C101.28 60.3453 101.686 60.98 101.882 61.792H100.51C100.379 61.3253 100.123 60.9567 99.74 60.686C99.3667 60.4153 98.9 60.28 98.34 60.28C97.612 60.28 97.024 60.532 96.576 61.036C96.128 61.5307 95.904 62.2353 95.904 63.15C95.904 64.074 96.128 64.788 96.576 65.292C97.024 65.796 97.612 66.048 98.34 66.048C98.9 66.048 99.3667 65.9173 99.74 65.656C100.113 65.3947 100.37 65.0213 100.51 64.536H101.882C101.677 65.32 101.266 65.95 100.65 66.426C100.034 66.8927 99.264 67.126 98.34 67.126C97.612 67.126 96.9633 66.9627 96.394 66.636C95.834 66.3093 95.3953 65.8473 95.078 65.25C94.7607 64.6527 94.602 63.9527 94.602 63.15ZM106.928 67.126C106.209 67.126 105.556 66.9627 104.968 66.636C104.389 66.3093 103.932 65.8473 103.596 65.25C103.269 64.6433 103.106 63.9433 103.106 63.15C103.106 62.366 103.274 61.6753 103.61 61.078C103.955 60.4713 104.422 60.0093 105.01 59.692C105.598 59.3653 106.256 59.202 106.984 59.202C107.712 59.202 108.37 59.3653 108.958 59.692C109.546 60.0093 110.008 60.4667 110.344 61.064C110.689 61.6613 110.862 62.3567 110.862 63.15C110.862 63.9433 110.685 64.6433 110.33 65.25C109.985 65.8473 109.513 66.3093 108.916 66.636C108.319 66.9627 107.656 67.126 106.928 67.126ZM106.928 66.006C107.385 66.006 107.815 65.8987 108.216 65.684C108.617 65.4693 108.939 65.1473 109.182 64.718C109.434 64.2887 109.56 63.766 109.56 63.15C109.56 62.534 109.439 62.0113 109.196 61.582C108.953 61.1527 108.636 60.8353 108.244 60.63C107.852 60.4153 107.427 60.308 106.97 60.308C106.503 60.308 106.074 60.4153 105.682 60.63C105.299 60.8353 104.991 61.1527 104.758 61.582C104.525 62.0113 104.408 62.534 104.408 63.15C104.408 63.7753 104.52 64.3027 104.744 64.732C104.977 65.1613 105.285 65.4833 105.668 65.698C106.051 65.9033 106.471 66.006 106.928 66.006ZM116.275 59.188C117.208 59.188 117.964 59.4727 118.543 60.042C119.122 60.602 119.411 61.414 119.411 62.478V67H118.151V62.66C118.151 61.8947 117.96 61.3113 117.577 60.91C117.194 60.4993 116.672 60.294 116.009 60.294C115.337 60.294 114.8 60.504 114.399 60.924C114.007 61.344 113.811 61.9553 113.811 62.758V67H112.537V59.328H113.811V60.42C114.063 60.028 114.404 59.7247 114.833 59.51C115.272 59.2953 115.752 59.188 116.275 59.188ZM125.23 59.188C126.163 59.188 126.919 59.4727 127.498 60.042C128.077 60.602 128.366 61.414 128.366 62.478V67H127.106V62.66C127.106 61.8947 126.915 61.3113 126.532 60.91C126.149 60.4993 125.627 60.294 124.964 60.294C124.292 60.294 123.755 60.504 123.354 60.924C122.962 61.344 122.766 61.9553 122.766 62.758V67H121.492V59.328H122.766V60.42C123.018 60.028 123.359 59.7247 123.788 59.51C124.227 59.2953 124.707 59.188 125.23 59.188ZM137.447 62.87C137.447 63.1127 137.433 63.3693 137.405 63.64H131.273C131.32 64.396 131.576 64.9887 132.043 65.418C132.519 65.838 133.093 66.048 133.765 66.048C134.316 66.048 134.773 65.922 135.137 65.67C135.51 65.4087 135.772 65.0633 135.921 64.634H137.293C137.088 65.3713 136.677 65.9733 136.061 66.44C135.445 66.8973 134.68 67.126 133.765 67.126C133.037 67.126 132.384 66.9627 131.805 66.636C131.236 66.3093 130.788 65.8473 130.461 65.25C130.134 64.6433 129.971 63.9433 129.971 63.15C129.971 62.3567 130.13 61.6613 130.447 61.064C130.764 60.4667 131.208 60.0093 131.777 59.692C132.356 59.3653 133.018 59.202 133.765 59.202C134.493 59.202 135.137 59.3607 135.697 59.678C136.257 59.9953 136.686 60.434 136.985 60.994C137.293 61.5447 137.447 62.17 137.447 62.87ZM136.131 62.604C136.131 62.1187 136.024 61.7033 135.809 61.358C135.594 61.0033 135.3 60.7373 134.927 60.56C134.563 60.3733 134.157 60.28 133.709 60.28C133.065 60.28 132.514 60.4853 132.057 60.896C131.609 61.3067 131.352 61.876 131.287 62.604H136.131ZM138.653 63.15C138.653 62.3567 138.811 61.666 139.129 61.078C139.446 60.4807 139.885 60.0187 140.445 59.692C141.014 59.3653 141.663 59.202 142.391 59.202C143.333 59.202 144.108 59.4307 144.715 59.888C145.331 60.3453 145.737 60.98 145.933 61.792H144.561C144.43 61.3253 144.173 60.9567 143.791 60.686C143.417 60.4153 142.951 60.28 142.391 60.28C141.663 60.28 141.075 60.532 140.627 61.036C140.179 61.5307 139.955 62.2353 139.955 63.15C139.955 64.074 140.179 64.788 140.627 65.292C141.075 65.796 141.663 66.048 142.391 66.048C142.951 66.048 143.417 65.9173 143.791 65.656C144.164 65.3947 144.421 65.0213 144.561 64.536H145.933C145.727 65.32 145.317 65.95 144.701 66.426C144.085 66.8927 143.315 67.126 142.391 67.126C141.663 67.126 141.014 66.9627 140.445 66.636C139.885 66.3093 139.446 65.8473 139.129 65.25C138.811 64.6527 138.653 63.9527 138.653 63.15ZM149.187 60.378V64.9C149.187 65.2733 149.266 65.5393 149.425 65.698C149.583 65.8473 149.859 65.922 150.251 65.922H151.189V67H150.041C149.331 67 148.799 66.8367 148.445 66.51C148.09 66.1833 147.913 65.6467 147.913 64.9V60.378H146.919V59.328H147.913V57.396H149.187V59.328H151.189V60.378H149.187ZM153.39 58.082C153.148 58.082 152.942 57.998 152.774 57.83C152.606 57.662 152.522 57.4567 152.522 57.214C152.522 56.9713 152.606 56.766 152.774 56.598C152.942 56.43 153.148 56.346 153.39 56.346C153.624 56.346 153.82 56.43 153.978 56.598C154.146 56.766 154.23 56.9713 154.23 57.214C154.23 57.4567 154.146 57.662 153.978 57.83C153.82 57.998 153.624 58.082 153.39 58.082ZM154.006 59.328V67H152.732V59.328H154.006ZM159.524 67.126C158.805 67.126 158.152 66.9627 157.564 66.636C156.985 66.3093 156.528 65.8473 156.192 65.25C155.865 64.6433 155.702 63.9433 155.702 63.15C155.702 62.366 155.87 61.6753 156.206 61.078C156.551 60.4713 157.018 60.0093 157.606 59.692C158.194 59.3653 158.852 59.202 159.58 59.202C160.308 59.202 160.966 59.3653 161.554 59.692C162.142 60.0093 162.604 60.4667 162.94 61.064C163.285 61.6613 163.458 62.3567 163.458 63.15C163.458 63.9433 163.28 64.6433 162.926 65.25C162.58 65.8473 162.109 66.3093 161.512 66.636C160.914 66.9627 160.252 67.126 159.524 67.126ZM159.524 66.006C159.981 66.006 160.41 65.8987 160.812 65.684C161.213 65.4693 161.535 65.1473 161.778 64.718C162.03 64.2887 162.156 63.766 162.156 63.15C162.156 62.534 162.034 62.0113 161.792 61.582C161.549 61.1527 161.232 60.8353 160.84 60.63C160.448 60.4153 160.023 60.308 159.566 60.308C159.099 60.308 158.67 60.4153 158.278 60.63C157.895 60.8353 157.587 61.1527 157.354 61.582C157.12 62.0113 157.004 62.534 157.004 63.15C157.004 63.7753 157.116 64.3027 157.34 64.732C157.573 65.1613 157.881 65.4833 158.264 65.698C158.646 65.9033 159.066 66.006 159.524 66.006ZM168.871 59.188C169.804 59.188 170.56 59.4727 171.139 60.042C171.717 60.602 172.007 61.414 172.007 62.478V67H170.747V62.66C170.747 61.8947 170.555 61.3113 170.173 60.91C169.79 60.4993 169.267 60.294 168.605 60.294C167.933 60.294 167.396 60.504 166.995 60.924C166.603 61.344 166.407 61.9553 166.407 62.758V67H165.133V59.328H166.407V60.42C166.659 60.028 166.999 59.7247 167.429 59.51C167.867 59.2953 168.348 59.188 168.871 59.188ZM176.804 67.126C176.216 67.126 175.688 67.028 175.222 66.832C174.755 66.6267 174.386 66.3467 174.116 65.992C173.845 65.628 173.696 65.2127 173.668 64.746H174.984C175.021 65.1287 175.198 65.4413 175.516 65.684C175.842 65.9267 176.267 66.048 176.79 66.048C177.275 66.048 177.658 65.9407 177.938 65.726C178.218 65.5113 178.358 65.2407 178.358 64.914C178.358 64.578 178.208 64.3307 177.91 64.172C177.611 64.004 177.149 63.8407 176.524 63.682C175.954 63.5327 175.488 63.3833 175.124 63.234C174.769 63.0753 174.461 62.8467 174.2 62.548C173.948 62.24 173.822 61.8387 173.822 61.344C173.822 60.952 173.938 60.5927 174.172 60.266C174.405 59.9393 174.736 59.6827 175.166 59.496C175.595 59.3 176.085 59.202 176.636 59.202C177.485 59.202 178.171 59.4167 178.694 59.846C179.216 60.2753 179.496 60.8633 179.534 61.61H178.26C178.232 61.2087 178.068 60.8867 177.77 60.644C177.48 60.4013 177.088 60.28 176.594 60.28C176.136 60.28 175.772 60.378 175.502 60.574C175.231 60.77 175.096 61.0267 175.096 61.344C175.096 61.596 175.175 61.806 175.334 61.974C175.502 62.1327 175.707 62.2633 175.95 62.366C176.202 62.4593 176.547 62.5667 176.986 62.688C177.536 62.8373 177.984 62.9867 178.33 63.136C178.675 63.276 178.969 63.4907 179.212 63.78C179.464 64.0693 179.594 64.4473 179.604 64.914C179.604 65.334 179.487 65.712 179.254 66.048C179.02 66.384 178.689 66.65 178.26 66.846C177.84 67.0327 177.354 67.126 176.804 67.126ZM195.355 59.328L192.961 67H191.645L189.797 60.91L187.949 67H186.633L184.225 59.328H185.527L187.291 65.768L189.195 59.328H190.497L192.359 65.782L194.095 59.328H195.355ZM197.277 58.082C197.034 58.082 196.829 57.998 196.661 57.83C196.493 57.662 196.409 57.4567 196.409 57.214C196.409 56.9713 196.493 56.766 196.661 56.598C196.829 56.43 197.034 56.346 197.277 56.346C197.51 56.346 197.706 56.43 197.865 56.598C198.033 56.766 198.117 56.9713 198.117 57.214C198.117 57.4567 198.033 57.662 197.865 57.83C197.706 57.998 197.51 58.082 197.277 58.082ZM197.893 59.328V67H196.619V59.328H197.893ZM201.618 60.378V64.9C201.618 65.2733 201.698 65.5393 201.856 65.698C202.015 65.8473 202.29 65.922 202.682 65.922H203.62V67H202.472C201.763 67 201.231 66.8367 200.876 66.51C200.522 66.1833 200.344 65.6467 200.344 64.9V60.378H199.35V59.328H200.344V57.396H201.618V59.328H203.62V60.378H201.618ZM208.972 59.188C209.551 59.188 210.073 59.314 210.54 59.566C211.007 59.8087 211.371 60.1773 211.632 60.672C211.903 61.1667 212.038 61.7687 212.038 62.478V67H210.778V62.66C210.778 61.8947 210.587 61.3113 210.204 60.91C209.821 60.4993 209.299 60.294 208.636 60.294C207.964 60.294 207.427 60.504 207.026 60.924C206.634 61.344 206.438 61.9553 206.438 62.758V67H205.164V56.64H206.438V60.42C206.69 60.028 207.035 59.7247 207.474 59.51C207.922 59.2953 208.421 59.188 208.972 59.188ZM221.197 67.126C220.479 67.126 219.825 66.9627 219.237 66.636C218.659 66.3093 218.201 65.8473 217.865 65.25C217.539 64.6433 217.375 63.9433 217.375 63.15C217.375 62.366 217.543 61.6753 217.879 61.078C218.225 60.4713 218.691 60.0093 219.279 59.692C219.867 59.3653 220.525 59.202 221.253 59.202C221.981 59.202 222.639 59.3653 223.227 59.692C223.815 60.0093 224.277 60.4667 224.613 61.064C224.959 61.6613 225.131 62.3567 225.131 63.15C225.131 63.9433 224.954 64.6433 224.599 65.25C224.254 65.8473 223.783 66.3093 223.185 66.636C222.588 66.9627 221.925 67.126 221.197 67.126ZM221.197 66.006C221.655 66.006 222.084 65.8987 222.485 65.684C222.887 65.4693 223.209 65.1473 223.451 64.718C223.703 64.2887 223.829 63.766 223.829 63.15C223.829 62.534 223.708 62.0113 223.465 61.582C223.223 61.1527 222.905 60.8353 222.513 60.63C222.121 60.4153 221.697 60.308 221.239 60.308C220.773 60.308 220.343 60.4153 219.951 60.63C219.569 60.8353 219.261 61.1527 219.027 61.582C218.794 62.0113 218.677 62.534 218.677 63.15C218.677 63.7753 218.789 64.3027 219.013 64.732C219.247 65.1613 219.555 65.4833 219.937 65.698C220.32 65.9033 220.74 66.006 221.197 66.006ZM228.361 60.378V64.9C228.361 65.2733 228.44 65.5393 228.599 65.698C228.757 65.8473 229.033 65.922 229.425 65.922H230.363V67H229.215C228.505 67 227.973 66.8367 227.619 66.51C227.264 66.1833 227.087 65.6467 227.087 64.9V60.378H226.093V59.328H227.087V57.396H228.361V59.328H230.363V60.378H228.361ZM235.714 59.188C236.293 59.188 236.815 59.314 237.282 59.566C237.749 59.8087 238.113 60.1773 238.374 60.672C238.645 61.1667 238.78 61.7687 238.78 62.478V67H237.52V62.66C237.52 61.8947 237.329 61.3113 236.946 60.91C236.563 60.4993 236.041 60.294 235.378 60.294C234.706 60.294 234.169 60.504 233.768 60.924C233.376 61.344 233.18 61.9553 233.18 62.758V67H231.906V56.64H233.18V60.42C233.432 60.028 233.777 59.7247 234.216 59.51C234.664 59.2953 235.163 59.188 235.714 59.188ZM247.861 62.87C247.861 63.1127 247.847 63.3693 247.819 63.64H241.687C241.734 64.396 241.991 64.9887 242.457 65.418C242.933 65.838 243.507 66.048 244.179 66.048C244.73 66.048 245.187 65.922 245.551 65.67C245.925 65.4087 246.186 65.0633 246.335 64.634H247.707C247.502 65.3713 247.091 65.9733 246.475 66.44C245.859 66.8973 245.094 67.126 244.179 67.126C243.451 67.126 242.798 66.9627 242.219 66.636C241.65 66.3093 241.202 65.8473 240.875 65.25C240.549 64.6433 240.385 63.9433 240.385 63.15C240.385 62.3567 240.544 61.6613 240.861 61.064C241.179 60.4667 241.622 60.0093 242.191 59.692C242.77 59.3653 243.433 59.202 244.179 59.202C244.907 59.202 245.551 59.3607 246.111 59.678C246.671 59.9953 247.101 60.434 247.399 60.994C247.707 61.5447 247.861 62.17 247.861 62.87ZM246.545 62.604C246.545 62.1187 246.438 61.7033 246.223 61.358C246.009 61.0033 245.715 60.7373 245.341 60.56C244.977 60.3733 244.571 60.28 244.123 60.28C243.479 60.28 242.929 60.4853 242.471 60.896C242.023 61.3067 241.767 61.876 241.701 62.604H246.545ZM250.817 60.574C251.041 60.1353 251.358 59.7947 251.769 59.552C252.189 59.3093 252.698 59.188 253.295 59.188V60.504H252.959C251.531 60.504 250.817 61.2787 250.817 62.828V67H249.543V59.328H250.817V60.574ZM257.482 67.126C256.894 67.126 256.366 67.028 255.9 66.832C255.433 66.6267 255.064 66.3467 254.794 65.992C254.523 65.628 254.374 65.2127 254.346 64.746H255.662C255.699 65.1287 255.876 65.4413 256.194 65.684C256.52 65.9267 256.945 66.048 257.468 66.048C257.953 66.048 258.336 65.9407 258.616 65.726C258.896 65.5113 259.036 65.2407 259.036 64.914C259.036 64.578 258.886 64.3307 258.588 64.172C258.289 64.004 257.827 63.8407 257.202 63.682C256.632 63.5327 256.166 63.3833 255.802 63.234C255.447 63.0753 255.139 62.8467 254.878 62.548C254.626 62.24 254.5 61.8387 254.5 61.344C254.5 60.952 254.616 60.5927 254.85 60.266C255.083 59.9393 255.414 59.6827 255.844 59.496C256.273 59.3 256.763 59.202 257.314 59.202C258.163 59.202 258.849 59.4167 259.372 59.846C259.894 60.2753 260.174 60.8633 260.212 61.61H258.938C258.91 61.2087 258.746 60.8867 258.448 60.644C258.158 60.4013 257.766 60.28 257.272 60.28C256.814 60.28 256.45 60.378 256.18 60.574C255.909 60.77 255.774 61.0267 255.774 61.344C255.774 61.596 255.853 61.806 256.012 61.974C256.18 62.1327 256.385 62.2633 256.628 62.366C256.88 62.4593 257.225 62.5667 257.664 62.688C258.214 62.8373 258.662 62.9867 259.008 63.136C259.353 63.276 259.647 63.4907 259.89 63.78C260.142 64.0693 260.272 64.4473 260.282 64.914C260.282 65.334 260.165 65.712 259.932 66.048C259.698 66.384 259.367 66.65 258.938 66.846C258.518 67.0327 258.032 67.126 257.482 67.126ZM262.486 67.084C262.243 67.084 262.038 67 261.87 66.832C261.702 66.664 261.618 66.4587 261.618 66.216C261.618 65.9733 261.702 65.768 261.87 65.6C262.038 65.432 262.243 65.348 262.486 65.348C262.719 65.348 262.915 65.432 263.074 65.6C263.242 65.768 263.326 65.9733 263.326 66.216C263.326 66.4587 263.242 66.664 263.074 66.832C262.915 67 262.719 67.084 262.486 67.084ZM265.425 67.084C265.183 67.084 264.977 67 264.809 66.832C264.641 66.664 264.557 66.4587 264.557 66.216C264.557 65.9733 264.641 65.768 264.809 65.6C264.977 65.432 265.183 65.348 265.425 65.348C265.659 65.348 265.855 65.432 266.013 65.6C266.181 65.768 266.265 65.9733 266.265 66.216C266.265 66.4587 266.181 66.664 266.013 66.832C265.855 67 265.659 67.084 265.425 67.084ZM268.365 67.084C268.122 67.084 267.917 67 267.749 66.832C267.581 66.664 267.497 66.4587 267.497 66.216C267.497 65.9733 267.581 65.768 267.749 65.6C267.917 65.432 268.122 65.348 268.365 65.348C268.598 65.348 268.794 65.432 268.953 65.6C269.121 65.768 269.205 65.9733 269.205 66.216C269.205 66.4587 269.121 66.664 268.953 66.832C268.794 67 268.598 67.084 268.365 67.084Z" fill="#8D8D8D"/>
<path d="M275.905 60.574C276.129 60.1353 276.446 59.7947 276.857 59.552C277.277 59.3093 277.785 59.188 278.383 59.188V60.504H278.047C276.619 60.504 275.905 61.2787 275.905 62.828V67H274.631V59.328H275.905V60.574ZM286.853 62.87C286.853 63.1127 286.839 63.3693 286.811 63.64H280.679C280.726 64.396 280.983 64.9887 281.449 65.418C281.925 65.838 282.499 66.048 283.171 66.048C283.722 66.048 284.179 65.922 284.543 65.67C284.917 65.4087 285.178 65.0633 285.327 64.634H286.699C286.494 65.3713 286.083 65.9733 285.467 66.44C284.851 66.8973 284.086 67.126 283.171 67.126C282.443 67.126 281.79 66.9627 281.211 66.636C280.642 66.3093 280.194 65.8473 279.867 65.25C279.541 64.6433 279.377 63.9433 279.377 63.15C279.377 62.3567 279.536 61.6613 279.853 61.064C280.171 60.4667 280.614 60.0093 281.183 59.692C281.762 59.3653 282.425 59.202 283.171 59.202C283.899 59.202 284.543 59.3607 285.103 59.678C285.663 59.9953 286.093 60.434 286.391 60.994C286.699 61.5447 286.853 62.17 286.853 62.87ZM285.537 62.604C285.537 62.1187 285.43 61.7033 285.215 61.358C285.001 61.0033 284.707 60.7373 284.333 60.56C283.969 60.3733 283.563 60.28 283.115 60.28C282.471 60.28 281.921 60.4853 281.463 60.896C281.015 61.3067 280.759 61.876 280.693 62.604H285.537ZM288.059 63.136C288.059 62.352 288.218 61.666 288.535 61.078C288.852 60.4807 289.286 60.0187 289.837 59.692C290.397 59.3653 291.018 59.202 291.699 59.202C292.371 59.202 292.954 59.3467 293.449 59.636C293.944 59.9253 294.312 60.2893 294.555 60.728V59.328H295.843V67H294.555V65.572C294.303 66.02 293.925 66.3933 293.421 66.692C292.926 66.9813 292.348 67.126 291.685 67.126C291.004 67.126 290.388 66.958 289.837 66.622C289.286 66.286 288.852 65.8147 288.535 65.208C288.218 64.6013 288.059 63.9107 288.059 63.136ZM294.555 63.15C294.555 62.5713 294.438 62.0673 294.205 61.638C293.972 61.2087 293.654 60.882 293.253 60.658C292.861 60.4247 292.427 60.308 291.951 60.308C291.475 60.308 291.041 60.42 290.649 60.644C290.257 60.868 289.944 61.1947 289.711 61.624C289.478 62.0533 289.361 62.5573 289.361 63.136C289.361 63.724 289.478 64.2373 289.711 64.676C289.944 65.1053 290.257 65.4367 290.649 65.67C291.041 65.894 291.475 66.006 291.951 66.006C292.427 66.006 292.861 65.894 293.253 65.67C293.654 65.4367 293.972 65.1053 294.205 64.676C294.438 64.2373 294.555 63.7287 294.555 63.15ZM297.52 63.136C297.52 62.352 297.679 61.666 297.996 61.078C298.313 60.4807 298.747 60.0187 299.298 59.692C299.858 59.3653 300.483 59.202 301.174 59.202C301.771 59.202 302.327 59.342 302.84 59.622C303.353 59.8927 303.745 60.252 304.016 60.7V56.64H305.304V67H304.016V65.558C303.764 66.0153 303.391 66.3933 302.896 66.692C302.401 66.9813 301.823 67.126 301.16 67.126C300.479 67.126 299.858 66.958 299.298 66.622C298.747 66.286 298.313 65.8147 297.996 65.208C297.679 64.6013 297.52 63.9107 297.52 63.136ZM304.016 63.15C304.016 62.5713 303.899 62.0673 303.666 61.638C303.433 61.2087 303.115 60.882 302.714 60.658C302.322 60.4247 301.888 60.308 301.412 60.308C300.936 60.308 300.502 60.42 300.11 60.644C299.718 60.868 299.405 61.1947 299.172 61.624C298.939 62.0533 298.822 62.5573 298.822 63.136C298.822 63.724 298.939 64.2373 299.172 64.676C299.405 65.1053 299.718 65.4367 300.11 65.67C300.502 65.894 300.936 66.006 301.412 66.006C301.888 66.006 302.322 65.894 302.714 65.67C303.115 65.4367 303.433 65.1053 303.666 64.676C303.899 64.2373 304.016 63.7287 304.016 63.15ZM320.415 59.188C321.013 59.188 321.545 59.314 322.011 59.566C322.478 59.8087 322.847 60.1773 323.117 60.672C323.388 61.1667 323.523 61.7687 323.523 62.478V67H322.263V62.66C322.263 61.8947 322.072 61.3113 321.689 60.91C321.316 60.4993 320.807 60.294 320.163 60.294C319.501 60.294 318.973 60.5087 318.581 60.938C318.189 61.358 317.993 61.9693 317.993 62.772V67H316.733V62.66C316.733 61.8947 316.542 61.3113 316.159 60.91C315.786 60.4993 315.277 60.294 314.633 60.294C313.971 60.294 313.443 60.5087 313.051 60.938C312.659 61.358 312.463 61.9693 312.463 62.772V67H311.189V59.328H312.463V60.434C312.715 60.0327 313.051 59.7247 313.471 59.51C313.901 59.2953 314.372 59.188 314.885 59.188C315.529 59.188 316.099 59.3327 316.593 59.622C317.088 59.9113 317.457 60.336 317.699 60.896C317.914 60.3547 318.269 59.9347 318.763 59.636C319.258 59.3373 319.809 59.188 320.415 59.188ZM328.959 67.126C328.24 67.126 327.587 66.9627 326.999 66.636C326.42 66.3093 325.963 65.8473 325.627 65.25C325.3 64.6433 325.137 63.9433 325.137 63.15C325.137 62.366 325.305 61.6753 325.641 61.078C325.986 60.4713 326.453 60.0093 327.041 59.692C327.629 59.3653 328.287 59.202 329.015 59.202C329.743 59.202 330.401 59.3653 330.989 59.692C331.577 60.0093 332.039 60.4667 332.375 61.064C332.72 61.6613 332.893 62.3567 332.893 63.15C332.893 63.9433 332.716 64.6433 332.361 65.25C332.016 65.8473 331.544 66.3093 330.947 66.636C330.35 66.9627 329.687 67.126 328.959 67.126ZM328.959 66.006C329.416 66.006 329.846 65.8987 330.247 65.684C330.648 65.4693 330.97 65.1473 331.213 64.718C331.465 64.2887 331.591 63.766 331.591 63.15C331.591 62.534 331.47 62.0113 331.227 61.582C330.984 61.1527 330.667 60.8353 330.275 60.63C329.883 60.4153 329.458 60.308 329.001 60.308C328.534 60.308 328.105 60.4153 327.713 60.63C327.33 60.8353 327.022 61.1527 326.789 61.582C326.556 62.0113 326.439 62.534 326.439 63.15C326.439 63.7753 326.551 64.3027 326.775 64.732C327.008 65.1613 327.316 65.4833 327.699 65.698C328.082 65.9033 328.502 66.006 328.959 66.006ZM335.842 60.574C336.066 60.1353 336.384 59.7947 336.794 59.552C337.214 59.3093 337.723 59.188 338.32 59.188V60.504H337.984C336.556 60.504 335.842 61.2787 335.842 62.828V67H334.568V59.328H335.842V60.574ZM346.791 62.87C346.791 63.1127 346.777 63.3693 346.749 63.64H340.617C340.664 64.396 340.92 64.9887 341.387 65.418C341.863 65.838 342.437 66.048 343.109 66.048C343.66 66.048 344.117 65.922 344.481 65.67C344.854 65.4087 345.116 65.0633 345.265 64.634H346.637C346.432 65.3713 346.021 65.9733 345.405 66.44C344.789 66.8973 344.024 67.126 343.109 67.126C342.381 67.126 341.728 66.9627 341.149 66.636C340.58 66.3093 340.132 65.8473 339.805 65.25C339.478 64.6433 339.315 63.9433 339.315 63.15C339.315 62.3567 339.474 61.6613 339.791 61.064C340.108 60.4667 340.552 60.0093 341.121 59.692C341.7 59.3653 342.362 59.202 343.109 59.202C343.837 59.202 344.481 59.3607 345.041 59.678C345.601 59.9953 346.03 60.434 346.329 60.994C346.637 61.5447 346.791 62.17 346.791 62.87ZM345.475 62.604C345.475 62.1187 345.368 61.7033 345.153 61.358C344.938 61.0033 344.644 60.7373 344.271 60.56C343.907 60.3733 343.501 60.28 343.053 60.28C342.409 60.28 341.858 60.4853 341.401 60.896C340.953 61.3067 340.696 61.876 340.631 62.604H345.475Z" fill="#058E6E"/>
</svg>
