<svg width="460" height="71" viewBox="0 0 460 71" fill="none" xmlns="http://www.w3.org/2000/svg">
<path d="M77.576 9.4V7.336H81.432V19H79.128V9.4H77.576ZM90.7169 12.344V14.232H83.9329V12.344H90.7169ZM97.165 19.144C96.3117 19.144 95.5437 18.9573 94.861 18.584C94.1783 18.2 93.6397 17.6613 93.245 16.968C92.861 16.2747 92.669 15.4747 92.669 14.568C92.669 13.6613 92.8663 12.8613 93.261 12.168C93.6663 11.4747 94.2157 10.9413 94.909 10.568C95.6023 10.184 96.3757 9.992 97.229 9.992C98.0823 9.992 98.8557 10.184 99.549 10.568C100.242 10.9413 100.786 11.4747 101.181 12.168C101.586 12.8613 101.789 13.6613 101.789 14.568C101.789 15.4747 101.581 16.2747 101.165 16.968C100.76 17.6613 100.205 18.2 99.501 18.584C98.8077 18.9573 98.029 19.144 97.165 19.144ZM97.165 17.192C97.5703 17.192 97.949 17.096 98.301 16.904C98.6637 16.7013 98.9517 16.4027 99.165 16.008C99.3783 15.6133 99.485 15.1333 99.485 14.568C99.485 13.7253 99.261 13.08 98.813 12.632C98.3757 12.1733 97.837 11.944 97.197 11.944C96.557 11.944 96.0183 12.1733 95.581 12.632C95.1543 13.08 94.941 13.7253 94.941 14.568C94.941 15.4107 95.149 16.0613 95.565 16.52C95.9917 16.968 96.525 17.192 97.165 17.192ZM108.344 10.008C109.4 10.008 110.253 10.344 110.904 11.016C111.555 11.6773 111.88 12.6053 111.88 13.8V19H109.64V14.104C109.64 13.4 109.464 12.8613 109.112 12.488C108.76 12.104 108.28 11.912 107.672 11.912C107.053 11.912 106.563 12.104 106.2 12.488C105.848 12.8613 105.672 13.4 105.672 14.104V19H103.432V10.136H105.672V11.24C105.971 10.856 106.349 10.5573 106.808 10.344C107.277 10.12 107.789 10.008 108.344 10.008ZM120.826 12.344V14.232H114.042V12.344H120.826ZM122.81 9.4V7.336H126.666V19H124.362V9.4H122.81ZM135.188 7.16V19H132.948V7.16H135.188ZM145.641 14.376C145.641 14.696 145.62 14.984 145.577 15.24H139.097C139.15 15.88 139.374 16.3813 139.769 16.744C140.164 17.1067 140.649 17.288 141.225 17.288C142.057 17.288 142.649 16.9307 143.001 16.216H145.417C145.161 17.0693 144.67 17.7733 143.945 18.328C143.22 18.872 142.329 19.144 141.273 19.144C140.42 19.144 139.652 18.9573 138.969 18.584C138.297 18.2 137.769 17.6613 137.385 16.968C137.012 16.2747 136.825 15.4747 136.825 14.568C136.825 13.6507 137.012 12.8453 137.385 12.152C137.758 11.4587 138.281 10.9253 138.953 10.552C139.625 10.1787 140.398 9.992 141.273 9.992C142.116 9.992 142.868 10.1733 143.529 10.536C144.201 10.8987 144.718 11.416 145.081 12.088C145.454 12.7493 145.641 13.512 145.641 14.376ZM143.321 13.736C143.31 13.16 143.102 12.7013 142.697 12.36C142.292 12.008 141.796 11.832 141.209 11.832C140.654 11.832 140.185 12.0027 139.801 12.344C139.428 12.6747 139.198 13.1387 139.113 13.736H143.321ZM150.668 19.144C149.943 19.144 149.292 19.016 148.716 18.76C148.14 18.4933 147.681 18.136 147.34 17.688C147.009 17.24 146.828 16.744 146.796 16.2H149.052C149.095 16.5413 149.26 16.824 149.548 17.048C149.847 17.272 150.215 17.384 150.652 17.384C151.079 17.384 151.409 17.2987 151.644 17.128C151.889 16.9573 152.012 16.7387 152.012 16.472C152.012 16.184 151.863 15.9707 151.564 15.832C151.276 15.6827 150.812 15.5227 150.172 15.352C149.511 15.192 148.967 15.0267 148.54 14.856C148.124 14.6853 147.761 14.424 147.452 14.072C147.153 13.72 147.004 13.2453 147.004 12.648C147.004 12.1573 147.143 11.7093 147.42 11.304C147.708 10.8987 148.113 10.5787 148.636 10.344C149.169 10.1093 149.793 9.992 150.508 9.992C151.564 9.992 152.407 10.2587 153.036 10.792C153.665 11.3147 154.012 12.024 154.076 12.92H151.932C151.9 12.568 151.751 12.2907 151.484 12.088C151.228 11.8747 150.881 11.768 150.444 11.768C150.039 11.768 149.724 11.8427 149.5 11.992C149.287 12.1413 149.18 12.3493 149.18 12.616C149.18 12.9147 149.329 13.144 149.628 13.304C149.927 13.4533 150.391 13.608 151.02 13.768C151.66 13.928 152.188 14.0933 152.604 14.264C153.02 14.4347 153.377 14.7013 153.676 15.064C153.985 15.416 154.145 15.8853 154.156 16.472C154.156 16.984 154.012 17.4427 153.724 17.848C153.447 18.2533 153.041 18.5733 152.508 18.808C151.985 19.032 151.372 19.144 150.668 19.144ZM159.387 19.144C158.661 19.144 158.011 19.016 157.435 18.76C156.859 18.4933 156.4 18.136 156.059 17.688C155.728 17.24 155.547 16.744 155.515 16.2H157.771C157.813 16.5413 157.979 16.824 158.267 17.048C158.565 17.272 158.933 17.384 159.371 17.384C159.797 17.384 160.128 17.2987 160.363 17.128C160.608 16.9573 160.731 16.7387 160.731 16.472C160.731 16.184 160.581 15.9707 160.283 15.832C159.995 15.6827 159.531 15.5227 158.891 15.352C158.229 15.192 157.685 15.0267 157.259 14.856C156.843 14.6853 156.48 14.424 156.171 14.072C155.872 13.72 155.723 13.2453 155.723 12.648C155.723 12.1573 155.861 11.7093 156.139 11.304C156.427 10.8987 156.832 10.5787 157.355 10.344C157.888 10.1093 158.512 9.992 159.227 9.992C160.283 9.992 161.125 10.2587 161.755 10.792C162.384 11.3147 162.731 12.024 162.795 12.92H160.651C160.619 12.568 160.469 12.2907 160.203 12.088C159.947 11.8747 159.6 11.768 159.163 11.768C158.757 11.768 158.443 11.8427 158.219 11.992C158.005 12.1413 157.899 12.3493 157.899 12.616C157.899 12.9147 158.048 13.144 158.347 13.304C158.645 13.4533 159.109 13.608 159.739 13.768C160.379 13.928 160.907 14.0933 161.323 14.264C161.739 14.4347 162.096 14.7013 162.395 15.064C162.704 15.416 162.864 15.8853 162.875 16.472C162.875 16.984 162.731 17.4427 162.443 17.848C162.165 18.2533 161.76 18.5733 161.227 18.808C160.704 19.032 160.091 19.144 159.387 19.144ZM168.649 19.144C167.796 19.144 167.028 18.9573 166.345 18.584C165.663 18.2 165.124 17.6613 164.729 16.968C164.345 16.2747 164.153 15.4747 164.153 14.568C164.153 13.6613 164.351 12.8613 164.745 12.168C165.151 11.4747 165.7 10.9413 166.393 10.568C167.087 10.184 167.86 9.992 168.713 9.992C169.567 9.992 170.34 10.184 171.033 10.568C171.727 10.9413 172.271 11.4747 172.665 12.168C173.071 12.8613 173.273 13.6613 173.273 14.568C173.273 15.4747 173.065 16.2747 172.649 16.968C172.244 17.6613 171.689 18.2 170.985 18.584C170.292 18.9573 169.513 19.144 168.649 19.144ZM168.649 17.192C169.055 17.192 169.433 17.096 169.785 16.904C170.148 16.7013 170.436 16.4027 170.649 16.008C170.863 15.6133 170.969 15.1333 170.969 14.568C170.969 13.7253 170.745 13.08 170.297 12.632C169.86 12.1733 169.321 11.944 168.681 11.944C168.041 11.944 167.503 12.1733 167.065 12.632C166.639 13.08 166.425 13.7253 166.425 14.568C166.425 15.4107 166.633 16.0613 167.049 16.52C167.476 16.968 168.009 17.192 168.649 17.192ZM179.829 10.008C180.885 10.008 181.738 10.344 182.389 11.016C183.039 11.6773 183.365 12.6053 183.365 13.8V19H181.125V14.104C181.125 13.4 180.949 12.8613 180.597 12.488C180.245 12.104 179.765 11.912 179.157 11.912C178.538 11.912 178.047 12.104 177.685 12.488C177.333 12.8613 177.157 13.4 177.157 14.104V19H174.917V10.136H177.157V11.24C177.455 10.856 177.834 10.5573 178.293 10.344C178.762 10.12 179.274 10.008 179.829 10.008ZM188.887 19.144C188.161 19.144 187.511 19.016 186.935 18.76C186.359 18.4933 185.9 18.136 185.559 17.688C185.228 17.24 185.047 16.744 185.015 16.2H187.271C187.313 16.5413 187.479 16.824 187.767 17.048C188.065 17.272 188.433 17.384 188.871 17.384C189.297 17.384 189.628 17.2987 189.863 17.128C190.108 16.9573 190.231 16.7387 190.231 16.472C190.231 16.184 190.081 15.9707 189.783 15.832C189.495 15.6827 189.031 15.5227 188.391 15.352C187.729 15.192 187.185 15.0267 186.759 14.856C186.343 14.6853 185.98 14.424 185.671 14.072C185.372 13.72 185.223 13.2453 185.223 12.648C185.223 12.1573 185.361 11.7093 185.639 11.304C185.927 10.8987 186.332 10.5787 186.855 10.344C187.388 10.1093 188.012 9.992 188.727 9.992C189.783 9.992 190.625 10.2587 191.255 10.792C191.884 11.3147 192.231 12.024 192.295 12.92H190.151C190.119 12.568 189.969 12.2907 189.703 12.088C189.447 11.8747 189.1 11.768 188.663 11.768C188.257 11.768 187.943 11.8427 187.719 11.992C187.505 12.1413 187.399 12.3493 187.399 12.616C187.399 12.9147 187.548 13.144 187.847 13.304C188.145 13.4533 188.609 13.608 189.239 13.768C189.879 13.928 190.407 14.0933 190.823 14.264C191.239 14.4347 191.596 14.7013 191.895 15.064C192.204 15.416 192.364 15.8853 192.375 16.472C192.375 16.984 192.231 17.4427 191.943 17.848C191.665 18.2533 191.26 18.5733 190.727 18.808C190.204 19.032 189.591 19.144 188.887 19.144ZM199.162 9.08C198.767 9.08 198.437 8.95733 198.17 8.712C197.914 8.456 197.786 8.14133 197.786 7.768C197.786 7.39467 197.914 7.08533 198.17 6.84C198.437 6.584 198.767 6.456 199.162 6.456C199.557 6.456 199.882 6.584 200.138 6.84C200.405 7.08533 200.538 7.39467 200.538 7.768C200.538 8.14133 200.405 8.456 200.138 8.712C199.882 8.95733 199.557 9.08 199.162 9.08ZM200.266 10.136V19H198.026V10.136H200.266ZM207.391 10.008C208.447 10.008 209.3 10.344 209.951 11.016C210.602 11.6773 210.927 12.6053 210.927 13.8V19H208.687V14.104C208.687 13.4 208.511 12.8613 208.159 12.488C207.807 12.104 207.327 11.912 206.719 11.912C206.1 11.912 205.61 12.104 205.247 12.488C204.895 12.8613 204.719 13.4 204.719 14.104V19H202.479V10.136H204.719V11.24C205.018 10.856 205.396 10.5573 205.855 10.344C206.324 10.12 206.836 10.008 207.391 10.008ZM227.878 10.008C228.966 10.008 229.84 10.344 230.502 11.016C231.174 11.6773 231.51 12.6053 231.51 13.8V19H229.27V14.104C229.27 13.4107 229.094 12.8827 228.742 12.52C228.39 12.1467 227.91 11.96 227.302 11.96C226.694 11.96 226.208 12.1467 225.846 12.52C225.494 12.8827 225.318 13.4107 225.318 14.104V19H223.078V14.104C223.078 13.4107 222.902 12.8827 222.55 12.52C222.198 12.1467 221.718 11.96 221.11 11.96C220.491 11.96 220 12.1467 219.638 12.52C219.286 12.8827 219.11 13.4107 219.11 14.104V19H216.87V10.136H219.11V11.208C219.398 10.8347 219.766 10.5413 220.214 10.328C220.672 10.1147 221.174 10.008 221.718 10.008C222.411 10.008 223.03 10.1573 223.574 10.456C224.118 10.744 224.539 11.16 224.838 11.704C225.126 11.192 225.542 10.7813 226.086 10.472C226.64 10.1627 227.238 10.008 227.878 10.008ZM237.571 19.144C236.718 19.144 235.95 18.9573 235.267 18.584C234.585 18.2 234.046 17.6613 233.651 16.968C233.267 16.2747 233.075 15.4747 233.075 14.568C233.075 13.6613 233.273 12.8613 233.667 12.168C234.073 11.4747 234.622 10.9413 235.315 10.568C236.009 10.184 236.782 9.992 237.635 9.992C238.489 9.992 239.262 10.184 239.955 10.568C240.649 10.9413 241.193 11.4747 241.587 12.168C241.993 12.8613 242.195 13.6613 242.195 14.568C242.195 15.4747 241.987 16.2747 241.571 16.968C241.166 17.6613 240.611 18.2 239.907 18.584C239.214 18.9573 238.435 19.144 237.571 19.144ZM237.571 17.192C237.977 17.192 238.355 17.096 238.707 16.904C239.07 16.7013 239.358 16.4027 239.571 16.008C239.785 15.6133 239.891 15.1333 239.891 14.568C239.891 13.7253 239.667 13.08 239.219 12.632C238.782 12.1733 238.243 11.944 237.603 11.944C236.963 11.944 236.425 12.1733 235.987 12.632C235.561 13.08 235.347 13.7253 235.347 14.568C235.347 15.4107 235.555 16.0613 235.971 16.52C236.398 16.968 236.931 17.192 237.571 17.192ZM246.078 11.512C246.366 11.0427 246.74 10.6747 247.198 10.408C247.668 10.1413 248.201 10.008 248.798 10.008V12.36H248.206C247.502 12.36 246.969 12.5253 246.606 12.856C246.254 13.1867 246.078 13.7627 246.078 14.584V19H243.838V10.136H246.078V11.512ZM258.547 14.376C258.547 14.696 258.526 14.984 258.483 15.24H252.003C252.056 15.88 252.28 16.3813 252.675 16.744C253.07 17.1067 253.555 17.288 254.131 17.288C254.963 17.288 255.555 16.9307 255.907 16.216H258.323C258.067 17.0693 257.576 17.7733 256.851 18.328C256.126 18.872 255.235 19.144 254.179 19.144C253.326 19.144 252.558 18.9573 251.875 18.584C251.203 18.2 250.675 17.6613 250.291 16.968C249.918 16.2747 249.731 15.4747 249.731 14.568C249.731 13.6507 249.918 12.8453 250.291 12.152C250.664 11.4587 251.187 10.9253 251.859 10.552C252.531 10.1787 253.304 9.992 254.179 9.992C255.022 9.992 255.774 10.1733 256.435 10.536C257.107 10.8987 257.624 11.416 257.987 12.088C258.36 12.7493 258.547 13.512 258.547 14.376ZM256.227 13.736C256.216 13.16 256.008 12.7013 255.603 12.36C255.198 12.008 254.702 11.832 254.115 11.832C253.56 11.832 253.091 12.0027 252.707 12.344C252.334 12.6747 252.104 13.1387 252.019 13.736H256.227ZM266.603 11.976V16.264C266.603 16.5627 266.672 16.7813 266.811 16.92C266.96 17.048 267.205 17.112 267.547 17.112H268.587V19H267.179C265.291 19 264.347 18.0827 264.347 16.248V11.976H263.291V10.136H264.347V7.944H266.603V10.136H268.587V11.976H266.603ZM275.19 10.008C275.862 10.008 276.459 10.1573 276.982 10.456C277.504 10.744 277.91 11.176 278.198 11.752C278.496 12.3173 278.646 13 278.646 13.8V19H276.406V14.104C276.406 13.4 276.23 12.8613 275.878 12.488C275.526 12.104 275.046 11.912 274.438 11.912C273.819 11.912 273.328 12.104 272.966 12.488C272.614 12.8613 272.438 13.4 272.438 14.104V19H270.198V7.16H272.438V11.24C272.726 10.856 273.11 10.5573 273.59 10.344C274.07 10.12 274.603 10.008 275.19 10.008ZM280.2 14.536C280.2 13.64 280.376 12.8453 280.728 12.152C281.091 11.4587 281.576 10.9253 282.184 10.552C282.803 10.1787 283.491 9.992 284.248 9.992C284.909 9.992 285.485 10.1253 285.976 10.392C286.477 10.6587 286.877 10.9947 287.176 11.4V10.136H289.432V19H287.176V17.704C286.888 18.12 286.488 18.4667 285.976 18.744C285.475 19.0107 284.893 19.144 284.232 19.144C283.485 19.144 282.803 18.952 282.184 18.568C281.576 18.184 281.091 17.6453 280.728 16.952C280.376 16.248 280.2 15.4427 280.2 14.536ZM287.176 14.568C287.176 14.024 287.069 13.56 286.856 13.176C286.643 12.7813 286.355 12.4827 285.992 12.28C285.629 12.0667 285.24 11.96 284.824 11.96C284.408 11.96 284.024 12.0613 283.672 12.264C283.32 12.4667 283.032 12.7653 282.808 13.16C282.595 13.544 282.488 14.0027 282.488 14.536C282.488 15.0693 282.595 15.5387 282.808 15.944C283.032 16.3387 283.32 16.6427 283.672 16.856C284.035 17.0693 284.419 17.176 284.824 17.176C285.24 17.176 285.629 17.0747 285.992 16.872C286.355 16.6587 286.643 16.36 286.856 15.976C287.069 15.5813 287.176 15.112 287.176 14.568ZM296.532 10.008C297.588 10.008 298.441 10.344 299.092 11.016C299.742 11.6773 300.068 12.6053 300.068 13.8V19H297.828V14.104C297.828 13.4 297.652 12.8613 297.3 12.488C296.948 12.104 296.468 11.912 295.86 11.912C295.241 11.912 294.75 12.104 294.388 12.488C294.036 12.8613 293.86 13.4 293.86 14.104V19H291.62V10.136H293.86V11.24C294.158 10.856 294.537 10.5573 294.996 10.344C295.465 10.12 295.977 10.008 296.532 10.008ZM305.482 9.4V7.336H309.338V19H307.034V9.4H305.482ZM319.391 9.272H314.207V12.008C314.431 11.7307 314.751 11.5067 315.167 11.336C315.583 11.1547 316.026 11.064 316.495 11.064C317.348 11.064 318.047 11.2507 318.591 11.624C319.135 11.9973 319.53 12.4773 319.775 13.064C320.02 13.64 320.143 14.2587 320.143 14.92C320.143 16.1467 319.791 17.1333 319.087 17.88C318.394 18.6267 317.402 19 316.111 19C314.895 19 313.924 18.696 313.199 18.088C312.474 17.48 312.063 16.6853 311.967 15.704H314.143C314.239 16.1307 314.452 16.472 314.783 16.728C315.124 16.984 315.556 17.112 316.079 17.112C316.708 17.112 317.183 16.9147 317.503 16.52C317.823 16.1253 317.983 15.6027 317.983 14.952C317.983 14.2907 317.818 13.7893 317.487 13.448C317.167 13.096 316.692 12.92 316.063 12.92C315.615 12.92 315.242 13.032 314.943 13.256C314.644 13.48 314.431 13.7787 314.303 14.152H312.159V7.304H319.391V9.272ZM321.848 13.016C321.848 11.1707 322.179 9.72533 322.84 8.68C323.512 7.63467 324.621 7.112 326.168 7.112C327.715 7.112 328.819 7.63467 329.48 8.68C330.152 9.72533 330.488 11.1707 330.488 13.016C330.488 14.872 330.152 16.328 329.48 17.384C328.819 18.44 327.715 18.968 326.168 18.968C324.621 18.968 323.512 18.44 322.84 17.384C322.179 16.328 321.848 14.872 321.848 13.016ZM328.28 13.016C328.28 12.2267 328.227 11.5653 328.12 11.032C328.024 10.488 327.821 10.0453 327.512 9.704C327.213 9.36267 326.765 9.192 326.168 9.192C325.571 9.192 325.117 9.36267 324.808 9.704C324.509 10.0453 324.307 10.488 324.2 11.032C324.104 11.5653 324.056 12.2267 324.056 13.016C324.056 13.8267 324.104 14.5093 324.2 15.064C324.296 15.608 324.499 16.0507 324.808 16.392C325.117 16.7227 325.571 16.888 326.168 16.888C326.765 16.888 327.219 16.7227 327.528 16.392C327.837 16.0507 328.04 15.608 328.136 15.064C328.232 14.5093 328.28 13.8267 328.28 13.016ZM338.5 7.16V19H336.26V7.16H338.5ZM340.137 14.536C340.137 13.64 340.313 12.8453 340.665 12.152C341.028 11.4587 341.513 10.9253 342.121 10.552C342.74 10.1787 343.428 9.992 344.185 9.992C344.847 9.992 345.423 10.1253 345.913 10.392C346.415 10.6587 346.815 10.9947 347.113 11.4V10.136H349.369V19H347.113V17.704C346.825 18.12 346.425 18.4667 345.913 18.744C345.412 19.0107 344.831 19.144 344.169 19.144C343.423 19.144 342.74 18.952 342.121 18.568C341.513 18.184 341.028 17.6453 340.665 16.952C340.313 16.248 340.137 15.4427 340.137 14.536ZM347.113 14.568C347.113 14.024 347.007 13.56 346.793 13.176C346.58 12.7813 346.292 12.4827 345.929 12.28C345.567 12.0667 345.177 11.96 344.761 11.96C344.345 11.96 343.961 12.0613 343.609 12.264C343.257 12.4667 342.969 12.7653 342.745 13.16C342.532 13.544 342.425 14.0027 342.425 14.536C342.425 15.0693 342.532 15.5387 342.745 15.944C342.969 16.3387 343.257 16.6427 343.609 16.856C343.972 17.0693 344.356 17.176 344.761 17.176C345.177 17.176 345.567 17.0747 345.929 16.872C346.292 16.6587 346.58 16.36 346.793 15.976C347.007 15.5813 347.113 15.112 347.113 14.568ZM356.469 10.008C357.525 10.008 358.378 10.344 359.029 11.016C359.68 11.6773 360.005 12.6053 360.005 13.8V19H357.765V14.104C357.765 13.4 357.589 12.8613 357.237 12.488C356.885 12.104 356.405 11.912 355.797 11.912C355.178 11.912 354.688 12.104 354.325 12.488C353.973 12.8613 353.797 13.4 353.797 14.104V19H351.557V10.136H353.797V11.24C354.096 10.856 354.474 10.5573 354.933 10.344C355.402 10.12 355.914 10.008 356.469 10.008ZM365.607 9.992C366.269 9.992 366.85 10.1253 367.351 10.392C367.853 10.648 368.247 10.984 368.535 11.4V10.136H370.791V19.064C370.791 19.8853 370.626 20.616 370.295 21.256C369.965 21.9067 369.469 22.4187 368.807 22.792C368.146 23.176 367.346 23.368 366.407 23.368C365.149 23.368 364.114 23.0747 363.303 22.488C362.503 21.9013 362.05 21.1013 361.943 20.088H364.167C364.285 20.4933 364.535 20.8133 364.919 21.048C365.314 21.2933 365.789 21.416 366.343 21.416C366.994 21.416 367.522 21.2187 367.927 20.824C368.333 20.44 368.535 19.8533 368.535 19.064V17.688C368.247 18.104 367.847 18.4507 367.335 18.728C366.834 19.0053 366.258 19.144 365.607 19.144C364.861 19.144 364.178 18.952 363.559 18.568C362.941 18.184 362.45 17.6453 362.087 16.952C361.735 16.248 361.559 15.4427 361.559 14.536C361.559 13.64 361.735 12.8453 362.087 12.152C362.45 11.4587 362.935 10.9253 363.543 10.552C364.162 10.1787 364.85 9.992 365.607 9.992ZM368.535 14.568C368.535 14.024 368.429 13.56 368.215 13.176C368.002 12.7813 367.714 12.4827 367.351 12.28C366.989 12.0667 366.599 11.96 366.183 11.96C365.767 11.96 365.383 12.0613 365.031 12.264C364.679 12.4667 364.391 12.7653 364.167 13.16C363.954 13.544 363.847 14.0027 363.847 14.536C363.847 15.0693 363.954 15.5387 364.167 15.944C364.391 16.3387 364.679 16.6427 365.031 16.856C365.394 17.0693 365.778 17.176 366.183 17.176C366.599 17.176 366.989 17.0747 367.351 16.872C367.714 16.6587 368.002 16.36 368.215 15.976C368.429 15.5813 368.535 15.112 368.535 14.568ZM381.347 10.136V19H379.091V17.88C378.803 18.264 378.424 18.568 377.955 18.792C377.496 19.0053 376.995 19.112 376.451 19.112C375.758 19.112 375.144 18.968 374.611 18.68C374.078 18.3813 373.656 17.9493 373.347 17.384C373.048 16.808 372.899 16.1253 372.899 15.336V10.136H375.139V15.016C375.139 15.72 375.315 16.264 375.667 16.648C376.019 17.0213 376.499 17.208 377.107 17.208C377.726 17.208 378.211 17.0213 378.563 16.648C378.915 16.264 379.091 15.72 379.091 15.016V10.136H381.347ZM382.981 14.536C382.981 13.64 383.157 12.8453 383.509 12.152C383.872 11.4587 384.357 10.9253 384.965 10.552C385.584 10.1787 386.272 9.992 387.029 9.992C387.69 9.992 388.266 10.1253 388.757 10.392C389.258 10.6587 389.658 10.9947 389.957 11.4V10.136H392.213V19H389.957V17.704C389.669 18.12 389.269 18.4667 388.757 18.744C388.256 19.0107 387.674 19.144 387.013 19.144C386.266 19.144 385.584 18.952 384.965 18.568C384.357 18.184 383.872 17.6453 383.509 16.952C383.157 16.248 382.981 15.4427 382.981 14.536ZM389.957 14.568C389.957 14.024 389.85 13.56 389.637 13.176C389.424 12.7813 389.136 12.4827 388.773 12.28C388.41 12.0667 388.021 11.96 387.605 11.96C387.189 11.96 386.805 12.0613 386.453 12.264C386.101 12.4667 385.813 12.7653 385.589 13.16C385.376 13.544 385.269 14.0027 385.269 14.536C385.269 15.0693 385.376 15.5387 385.589 15.944C385.813 16.3387 386.101 16.6427 386.453 16.856C386.816 17.0693 387.2 17.176 387.605 17.176C388.021 17.176 388.41 17.0747 388.773 16.872C389.136 16.6587 389.424 16.36 389.637 15.976C389.85 15.5813 389.957 15.112 389.957 14.568ZM397.873 9.992C398.534 9.992 399.116 10.1253 399.617 10.392C400.118 10.648 400.513 10.984 400.801 11.4V10.136H403.057V19.064C403.057 19.8853 402.892 20.616 402.561 21.256C402.23 21.9067 401.734 22.4187 401.073 22.792C400.412 23.176 399.612 23.368 398.673 23.368C397.414 23.368 396.38 23.0747 395.569 22.488C394.769 21.9013 394.316 21.1013 394.209 20.088H396.433C396.55 20.4933 396.801 20.8133 397.185 21.048C397.58 21.2933 398.054 21.416 398.609 21.416C399.26 21.416 399.788 21.2187 400.193 20.824C400.598 20.44 400.801 19.8533 400.801 19.064V17.688C400.513 18.104 400.113 18.4507 399.601 18.728C399.1 19.0053 398.524 19.144 397.873 19.144C397.126 19.144 396.444 18.952 395.825 18.568C395.206 18.184 394.716 17.6453 394.353 16.952C394.001 16.248 393.825 15.4427 393.825 14.536C393.825 13.64 394.001 12.8453 394.353 12.152C394.716 11.4587 395.201 10.9253 395.809 10.552C396.428 10.1787 397.116 9.992 397.873 9.992ZM400.801 14.568C400.801 14.024 400.694 13.56 400.481 13.176C400.268 12.7813 399.98 12.4827 399.617 12.28C399.254 12.0667 398.865 11.96 398.449 11.96C398.033 11.96 397.649 12.0613 397.297 12.264C396.945 12.4667 396.657 12.7653 396.433 13.16C396.22 13.544 396.113 14.0027 396.113 14.536C396.113 15.0693 396.22 15.5387 396.433 15.944C396.657 16.3387 396.945 16.6427 397.297 16.856C397.66 17.0693 398.044 17.176 398.449 17.176C398.865 17.176 399.254 17.0747 399.617 16.872C399.98 16.6587 400.268 16.36 400.481 15.976C400.694 15.5813 400.801 15.112 400.801 14.568ZM413.485 14.376C413.485 14.696 413.463 14.984 413.421 15.24H406.941C406.994 15.88 407.218 16.3813 407.613 16.744C408.007 17.1067 408.493 17.288 409.069 17.288C409.901 17.288 410.493 16.9307 410.845 16.216H413.261C413.005 17.0693 412.514 17.7733 411.789 18.328C411.063 18.872 410.173 19.144 409.117 19.144C408.263 19.144 407.495 18.9573 406.813 18.584C406.141 18.2 405.613 17.6613 405.229 16.968C404.855 16.2747 404.669 15.4747 404.669 14.568C404.669 13.6507 404.855 12.8453 405.229 12.152C405.602 11.4587 406.125 10.9253 406.797 10.552C407.469 10.1787 408.242 9.992 409.117 9.992C409.959 9.992 410.711 10.1733 411.373 10.536C412.045 10.8987 412.562 11.416 412.925 12.088C413.298 12.7493 413.485 13.512 413.485 14.376ZM411.165 13.736C411.154 13.16 410.946 12.7013 410.541 12.36C410.135 12.008 409.639 11.832 409.053 11.832C408.498 11.832 408.029 12.0027 407.645 12.344C407.271 12.6747 407.042 13.1387 406.957 13.736H411.165ZM418.512 19.144C417.786 19.144 417.136 19.016 416.56 18.76C415.984 18.4933 415.525 18.136 415.184 17.688C414.853 17.24 414.672 16.744 414.64 16.2H416.896C416.938 16.5413 417.104 16.824 417.392 17.048C417.69 17.272 418.058 17.384 418.496 17.384C418.922 17.384 419.253 17.2987 419.488 17.128C419.733 16.9573 419.856 16.7387 419.856 16.472C419.856 16.184 419.706 15.9707 419.408 15.832C419.12 15.6827 418.656 15.5227 418.016 15.352C417.354 15.192 416.81 15.0267 416.384 14.856C415.968 14.6853 415.605 14.424 415.296 14.072C414.997 13.72 414.848 13.2453 414.848 12.648C414.848 12.1573 414.986 11.7093 415.264 11.304C415.552 10.8987 415.957 10.5787 416.48 10.344C417.013 10.1093 417.637 9.992 418.352 9.992C419.408 9.992 420.25 10.2587 420.88 10.792C421.509 11.3147 421.856 12.024 421.92 12.92H419.776C419.744 12.568 419.594 12.2907 419.328 12.088C419.072 11.8747 418.725 11.768 418.288 11.768C417.882 11.768 417.568 11.8427 417.344 11.992C417.13 12.1413 417.024 12.3493 417.024 12.616C417.024 12.9147 417.173 13.144 417.472 13.304C417.77 13.4533 418.234 13.608 418.864 13.768C419.504 13.928 420.032 14.0933 420.448 14.264C420.864 14.4347 421.221 14.7013 421.52 15.064C421.829 15.416 421.989 15.8853 422 16.472C422 16.984 421.856 17.4427 421.568 17.848C421.29 18.2533 420.885 18.5733 420.352 18.808C419.829 19.032 419.216 19.144 418.512 19.144Z" fill="#393939"/>
<path d="M35.4034 4.33313C42.7484 4.33313 47.6667 9.4898 47.6667 17.1598V34.8636C47.6667 42.5098 42.7484 47.6665 35.4034 47.6665H16.6184C9.27342 47.6665 4.33342 42.5098 4.33342 34.8636V17.1598C4.33342 9.4898 9.27342 4.33313 16.6184 4.33313H35.4034ZM35.0568 19.4998C34.3201 18.7631 33.1068 18.7631 32.3701 19.4998L23.4218 28.4481L19.6301 24.6565C18.8934 23.9198 17.6801 23.9198 16.9434 24.6565C16.2068 25.3931 16.2068 26.5848 16.9434 27.3431L22.1001 32.4781C22.4684 32.8465 22.9451 33.0198 23.4218 33.0198C23.9201 33.0198 24.3968 32.8465 24.7651 32.4781L35.0568 22.1865C35.7934 21.4498 35.7934 20.2581 35.0568 19.4998Z" fill="#058E6E"/>
<path d="M83.4852 42.046C83.0092 42.046 82.6032 41.8827 82.2672 41.556C81.9406 41.22 81.7772 40.814 81.7772 40.338C81.7772 39.8527 81.9406 39.4467 82.2672 39.12C82.6032 38.784 83.0092 38.616 83.4852 38.616C83.9706 38.616 84.3812 38.784 84.7172 39.12C85.0532 39.4467 85.2212 39.8527 85.2212 40.338C85.2212 40.814 85.0532 41.22 84.7172 41.556C84.3812 41.8827 83.9706 42.046 83.4852 42.046ZM96.352 43.964H99.768V45H95.078V35.242H96.352V43.964ZM108.121 40.87C108.121 41.1127 108.107 41.3693 108.079 41.64H101.947C101.994 42.396 102.25 42.9887 102.717 43.418C103.193 43.838 103.767 44.048 104.439 44.048C104.99 44.048 105.447 43.922 105.811 43.67C106.184 43.4087 106.446 43.0633 106.595 42.634H107.967C107.762 43.3713 107.351 43.9733 106.735 44.44C106.119 44.8973 105.354 45.126 104.439 45.126C103.711 45.126 103.058 44.9627 102.479 44.636C101.91 44.3093 101.462 43.8473 101.135 43.25C100.808 42.6433 100.645 41.9433 100.645 41.15C100.645 40.3567 100.804 39.6613 101.121 39.064C101.438 38.4667 101.882 38.0093 102.451 37.692C103.03 37.3653 103.692 37.202 104.439 37.202C105.167 37.202 105.811 37.3607 106.371 37.678C106.931 37.9953 107.36 38.434 107.659 38.994C107.967 39.5447 108.121 40.17 108.121 40.87ZM106.805 40.604C106.805 40.1187 106.698 39.7033 106.483 39.358C106.268 39.0033 105.974 38.7373 105.601 38.56C105.237 38.3733 104.831 38.28 104.383 38.28C103.739 38.28 103.188 38.4853 102.731 38.896C102.283 39.3067 102.026 39.876 101.961 40.604H106.805ZM109.327 41.136C109.327 40.352 109.485 39.666 109.803 39.078C110.12 38.4807 110.554 38.0187 111.105 37.692C111.665 37.3653 112.285 37.202 112.967 37.202C113.639 37.202 114.222 37.3467 114.717 37.636C115.211 37.9253 115.58 38.2893 115.823 38.728V37.328H117.111V45H115.823V43.572C115.571 44.02 115.193 44.3933 114.689 44.692C114.194 44.9813 113.615 45.126 112.953 45.126C112.271 45.126 111.655 44.958 111.105 44.622C110.554 44.286 110.12 43.8147 109.803 43.208C109.485 42.6013 109.327 41.9107 109.327 41.136ZM115.823 41.15C115.823 40.5713 115.706 40.0673 115.473 39.638C115.239 39.2087 114.922 38.882 114.521 38.658C114.129 38.4247 113.695 38.308 113.219 38.308C112.743 38.308 112.309 38.42 111.917 38.644C111.525 38.868 111.212 39.1947 110.979 39.624C110.745 40.0533 110.629 40.5573 110.629 41.136C110.629 41.724 110.745 42.2373 110.979 42.676C111.212 43.1053 111.525 43.4367 111.917 43.67C112.309 43.894 112.743 44.006 113.219 44.006C113.695 44.006 114.129 43.894 114.521 43.67C114.922 43.4367 115.239 43.1053 115.473 42.676C115.706 42.2373 115.823 41.7287 115.823 41.15ZM120.538 38.574C120.762 38.1353 121.079 37.7947 121.49 37.552C121.91 37.3093 122.418 37.188 123.016 37.188V38.504H122.68C121.252 38.504 120.538 39.2787 120.538 40.828V45H119.264V37.328H120.538V38.574ZM128.224 37.188C129.158 37.188 129.914 37.4727 130.492 38.042C131.071 38.602 131.36 39.414 131.36 40.478V45H130.1V40.66C130.1 39.8947 129.909 39.3113 129.526 38.91C129.144 38.4993 128.621 38.294 127.958 38.294C127.286 38.294 126.75 38.504 126.348 38.924C125.956 39.344 125.76 39.9553 125.76 40.758V45H124.486V37.328H125.76V38.42C126.012 38.028 126.353 37.7247 126.782 37.51C127.221 37.2953 127.702 37.188 128.224 37.188ZM140.296 38.378H138.686V45H137.412V38.378H136.418V37.328H137.412V36.782C137.412 35.9233 137.631 35.298 138.07 34.906C138.518 34.5047 139.232 34.304 140.212 34.304V35.368C139.652 35.368 139.255 35.48 139.022 35.704C138.798 35.9187 138.686 36.278 138.686 36.782V37.328H140.296V38.378ZM143.055 38.574C143.279 38.1353 143.596 37.7947 144.007 37.552C144.427 37.3093 144.936 37.188 145.533 37.188V38.504H145.197C143.769 38.504 143.055 39.2787 143.055 40.828V45H141.781V37.328H143.055V38.574ZM150.35 45.126C149.631 45.126 148.978 44.9627 148.39 44.636C147.811 44.3093 147.354 43.8473 147.018 43.25C146.691 42.6433 146.528 41.9433 146.528 41.15C146.528 40.366 146.696 39.6753 147.032 39.078C147.377 38.4713 147.844 38.0093 148.432 37.692C149.02 37.3653 149.678 37.202 150.406 37.202C151.134 37.202 151.792 37.3653 152.38 37.692C152.968 38.0093 153.43 38.4667 153.766 39.064C154.111 39.6613 154.284 40.3567 154.284 41.15C154.284 41.9433 154.106 42.6433 153.752 43.25C153.406 43.8473 152.935 44.3093 152.338 44.636C151.74 44.9627 151.078 45.126 150.35 45.126ZM150.35 44.006C150.807 44.006 151.236 43.8987 151.638 43.684C152.039 43.4693 152.361 43.1473 152.604 42.718C152.856 42.2887 152.982 41.766 152.982 41.15C152.982 40.534 152.86 40.0113 152.618 39.582C152.375 39.1527 152.058 38.8353 151.666 38.63C151.274 38.4153 150.849 38.308 150.392 38.308C149.925 38.308 149.496 38.4153 149.104 38.63C148.721 38.8353 148.413 39.1527 148.18 39.582C147.946 40.0113 147.83 40.534 147.83 41.15C147.83 41.7753 147.942 42.3027 148.166 42.732C148.399 43.1613 148.707 43.4833 149.09 43.698C149.472 43.9033 149.892 44.006 150.35 44.006ZM165.185 37.188C165.782 37.188 166.314 37.314 166.781 37.566C167.248 37.8087 167.616 38.1773 167.887 38.672C168.158 39.1667 168.293 39.7687 168.293 40.478V45H167.033V40.66C167.033 39.8947 166.842 39.3113 166.459 38.91C166.086 38.4993 165.577 38.294 164.933 38.294C164.27 38.294 163.743 38.5087 163.351 38.938C162.959 39.358 162.763 39.9693 162.763 40.772V45H161.503V40.66C161.503 39.8947 161.312 39.3113 160.929 38.91C160.556 38.4993 160.047 38.294 159.403 38.294C158.74 38.294 158.213 38.5087 157.821 38.938C157.429 39.358 157.233 39.9693 157.233 40.772V45H155.959V37.328H157.233V38.434C157.485 38.0327 157.821 37.7247 158.241 37.51C158.67 37.2953 159.142 37.188 159.655 37.188C160.299 37.188 160.868 37.3327 161.363 37.622C161.858 37.9113 162.226 38.336 162.469 38.896C162.684 38.3547 163.038 37.9347 163.533 37.636C164.028 37.3373 164.578 37.188 165.185 37.188ZM173.639 41.15C173.639 40.3567 173.798 39.666 174.115 39.078C174.432 38.4807 174.871 38.0187 175.431 37.692C176 37.3653 176.649 37.202 177.377 37.202C178.32 37.202 179.094 37.4307 179.701 37.888C180.317 38.3453 180.723 38.98 180.919 39.792H179.547C179.416 39.3253 179.16 38.9567 178.777 38.686C178.404 38.4153 177.937 38.28 177.377 38.28C176.649 38.28 176.061 38.532 175.613 39.036C175.165 39.5307 174.941 40.2353 174.941 41.15C174.941 42.074 175.165 42.788 175.613 43.292C176.061 43.796 176.649 44.048 177.377 44.048C177.937 44.048 178.404 43.9173 178.777 43.656C179.15 43.3947 179.407 43.0213 179.547 42.536H180.919C180.714 43.32 180.303 43.95 179.687 44.426C179.071 44.8927 178.301 45.126 177.377 45.126C176.649 45.126 176 44.9627 175.431 44.636C174.871 44.3093 174.432 43.8473 174.115 43.25C173.798 42.6527 173.639 41.9527 173.639 41.15ZM189.619 40.87C189.619 41.1127 189.605 41.3693 189.577 41.64H183.445C183.492 42.396 183.748 42.9887 184.215 43.418C184.691 43.838 185.265 44.048 185.937 44.048C186.488 44.048 186.945 43.922 187.309 43.67C187.682 43.4087 187.944 43.0633 188.093 42.634H189.465C189.26 43.3713 188.849 43.9733 188.233 44.44C187.617 44.8973 186.852 45.126 185.937 45.126C185.209 45.126 184.556 44.9627 183.977 44.636C183.408 44.3093 182.96 43.8473 182.633 43.25C182.306 42.6433 182.143 41.9433 182.143 41.15C182.143 40.3567 182.302 39.6613 182.619 39.064C182.936 38.4667 183.38 38.0093 183.949 37.692C184.528 37.3653 185.19 37.202 185.937 37.202C186.665 37.202 187.309 37.3607 187.869 37.678C188.429 37.9953 188.858 38.434 189.157 38.994C189.465 39.5447 189.619 40.17 189.619 40.87ZM188.303 40.604C188.303 40.1187 188.196 39.7033 187.981 39.358C187.766 39.0033 187.472 38.7373 187.099 38.56C186.735 38.3733 186.329 38.28 185.881 38.28C185.237 38.28 184.686 38.4853 184.229 38.896C183.781 39.3067 183.524 39.876 183.459 40.604H188.303ZM192.575 38.574C192.799 38.1353 193.116 37.7947 193.527 37.552C193.947 37.3093 194.455 37.188 195.053 37.188V38.504H194.717C193.289 38.504 192.575 39.2787 192.575 40.828V45H191.301V37.328H192.575V38.574ZM198.077 38.378V42.9C198.077 43.2733 198.157 43.5393 198.315 43.698C198.474 43.8473 198.749 43.922 199.141 43.922H200.079V45H198.931C198.222 45 197.69 44.8367 197.335 44.51C196.981 44.1833 196.803 43.6467 196.803 42.9V38.378H195.809V37.328H196.803V35.396H198.077V37.328H200.079V38.378H198.077ZM202.281 36.082C202.038 36.082 201.833 35.998 201.665 35.83C201.497 35.662 201.413 35.4567 201.413 35.214C201.413 34.9713 201.497 34.766 201.665 34.598C201.833 34.43 202.038 34.346 202.281 34.346C202.514 34.346 202.71 34.43 202.869 34.598C203.037 34.766 203.121 34.9713 203.121 35.214C203.121 35.4567 203.037 35.662 202.869 35.83C202.71 35.998 202.514 36.082 202.281 36.082ZM202.897 37.328V45H201.623V37.328H202.897ZM208.19 38.378H206.58V45H205.306V38.378H204.312V37.328H205.306V36.782C205.306 35.9233 205.526 35.298 205.964 34.906C206.412 34.5047 207.126 34.304 208.106 34.304V35.368C207.546 35.368 207.15 35.48 206.916 35.704C206.692 35.9187 206.58 36.278 206.58 36.782V37.328H208.19V38.378ZM210.334 36.082C210.091 36.082 209.886 35.998 209.718 35.83C209.55 35.662 209.466 35.4567 209.466 35.214C209.466 34.9713 209.55 34.766 209.718 34.598C209.886 34.43 210.091 34.346 210.334 34.346C210.567 34.346 210.763 34.43 210.922 34.598C211.09 34.766 211.174 34.9713 211.174 35.214C211.174 35.4567 211.09 35.662 210.922 35.83C210.763 35.998 210.567 36.082 210.334 36.082ZM210.95 37.328V45H209.676V37.328H210.95ZM220.121 40.87C220.121 41.1127 220.107 41.3693 220.079 41.64H213.947C213.994 42.396 214.25 42.9887 214.717 43.418C215.193 43.838 215.767 44.048 216.439 44.048C216.99 44.048 217.447 43.922 217.811 43.67C218.184 43.4087 218.446 43.0633 218.595 42.634H219.967C219.762 43.3713 219.351 43.9733 218.735 44.44C218.119 44.8973 217.354 45.126 216.439 45.126C215.711 45.126 215.058 44.9627 214.479 44.636C213.91 44.3093 213.462 43.8473 213.135 43.25C212.808 42.6433 212.645 41.9433 212.645 41.15C212.645 40.3567 212.804 39.6613 213.121 39.064C213.438 38.4667 213.882 38.0093 214.451 37.692C215.03 37.3653 215.692 37.202 216.439 37.202C217.167 37.202 217.811 37.3607 218.371 37.678C218.931 37.9953 219.36 38.434 219.659 38.994C219.967 39.5447 220.121 40.17 220.121 40.87ZM218.805 40.604C218.805 40.1187 218.698 39.7033 218.483 39.358C218.268 39.0033 217.974 38.7373 217.601 38.56C217.237 38.3733 216.831 38.28 216.383 38.28C215.739 38.28 215.188 38.4853 214.731 38.896C214.283 39.3067 214.026 39.876 213.961 40.604H218.805ZM221.327 41.136C221.327 40.352 221.485 39.666 221.803 39.078C222.12 38.4807 222.554 38.0187 223.105 37.692C223.665 37.3653 224.29 37.202 224.981 37.202C225.578 37.202 226.133 37.342 226.647 37.622C227.16 37.8927 227.552 38.252 227.823 38.7V34.64H229.111V45H227.823V43.558C227.571 44.0153 227.197 44.3933 226.703 44.692C226.208 44.9813 225.629 45.126 224.967 45.126C224.285 45.126 223.665 44.958 223.105 44.622C222.554 44.286 222.12 43.8147 221.803 43.208C221.485 42.6013 221.327 41.9107 221.327 41.136ZM227.823 41.15C227.823 40.5713 227.706 40.0673 227.473 39.638C227.239 39.2087 226.922 38.882 226.521 38.658C226.129 38.4247 225.695 38.308 225.219 38.308C224.743 38.308 224.309 38.42 223.917 38.644C223.525 38.868 223.212 39.1947 222.979 39.624C222.745 40.0533 222.629 40.5573 222.629 41.136C222.629 41.724 222.745 42.2373 222.979 42.676C223.212 43.1053 223.525 43.4367 223.917 43.67C224.309 43.894 224.743 44.006 225.219 44.006C225.695 44.006 226.129 43.894 226.521 43.67C226.922 43.4367 227.239 43.1053 227.473 42.676C227.706 42.2373 227.823 41.7287 227.823 41.15ZM236.55 38.378V42.9C236.55 43.2733 236.629 43.5393 236.788 43.698C236.947 43.8473 237.222 43.922 237.614 43.922H238.552V45H237.404C236.695 45 236.163 44.8367 235.808 44.51C235.453 44.1833 235.276 43.6467 235.276 42.9V38.378H234.282V37.328H235.276V35.396H236.55V37.328H238.552V38.378H236.55ZM247.096 40.87C247.096 41.1127 247.082 41.3693 247.054 41.64H240.922C240.968 42.396 241.225 42.9887 241.692 43.418C242.168 43.838 242.742 44.048 243.414 44.048C243.964 44.048 244.422 43.922 244.786 43.67C245.159 43.4087 245.42 43.0633 245.57 42.634H246.942C246.736 43.3713 246.326 43.9733 245.71 44.44C245.094 44.8973 244.328 45.126 243.414 45.126C242.686 45.126 242.032 44.9627 241.454 44.636C240.884 44.3093 240.436 43.8473 240.11 43.25C239.783 42.6433 239.62 41.9433 239.62 41.15C239.62 40.3567 239.778 39.6613 240.096 39.064C240.413 38.4667 240.856 38.0093 241.426 37.692C242.004 37.3653 242.667 37.202 243.414 37.202C244.142 37.202 244.786 37.3607 245.346 37.678C245.906 37.9953 246.335 38.434 246.634 38.994C246.942 39.5447 247.096 40.17 247.096 40.87ZM245.78 40.604C245.78 40.1187 245.672 39.7033 245.458 39.358C245.243 39.0033 244.949 38.7373 244.576 38.56C244.212 38.3733 243.806 38.28 243.358 38.28C242.714 38.28 242.163 38.4853 241.706 38.896C241.258 39.3067 241.001 39.876 240.936 40.604H245.78ZM248.301 41.136C248.301 40.352 248.46 39.666 248.777 39.078C249.095 38.4807 249.529 38.0187 250.079 37.692C250.639 37.3653 251.26 37.202 251.941 37.202C252.613 37.202 253.197 37.3467 253.691 37.636C254.186 37.9253 254.555 38.2893 254.797 38.728V37.328H256.085V45H254.797V43.572C254.545 44.02 254.167 44.3933 253.663 44.692C253.169 44.9813 252.59 45.126 251.927 45.126C251.246 45.126 250.63 44.958 250.079 44.622C249.529 44.286 249.095 43.8147 248.777 43.208C248.46 42.6013 248.301 41.9107 248.301 41.136ZM254.797 41.15C254.797 40.5713 254.681 40.0673 254.447 39.638C254.214 39.2087 253.897 38.882 253.495 38.658C253.103 38.4247 252.669 38.308 252.193 38.308C251.717 38.308 251.283 38.42 250.891 38.644C250.499 38.868 250.187 39.1947 249.953 39.624C249.72 40.0533 249.603 40.5573 249.603 41.136C249.603 41.724 249.72 42.2373 249.953 42.676C250.187 43.1053 250.499 43.4367 250.891 43.67C251.283 43.894 251.717 44.006 252.193 44.006C252.669 44.006 253.103 43.894 253.495 43.67C253.897 43.4367 254.214 43.1053 254.447 42.676C254.681 42.2373 254.797 41.7287 254.797 41.15ZM257.762 41.15C257.762 40.3567 257.921 39.666 258.238 39.078C258.555 38.4807 258.994 38.0187 259.554 37.692C260.123 37.3653 260.772 37.202 261.5 37.202C262.443 37.202 263.217 37.4307 263.824 37.888C264.44 38.3453 264.846 38.98 265.042 39.792H263.67C263.539 39.3253 263.283 38.9567 262.9 38.686C262.527 38.4153 262.06 38.28 261.5 38.28C260.772 38.28 260.184 38.532 259.736 39.036C259.288 39.5307 259.064 40.2353 259.064 41.15C259.064 42.074 259.288 42.788 259.736 43.292C260.184 43.796 260.772 44.048 261.5 44.048C262.06 44.048 262.527 43.9173 262.9 43.656C263.273 43.3947 263.53 43.0213 263.67 42.536H265.042C264.837 43.32 264.426 43.95 263.81 44.426C263.194 44.8927 262.424 45.126 261.5 45.126C260.772 45.126 260.123 44.9627 259.554 44.636C258.994 44.3093 258.555 43.8473 258.238 43.25C257.921 42.6527 257.762 41.9527 257.762 41.15ZM270.55 37.188C271.129 37.188 271.651 37.314 272.118 37.566C272.585 37.8087 272.949 38.1773 273.21 38.672C273.481 39.1667 273.616 39.7687 273.616 40.478V45H272.356V40.66C272.356 39.8947 272.165 39.3113 271.782 38.91C271.399 38.4993 270.877 38.294 270.214 38.294C269.542 38.294 269.005 38.504 268.604 38.924C268.212 39.344 268.016 39.9553 268.016 40.758V45H266.742V34.64H268.016V38.42C268.268 38.028 268.613 37.7247 269.052 37.51C269.5 37.2953 269.999 37.188 270.55 37.188ZM282.697 40.87C282.697 41.1127 282.683 41.3693 282.655 41.64H276.523C276.57 42.396 276.826 42.9887 277.293 43.418C277.769 43.838 278.343 44.048 279.015 44.048C279.566 44.048 280.023 43.922 280.387 43.67C280.76 43.4087 281.022 43.0633 281.171 42.634H282.543C282.338 43.3713 281.927 43.9733 281.311 44.44C280.695 44.8973 279.93 45.126 279.015 45.126C278.287 45.126 277.634 44.9627 277.055 44.636C276.486 44.3093 276.038 43.8473 275.711 43.25C275.384 42.6433 275.221 41.9433 275.221 41.15C275.221 40.3567 275.38 39.6613 275.697 39.064C276.014 38.4667 276.458 38.0093 277.027 37.692C277.606 37.3653 278.268 37.202 279.015 37.202C279.743 37.202 280.387 37.3607 280.947 37.678C281.507 37.9953 281.936 38.434 282.235 38.994C282.543 39.5447 282.697 40.17 282.697 40.87ZM281.381 40.604C281.381 40.1187 281.274 39.7033 281.059 39.358C280.844 39.0033 280.55 38.7373 280.177 38.56C279.813 38.3733 279.407 38.28 278.959 38.28C278.315 38.28 277.764 38.4853 277.307 38.896C276.859 39.3067 276.602 39.876 276.537 40.604H281.381ZM285.653 38.574C285.877 38.1353 286.194 37.7947 286.605 37.552C287.025 37.3093 287.533 37.188 288.131 37.188V38.504H287.795C286.367 38.504 285.653 39.2787 285.653 40.828V45H284.379V37.328H285.653V38.574ZM292.317 45.126C291.729 45.126 291.202 45.028 290.735 44.832C290.269 44.6267 289.9 44.3467 289.629 43.992C289.359 43.628 289.209 43.2127 289.181 42.746H290.497C290.535 43.1287 290.712 43.4413 291.029 43.684C291.356 43.9267 291.781 44.048 292.303 44.048C292.789 44.048 293.171 43.9407 293.451 43.726C293.731 43.5113 293.871 43.2407 293.871 42.914C293.871 42.578 293.722 42.3307 293.423 42.172C293.125 42.004 292.663 41.8407 292.037 41.682C291.468 41.5327 291.001 41.3833 290.637 41.234C290.283 41.0753 289.975 40.8467 289.713 40.548C289.461 40.24 289.335 39.8387 289.335 39.344C289.335 38.952 289.452 38.5927 289.685 38.266C289.919 37.9393 290.25 37.6827 290.679 37.496C291.109 37.3 291.599 37.202 292.149 37.202C292.999 37.202 293.685 37.4167 294.207 37.846C294.73 38.2753 295.01 38.8633 295.047 39.61H293.773C293.745 39.2087 293.582 38.8867 293.283 38.644C292.994 38.4013 292.602 38.28 292.107 38.28C291.65 38.28 291.286 38.378 291.015 38.574C290.745 38.77 290.609 39.0267 290.609 39.344C290.609 39.596 290.689 39.806 290.847 39.974C291.015 40.1327 291.221 40.2633 291.463 40.366C291.715 40.4593 292.061 40.5667 292.499 40.688C293.05 40.8373 293.498 40.9867 293.843 41.136C294.189 41.276 294.483 41.4907 294.725 41.78C294.977 42.0693 295.108 42.4473 295.117 42.914C295.117 43.334 295.001 43.712 294.767 44.048C294.534 44.384 294.203 44.65 293.773 44.846C293.353 45.0327 292.868 45.126 292.317 45.126ZM310.868 37.328L308.474 45H307.158L305.31 38.91L303.462 45H302.146L299.738 37.328H301.04L302.804 43.768L304.708 37.328H306.01L307.872 43.782L309.608 37.328H310.868ZM312.791 36.082C312.548 36.082 312.343 35.998 312.175 35.83C312.007 35.662 311.923 35.4567 311.923 35.214C311.923 34.9713 312.007 34.766 312.175 34.598C312.343 34.43 312.548 34.346 312.791 34.346C313.024 34.346 313.22 34.43 313.379 34.598C313.547 34.766 313.631 34.9713 313.631 35.214C313.631 35.4567 313.547 35.662 313.379 35.83C313.22 35.998 313.024 36.082 312.791 36.082ZM313.407 37.328V45H312.133V37.328H313.407ZM317.132 38.378V42.9C317.132 43.2733 317.211 43.5393 317.37 43.698C317.529 43.8473 317.804 43.922 318.196 43.922H319.134V45H317.986C317.277 45 316.745 44.8367 316.39 44.51C316.035 44.1833 315.858 43.6467 315.858 42.9V38.378H314.864V37.328H315.858V35.396H317.132V37.328H319.134V38.378H317.132ZM324.486 37.188C325.064 37.188 325.587 37.314 326.054 37.566C326.52 37.8087 326.884 38.1773 327.146 38.672C327.416 39.1667 327.552 39.7687 327.552 40.478V45H326.292V40.66C326.292 39.8947 326.1 39.3113 325.718 38.91C325.335 38.4993 324.812 38.294 324.15 38.294C323.478 38.294 322.941 38.504 322.54 38.924C322.148 39.344 321.952 39.9553 321.952 40.758V45H320.678V34.64H321.952V38.42C322.204 38.028 322.549 37.7247 322.988 37.51C323.436 37.2953 323.935 37.188 324.486 37.188ZM334.639 38.742C334.891 38.3033 335.264 37.9393 335.759 37.65C336.263 37.3513 336.846 37.202 337.509 37.202C338.19 37.202 338.806 37.3653 339.357 37.692C339.917 38.0187 340.356 38.4807 340.673 39.078C340.99 39.666 341.149 40.352 341.149 41.136C341.149 41.9107 340.99 42.6013 340.673 43.208C340.356 43.8147 339.917 44.286 339.357 44.622C338.806 44.958 338.19 45.126 337.509 45.126C336.856 45.126 336.277 44.9813 335.773 44.692C335.278 44.3933 334.9 44.0247 334.639 43.586V48.64H333.365V37.328H334.639V38.742ZM339.847 41.136C339.847 40.5573 339.73 40.0533 339.497 39.624C339.264 39.1947 338.946 38.868 338.545 38.644C338.153 38.42 337.719 38.308 337.243 38.308C336.776 38.308 336.342 38.4247 335.941 38.658C335.549 38.882 335.232 39.2133 334.989 39.652C334.756 40.0813 334.639 40.5807 334.639 41.15C334.639 41.7287 334.756 42.2373 334.989 42.676C335.232 43.1053 335.549 43.4367 335.941 43.67C336.342 43.894 336.776 44.006 337.243 44.006C337.719 44.006 338.153 43.894 338.545 43.67C338.946 43.4367 339.264 43.1053 339.497 42.676C339.73 42.2373 339.847 41.724 339.847 41.136ZM344.1 38.574C344.324 38.1353 344.641 37.7947 345.052 37.552C345.472 37.3093 345.981 37.188 346.578 37.188V38.504H346.242C344.814 38.504 344.1 39.2787 344.1 40.828V45H342.826V37.328H344.1V38.574ZM351.395 45.126C350.676 45.126 350.023 44.9627 349.435 44.636C348.856 44.3093 348.399 43.8473 348.063 43.25C347.736 42.6433 347.573 41.9433 347.573 41.15C347.573 40.366 347.741 39.6753 348.077 39.078C348.422 38.4713 348.889 38.0093 349.477 37.692C350.065 37.3653 350.723 37.202 351.451 37.202C352.179 37.202 352.837 37.3653 353.425 37.692C354.013 38.0093 354.475 38.4667 354.811 39.064C355.156 39.6613 355.329 40.3567 355.329 41.15C355.329 41.9433 355.151 42.6433 354.797 43.25C354.451 43.8473 353.98 44.3093 353.383 44.636C352.785 44.9627 352.123 45.126 351.395 45.126ZM351.395 44.006C351.852 44.006 352.281 43.8987 352.683 43.684C353.084 43.4693 353.406 43.1473 353.649 42.718C353.901 42.2887 354.027 41.766 354.027 41.15C354.027 40.534 353.905 40.0113 353.663 39.582C353.42 39.1527 353.103 38.8353 352.711 38.63C352.319 38.4153 351.894 38.308 351.437 38.308C350.97 38.308 350.541 38.4153 350.149 38.63C349.766 38.8353 349.458 39.1527 349.225 39.582C348.991 40.0113 348.875 40.534 348.875 41.15C348.875 41.7753 348.987 42.3027 349.211 42.732C349.444 43.1613 349.752 43.4833 350.135 43.698C350.517 43.9033 350.937 44.006 351.395 44.006ZM359.86 43.824L362.24 37.328H363.598L360.588 45H359.104L356.094 37.328H357.466L359.86 43.824ZM371.851 40.87C371.851 41.1127 371.837 41.3693 371.809 41.64H365.677C365.724 42.396 365.981 42.9887 366.447 43.418C366.923 43.838 367.497 44.048 368.169 44.048C368.72 44.048 369.177 43.922 369.541 43.67C369.915 43.4087 370.176 43.0633 370.325 42.634H371.697C371.492 43.3713 371.081 43.9733 370.465 44.44C369.849 44.8973 369.084 45.126 368.169 45.126C367.441 45.126 366.788 44.9627 366.209 44.636C365.64 44.3093 365.192 43.8473 364.865 43.25C364.539 42.6433 364.375 41.9433 364.375 41.15C364.375 40.3567 364.534 39.6613 364.851 39.064C365.169 38.4667 365.612 38.0093 366.181 37.692C366.76 37.3653 367.423 37.202 368.169 37.202C368.897 37.202 369.541 37.3607 370.101 37.678C370.661 37.9953 371.091 38.434 371.389 38.994C371.697 39.5447 371.851 40.17 371.851 40.87ZM370.535 40.604C370.535 40.1187 370.428 39.7033 370.213 39.358C369.999 39.0033 369.705 38.7373 369.331 38.56C368.967 38.3733 368.561 38.28 368.113 38.28C367.469 38.28 366.919 38.4853 366.461 38.896C366.013 39.3067 365.757 39.876 365.691 40.604H370.535ZM377.271 37.188C378.204 37.188 378.96 37.4727 379.539 38.042C380.118 38.602 380.407 39.414 380.407 40.478V45H379.147V40.66C379.147 39.8947 378.956 39.3113 378.573 38.91C378.19 38.4993 377.668 38.294 377.005 38.294C376.333 38.294 375.796 38.504 375.395 38.924C375.003 39.344 374.807 39.9553 374.807 40.758V45H373.533V37.328H374.807V38.42C375.059 38.028 375.4 37.7247 375.829 37.51C376.268 37.2953 376.748 37.188 377.271 37.188ZM102.078 62.87C102.078 63.1127 102.064 63.3693 102.036 63.64H95.904C95.9507 64.396 96.2073 64.9887 96.674 65.418C97.15 65.838 97.724 66.048 98.396 66.048C98.9467 66.048 99.404 65.922 99.768 65.67C100.141 65.4087 100.403 65.0633 100.552 64.634H101.924C101.719 65.3713 101.308 65.9733 100.692 66.44C100.076 66.8973 99.3107 67.126 98.396 67.126C97.668 67.126 97.0147 66.9627 96.436 66.636C95.8667 66.3093 95.4187 65.8473 95.092 65.25C94.7653 64.6433 94.602 63.9433 94.602 63.15C94.602 62.3567 94.7607 61.6613 95.078 61.064C95.3953 60.4667 95.8387 60.0093 96.408 59.692C96.9867 59.3653 97.6493 59.202 98.396 59.202C99.124 59.202 99.768 59.3607 100.328 59.678C100.888 59.9953 101.317 60.434 101.616 60.994C101.924 61.5447 102.078 62.17 102.078 62.87ZM100.762 62.604C100.762 62.1187 100.655 61.7033 100.44 61.358C100.225 61.0033 99.9313 60.7373 99.558 60.56C99.194 60.3733 98.788 60.28 98.34 60.28C97.696 60.28 97.1453 60.4853 96.688 60.896C96.24 61.3067 95.9833 61.876 95.918 62.604H100.762ZM107.764 67L105.944 64.144L104.194 67H102.864L105.342 63.192L102.864 59.328H104.306L106.126 62.17L107.862 59.328H109.192L106.728 63.122L109.206 67H107.764ZM111.733 60.742C111.985 60.3033 112.358 59.9393 112.853 59.65C113.357 59.3513 113.94 59.202 114.603 59.202C115.284 59.202 115.9 59.3653 116.451 59.692C117.011 60.0187 117.45 60.4807 117.767 61.078C118.084 61.666 118.243 62.352 118.243 63.136C118.243 63.9107 118.084 64.6013 117.767 65.208C117.45 65.8147 117.011 66.286 116.451 66.622C115.9 66.958 115.284 67.126 114.603 67.126C113.95 67.126 113.371 66.9813 112.867 66.692C112.372 66.3933 111.994 66.0247 111.733 65.586V70.64H110.459V59.328H111.733V60.742ZM116.941 63.136C116.941 62.5573 116.824 62.0533 116.591 61.624C116.358 61.1947 116.04 60.868 115.639 60.644C115.247 60.42 114.813 60.308 114.337 60.308C113.87 60.308 113.436 60.4247 113.035 60.658C112.643 60.882 112.326 61.2133 112.083 61.652C111.85 62.0813 111.733 62.5807 111.733 63.15C111.733 63.7287 111.85 64.2373 112.083 64.676C112.326 65.1053 112.643 65.4367 113.035 65.67C113.436 65.894 113.87 66.006 114.337 66.006C114.813 66.006 115.247 65.894 115.639 65.67C116.04 65.4367 116.358 65.1053 116.591 64.676C116.824 64.2373 116.941 63.724 116.941 63.136ZM126.92 62.87C126.92 63.1127 126.906 63.3693 126.878 63.64H120.746C120.792 64.396 121.049 64.9887 121.516 65.418C121.992 65.838 122.566 66.048 123.238 66.048C123.788 66.048 124.246 65.922 124.61 65.67C124.983 65.4087 125.244 65.0633 125.394 64.634H126.766C126.56 65.3713 126.15 65.9733 125.534 66.44C124.918 66.8973 124.152 67.126 123.238 67.126C122.51 67.126 121.856 66.9627 121.278 66.636C120.708 66.3093 120.26 65.8473 119.934 65.25C119.607 64.6433 119.444 63.9433 119.444 63.15C119.444 62.3567 119.602 61.6613 119.92 61.064C120.237 60.4667 120.68 60.0093 121.25 59.692C121.828 59.3653 122.491 59.202 123.238 59.202C123.966 59.202 124.61 59.3607 125.17 59.678C125.73 59.9953 126.159 60.434 126.458 60.994C126.766 61.5447 126.92 62.17 126.92 62.87ZM125.604 62.604C125.604 62.1187 125.496 61.7033 125.282 61.358C125.067 61.0033 124.773 60.7373 124.4 60.56C124.036 60.3733 123.63 60.28 123.182 60.28C122.538 60.28 121.987 60.4853 121.53 60.896C121.082 61.3067 120.825 61.876 120.76 62.604H125.604ZM129.875 60.574C130.099 60.1353 130.417 59.7947 130.827 59.552C131.247 59.3093 131.756 59.188 132.353 59.188V60.504H132.017C130.589 60.504 129.875 61.2787 129.875 62.828V67H128.601V59.328H129.875V60.574ZM134.482 58.082C134.239 58.082 134.034 57.998 133.866 57.83C133.698 57.662 133.614 57.4567 133.614 57.214C133.614 56.9713 133.698 56.766 133.866 56.598C134.034 56.43 134.239 56.346 134.482 56.346C134.715 56.346 134.911 56.43 135.07 56.598C135.238 56.766 135.322 56.9713 135.322 57.214C135.322 57.4567 135.238 57.662 135.07 57.83C134.911 57.998 134.715 58.082 134.482 58.082ZM135.098 59.328V67H133.824V59.328H135.098ZM144.269 62.87C144.269 63.1127 144.255 63.3693 144.227 63.64H138.095C138.142 64.396 138.399 64.9887 138.865 65.418C139.341 65.838 139.915 66.048 140.587 66.048C141.138 66.048 141.595 65.922 141.959 65.67C142.333 65.4087 142.594 65.0633 142.743 64.634H144.115C143.91 65.3713 143.499 65.9733 142.883 66.44C142.267 66.8973 141.502 67.126 140.587 67.126C139.859 67.126 139.206 66.9627 138.627 66.636C138.058 66.3093 137.61 65.8473 137.283 65.25C136.957 64.6433 136.793 63.9433 136.793 63.15C136.793 62.3567 136.952 61.6613 137.269 61.064C137.587 60.4667 138.03 60.0093 138.599 59.692C139.178 59.3653 139.841 59.202 140.587 59.202C141.315 59.202 141.959 59.3607 142.519 59.678C143.079 59.9953 143.509 60.434 143.807 60.994C144.115 61.5447 144.269 62.17 144.269 62.87ZM142.953 62.604C142.953 62.1187 142.846 61.7033 142.631 61.358C142.417 61.0033 142.123 60.7373 141.749 60.56C141.385 60.3733 140.979 60.28 140.531 60.28C139.887 60.28 139.337 60.4853 138.879 60.896C138.431 61.3067 138.175 61.876 138.109 62.604H142.953ZM149.689 59.188C150.622 59.188 151.378 59.4727 151.957 60.042C152.536 60.602 152.825 61.414 152.825 62.478V67H151.565V62.66C151.565 61.8947 151.374 61.3113 150.991 60.91C150.608 60.4993 150.086 60.294 149.423 60.294C148.751 60.294 148.214 60.504 147.813 60.924C147.421 61.344 147.225 61.9553 147.225 62.758V67H145.951V59.328H147.225V60.42C147.477 60.028 147.818 59.7247 148.247 59.51C148.686 59.2953 149.166 59.188 149.689 59.188ZM154.43 63.15C154.43 62.3567 154.589 61.666 154.906 61.078C155.223 60.4807 155.662 60.0187 156.222 59.692C156.791 59.3653 157.44 59.202 158.168 59.202C159.111 59.202 159.885 59.4307 160.492 59.888C161.108 60.3453 161.514 60.98 161.71 61.792H160.338C160.207 61.3253 159.951 60.9567 159.568 60.686C159.195 60.4153 158.728 60.28 158.168 60.28C157.44 60.28 156.852 60.532 156.404 61.036C155.956 61.5307 155.732 62.2353 155.732 63.15C155.732 64.074 155.956 64.788 156.404 65.292C156.852 65.796 157.44 66.048 158.168 66.048C158.728 66.048 159.195 65.9173 159.568 65.656C159.941 65.3947 160.198 65.0213 160.338 64.536H161.71C161.505 65.32 161.094 65.95 160.478 66.426C159.862 66.8927 159.092 67.126 158.168 67.126C157.44 67.126 156.791 66.9627 156.222 66.636C155.662 66.3093 155.223 65.8473 154.906 65.25C154.589 64.6527 154.43 63.9527 154.43 63.15ZM170.41 62.87C170.41 63.1127 170.396 63.3693 170.368 63.64H164.236C164.283 64.396 164.539 64.9887 165.006 65.418C165.482 65.838 166.056 66.048 166.728 66.048C167.279 66.048 167.736 65.922 168.1 65.67C168.473 65.4087 168.735 65.0633 168.884 64.634H170.256C170.051 65.3713 169.64 65.9733 169.024 66.44C168.408 66.8973 167.643 67.126 166.728 67.126C166 67.126 165.347 66.9627 164.768 66.636C164.199 66.3093 163.751 65.8473 163.424 65.25C163.097 64.6433 162.934 63.9433 162.934 63.15C162.934 62.3567 163.093 61.6613 163.41 61.064C163.727 60.4667 164.171 60.0093 164.74 59.692C165.319 59.3653 165.981 59.202 166.728 59.202C167.456 59.202 168.1 59.3607 168.66 59.678C169.22 59.9953 169.649 60.434 169.948 60.994C170.256 61.5447 170.41 62.17 170.41 62.87ZM169.094 62.604C169.094 62.1187 168.987 61.7033 168.772 61.358C168.557 61.0033 168.263 60.7373 167.89 60.56C167.526 60.3733 167.12 60.28 166.672 60.28C166.028 60.28 165.477 60.4853 165.02 60.896C164.572 61.3067 164.315 61.876 164.25 62.604H169.094ZM172.498 67.084C172.255 67.084 172.05 67 171.882 66.832C171.714 66.664 171.63 66.4587 171.63 66.216C171.63 65.9733 171.714 65.768 171.882 65.6C172.05 65.432 172.255 65.348 172.498 65.348C172.731 65.348 172.927 65.432 173.086 65.6C173.254 65.768 173.338 65.9733 173.338 66.216C173.338 66.4587 173.254 66.664 173.086 66.832C172.927 67 172.731 67.084 172.498 67.084ZM175.437 67.084C175.194 67.084 174.989 67 174.821 66.832C174.653 66.664 174.569 66.4587 174.569 66.216C174.569 65.9733 174.653 65.768 174.821 65.6C174.989 65.432 175.194 65.348 175.437 65.348C175.67 65.348 175.866 65.432 176.025 65.6C176.193 65.768 176.277 65.9733 176.277 66.216C176.277 66.4587 176.193 66.664 176.025 66.832C175.866 67 175.67 67.084 175.437 67.084ZM178.377 67.084C178.134 67.084 177.929 67 177.761 66.832C177.593 66.664 177.509 66.4587 177.509 66.216C177.509 65.9733 177.593 65.768 177.761 65.6C177.929 65.432 178.134 65.348 178.377 65.348C178.61 65.348 178.806 65.432 178.965 65.6C179.133 65.768 179.217 65.9733 179.217 66.216C179.217 66.4587 179.133 66.664 178.965 66.832C178.806 67 178.61 67.084 178.377 67.084Z" fill="#8D8D8D"/>
<path d="M185.916 60.574C186.14 60.1353 186.458 59.7947 186.868 59.552C187.288 59.3093 187.797 59.188 188.394 59.188V60.504H188.058C186.63 60.504 185.916 61.2787 185.916 62.828V67H184.642V59.328H185.916V60.574ZM196.865 62.87C196.865 63.1127 196.851 63.3693 196.823 63.64H190.691C190.738 64.396 190.994 64.9887 191.461 65.418C191.937 65.838 192.511 66.048 193.183 66.048C193.734 66.048 194.191 65.922 194.555 65.67C194.928 65.4087 195.19 65.0633 195.339 64.634H196.711C196.506 65.3713 196.095 65.9733 195.479 66.44C194.863 66.8973 194.098 67.126 193.183 67.126C192.455 67.126 191.802 66.9627 191.223 66.636C190.654 66.3093 190.206 65.8473 189.879 65.25C189.552 64.6433 189.389 63.9433 189.389 63.15C189.389 62.3567 189.548 61.6613 189.865 61.064C190.182 60.4667 190.626 60.0093 191.195 59.692C191.774 59.3653 192.436 59.202 193.183 59.202C193.911 59.202 194.555 59.3607 195.115 59.678C195.675 59.9953 196.104 60.434 196.403 60.994C196.711 61.5447 196.865 62.17 196.865 62.87ZM195.549 62.604C195.549 62.1187 195.442 61.7033 195.227 61.358C195.012 61.0033 194.718 60.7373 194.345 60.56C193.981 60.3733 193.575 60.28 193.127 60.28C192.483 60.28 191.932 60.4853 191.475 60.896C191.027 61.3067 190.77 61.876 190.705 62.604H195.549ZM198.071 63.136C198.071 62.352 198.229 61.666 198.547 61.078C198.864 60.4807 199.298 60.0187 199.849 59.692C200.409 59.3653 201.029 59.202 201.711 59.202C202.383 59.202 202.966 59.3467 203.461 59.636C203.955 59.9253 204.324 60.2893 204.567 60.728V59.328H205.855V67H204.567V65.572C204.315 66.02 203.937 66.3933 203.433 66.692C202.938 66.9813 202.359 67.126 201.697 67.126C201.015 67.126 200.399 66.958 199.849 66.622C199.298 66.286 198.864 65.8147 198.547 65.208C198.229 64.6013 198.071 63.9107 198.071 63.136ZM204.567 63.15C204.567 62.5713 204.45 62.0673 204.217 61.638C203.983 61.2087 203.666 60.882 203.265 60.658C202.873 60.4247 202.439 60.308 201.963 60.308C201.487 60.308 201.053 60.42 200.661 60.644C200.269 60.868 199.956 61.1947 199.723 61.624C199.489 62.0533 199.373 62.5573 199.373 63.136C199.373 63.724 199.489 64.2373 199.723 64.676C199.956 65.1053 200.269 65.4367 200.661 65.67C201.053 65.894 201.487 66.006 201.963 66.006C202.439 66.006 202.873 65.894 203.265 65.67C203.666 65.4367 203.983 65.1053 204.217 64.676C204.45 64.2373 204.567 63.7287 204.567 63.15ZM207.532 63.136C207.532 62.352 207.69 61.666 208.008 61.078C208.325 60.4807 208.759 60.0187 209.31 59.692C209.87 59.3653 210.495 59.202 211.186 59.202C211.783 59.202 212.338 59.342 212.852 59.622C213.365 59.8927 213.757 60.252 214.028 60.7V56.64H215.316V67H214.028V65.558C213.776 66.0153 213.402 66.3933 212.908 66.692C212.413 66.9813 211.834 67.126 211.172 67.126C210.49 67.126 209.87 66.958 209.31 66.622C208.759 66.286 208.325 65.8147 208.008 65.208C207.69 64.6013 207.532 63.9107 207.532 63.136ZM214.028 63.15C214.028 62.5713 213.911 62.0673 213.678 61.638C213.444 61.2087 213.127 60.882 212.726 60.658C212.334 60.4247 211.9 60.308 211.424 60.308C210.948 60.308 210.514 60.42 210.122 60.644C209.73 60.868 209.417 61.1947 209.184 61.624C208.95 62.0533 208.834 62.5573 208.834 63.136C208.834 63.724 208.95 64.2373 209.184 64.676C209.417 65.1053 209.73 65.4367 210.122 65.67C210.514 65.894 210.948 66.006 211.424 66.006C211.9 66.006 212.334 65.894 212.726 65.67C213.127 65.4367 213.444 65.1053 213.678 64.676C213.911 64.2373 214.028 63.7287 214.028 63.15ZM230.427 59.188C231.024 59.188 231.556 59.314 232.023 59.566C232.49 59.8087 232.858 60.1773 233.129 60.672C233.4 61.1667 233.535 61.7687 233.535 62.478V67H232.275V62.66C232.275 61.8947 232.084 61.3113 231.701 60.91C231.328 60.4993 230.819 60.294 230.175 60.294C229.512 60.294 228.985 60.5087 228.593 60.938C228.201 61.358 228.005 61.9693 228.005 62.772V67H226.745V62.66C226.745 61.8947 226.554 61.3113 226.171 60.91C225.798 60.4993 225.289 60.294 224.645 60.294C223.982 60.294 223.455 60.5087 223.063 60.938C222.671 61.358 222.475 61.9693 222.475 62.772V67H221.201V59.328H222.475V60.434C222.727 60.0327 223.063 59.7247 223.483 59.51C223.912 59.2953 224.384 59.188 224.897 59.188C225.541 59.188 226.11 59.3327 226.605 59.622C227.1 59.9113 227.468 60.336 227.711 60.896C227.926 60.3547 228.28 59.9347 228.775 59.636C229.27 59.3373 229.82 59.188 230.427 59.188ZM238.971 67.126C238.252 67.126 237.599 66.9627 237.011 66.636C236.432 66.3093 235.975 65.8473 235.639 65.25C235.312 64.6433 235.149 63.9433 235.149 63.15C235.149 62.366 235.317 61.6753 235.653 61.078C235.998 60.4713 236.465 60.0093 237.053 59.692C237.641 59.3653 238.299 59.202 239.027 59.202C239.755 59.202 240.413 59.3653 241.001 59.692C241.589 60.0093 242.051 60.4667 242.387 61.064C242.732 61.6613 242.905 62.3567 242.905 63.15C242.905 63.9433 242.728 64.6433 242.373 65.25C242.028 65.8473 241.556 66.3093 240.959 66.636C240.362 66.9627 239.699 67.126 238.971 67.126ZM238.971 66.006C239.428 66.006 239.858 65.8987 240.259 65.684C240.66 65.4693 240.982 65.1473 241.225 64.718C241.477 64.2887 241.603 63.766 241.603 63.15C241.603 62.534 241.482 62.0113 241.239 61.582C240.996 61.1527 240.679 60.8353 240.287 60.63C239.895 60.4153 239.47 60.308 239.013 60.308C238.546 60.308 238.117 60.4153 237.725 60.63C237.342 60.8353 237.034 61.1527 236.801 61.582C236.568 62.0113 236.451 62.534 236.451 63.15C236.451 63.7753 236.563 64.3027 236.787 64.732C237.02 65.1613 237.328 65.4833 237.711 65.698C238.094 65.9033 238.514 66.006 238.971 66.006ZM245.854 60.574C246.078 60.1353 246.395 59.7947 246.806 59.552C247.226 59.3093 247.735 59.188 248.332 59.188V60.504H247.996C246.568 60.504 245.854 61.2787 245.854 62.828V67H244.58V59.328H245.854V60.574ZM256.803 62.87C256.803 63.1127 256.789 63.3693 256.761 63.64H250.629C250.675 64.396 250.932 64.9887 251.399 65.418C251.875 65.838 252.449 66.048 253.121 66.048C253.671 66.048 254.129 65.922 254.493 65.67C254.866 65.4087 255.127 65.0633 255.277 64.634H256.649C256.443 65.3713 256.033 65.9733 255.417 66.44C254.801 66.8973 254.035 67.126 253.121 67.126C252.393 67.126 251.739 66.9627 251.161 66.636C250.591 66.3093 250.143 65.8473 249.817 65.25C249.49 64.6433 249.327 63.9433 249.327 63.15C249.327 62.3567 249.485 61.6613 249.803 61.064C250.12 60.4667 250.563 60.0093 251.133 59.692C251.711 59.3653 252.374 59.202 253.121 59.202C253.849 59.202 254.493 59.3607 255.053 59.678C255.613 59.9953 256.042 60.434 256.341 60.994C256.649 61.5447 256.803 62.17 256.803 62.87ZM255.487 62.604C255.487 62.1187 255.379 61.7033 255.165 61.358C254.95 61.0033 254.656 60.7373 254.283 60.56C253.919 60.3733 253.513 60.28 253.065 60.28C252.421 60.28 251.87 60.4853 251.413 60.896C250.965 61.3067 250.708 61.876 250.643 62.604H255.487Z" fill="#058E6E"/>
</svg>
