<svg width="1068" height="800" viewBox="0 0 1068 800" fill="none" xmlns="http://www.w3.org/2000/svg">
<g filter="url(#filter0_dd_1_767)">
<rect x="111" y="353" width="600" height="86" rx="16" fill="white"/>
</g>
<circle cx="156.5" cy="393.5" r="22.5" fill="#FB9C46"/>
<path d="M221.668 383.538C222.124 383.61 222.538 383.796 222.91 384.096C223.294 384.396 223.594 384.768 223.81 385.212C224.038 385.656 224.152 386.13 224.152 386.634C224.152 387.27 223.99 387.846 223.666 388.362C223.342 388.866 222.868 389.268 222.244 389.568C221.632 389.856 220.906 390 220.066 390H215.386V377.454H219.886C220.738 377.454 221.464 377.598 222.064 377.886C222.664 378.162 223.114 378.54 223.414 379.02C223.714 379.5 223.864 380.04 223.864 380.64C223.864 381.384 223.66 382.002 223.252 382.494C222.856 382.974 222.328 383.322 221.668 383.538ZM217.024 382.872H219.778C220.546 382.872 221.14 382.692 221.56 382.332C221.98 381.972 222.19 381.474 222.19 380.838C222.19 380.202 221.98 379.704 221.56 379.344C221.14 378.984 220.534 378.804 219.742 378.804H217.024V382.872ZM219.922 388.65C220.738 388.65 221.374 388.458 221.83 388.074C222.286 387.69 222.514 387.156 222.514 386.472C222.514 385.776 222.274 385.23 221.794 384.834C221.314 384.426 220.672 384.222 219.868 384.222H217.024V388.65H219.922ZM230.727 390.162C229.803 390.162 228.963 389.952 228.207 389.532C227.463 389.112 226.875 388.518 226.443 387.75C226.023 386.97 225.813 386.07 225.813 385.05C225.813 384.042 226.029 383.154 226.461 382.386C226.905 381.606 227.505 381.012 228.261 380.604C229.017 380.184 229.863 379.974 230.799 379.974C231.735 379.974 232.581 380.184 233.337 380.604C234.093 381.012 234.687 381.6 235.119 382.368C235.563 383.136 235.785 384.03 235.785 385.05C235.785 386.07 235.557 386.97 235.101 387.75C234.657 388.518 234.051 389.112 233.283 389.532C232.515 389.952 231.663 390.162 230.727 390.162ZM230.727 388.722C231.315 388.722 231.867 388.584 232.383 388.308C232.899 388.032 233.313 387.618 233.625 387.066C233.949 386.514 234.111 385.842 234.111 385.05C234.111 384.258 233.955 383.586 233.643 383.034C233.331 382.482 232.923 382.074 232.419 381.81C231.915 381.534 231.369 381.396 230.781 381.396C230.181 381.396 229.629 381.534 229.125 381.81C228.633 382.074 228.237 382.482 227.937 383.034C227.637 383.586 227.487 384.258 227.487 385.05C227.487 385.854 227.631 386.532 227.919 387.084C228.219 387.636 228.615 388.05 229.107 388.326C229.599 388.59 230.139 388.722 230.727 388.722ZM242.241 390.162C241.317 390.162 240.477 389.952 239.721 389.532C238.977 389.112 238.389 388.518 237.957 387.75C237.537 386.97 237.327 386.07 237.327 385.05C237.327 384.042 237.543 383.154 237.975 382.386C238.419 381.606 239.019 381.012 239.775 380.604C240.531 380.184 241.377 379.974 242.313 379.974C243.249 379.974 244.095 380.184 244.851 380.604C245.607 381.012 246.201 381.6 246.633 382.368C247.077 383.136 247.299 384.03 247.299 385.05C247.299 386.07 247.071 386.97 246.615 387.75C246.171 388.518 245.565 389.112 244.797 389.532C244.029 389.952 243.177 390.162 242.241 390.162ZM242.241 388.722C242.829 388.722 243.381 388.584 243.897 388.308C244.413 388.032 244.827 387.618 245.139 387.066C245.463 386.514 245.625 385.842 245.625 385.05C245.625 384.258 245.469 383.586 245.157 383.034C244.845 382.482 244.437 382.074 243.933 381.81C243.429 381.534 242.883 381.396 242.295 381.396C241.695 381.396 241.143 381.534 240.639 381.81C240.147 382.074 239.751 382.482 239.451 383.034C239.151 383.586 239.001 384.258 239.001 385.05C239.001 385.854 239.145 386.532 239.433 387.084C239.733 387.636 240.129 388.05 240.621 388.326C241.113 388.59 241.653 388.722 242.241 388.722ZM254.96 390L251.09 385.644V390H249.452V376.68H251.09V384.51L254.888 380.136H257.174L252.53 385.05L257.192 390H254.96ZM262.903 385.032C262.903 384.024 263.107 383.142 263.515 382.386C263.923 381.618 264.481 381.024 265.189 380.604C265.909 380.184 266.707 379.974 267.583 379.974C268.447 379.974 269.197 380.16 269.833 380.532C270.469 380.904 270.943 381.372 271.255 381.936V380.136H272.911V390H271.255V388.164C270.931 388.74 270.445 389.22 269.797 389.604C269.161 389.976 268.417 390.162 267.565 390.162C266.689 390.162 265.897 389.946 265.189 389.514C264.481 389.082 263.923 388.476 263.515 387.696C263.107 386.916 262.903 386.028 262.903 385.032ZM271.255 385.05C271.255 384.306 271.105 383.658 270.805 383.106C270.505 382.554 270.097 382.134 269.581 381.846C269.077 381.546 268.519 381.396 267.907 381.396C267.295 381.396 266.737 381.54 266.233 381.828C265.729 382.116 265.327 382.536 265.027 383.088C264.727 383.64 264.577 384.288 264.577 385.032C264.577 385.788 264.727 386.448 265.027 387.012C265.327 387.564 265.729 387.99 266.233 388.29C266.737 388.578 267.295 388.722 267.907 388.722C268.519 388.722 269.077 388.578 269.581 388.29C270.097 387.99 270.505 387.564 270.805 387.012C271.105 386.448 271.255 385.794 271.255 385.05ZM282.116 376.68V390H280.478V376.68H282.116ZM293.907 384.69C293.907 385.002 293.889 385.332 293.853 385.68H285.969C286.029 386.652 286.359 387.414 286.959 387.966C287.571 388.506 288.309 388.776 289.173 388.776C289.881 388.776 290.469 388.614 290.937 388.29C291.417 387.954 291.753 387.51 291.945 386.958H293.709C293.445 387.906 292.917 388.68 292.125 389.28C291.333 389.868 290.349 390.162 289.173 390.162C288.237 390.162 287.397 389.952 286.653 389.532C285.921 389.112 285.345 388.518 284.925 387.75C284.505 386.97 284.295 386.07 284.295 385.05C284.295 384.03 284.499 383.136 284.907 382.368C285.315 381.6 285.885 381.012 286.617 380.604C287.361 380.184 288.213 379.974 289.173 379.974C290.109 379.974 290.937 380.178 291.657 380.586C292.377 380.994 292.929 381.558 293.313 382.278C293.709 382.986 293.907 383.79 293.907 384.69ZM292.215 384.348C292.215 383.724 292.077 383.19 291.801 382.746C291.525 382.29 291.147 381.948 290.667 381.72C290.199 381.48 289.677 381.36 289.101 381.36C288.273 381.36 287.565 381.624 286.977 382.152C286.401 382.68 286.071 383.412 285.987 384.348H292.215ZM299.562 390.162C298.806 390.162 298.128 390.036 297.528 389.784C296.928 389.52 296.454 389.16 296.106 388.704C295.758 388.236 295.566 387.702 295.53 387.102H297.222C297.27 387.594 297.498 387.996 297.906 388.308C298.326 388.62 298.872 388.776 299.544 388.776C300.168 388.776 300.66 388.638 301.02 388.362C301.38 388.086 301.56 387.738 301.56 387.318C301.56 386.886 301.368 386.568 300.984 386.364C300.6 386.148 300.006 385.938 299.202 385.734C298.47 385.542 297.87 385.35 297.402 385.158C296.946 384.954 296.55 384.66 296.214 384.276C295.89 383.88 295.728 383.364 295.728 382.728C295.728 382.224 295.878 381.762 296.178 381.342C296.478 380.922 296.904 380.592 297.456 380.352C298.008 380.1 298.638 379.974 299.346 379.974C300.438 379.974 301.32 380.25 301.992 380.802C302.664 381.354 303.024 382.11 303.072 383.07H301.434C301.398 382.554 301.188 382.14 300.804 381.828C300.432 381.516 299.928 381.36 299.292 381.36C298.704 381.36 298.236 381.486 297.888 381.738C297.54 381.99 297.366 382.32 297.366 382.728C297.366 383.052 297.468 383.322 297.672 383.538C297.888 383.742 298.152 383.91 298.464 384.042C298.788 384.162 299.232 384.3 299.796 384.456C300.504 384.648 301.08 384.84 301.524 385.032C301.968 385.212 302.346 385.488 302.658 385.86C302.982 386.232 303.15 386.718 303.162 387.318C303.162 387.858 303.012 388.344 302.712 388.776C302.412 389.208 301.986 389.55 301.434 389.802C300.894 390.042 300.27 390.162 299.562 390.162ZM308.966 390.162C308.21 390.162 307.532 390.036 306.932 389.784C306.332 389.52 305.858 389.16 305.51 388.704C305.162 388.236 304.97 387.702 304.934 387.102H306.626C306.674 387.594 306.902 387.996 307.31 388.308C307.73 388.62 308.276 388.776 308.948 388.776C309.572 388.776 310.064 388.638 310.424 388.362C310.784 388.086 310.964 387.738 310.964 387.318C310.964 386.886 310.772 386.568 310.388 386.364C310.004 386.148 309.41 385.938 308.606 385.734C307.874 385.542 307.274 385.35 306.806 385.158C306.35 384.954 305.954 384.66 305.618 384.276C305.294 383.88 305.132 383.364 305.132 382.728C305.132 382.224 305.282 381.762 305.582 381.342C305.882 380.922 306.308 380.592 306.86 380.352C307.412 380.1 308.042 379.974 308.75 379.974C309.842 379.974 310.724 380.25 311.396 380.802C312.068 381.354 312.428 382.11 312.476 383.07H310.838C310.802 382.554 310.592 382.14 310.208 381.828C309.836 381.516 309.332 381.36 308.696 381.36C308.108 381.36 307.64 381.486 307.292 381.738C306.944 381.99 306.77 382.32 306.77 382.728C306.77 383.052 306.872 383.322 307.076 383.538C307.292 383.742 307.556 383.91 307.868 384.042C308.192 384.162 308.636 384.3 309.2 384.456C309.908 384.648 310.484 384.84 310.928 385.032C311.372 385.212 311.75 385.488 312.062 385.86C312.386 386.232 312.554 386.718 312.566 387.318C312.566 387.858 312.416 388.344 312.116 388.776C311.816 389.208 311.39 389.55 310.838 389.802C310.298 390.042 309.674 390.162 308.966 390.162ZM319.18 390.162C318.256 390.162 317.416 389.952 316.66 389.532C315.916 389.112 315.328 388.518 314.896 387.75C314.476 386.97 314.266 386.07 314.266 385.05C314.266 384.042 314.482 383.154 314.914 382.386C315.358 381.606 315.958 381.012 316.714 380.604C317.47 380.184 318.316 379.974 319.252 379.974C320.188 379.974 321.034 380.184 321.79 380.604C322.546 381.012 323.14 381.6 323.572 382.368C324.016 383.136 324.238 384.03 324.238 385.05C324.238 386.07 324.01 386.97 323.554 387.75C323.11 388.518 322.504 389.112 321.736 389.532C320.968 389.952 320.116 390.162 319.18 390.162ZM319.18 388.722C319.768 388.722 320.32 388.584 320.836 388.308C321.352 388.032 321.766 387.618 322.078 387.066C322.402 386.514 322.564 385.842 322.564 385.05C322.564 384.258 322.408 383.586 322.096 383.034C321.784 382.482 321.376 382.074 320.872 381.81C320.368 381.534 319.822 381.396 319.234 381.396C318.634 381.396 318.082 381.534 317.578 381.81C317.086 382.074 316.69 382.482 316.39 383.034C316.09 383.586 315.94 384.258 315.94 385.05C315.94 385.854 316.084 386.532 316.372 387.084C316.672 387.636 317.068 388.05 317.56 388.326C318.052 388.59 318.592 388.722 319.18 388.722ZM331.198 379.956C332.398 379.956 333.37 380.322 334.114 381.054C334.858 381.774 335.23 382.818 335.23 384.186V390H333.61V384.42C333.61 383.436 333.364 382.686 332.872 382.17C332.38 381.642 331.708 381.378 330.856 381.378C329.992 381.378 329.302 381.648 328.786 382.188C328.282 382.728 328.03 383.514 328.03 384.546V390H326.392V380.136H328.03V381.54C328.354 381.036 328.792 380.646 329.344 380.37C329.908 380.094 330.526 379.956 331.198 379.956Z" fill="#FB9C46"/>
<path d="M218.088 412.098C217.444 412.098 216.875 411.986 216.38 411.762C215.895 411.538 215.512 411.225 215.232 410.824C214.952 410.423 214.803 409.975 214.784 409.48H215.82C215.867 409.956 216.077 410.376 216.45 410.74C216.823 411.095 217.369 411.272 218.088 411.272C218.751 411.272 219.273 411.104 219.656 410.768C220.048 410.423 220.244 409.989 220.244 409.466C220.244 409.046 220.137 408.71 219.922 408.458C219.707 408.197 219.441 408.005 219.124 407.884C218.807 407.753 218.368 407.613 217.808 407.464C217.155 407.287 216.637 407.114 216.254 406.946C215.871 406.778 215.545 406.517 215.274 406.162C215.003 405.807 214.868 405.327 214.868 404.72C214.868 404.216 214.999 403.768 215.26 403.376C215.521 402.975 215.89 402.662 216.366 402.438C216.842 402.214 217.388 402.102 218.004 402.102C218.909 402.102 219.637 402.326 220.188 402.774C220.748 403.213 221.07 403.782 221.154 404.482H220.09C220.025 404.081 219.805 403.726 219.432 403.418C219.059 403.101 218.555 402.942 217.92 402.942C217.332 402.942 216.842 403.101 216.45 403.418C216.058 403.726 215.862 404.151 215.862 404.692C215.862 405.103 215.969 405.434 216.184 405.686C216.399 405.938 216.665 406.129 216.982 406.26C217.309 406.391 217.747 406.531 218.298 406.68C218.933 406.857 219.446 407.035 219.838 407.212C220.23 407.38 220.561 407.641 220.832 407.996C221.103 408.351 221.238 408.827 221.238 409.424C221.238 409.881 221.117 410.315 220.874 410.726C220.631 411.137 220.272 411.468 219.796 411.72C219.32 411.972 218.751 412.098 218.088 412.098ZM230.048 407.786C230.048 408.122 230.038 408.379 230.02 408.556H223.678C223.706 409.135 223.846 409.629 224.098 410.04C224.35 410.451 224.681 410.763 225.092 410.978C225.502 411.183 225.95 411.286 226.436 411.286C227.07 411.286 227.602 411.132 228.032 410.824C228.47 410.516 228.76 410.101 228.9 409.578H229.936C229.749 410.325 229.348 410.936 228.732 411.412C228.125 411.879 227.36 412.112 226.436 412.112C225.717 412.112 225.073 411.953 224.504 411.636C223.934 411.309 223.486 410.852 223.16 410.264C222.842 409.667 222.684 408.971 222.684 408.178C222.684 407.385 222.842 406.689 223.16 406.092C223.477 405.495 223.92 405.037 224.49 404.72C225.059 404.403 225.708 404.244 226.436 404.244C227.164 404.244 227.798 404.403 228.34 404.72C228.89 405.037 229.31 405.467 229.6 406.008C229.898 406.54 230.048 407.133 230.048 407.786ZM229.054 407.758C229.063 407.189 228.946 406.703 228.704 406.302C228.47 405.901 228.148 405.597 227.738 405.392C227.327 405.187 226.879 405.084 226.394 405.084C225.666 405.084 225.045 405.317 224.532 405.784C224.018 406.251 223.734 406.909 223.678 407.758H229.054ZM232.821 401.64V412H231.841V401.64H232.821ZM241.956 407.786C241.956 408.122 241.947 408.379 241.928 408.556H235.586C235.614 409.135 235.754 409.629 236.006 410.04C236.258 410.451 236.589 410.763 237 410.978C237.411 411.183 237.859 411.286 238.344 411.286C238.979 411.286 239.511 411.132 239.94 410.824C240.379 410.516 240.668 410.101 240.808 409.578H241.844C241.657 410.325 241.256 410.936 240.64 411.412C240.033 411.879 239.268 412.112 238.344 412.112C237.625 412.112 236.981 411.953 236.412 411.636C235.843 411.309 235.395 410.852 235.068 410.264C234.751 409.667 234.592 408.971 234.592 408.178C234.592 407.385 234.751 406.689 235.068 406.092C235.385 405.495 235.829 405.037 236.398 404.72C236.967 404.403 237.616 404.244 238.344 404.244C239.072 404.244 239.707 404.403 240.248 404.72C240.799 405.037 241.219 405.467 241.508 406.008C241.807 406.54 241.956 407.133 241.956 407.786ZM240.962 407.758C240.971 407.189 240.855 406.703 240.612 406.302C240.379 405.901 240.057 405.597 239.646 405.392C239.235 405.187 238.787 405.084 238.302 405.084C237.574 405.084 236.953 405.317 236.44 405.784C235.927 406.251 235.642 406.909 235.586 407.758H240.962ZM243.301 408.178C243.301 407.385 243.46 406.694 243.777 406.106C244.094 405.509 244.533 405.051 245.093 404.734C245.653 404.407 246.292 404.244 247.011 404.244C247.954 404.244 248.728 404.477 249.335 404.944C249.951 405.411 250.348 406.045 250.525 406.848H249.475C249.344 406.297 249.06 405.868 248.621 405.56C248.192 405.243 247.655 405.084 247.011 405.084C246.498 405.084 246.036 405.201 245.625 405.434C245.214 405.667 244.888 406.017 244.645 406.484C244.412 406.941 244.295 407.506 244.295 408.178C244.295 408.85 244.412 409.419 244.645 409.886C244.888 410.353 245.214 410.703 245.625 410.936C246.036 411.169 246.498 411.286 247.011 411.286C247.655 411.286 248.192 411.132 248.621 410.824C249.06 410.507 249.344 410.068 249.475 409.508H250.525C250.348 410.292 249.951 410.922 249.335 411.398C248.719 411.874 247.944 412.112 247.011 412.112C246.292 412.112 245.653 411.953 245.093 411.636C244.533 411.309 244.094 410.852 243.777 410.264C243.46 409.667 243.301 408.971 243.301 408.178ZM253.609 405.182V409.928C253.609 410.395 253.698 410.717 253.875 410.894C254.052 411.071 254.365 411.16 254.813 411.16H255.709V412H254.659C253.968 412 253.455 411.841 253.119 411.524C252.783 411.197 252.615 410.665 252.615 409.928V405.182H251.551V404.356H252.615V402.438H253.609V404.356H255.709V405.182H253.609ZM260.719 408.164C260.719 407.38 260.873 406.694 261.181 406.106C261.498 405.509 261.932 405.051 262.483 404.734C263.043 404.407 263.673 404.244 264.373 404.244C265.101 404.244 265.726 404.412 266.249 404.748C266.781 405.084 267.164 405.513 267.397 406.036V404.356H268.377V412H267.397V410.306C267.154 410.829 266.767 411.263 266.235 411.608C265.712 411.944 265.087 412.112 264.359 412.112C263.668 412.112 263.043 411.949 262.483 411.622C261.932 411.295 261.498 410.833 261.181 410.236C260.873 409.639 260.719 408.948 260.719 408.164ZM267.397 408.178C267.397 407.562 267.271 407.021 267.019 406.554C266.767 406.087 266.422 405.728 265.983 405.476C265.554 405.224 265.078 405.098 264.555 405.098C264.014 405.098 263.528 405.219 263.099 405.462C262.67 405.705 262.329 406.059 262.077 406.526C261.834 406.983 261.713 407.529 261.713 408.164C261.713 408.789 261.834 409.34 262.077 409.816C262.329 410.283 262.67 410.642 263.099 410.894C263.528 411.137 264.014 411.258 264.555 411.258C265.078 411.258 265.554 411.132 265.983 410.88C266.422 410.628 266.767 410.269 267.019 409.802C267.271 409.335 267.397 408.794 267.397 408.178ZM275.436 401.64V412H274.456V401.64H275.436ZM284.571 407.786C284.571 408.122 284.562 408.379 284.543 408.556H278.201C278.229 409.135 278.369 409.629 278.621 410.04C278.873 410.451 279.204 410.763 279.615 410.978C280.026 411.183 280.474 411.286 280.959 411.286C281.594 411.286 282.126 411.132 282.555 410.824C282.994 410.516 283.283 410.101 283.423 409.578H284.459C284.272 410.325 283.871 410.936 283.255 411.412C282.648 411.879 281.883 412.112 280.959 412.112C280.24 412.112 279.596 411.953 279.027 411.636C278.458 411.309 278.01 410.852 277.683 410.264C277.366 409.667 277.207 408.971 277.207 408.178C277.207 407.385 277.366 406.689 277.683 406.092C278 405.495 278.444 405.037 279.013 404.72C279.582 404.403 280.231 404.244 280.959 404.244C281.687 404.244 282.322 404.403 282.863 404.72C283.414 405.037 283.834 405.467 284.123 406.008C284.422 406.54 284.571 407.133 284.571 407.786ZM283.577 407.758C283.586 407.189 283.47 406.703 283.227 406.302C282.994 405.901 282.672 405.597 282.261 405.392C281.85 405.187 281.402 405.084 280.917 405.084C280.189 405.084 279.568 405.317 279.055 405.784C278.542 406.251 278.257 406.909 278.201 407.758H283.577ZM288.996 412.112C288.119 412.112 287.4 411.911 286.84 411.51C286.289 411.099 285.981 410.544 285.916 409.844H286.924C286.971 410.273 287.171 410.623 287.526 410.894C287.89 411.155 288.375 411.286 288.982 411.286C289.514 411.286 289.929 411.16 290.228 410.908C290.536 410.656 290.69 410.343 290.69 409.97C290.69 409.709 290.606 409.494 290.438 409.326C290.27 409.158 290.055 409.027 289.794 408.934C289.542 408.831 289.197 408.724 288.758 408.612C288.189 408.463 287.727 408.313 287.372 408.164C287.017 408.015 286.714 407.795 286.462 407.506C286.219 407.207 286.098 406.811 286.098 406.316C286.098 405.943 286.21 405.597 286.434 405.28C286.658 404.963 286.975 404.711 287.386 404.524C287.797 404.337 288.263 404.244 288.786 404.244C289.607 404.244 290.27 404.454 290.774 404.874C291.278 405.285 291.549 405.854 291.586 406.582H290.606C290.578 406.134 290.401 405.775 290.074 405.504C289.757 405.224 289.318 405.084 288.758 405.084C288.263 405.084 287.862 405.201 287.554 405.434C287.246 405.667 287.092 405.957 287.092 406.302C287.092 406.601 287.181 406.848 287.358 407.044C287.545 407.231 287.773 407.38 288.044 407.492C288.315 407.595 288.679 407.711 289.136 407.842C289.687 407.991 290.125 408.136 290.452 408.276C290.779 408.416 291.059 408.621 291.292 408.892C291.525 409.163 291.647 409.522 291.656 409.97C291.656 410.381 291.544 410.749 291.32 411.076C291.096 411.393 290.783 411.645 290.382 411.832C289.981 412.019 289.519 412.112 288.996 412.112ZM296.133 412.112C295.256 412.112 294.537 411.911 293.977 411.51C293.426 411.099 293.118 410.544 293.053 409.844H294.061C294.108 410.273 294.308 410.623 294.663 410.894C295.027 411.155 295.512 411.286 296.119 411.286C296.651 411.286 297.066 411.16 297.365 410.908C297.673 410.656 297.827 410.343 297.827 409.97C297.827 409.709 297.743 409.494 297.575 409.326C297.407 409.158 297.192 409.027 296.931 408.934C296.679 408.831 296.334 408.724 295.895 408.612C295.326 408.463 294.864 408.313 294.509 408.164C294.154 408.015 293.851 407.795 293.599 407.506C293.356 407.207 293.235 406.811 293.235 406.316C293.235 405.943 293.347 405.597 293.571 405.28C293.795 404.963 294.112 404.711 294.523 404.524C294.934 404.337 295.4 404.244 295.923 404.244C296.744 404.244 297.407 404.454 297.911 404.874C298.415 405.285 298.686 405.854 298.723 406.582H297.743C297.715 406.134 297.538 405.775 297.211 405.504C296.894 405.224 296.455 405.084 295.895 405.084C295.4 405.084 294.999 405.201 294.691 405.434C294.383 405.667 294.229 405.957 294.229 406.302C294.229 406.601 294.318 406.848 294.495 407.044C294.682 407.231 294.91 407.38 295.181 407.492C295.452 407.595 295.816 407.711 296.273 407.842C296.824 407.991 297.262 408.136 297.589 408.276C297.916 408.416 298.196 408.621 298.429 408.892C298.662 409.163 298.784 409.522 298.793 409.97C298.793 410.381 298.681 410.749 298.457 411.076C298.233 411.393 297.92 411.645 297.519 411.832C297.118 412.019 296.656 412.112 296.133 412.112ZM303.984 412.112C303.265 412.112 302.616 411.953 302.038 411.636C301.468 411.309 301.016 410.852 300.68 410.264C300.353 409.667 300.19 408.971 300.19 408.178C300.19 407.385 300.358 406.694 300.694 406.106C301.03 405.509 301.487 405.051 302.066 404.734C302.644 404.407 303.293 404.244 304.012 404.244C304.73 404.244 305.379 404.407 305.958 404.734C306.546 405.051 307.003 405.509 307.33 406.106C307.666 406.694 307.834 407.385 307.834 408.178C307.834 408.962 307.666 409.653 307.33 410.25C306.994 410.847 306.532 411.309 305.944 411.636C305.356 411.953 304.702 412.112 303.984 412.112ZM303.984 411.258C304.488 411.258 304.954 411.146 305.384 410.922C305.813 410.689 306.158 410.343 306.42 409.886C306.69 409.419 306.826 408.85 306.826 408.178C306.826 407.506 306.695 406.941 306.434 406.484C306.172 406.017 305.827 405.672 305.398 405.448C304.968 405.215 304.502 405.098 303.998 405.098C303.494 405.098 303.027 405.215 302.598 405.448C302.168 405.672 301.823 406.017 301.562 406.484C301.31 406.941 301.184 407.506 301.184 408.178C301.184 408.85 301.31 409.419 301.562 409.886C301.823 410.343 302.164 410.689 302.584 410.922C303.013 411.146 303.48 411.258 303.984 411.258ZM313.204 404.216C314.119 404.216 314.865 404.501 315.444 405.07C316.023 405.63 316.312 406.447 316.312 407.52V412H315.346V407.632C315.346 406.801 315.136 406.167 314.716 405.728C314.305 405.289 313.741 405.07 313.022 405.07C312.285 405.07 311.697 405.303 311.258 405.77C310.819 406.237 310.6 406.923 310.6 407.828V412H309.62V404.356H310.6V405.658C310.843 405.191 311.193 404.837 311.65 404.594C312.107 404.342 312.625 404.216 313.204 404.216ZM323.595 405.182V409.928C323.595 410.395 323.684 410.717 323.861 410.894C324.039 411.071 324.351 411.16 324.799 411.16H325.695V412H324.645C323.955 412 323.441 411.841 323.105 411.524C322.769 411.197 322.601 410.665 322.601 409.928V405.182H321.537V404.356H322.601V402.438H323.595V404.356H325.695V405.182H323.595ZM327.801 402.914C327.605 402.914 327.437 402.844 327.297 402.704C327.157 402.564 327.087 402.391 327.087 402.186C327.087 401.981 327.157 401.813 327.297 401.682C327.437 401.542 327.605 401.472 327.801 401.472C327.997 401.472 328.165 401.542 328.305 401.682C328.445 401.813 328.515 401.981 328.515 402.186C328.515 402.391 328.445 402.564 328.305 402.704C328.165 402.844 327.997 402.914 327.801 402.914ZM328.291 404.356V412H327.311V404.356H328.291ZM339.611 404.216C340.507 404.216 341.235 404.501 341.795 405.07C342.364 405.63 342.649 406.447 342.649 407.52V412H341.683V407.632C341.683 406.801 341.482 406.167 341.081 405.728C340.679 405.289 340.133 405.07 339.443 405.07C338.724 405.07 338.15 405.308 337.721 405.784C337.291 406.26 337.077 406.951 337.077 407.856V412H336.111V407.632C336.111 406.801 335.91 406.167 335.509 405.728C335.107 405.289 334.557 405.07 333.857 405.07C333.138 405.07 332.564 405.308 332.135 405.784C331.705 406.26 331.491 406.951 331.491 407.856V412H330.511V404.356H331.491V405.672C331.733 405.196 332.079 404.837 332.527 404.594C332.975 404.342 333.474 404.216 334.025 404.216C334.687 404.216 335.266 404.375 335.761 404.692C336.265 405.009 336.629 405.476 336.853 406.092C337.058 405.485 337.408 405.023 337.903 404.706C338.407 404.379 338.976 404.216 339.611 404.216ZM351.741 407.786C351.741 408.122 351.732 408.379 351.713 408.556H345.371C345.399 409.135 345.539 409.629 345.791 410.04C346.043 410.451 346.374 410.763 346.785 410.978C347.196 411.183 347.644 411.286 348.129 411.286C348.764 411.286 349.296 411.132 349.725 410.824C350.164 410.516 350.453 410.101 350.593 409.578H351.629C351.442 410.325 351.041 410.936 350.425 411.412C349.818 411.879 349.053 412.112 348.129 412.112C347.41 412.112 346.766 411.953 346.197 411.636C345.628 411.309 345.18 410.852 344.853 410.264C344.536 409.667 344.377 408.971 344.377 408.178C344.377 407.385 344.536 406.689 344.853 406.092C345.17 405.495 345.614 405.037 346.183 404.72C346.752 404.403 347.401 404.244 348.129 404.244C348.857 404.244 349.492 404.403 350.033 404.72C350.584 405.037 351.004 405.467 351.293 406.008C351.592 406.54 351.741 407.133 351.741 407.786ZM350.747 407.758C350.756 407.189 350.64 406.703 350.397 406.302C350.164 405.901 349.842 405.597 349.431 405.392C349.02 405.187 348.572 405.084 348.087 405.084C347.359 405.084 346.738 405.317 346.225 405.784C345.712 406.251 345.427 406.909 345.371 407.758H350.747ZM356.928 408.164C356.928 407.38 357.082 406.694 357.39 406.106C357.707 405.509 358.141 405.051 358.692 404.734C359.252 404.407 359.882 404.244 360.582 404.244C361.31 404.244 361.935 404.412 362.458 404.748C362.99 405.084 363.373 405.513 363.606 406.036V404.356H364.586V412H363.606V410.306C363.363 410.829 362.976 411.263 362.444 411.608C361.921 411.944 361.296 412.112 360.568 412.112C359.877 412.112 359.252 411.949 358.692 411.622C358.141 411.295 357.707 410.833 357.39 410.236C357.082 409.639 356.928 408.948 356.928 408.164ZM363.606 408.178C363.606 407.562 363.48 407.021 363.228 406.554C362.976 406.087 362.631 405.728 362.192 405.476C361.763 405.224 361.287 405.098 360.764 405.098C360.223 405.098 359.737 405.219 359.308 405.462C358.879 405.705 358.538 406.059 358.286 406.526C358.043 406.983 357.922 407.529 357.922 408.164C357.922 408.789 358.043 409.34 358.286 409.816C358.538 410.283 358.879 410.642 359.308 410.894C359.737 411.137 360.223 411.258 360.764 411.258C361.287 411.258 361.763 411.132 362.192 410.88C362.631 410.628 362.976 410.269 363.228 409.802C363.48 409.335 363.606 408.794 363.606 408.178ZM370.407 404.216C371.322 404.216 372.068 404.501 372.647 405.07C373.226 405.63 373.515 406.447 373.515 407.52V412H372.549V407.632C372.549 406.801 372.339 406.167 371.919 405.728C371.508 405.289 370.944 405.07 370.225 405.07C369.488 405.07 368.9 405.303 368.461 405.77C368.022 406.237 367.803 406.923 367.803 407.828V412H366.823V404.356H367.803V405.658C368.046 405.191 368.396 404.837 368.853 404.594C369.31 404.342 369.828 404.216 370.407 404.216ZM375.235 408.164C375.235 407.38 375.393 406.694 375.711 406.106C376.028 405.509 376.462 405.051 377.013 404.734C377.573 404.407 378.203 404.244 378.903 404.244C379.575 404.244 380.181 404.407 380.723 404.734C381.264 405.061 381.661 405.485 381.913 406.008V401.64H382.893V412H381.913V410.292C381.679 410.824 381.297 411.263 380.765 411.608C380.233 411.944 379.607 412.112 378.889 412.112C378.189 412.112 377.559 411.949 376.999 411.622C376.448 411.295 376.014 410.833 375.697 410.236C375.389 409.639 375.235 408.948 375.235 408.164ZM381.913 408.178C381.913 407.562 381.787 407.021 381.535 406.554C381.283 406.087 380.937 405.728 380.499 405.476C380.069 405.224 379.593 405.098 379.071 405.098C378.529 405.098 378.044 405.219 377.615 405.462C377.185 405.705 376.845 406.059 376.593 406.526C376.35 406.983 376.229 407.529 376.229 408.164C376.229 408.789 376.35 409.34 376.593 409.816C376.845 410.283 377.185 410.642 377.615 410.894C378.044 411.137 378.529 411.258 379.071 411.258C379.593 411.258 380.069 411.132 380.499 410.88C380.937 410.628 381.283 410.269 381.535 409.802C381.787 409.335 381.913 408.794 381.913 408.178ZM388.524 408.164C388.524 407.38 388.678 406.694 388.986 406.106C389.303 405.509 389.737 405.051 390.288 404.734C390.848 404.407 391.478 404.244 392.178 404.244C392.906 404.244 393.531 404.412 394.054 404.748C394.586 405.084 394.968 405.513 395.202 406.036V404.356H396.182V412H395.202V410.306C394.959 410.829 394.572 411.263 394.04 411.608C393.517 411.944 392.892 412.112 392.164 412.112C391.473 412.112 390.848 411.949 390.288 411.622C389.737 411.295 389.303 410.833 388.986 410.236C388.678 409.639 388.524 408.948 388.524 408.164ZM395.202 408.178C395.202 407.562 395.076 407.021 394.824 406.554C394.572 406.087 394.226 405.728 393.788 405.476C393.358 405.224 392.882 405.098 392.36 405.098C391.818 405.098 391.333 405.219 390.904 405.462C390.474 405.705 390.134 406.059 389.882 406.526C389.639 406.983 389.518 407.529 389.518 408.164C389.518 408.789 389.639 409.34 389.882 409.816C390.134 410.283 390.474 410.642 390.904 410.894C391.333 411.137 391.818 411.258 392.36 411.258C392.882 411.258 393.358 411.132 393.788 410.88C394.226 410.628 394.572 410.269 394.824 409.802C395.076 409.335 395.202 408.794 395.202 408.178ZM397.971 408.164C397.971 407.38 398.129 406.694 398.447 406.106C398.764 405.509 399.198 405.051 399.749 404.734C400.309 404.407 400.939 404.244 401.639 404.244C402.311 404.244 402.917 404.407 403.459 404.734C404 405.061 404.397 405.485 404.649 406.008V401.64H405.629V412H404.649V410.292C404.415 410.824 404.033 411.263 403.501 411.608C402.969 411.944 402.343 412.112 401.625 412.112C400.925 412.112 400.295 411.949 399.735 411.622C399.184 411.295 398.75 410.833 398.433 410.236C398.125 409.639 397.971 408.948 397.971 408.164ZM404.649 408.178C404.649 407.562 404.523 407.021 404.271 406.554C404.019 406.087 403.673 405.728 403.235 405.476C402.805 405.224 402.329 405.098 401.807 405.098C401.265 405.098 400.78 405.219 400.351 405.462C399.921 405.705 399.581 406.059 399.329 406.526C399.086 406.983 398.965 407.529 398.965 408.164C398.965 408.789 399.086 409.34 399.329 409.816C399.581 410.283 399.921 410.642 400.351 410.894C400.78 411.137 401.265 411.258 401.807 411.258C402.329 411.258 402.805 411.132 403.235 410.88C403.673 410.628 404.019 410.269 404.271 409.802C404.523 409.335 404.649 408.794 404.649 408.178ZM407.418 408.164C407.418 407.38 407.577 406.694 407.894 406.106C408.211 405.509 408.645 405.051 409.196 404.734C409.756 404.407 410.386 404.244 411.086 404.244C411.758 404.244 412.365 404.407 412.906 404.734C413.447 405.061 413.844 405.485 414.096 406.008V401.64H415.076V412H414.096V410.292C413.863 410.824 413.48 411.263 412.948 411.608C412.416 411.944 411.791 412.112 411.072 412.112C410.372 412.112 409.742 411.949 409.182 411.622C408.631 411.295 408.197 410.833 407.88 410.236C407.572 409.639 407.418 408.948 407.418 408.164ZM414.096 408.178C414.096 407.562 413.97 407.021 413.718 406.554C413.466 406.087 413.121 405.728 412.682 405.476C412.253 405.224 411.777 405.098 411.254 405.098C410.713 405.098 410.227 405.219 409.798 405.462C409.369 405.705 409.028 406.059 408.776 406.526C408.533 406.983 408.412 407.529 408.412 408.164C408.412 408.789 408.533 409.34 408.776 409.816C409.028 410.283 409.369 410.642 409.798 410.894C410.227 411.137 410.713 411.258 411.254 411.258C411.777 411.258 412.253 411.132 412.682 410.88C413.121 410.628 413.466 410.269 413.718 409.802C413.97 409.335 414.096 408.794 414.096 408.178ZM421.645 402.914C421.449 402.914 421.281 402.844 421.141 402.704C421.001 402.564 420.931 402.391 420.931 402.186C420.931 401.981 421.001 401.813 421.141 401.682C421.281 401.542 421.449 401.472 421.645 401.472C421.841 401.472 422.009 401.542 422.149 401.682C422.289 401.813 422.359 401.981 422.359 402.186C422.359 402.391 422.289 402.564 422.149 402.704C422.009 402.844 421.841 402.914 421.645 402.914ZM422.135 404.356V412H421.155V404.356H422.135ZM425.628 405.182V409.928C425.628 410.395 425.717 410.717 425.894 410.894C426.072 411.071 426.384 411.16 426.832 411.16H427.728V412H426.678C425.988 412 425.474 411.841 425.138 411.524C424.802 411.197 424.634 410.665 424.634 409.928V405.182H423.57V404.356H424.634V402.438H425.628V404.356H427.728V405.182H425.628ZM434.46 405.182V409.928C434.46 410.395 434.549 410.717 434.726 410.894C434.904 411.071 435.216 411.16 435.664 411.16H436.56V412H435.51C434.82 412 434.306 411.841 433.97 411.524C433.634 411.197 433.466 410.665 433.466 409.928V405.182H432.402V404.356H433.466V402.438H434.46V404.356H436.56V405.182H434.46ZM441.523 412.112C440.804 412.112 440.155 411.953 439.577 411.636C439.007 411.309 438.555 410.852 438.219 410.264C437.892 409.667 437.729 408.971 437.729 408.178C437.729 407.385 437.897 406.694 438.233 406.106C438.569 405.509 439.026 405.051 439.605 404.734C440.183 404.407 440.832 404.244 441.551 404.244C442.269 404.244 442.918 404.407 443.497 404.734C444.085 405.051 444.542 405.509 444.869 406.106C445.205 406.694 445.373 407.385 445.373 408.178C445.373 408.962 445.205 409.653 444.869 410.25C444.533 410.847 444.071 411.309 443.483 411.636C442.895 411.953 442.241 412.112 441.523 412.112ZM441.523 411.258C442.027 411.258 442.493 411.146 442.923 410.922C443.352 410.689 443.697 410.343 443.959 409.886C444.229 409.419 444.365 408.85 444.365 408.178C444.365 407.506 444.234 406.941 443.973 406.484C443.711 406.017 443.366 405.672 442.937 405.448C442.507 405.215 442.041 405.098 441.537 405.098C441.033 405.098 440.566 405.215 440.137 405.448C439.707 405.672 439.362 406.017 439.101 406.484C438.849 406.941 438.723 407.506 438.723 408.178C438.723 408.85 438.849 409.419 439.101 409.886C439.362 410.343 439.703 410.689 440.123 410.922C440.552 411.146 441.019 411.258 441.523 411.258ZM452.275 405.182V409.928C452.275 410.395 452.364 410.717 452.541 410.894C452.718 411.071 453.031 411.16 453.479 411.16H454.375V412H453.325C452.634 412 452.121 411.841 451.785 411.524C451.449 411.197 451.281 410.665 451.281 409.928V405.182H450.217V404.356H451.281V402.438H452.275V404.356H454.375V405.182H452.275ZM459.631 404.216C460.21 404.216 460.728 404.337 461.185 404.58C461.652 404.823 462.016 405.196 462.277 405.7C462.548 406.195 462.683 406.801 462.683 407.52V412H461.717V407.632C461.717 406.801 461.507 406.167 461.087 405.728C460.676 405.289 460.112 405.07 459.393 405.07C458.656 405.07 458.068 405.303 457.629 405.77C457.19 406.237 456.971 406.923 456.971 407.828V412H455.991V401.64H456.971V405.658C457.214 405.201 457.568 404.846 458.035 404.594C458.511 404.342 459.043 404.216 459.631 404.216ZM471.766 407.786C471.766 408.122 471.757 408.379 471.738 408.556H465.396C465.424 409.135 465.564 409.629 465.816 410.04C466.068 410.451 466.4 410.763 466.81 410.978C467.221 411.183 467.669 411.286 468.154 411.286C468.789 411.286 469.321 411.132 469.75 410.824C470.189 410.516 470.478 410.101 470.618 409.578H471.654C471.468 410.325 471.066 410.936 470.45 411.412C469.844 411.879 469.078 412.112 468.154 412.112C467.436 412.112 466.792 411.953 466.222 411.636C465.653 411.309 465.205 410.852 464.878 410.264C464.561 409.667 464.402 408.971 464.402 408.178C464.402 407.385 464.561 406.689 464.878 406.092C465.196 405.495 465.639 405.037 466.208 404.72C466.778 404.403 467.426 404.244 468.154 404.244C468.882 404.244 469.517 404.403 470.058 404.72C470.609 405.037 471.029 405.467 471.318 406.008C471.617 406.54 471.766 407.133 471.766 407.786ZM470.772 407.758C470.782 407.189 470.665 406.703 470.422 406.302C470.189 405.901 469.867 405.597 469.456 405.392C469.046 405.187 468.598 405.084 468.112 405.084C467.384 405.084 466.764 405.317 466.25 405.784C465.737 406.251 465.452 406.909 465.396 407.758H470.772ZM474.049 402.914C473.853 402.914 473.685 402.844 473.545 402.704C473.405 402.564 473.335 402.391 473.335 402.186C473.335 401.981 473.405 401.813 473.545 401.682C473.685 401.542 473.853 401.472 474.049 401.472C474.245 401.472 474.413 401.542 474.553 401.682C474.693 401.813 474.763 401.981 474.763 402.186C474.763 402.391 474.693 402.564 474.553 402.704C474.413 402.844 474.245 402.914 474.049 402.914ZM474.539 404.356V412H473.559V404.356H474.539ZM477.739 405.714C477.953 405.238 478.28 404.869 478.719 404.608C479.167 404.347 479.713 404.216 480.357 404.216V405.238H480.091C479.381 405.238 478.812 405.429 478.383 405.812C477.953 406.195 477.739 406.834 477.739 407.73V412H476.759V404.356H477.739V405.714ZM485.225 408.178C485.225 407.385 485.383 406.694 485.701 406.106C486.018 405.509 486.457 405.051 487.017 404.734C487.577 404.407 488.216 404.244 488.935 404.244C489.877 404.244 490.652 404.477 491.259 404.944C491.875 405.411 492.271 406.045 492.449 406.848H491.399C491.268 406.297 490.983 405.868 490.545 405.56C490.115 405.243 489.579 405.084 488.935 405.084C488.421 405.084 487.959 405.201 487.549 405.434C487.138 405.667 486.811 406.017 486.569 406.484C486.335 406.941 486.219 407.506 486.219 408.178C486.219 408.85 486.335 409.419 486.569 409.886C486.811 410.353 487.138 410.703 487.549 410.936C487.959 411.169 488.421 411.286 488.935 411.286C489.579 411.286 490.115 411.132 490.545 410.824C490.983 410.507 491.268 410.068 491.399 409.508H492.449C492.271 410.292 491.875 410.922 491.259 411.398C490.643 411.874 489.868 412.112 488.935 412.112C488.216 412.112 487.577 411.953 487.017 411.636C486.457 411.309 486.018 410.852 485.701 410.264C485.383 409.667 485.225 408.971 485.225 408.178ZM493.811 408.164C493.811 407.38 493.965 406.694 494.273 406.106C494.59 405.509 495.024 405.051 495.575 404.734C496.135 404.407 496.765 404.244 497.465 404.244C498.193 404.244 498.818 404.412 499.341 404.748C499.873 405.084 500.255 405.513 500.489 406.036V404.356H501.469V412H500.489V410.306C500.246 410.829 499.859 411.263 499.327 411.608C498.804 411.944 498.179 412.112 497.451 412.112C496.76 412.112 496.135 411.949 495.575 411.622C495.024 411.295 494.59 410.833 494.273 410.236C493.965 409.639 493.811 408.948 493.811 408.164ZM500.489 408.178C500.489 407.562 500.363 407.021 500.111 406.554C499.859 406.087 499.513 405.728 499.075 405.476C498.645 405.224 498.169 405.098 497.647 405.098C497.105 405.098 496.62 405.219 496.191 405.462C495.761 405.705 495.421 406.059 495.169 406.526C494.926 406.983 494.805 407.529 494.805 408.164C494.805 408.789 494.926 409.34 495.169 409.816C495.421 410.283 495.761 410.642 496.191 410.894C496.62 411.137 497.105 411.258 497.647 411.258C498.169 411.258 498.645 411.132 499.075 410.88C499.513 410.628 499.859 410.269 500.111 409.802C500.363 409.335 500.489 408.794 500.489 408.178ZM504.686 401.64V412H503.706V401.64H504.686ZM513.821 407.786C513.821 408.122 513.812 408.379 513.793 408.556H507.451C507.479 409.135 507.619 409.629 507.871 410.04C508.123 410.451 508.454 410.763 508.865 410.978C509.276 411.183 509.724 411.286 510.209 411.286C510.844 411.286 511.376 411.132 511.805 410.824C512.244 410.516 512.533 410.101 512.673 409.578H513.709C513.522 410.325 513.121 410.936 512.505 411.412C511.898 411.879 511.133 412.112 510.209 412.112C509.49 412.112 508.846 411.953 508.277 411.636C507.708 411.309 507.26 410.852 506.933 410.264C506.616 409.667 506.457 408.971 506.457 408.178C506.457 407.385 506.616 406.689 506.933 406.092C507.25 405.495 507.694 405.037 508.263 404.72C508.832 404.403 509.481 404.244 510.209 404.244C510.937 404.244 511.572 404.403 512.113 404.72C512.664 405.037 513.084 405.467 513.373 406.008C513.672 406.54 513.821 407.133 513.821 407.786ZM512.827 407.758C512.836 407.189 512.72 406.703 512.477 406.302C512.244 405.901 511.922 405.597 511.511 405.392C511.1 405.187 510.652 405.084 510.167 405.084C509.439 405.084 508.818 405.317 508.305 405.784C507.792 406.251 507.507 406.909 507.451 407.758H512.827ZM519.198 404.216C520.113 404.216 520.859 404.501 521.438 405.07C522.017 405.63 522.306 406.447 522.306 407.52V412H521.34V407.632C521.34 406.801 521.13 406.167 520.71 405.728C520.299 405.289 519.735 405.07 519.016 405.07C518.279 405.07 517.691 405.303 517.252 405.77C516.813 406.237 516.594 406.923 516.594 407.828V412H515.614V404.356H516.594V405.658C516.837 405.191 517.187 404.837 517.644 404.594C518.101 404.342 518.619 404.216 519.198 404.216ZM524.026 408.164C524.026 407.38 524.184 406.694 524.502 406.106C524.819 405.509 525.253 405.051 525.804 404.734C526.364 404.407 526.994 404.244 527.694 404.244C528.366 404.244 528.972 404.407 529.514 404.734C530.055 405.061 530.452 405.485 530.704 406.008V401.64H531.684V412H530.704V410.292C530.47 410.824 530.088 411.263 529.556 411.608C529.024 411.944 528.398 412.112 527.68 412.112C526.98 412.112 526.35 411.949 525.79 411.622C525.239 411.295 524.805 410.833 524.488 410.236C524.18 409.639 524.026 408.948 524.026 408.164ZM530.704 408.178C530.704 407.562 530.578 407.021 530.326 406.554C530.074 406.087 529.728 405.728 529.29 405.476C528.86 405.224 528.384 405.098 527.862 405.098C527.32 405.098 526.835 405.219 526.406 405.462C525.976 405.705 525.636 406.059 525.384 406.526C525.141 406.983 525.02 407.529 525.02 408.164C525.02 408.789 525.141 409.34 525.384 409.816C525.636 410.283 525.976 410.642 526.406 410.894C526.835 411.137 527.32 411.258 527.862 411.258C528.384 411.258 528.86 411.132 529.29 410.88C529.728 410.628 530.074 410.269 530.326 409.802C530.578 409.335 530.704 408.794 530.704 408.178ZM533.473 408.164C533.473 407.38 533.627 406.694 533.935 406.106C534.252 405.509 534.686 405.051 535.237 404.734C535.797 404.407 536.427 404.244 537.127 404.244C537.855 404.244 538.48 404.412 539.003 404.748C539.535 405.084 539.917 405.513 540.151 406.036V404.356H541.131V412H540.151V410.306C539.908 410.829 539.521 411.263 538.989 411.608C538.466 411.944 537.841 412.112 537.113 412.112C536.422 412.112 535.797 411.949 535.237 411.622C534.686 411.295 534.252 410.833 533.935 410.236C533.627 409.639 533.473 408.948 533.473 408.164ZM540.151 408.178C540.151 407.562 540.025 407.021 539.773 406.554C539.521 406.087 539.175 405.728 538.737 405.476C538.307 405.224 537.831 405.098 537.309 405.098C536.767 405.098 536.282 405.219 535.853 405.462C535.423 405.705 535.083 406.059 534.831 406.526C534.588 406.983 534.467 407.529 534.467 408.164C534.467 408.789 534.588 409.34 534.831 409.816C535.083 410.283 535.423 410.642 535.853 410.894C536.282 411.137 536.767 411.258 537.309 411.258C537.831 411.258 538.307 411.132 538.737 410.88C539.175 410.628 539.521 410.269 539.773 409.802C540.025 409.335 540.151 408.794 540.151 408.178ZM544.348 405.714C544.563 405.238 544.889 404.869 545.328 404.608C545.776 404.347 546.322 404.216 546.966 404.216V405.238H546.7C545.991 405.238 545.421 405.429 544.992 405.812C544.563 406.195 544.348 406.834 544.348 407.73V412H543.368V404.356H544.348V405.714ZM548.608 412.07C548.403 412.07 548.23 412 548.09 411.86C547.96 411.72 547.894 411.547 547.894 411.342C547.894 411.137 547.96 410.969 548.09 410.838C548.23 410.698 548.403 410.628 548.608 410.628C548.804 410.628 548.968 410.698 549.098 410.838C549.238 410.969 549.308 411.137 549.308 411.342C549.308 411.547 549.238 411.72 549.098 411.86C548.968 412 548.804 412.07 548.608 412.07Z" fill="#393939"/>
<path d="M160.91 382.417C161.423 382.415 161.829 382.814 161.83 383.345L161.831 384.251C165.16 384.512 167.358 386.78 167.362 390.258L167.375 400.44C167.38 404.232 164.997 406.565 161.178 406.571L151.85 406.583C148.055 406.588 145.643 404.199 145.638 400.396L145.625 390.335C145.62 386.833 147.741 384.571 151.07 384.266L151.069 383.36C151.068 382.829 151.461 382.429 151.986 382.429C152.511 382.428 152.905 382.826 152.906 383.357L152.907 384.203L159.994 384.193L159.993 383.348C159.991 382.816 160.385 382.418 160.91 382.417ZM161.397 399.565H161.385C160.836 399.578 160.396 400.039 160.408 400.594C160.409 401.15 160.852 401.607 161.4 401.62C161.96 401.618 162.413 401.158 162.412 400.591C162.412 400.023 161.957 399.565 161.397 399.565ZM151.566 399.566C151.017 399.591 150.588 400.051 150.589 400.606C150.614 401.162 151.068 401.597 151.616 401.571C152.154 401.547 152.583 401.087 152.558 400.531C152.546 399.988 152.103 399.565 151.566 399.566ZM156.482 399.56C155.933 399.586 155.504 400.045 155.504 400.6C155.529 401.156 155.983 401.589 156.532 401.565C157.068 401.54 157.498 401.081 157.473 400.524C157.461 399.982 157.018 399.559 156.482 399.56ZM151.56 395.219C151.012 395.243 150.583 395.703 150.584 396.258C150.608 396.814 151.063 397.249 151.612 397.223C152.148 397.199 152.577 396.739 152.552 396.184C152.54 395.64 152.098 395.217 151.56 395.219ZM156.477 395.176C155.928 395.2 155.498 395.661 155.5 396.216C155.524 396.772 155.978 397.205 156.527 397.181C157.064 397.156 157.492 396.697 157.468 396.141C157.455 395.598 157.014 395.175 156.477 395.176ZM161.392 395.182C160.843 395.194 160.414 395.641 160.415 396.197V396.21C160.427 396.766 160.88 397.187 161.43 397.175C161.967 397.162 162.395 396.702 162.383 396.146C162.358 395.615 161.928 395.181 161.392 395.182ZM159.996 386.053L152.91 386.063L152.911 387.04C152.911 387.56 152.518 387.971 151.993 387.971C151.468 387.972 151.074 387.563 151.074 387.042L151.072 386.112C148.746 386.345 147.459 387.713 147.462 390.332L147.463 390.708L165.526 390.684V390.261C165.475 387.664 164.172 386.302 161.833 386.099L161.835 387.029C161.835 387.548 161.43 387.96 160.917 387.96C160.392 387.961 159.997 387.551 159.997 387.031L159.996 386.053Z" fill="white"/>
<defs>
<filter id="filter0_dd_1_767" x="-246" y="0" width="1314" height="800" filterUnits="userSpaceOnUse" color-interpolation-filters="sRGB">
<feFlood flood-opacity="0" result="BackgroundImageFix"/>
<feColorMatrix in="SourceAlpha" type="matrix" values="0 0 0 0 0 0 0 0 0 0 0 0 0 0 0 0 0 0 127 0" result="hardAlpha"/>
<feOffset dy="0.500862"/>
<feGaussianBlur stdDeviation="22.351"/>
<feColorMatrix type="matrix" values="0 0 0 0 1 0 0 0 0 0.572549 0 0 0 0 0.184314 0 0 0 0.075 0"/>
<feBlend mode="normal" in2="BackgroundImageFix" result="effect1_dropShadow_1_767"/>
<feColorMatrix in="SourceAlpha" type="matrix" values="0 0 0 0 0 0 0 0 0 0 0 0 0 0 0 0 0 0 127 0" result="hardAlpha"/>
<feOffset dy="4"/>
<feGaussianBlur stdDeviation="178.5"/>
<feColorMatrix type="matrix" values="0 0 0 0 1 0 0 0 0 0.572549 0 0 0 0 0.184314 0 0 0 0.15 0"/>
<feBlend mode="normal" in2="effect1_dropShadow_1_767" result="effect2_dropShadow_1_767"/>
<feBlend mode="normal" in="SourceGraphic" in2="effect2_dropShadow_1_767" result="shape"/>
</filter>
</defs>
</svg>
