<svg width="375" height="289" viewBox="0 0 375 289" fill="none" xmlns="http://www.w3.org/2000/svg">
<g filter="url(#filter0_f_1_920)">
<rect x="69.2192" y="120.164" width="214.913" height="48.4607" rx="4" fill="#FB9C46"/>
</g>
<rect x="25" y="73" width="259" height="60" rx="4" fill="white"/>
<path d="M55.8659 102.192C55.6099 101.723 55.2579 101.365 54.8099 101.12C54.3619 100.875 53.8393 100.752 53.2419 100.752C52.5806 100.752 51.9939 100.901 51.4819 101.2C50.9699 101.499 50.5699 101.925 50.2819 102.48C49.9939 103.035 49.8499 103.675 49.8499 104.4C49.8499 105.147 49.9939 105.797 50.2819 106.352C50.5806 106.907 50.9913 107.333 51.5139 107.632C52.0366 107.931 52.6446 108.08 53.3379 108.08C54.1913 108.08 54.8899 107.856 55.4339 107.408C55.9779 106.949 56.3353 106.315 56.5059 105.504H52.6659V103.792H58.7139V105.744C58.5646 106.523 58.2446 107.243 57.7539 107.904C57.2633 108.565 56.6286 109.099 55.8499 109.504C55.0819 109.899 54.2179 110.096 53.2579 110.096C52.1806 110.096 51.2046 109.856 50.3299 109.376C49.4659 108.885 48.7833 108.208 48.2819 107.344C47.7913 106.48 47.5459 105.499 47.5459 104.4C47.5459 103.301 47.7913 102.32 48.2819 101.456C48.7833 100.581 49.4659 99.904 50.3299 99.424C51.2046 98.9333 52.1753 98.688 53.2419 98.688C54.5006 98.688 55.5939 98.9973 56.5219 99.616C57.4499 100.224 58.0899 101.083 58.4419 102.192H55.8659ZM68.9112 105.376C68.9112 105.696 68.8899 105.984 68.8472 106.24H62.3672C62.4205 106.88 62.6445 107.381 63.0392 107.744C63.4339 108.107 63.9192 108.288 64.4952 108.288C65.3272 108.288 65.9192 107.931 66.2712 107.216H68.6872C68.4312 108.069 67.9405 108.773 67.2152 109.328C66.4899 109.872 65.5992 110.144 64.5432 110.144C63.6899 110.144 62.9219 109.957 62.2392 109.584C61.5672 109.2 61.0392 108.661 60.6552 107.968C60.2819 107.275 60.0952 106.475 60.0952 105.568C60.0952 104.651 60.2819 103.845 60.6552 103.152C61.0285 102.459 61.5512 101.925 62.2232 101.552C62.8952 101.179 63.6685 100.992 64.5432 100.992C65.3859 100.992 66.1379 101.173 66.7992 101.536C67.4712 101.899 67.9885 102.416 68.3512 103.088C68.7245 103.749 68.9112 104.512 68.9112 105.376ZM66.5912 104.736C66.5805 104.16 66.3725 103.701 65.9672 103.36C65.5619 103.008 65.0659 102.832 64.4792 102.832C63.9245 102.832 63.4552 103.003 63.0712 103.344C62.6979 103.675 62.4685 104.139 62.3832 104.736H66.5912ZM73.4542 102.976V107.264C73.4542 107.563 73.5235 107.781 73.6622 107.92C73.8115 108.048 74.0569 108.112 74.3982 108.112H75.4382V110H74.0302C72.1422 110 71.1982 109.083 71.1982 107.248V102.976H70.1422V101.136H71.1982V98.944H73.4542V101.136H75.4382V102.976H73.4542ZM89.9418 101.136L84.4538 114.192H82.0698L83.9898 109.776L80.4378 101.136H82.9498L85.2378 107.328L87.5578 101.136H89.9418ZM95.3853 110.144C94.532 110.144 93.764 109.957 93.0813 109.584C92.3986 109.2 91.86 108.661 91.4653 107.968C91.0813 107.275 90.8893 106.475 90.8893 105.568C90.8893 104.661 91.0866 103.861 91.4813 103.168C91.8866 102.475 92.436 101.941 93.1293 101.568C93.8226 101.184 94.596 100.992 95.4493 100.992C96.3026 100.992 97.076 101.184 97.7693 101.568C98.4626 101.941 99.0066 102.475 99.4013 103.168C99.8066 103.861 100.009 104.661 100.009 105.568C100.009 106.475 99.8013 107.275 99.3853 107.968C98.98 108.661 98.4253 109.2 97.7213 109.584C97.028 109.957 96.2493 110.144 95.3853 110.144ZM95.3853 108.192C95.7906 108.192 96.1693 108.096 96.5213 107.904C96.884 107.701 97.172 107.403 97.3853 107.008C97.5986 106.613 97.7053 106.133 97.7053 105.568C97.7053 104.725 97.4813 104.08 97.0333 103.632C96.596 103.173 96.0573 102.944 95.4173 102.944C94.7773 102.944 94.2386 103.173 93.8013 103.632C93.3746 104.08 93.1613 104.725 93.1613 105.568C93.1613 106.411 93.3693 107.061 93.7853 107.52C94.212 107.968 94.7453 108.192 95.3853 108.192ZM110.32 101.136V110H108.064V108.88C107.776 109.264 107.398 109.568 106.928 109.792C106.47 110.005 105.968 110.112 105.424 110.112C104.731 110.112 104.118 109.968 103.584 109.68C103.051 109.381 102.63 108.949 102.32 108.384C102.022 107.808 101.872 107.125 101.872 106.336V101.136H104.112V106.016C104.112 106.72 104.288 107.264 104.64 107.648C104.992 108.021 105.472 108.208 106.08 108.208C106.699 108.208 107.184 108.021 107.536 107.648C107.888 107.264 108.064 106.72 108.064 106.016V101.136H110.32ZM115.071 102.512C115.359 102.043 115.732 101.675 116.191 101.408C116.66 101.141 117.193 101.008 117.791 101.008V103.36H117.199C116.495 103.36 115.961 103.525 115.599 103.856C115.247 104.187 115.071 104.763 115.071 105.584V110H112.831V101.136H115.071V102.512ZM127.776 102.976H126.224V110H123.952V102.976H122.944V101.136H123.952V100.688C123.952 99.6 124.261 98.8 124.88 98.288C125.498 97.776 126.432 97.536 127.68 97.568V99.456C127.136 99.4453 126.757 99.536 126.544 99.728C126.33 99.92 126.224 100.267 126.224 100.768V101.136H127.776V102.976ZM131.767 102.512C132.055 102.043 132.429 101.675 132.887 101.408C133.357 101.141 133.89 101.008 134.487 101.008V103.36H133.895C133.191 103.36 132.658 103.525 132.295 103.856C131.943 104.187 131.767 104.763 131.767 105.584V110H129.527V101.136H131.767V102.512ZM144.536 105.376C144.536 105.696 144.515 105.984 144.472 106.24H137.992C138.046 106.88 138.27 107.381 138.664 107.744C139.059 108.107 139.544 108.288 140.12 108.288C140.952 108.288 141.544 107.931 141.896 107.216H144.312C144.056 108.069 143.566 108.773 142.84 109.328C142.115 109.872 141.224 110.144 140.168 110.144C139.315 110.144 138.547 109.957 137.864 109.584C137.192 109.2 136.664 108.661 136.28 107.968C135.907 107.275 135.72 106.475 135.72 105.568C135.72 104.651 135.907 103.845 136.28 103.152C136.654 102.459 137.176 101.925 137.848 101.552C138.52 101.179 139.294 100.992 140.168 100.992C141.011 100.992 141.763 101.173 142.424 101.536C143.096 101.899 143.614 102.416 143.976 103.088C144.35 103.749 144.536 104.512 144.536 105.376ZM142.216 104.736C142.206 104.16 141.998 103.701 141.592 103.36C141.187 103.008 140.691 102.832 140.104 102.832C139.55 102.832 139.08 103.003 138.696 103.344C138.323 103.675 138.094 104.139 138.008 104.736H142.216ZM154.711 105.376C154.711 105.696 154.69 105.984 154.647 106.24H148.167C148.221 106.88 148.445 107.381 148.839 107.744C149.234 108.107 149.719 108.288 150.295 108.288C151.127 108.288 151.719 107.931 152.071 107.216H154.487C154.231 108.069 153.741 108.773 153.015 109.328C152.29 109.872 151.399 110.144 150.343 110.144C149.49 110.144 148.722 109.957 148.039 109.584C147.367 109.2 146.839 108.661 146.455 107.968C146.082 107.275 145.895 106.475 145.895 105.568C145.895 104.651 146.082 103.845 146.455 103.152C146.829 102.459 147.351 101.925 148.023 101.552C148.695 101.179 149.469 100.992 150.343 100.992C151.186 100.992 151.938 101.173 152.599 101.536C153.271 101.899 153.789 102.416 154.151 103.088C154.525 103.749 154.711 104.512 154.711 105.376ZM152.391 104.736C152.381 104.16 152.173 103.701 151.767 103.36C151.362 103.008 150.866 102.832 150.279 102.832C149.725 102.832 149.255 103.003 148.871 103.344C148.498 103.675 148.269 104.139 148.183 104.736H152.391ZM162.999 98.16V110H160.759V98.16H162.999ZM173.752 105.376C173.752 105.696 173.73 105.984 173.688 106.24H167.208C167.261 106.88 167.485 107.381 167.88 107.744C168.274 108.107 168.76 108.288 169.336 108.288C170.168 108.288 170.76 107.931 171.112 107.216H173.528C173.272 108.069 172.781 108.773 172.056 109.328C171.33 109.872 170.44 110.144 169.384 110.144C168.53 110.144 167.762 109.957 167.08 109.584C166.408 109.2 165.88 108.661 165.496 107.968C165.122 107.275 164.936 106.475 164.936 105.568C164.936 104.651 165.122 103.845 165.496 103.152C165.869 102.459 166.392 101.925 167.064 101.552C167.736 101.179 168.509 100.992 169.384 100.992C170.226 100.992 170.978 101.173 171.64 101.536C172.312 101.899 172.829 102.416 173.192 103.088C173.565 103.749 173.752 104.512 173.752 105.376ZM171.432 104.736C171.421 104.16 171.213 103.701 170.808 103.36C170.402 103.008 169.906 102.832 169.32 102.832C168.765 102.832 168.296 103.003 167.912 103.344C167.538 103.675 167.309 104.139 167.224 104.736H171.432ZM179.079 110.144C178.353 110.144 177.703 110.016 177.127 109.76C176.551 109.493 176.092 109.136 175.751 108.688C175.42 108.24 175.239 107.744 175.207 107.2H177.463C177.505 107.541 177.671 107.824 177.959 108.048C178.257 108.272 178.625 108.384 179.063 108.384C179.489 108.384 179.82 108.299 180.055 108.128C180.3 107.957 180.423 107.739 180.423 107.472C180.423 107.184 180.273 106.971 179.975 106.832C179.687 106.683 179.223 106.523 178.583 106.352C177.921 106.192 177.377 106.027 176.951 105.856C176.535 105.685 176.172 105.424 175.863 105.072C175.564 104.72 175.415 104.245 175.415 103.648C175.415 103.157 175.553 102.709 175.831 102.304C176.119 101.899 176.524 101.579 177.047 101.344C177.58 101.109 178.204 100.992 178.919 100.992C179.975 100.992 180.817 101.259 181.447 101.792C182.076 102.315 182.423 103.024 182.487 103.92H180.343C180.311 103.568 180.161 103.291 179.895 103.088C179.639 102.875 179.292 102.768 178.855 102.768C178.449 102.768 178.135 102.843 177.911 102.992C177.697 103.141 177.591 103.349 177.591 103.616C177.591 103.915 177.74 104.144 178.039 104.304C178.337 104.453 178.801 104.608 179.431 104.768C180.071 104.928 180.599 105.093 181.015 105.264C181.431 105.435 181.788 105.701 182.087 106.064C182.396 106.416 182.556 106.885 182.567 107.472C182.567 107.984 182.423 108.443 182.135 108.848C181.857 109.253 181.452 109.573 180.919 109.808C180.396 110.032 179.783 110.144 179.079 110.144ZM188.098 110.144C187.372 110.144 186.722 110.016 186.146 109.76C185.57 109.493 185.111 109.136 184.77 108.688C184.439 108.24 184.258 107.744 184.226 107.2H186.482C186.524 107.541 186.69 107.824 186.978 108.048C187.276 108.272 187.644 108.384 188.082 108.384C188.508 108.384 188.839 108.299 189.074 108.128C189.319 107.957 189.442 107.739 189.442 107.472C189.442 107.184 189.292 106.971 188.994 106.832C188.706 106.683 188.242 106.523 187.602 106.352C186.94 106.192 186.396 106.027 185.97 105.856C185.554 105.685 185.191 105.424 184.882 105.072C184.583 104.72 184.434 104.245 184.434 103.648C184.434 103.157 184.572 102.709 184.85 102.304C185.138 101.899 185.543 101.579 186.066 101.344C186.599 101.109 187.223 100.992 187.938 100.992C188.994 100.992 189.836 101.259 190.466 101.792C191.095 102.315 191.442 103.024 191.506 103.92H189.362C189.33 103.568 189.18 103.291 188.914 103.088C188.658 102.875 188.311 102.768 187.874 102.768C187.468 102.768 187.154 102.843 186.93 102.992C186.716 103.141 186.61 103.349 186.61 103.616C186.61 103.915 186.759 104.144 187.058 104.304C187.356 104.453 187.82 104.608 188.45 104.768C189.09 104.928 189.618 105.093 190.034 105.264C190.45 105.435 190.807 105.701 191.106 106.064C191.415 106.416 191.575 106.885 191.586 107.472C191.586 107.984 191.442 108.443 191.154 108.848C190.876 109.253 190.471 109.573 189.938 109.808C189.415 110.032 188.802 110.144 188.098 110.144ZM197.66 110.144C196.807 110.144 196.039 109.957 195.356 109.584C194.674 109.2 194.135 108.661 193.74 107.968C193.356 107.275 193.164 106.475 193.164 105.568C193.164 104.661 193.362 103.861 193.756 103.168C194.162 102.475 194.711 101.941 195.404 101.568C196.098 101.184 196.871 100.992 197.724 100.992C198.578 100.992 199.351 101.184 200.044 101.568C200.738 101.941 201.282 102.475 201.676 103.168C202.082 103.861 202.284 104.661 202.284 105.568C202.284 106.475 202.076 107.275 201.66 107.968C201.255 108.661 200.7 109.2 199.996 109.584C199.303 109.957 198.524 110.144 197.66 110.144ZM197.66 108.192C198.066 108.192 198.444 108.096 198.796 107.904C199.159 107.701 199.447 107.403 199.66 107.008C199.874 106.613 199.98 106.133 199.98 105.568C199.98 104.725 199.756 104.08 199.308 103.632C198.871 103.173 198.332 102.944 197.692 102.944C197.052 102.944 196.514 103.173 196.076 103.632C195.65 104.08 195.436 104.725 195.436 105.568C195.436 106.411 195.644 107.061 196.06 107.52C196.487 107.968 197.02 108.192 197.66 108.192ZM209.139 101.008C210.195 101.008 211.049 101.344 211.699 102.016C212.35 102.677 212.675 103.605 212.675 104.8V110H210.435V105.104C210.435 104.4 210.259 103.861 209.907 103.488C209.555 103.104 209.075 102.912 208.467 102.912C207.849 102.912 207.358 103.104 206.995 103.488C206.643 103.861 206.467 104.4 206.467 105.104V110H204.227V101.136H206.467V102.24C206.766 101.856 207.145 101.557 207.603 101.344C208.073 101.12 208.585 101.008 209.139 101.008ZM218.498 110.144C217.772 110.144 217.122 110.016 216.546 109.76C215.97 109.493 215.511 109.136 215.17 108.688C214.839 108.24 214.658 107.744 214.626 107.2H216.882C216.924 107.541 217.09 107.824 217.378 108.048C217.676 108.272 218.044 108.384 218.482 108.384C218.908 108.384 219.239 108.299 219.474 108.128C219.719 107.957 219.842 107.739 219.842 107.472C219.842 107.184 219.692 106.971 219.394 106.832C219.106 106.683 218.642 106.523 218.002 106.352C217.34 106.192 216.796 106.027 216.37 105.856C215.954 105.685 215.591 105.424 215.282 105.072C214.983 104.72 214.834 104.245 214.834 103.648C214.834 103.157 214.972 102.709 215.25 102.304C215.538 101.899 215.943 101.579 216.466 101.344C216.999 101.109 217.623 100.992 218.338 100.992C219.394 100.992 220.236 101.259 220.866 101.792C221.495 102.315 221.842 103.024 221.906 103.92H219.762C219.73 103.568 219.58 103.291 219.314 103.088C219.058 102.875 218.711 102.768 218.274 102.768C217.868 102.768 217.554 102.843 217.33 102.992C217.116 103.141 217.01 103.349 217.01 103.616C217.01 103.915 217.159 104.144 217.458 104.304C217.756 104.453 218.22 104.608 218.85 104.768C219.49 104.928 220.018 105.093 220.434 105.264C220.85 105.435 221.207 105.701 221.506 106.064C221.815 106.416 221.975 106.885 221.986 107.472C221.986 107.984 221.842 108.443 221.554 108.848C221.276 109.253 220.871 109.573 220.338 109.808C219.815 110.032 219.202 110.144 218.498 110.144ZM233.149 101.008C234.205 101.008 235.058 101.344 235.709 102.016C236.359 102.677 236.685 103.605 236.685 104.8V110H234.445V105.104C234.445 104.4 234.269 103.861 233.917 103.488C233.565 103.104 233.085 102.912 232.477 102.912C231.858 102.912 231.367 103.104 231.005 103.488C230.653 103.861 230.477 104.4 230.477 105.104V110H228.237V101.136H230.477V102.24C230.775 101.856 231.154 101.557 231.613 101.344C232.082 101.12 232.594 101.008 233.149 101.008ZM243.051 110.144C242.198 110.144 241.43 109.957 240.747 109.584C240.064 109.2 239.526 108.661 239.131 107.968C238.747 107.275 238.555 106.475 238.555 105.568C238.555 104.661 238.752 103.861 239.147 103.168C239.552 102.475 240.102 101.941 240.795 101.568C241.488 101.184 242.262 100.992 243.115 100.992C243.968 100.992 244.742 101.184 245.435 101.568C246.128 101.941 246.672 102.475 247.067 103.168C247.472 103.861 247.675 104.661 247.675 105.568C247.675 106.475 247.467 107.275 247.051 107.968C246.646 108.661 246.091 109.2 245.387 109.584C244.694 109.957 243.915 110.144 243.051 110.144ZM243.051 108.192C243.456 108.192 243.835 108.096 244.187 107.904C244.55 107.701 244.838 107.403 245.051 107.008C245.264 106.613 245.371 106.133 245.371 105.568C245.371 104.725 245.147 104.08 244.699 103.632C244.262 103.173 243.723 102.944 243.083 102.944C242.443 102.944 241.904 103.173 241.467 103.632C241.04 104.08 240.827 104.725 240.827 105.568C240.827 106.411 241.035 107.061 241.451 107.52C241.878 107.968 242.411 108.192 243.051 108.192ZM261.906 101.136L259.314 110H256.898L255.282 103.808L253.666 110H251.234L248.626 101.136H250.898L252.466 107.888L254.162 101.136H256.53L258.194 107.872L259.762 101.136H261.906Z" fill="#FB9C46"/>
<defs>
<filter id="filter0_f_1_920" x="-50.7808" y="0.164062" width="454.913" height="288.461" filterUnits="userSpaceOnUse" color-interpolation-filters="sRGB">
<feFlood flood-opacity="0" result="BackgroundImageFix"/>
<feBlend mode="normal" in="SourceGraphic" in2="BackgroundImageFix" result="shape"/>
<feGaussianBlur stdDeviation="60" result="effect1_foregroundBlur_1_920"/>
</filter>
</defs>
</svg>
