<svg width="437" height="71" viewBox="0 0 437 71" fill="none" xmlns="http://www.w3.org/2000/svg">
<path d="M85.704 7.832V9.64H82.728V19H80.488V9.64H77.512V7.832H85.704ZM86.7624 14.536C86.7624 13.64 86.9384 12.8453 87.2904 12.152C87.653 11.4587 88.1384 10.9253 88.7464 10.552C89.365 10.1787 90.053 9.992 90.8104 9.992C91.4717 9.992 92.0477 10.1253 92.5384 10.392C93.0397 10.6587 93.4397 10.9947 93.7384 11.4V10.136H95.9944V19H93.7384V17.704C93.4504 18.12 93.0504 18.4667 92.5384 18.744C92.037 19.0107 91.4557 19.144 90.7944 19.144C90.0477 19.144 89.365 18.952 88.7464 18.568C88.1384 18.184 87.653 17.6453 87.2904 16.952C86.9384 16.248 86.7624 15.4427 86.7624 14.536ZM93.7384 14.568C93.7384 14.024 93.6317 13.56 93.4184 13.176C93.205 12.7813 92.917 12.4827 92.5544 12.28C92.1917 12.0667 91.8024 11.96 91.3864 11.96C90.9704 11.96 90.5864 12.0613 90.2344 12.264C89.8824 12.4667 89.5944 12.7653 89.3704 13.16C89.157 13.544 89.0504 14.0027 89.0504 14.536C89.0504 15.0693 89.157 15.5387 89.3704 15.944C89.5944 16.3387 89.8824 16.6427 90.2344 16.856C90.597 17.0693 90.981 17.176 91.3864 17.176C91.8024 17.176 92.1917 17.0747 92.5544 16.872C92.917 16.6587 93.205 16.36 93.4184 15.976C93.6317 15.5813 93.7384 15.112 93.7384 14.568ZM103.43 19L100.422 15.224V19H98.1821V7.16H100.422V13.896L103.398 10.136H106.31L102.406 14.584L106.342 19H103.43ZM115.766 14.376C115.766 14.696 115.745 14.984 115.702 15.24H109.222C109.275 15.88 109.499 16.3813 109.894 16.744C110.289 17.1067 110.774 17.288 111.35 17.288C112.182 17.288 112.774 16.9307 113.126 16.216H115.542C115.286 17.0693 114.795 17.7733 114.07 18.328C113.345 18.872 112.454 19.144 111.398 19.144C110.545 19.144 109.777 18.9573 109.094 18.584C108.422 18.2 107.894 17.6613 107.51 16.968C107.137 16.2747 106.95 15.4747 106.95 14.568C106.95 13.6507 107.137 12.8453 107.51 12.152C107.883 11.4587 108.406 10.9253 109.078 10.552C109.75 10.1787 110.523 9.992 111.398 9.992C112.241 9.992 112.993 10.1733 113.654 10.536C114.326 10.8987 114.843 11.416 115.206 12.088C115.579 12.7493 115.766 13.512 115.766 14.376ZM113.446 13.736C113.435 13.16 113.227 12.7013 112.822 12.36C112.417 12.008 111.921 11.832 111.334 11.832C110.779 11.832 110.31 12.0027 109.926 12.344C109.553 12.6747 109.323 13.1387 109.238 13.736H113.446ZM123.453 7.16V19H121.213V7.16H123.453ZM133.907 14.376C133.907 14.696 133.885 14.984 133.843 15.24H127.363C127.416 15.88 127.64 16.3813 128.035 16.744C128.429 17.1067 128.915 17.288 129.491 17.288C130.323 17.288 130.915 16.9307 131.267 16.216H133.683C133.427 17.0693 132.936 17.7733 132.211 18.328C131.485 18.872 130.595 19.144 129.539 19.144C128.685 19.144 127.917 18.9573 127.235 18.584C126.563 18.2 126.035 17.6613 125.651 16.968C125.277 16.2747 125.09 15.4747 125.09 14.568C125.09 13.6507 125.277 12.8453 125.651 12.152C126.024 11.4587 126.547 10.9253 127.219 10.552C127.891 10.1787 128.664 9.992 129.539 9.992C130.381 9.992 131.133 10.1733 131.795 10.536C132.467 10.8987 132.984 11.416 133.347 12.088C133.72 12.7493 133.907 13.512 133.907 14.376ZM131.587 13.736C131.576 13.16 131.368 12.7013 130.963 12.36C130.557 12.008 130.061 11.832 129.475 11.832C128.92 11.832 128.451 12.0027 128.067 12.344C127.693 12.6747 127.464 13.1387 127.379 13.736H131.587ZM134.965 14.536C134.965 13.64 135.141 12.8453 135.493 12.152C135.856 11.4587 136.342 10.9253 136.95 10.552C137.568 10.1787 138.256 9.992 139.014 9.992C139.675 9.992 140.251 10.1253 140.742 10.392C141.243 10.6587 141.643 10.9947 141.942 11.4V10.136H144.198V19H141.942V17.704C141.654 18.12 141.254 18.4667 140.742 18.744C140.24 19.0107 139.659 19.144 138.998 19.144C138.251 19.144 137.568 18.952 136.95 18.568C136.342 18.184 135.856 17.6453 135.493 16.952C135.141 16.248 134.965 15.4427 134.965 14.536ZM141.942 14.568C141.942 14.024 141.835 13.56 141.622 13.176C141.408 12.7813 141.12 12.4827 140.758 12.28C140.395 12.0667 140.006 11.96 139.59 11.96C139.174 11.96 138.79 12.0613 138.438 12.264C138.086 12.4667 137.798 12.7653 137.574 13.16C137.36 13.544 137.254 14.0027 137.254 14.536C137.254 15.0693 137.36 15.5387 137.574 15.944C137.798 16.3387 138.086 16.6427 138.438 16.856C138.8 17.0693 139.184 17.176 139.59 17.176C140.006 17.176 140.395 17.0747 140.758 16.872C141.12 16.6587 141.408 16.36 141.622 15.976C141.835 15.5813 141.942 15.112 141.942 14.568ZM148.625 11.512C148.913 11.0427 149.287 10.6747 149.745 10.408C150.215 10.1413 150.748 10.008 151.345 10.008V12.36H150.753C150.049 12.36 149.516 12.5253 149.153 12.856C148.801 13.1867 148.625 13.7627 148.625 14.584V19H146.385V10.136H148.625V11.512ZM157.766 10.008C158.822 10.008 159.675 10.344 160.326 11.016C160.977 11.6773 161.302 12.6053 161.302 13.8V19H159.062V14.104C159.062 13.4 158.886 12.8613 158.534 12.488C158.182 12.104 157.702 11.912 157.094 11.912C156.475 11.912 155.985 12.104 155.622 12.488C155.27 12.8613 155.094 13.4 155.094 14.104V19H152.854V10.136H155.094V11.24C155.393 10.856 155.771 10.5573 156.23 10.344C156.699 10.12 157.211 10.008 157.766 10.008ZM164.568 9.08C164.173 9.08 163.843 8.95733 163.576 8.712C163.32 8.456 163.192 8.14133 163.192 7.768C163.192 7.39467 163.32 7.08533 163.576 6.84C163.843 6.584 164.173 6.456 164.568 6.456C164.963 6.456 165.288 6.584 165.544 6.84C165.811 7.08533 165.944 7.39467 165.944 7.768C165.944 8.14133 165.811 8.456 165.544 8.712C165.288 8.95733 164.963 9.08 164.568 9.08ZM165.672 10.136V19H163.432V10.136H165.672ZM172.797 10.008C173.853 10.008 174.707 10.344 175.357 11.016C176.008 11.6773 176.333 12.6053 176.333 13.8V19H174.093V14.104C174.093 13.4 173.917 12.8613 173.565 12.488C173.213 12.104 172.733 11.912 172.125 11.912C171.507 11.912 171.016 12.104 170.653 12.488C170.301 12.8613 170.125 13.4 170.125 14.104V19H167.885V10.136H170.125V11.24C170.424 10.856 170.803 10.5573 171.261 10.344C171.731 10.12 172.243 10.008 172.797 10.008ZM181.935 9.992C182.597 9.992 183.178 10.1253 183.679 10.392C184.181 10.648 184.575 10.984 184.863 11.4V10.136H187.119V19.064C187.119 19.8853 186.954 20.616 186.623 21.256C186.293 21.9067 185.797 22.4187 185.135 22.792C184.474 23.176 183.674 23.368 182.735 23.368C181.477 23.368 180.442 23.0747 179.631 22.488C178.831 21.9013 178.378 21.1013 178.271 20.088H180.495C180.613 20.4933 180.863 20.8133 181.247 21.048C181.642 21.2933 182.117 21.416 182.671 21.416C183.322 21.416 183.85 21.2187 184.255 20.824C184.661 20.44 184.863 19.8533 184.863 19.064V17.688C184.575 18.104 184.175 18.4507 183.663 18.728C183.162 19.0053 182.586 19.144 181.935 19.144C181.189 19.144 180.506 18.952 179.887 18.568C179.269 18.184 178.778 17.6453 178.415 16.952C178.063 16.248 177.887 15.4427 177.887 14.536C177.887 13.64 178.063 12.8453 178.415 12.152C178.778 11.4587 179.263 10.9253 179.871 10.552C180.49 10.1787 181.178 9.992 181.935 9.992ZM184.863 14.568C184.863 14.024 184.757 13.56 184.543 13.176C184.33 12.7813 184.042 12.4827 183.679 12.28C183.317 12.0667 182.927 11.96 182.511 11.96C182.095 11.96 181.711 12.0613 181.359 12.264C181.007 12.4667 180.719 12.7653 180.495 13.16C180.282 13.544 180.175 14.0027 180.175 14.536C180.175 15.0693 180.282 15.5387 180.495 15.944C180.719 16.3387 181.007 16.6427 181.359 16.856C181.722 17.0693 182.106 17.176 182.511 17.176C182.927 17.176 183.317 17.0747 183.679 16.872C184.042 16.6587 184.33 16.36 184.543 15.976C184.757 15.5813 184.863 15.112 184.863 14.568ZM195.36 11.432C195.648 11.0053 196.042 10.6587 196.544 10.392C197.056 10.1253 197.637 9.992 198.288 9.992C199.045 9.992 199.728 10.1787 200.336 10.552C200.954 10.9253 201.44 11.4587 201.792 12.152C202.154 12.8347 202.336 13.6293 202.336 14.536C202.336 15.4427 202.154 16.248 201.792 16.952C201.44 17.6453 200.954 18.184 200.336 18.568C199.728 18.952 199.045 19.144 198.288 19.144C197.626 19.144 197.045 19.016 196.544 18.76C196.053 18.4933 195.658 18.152 195.36 17.736V19H193.12V7.16H195.36V11.432ZM200.048 14.536C200.048 14.0027 199.936 13.544 199.712 13.16C199.498 12.7653 199.21 12.4667 198.848 12.264C198.496 12.0613 198.112 11.96 197.696 11.96C197.29 11.96 196.906 12.0667 196.544 12.28C196.192 12.4827 195.904 12.7813 195.68 13.176C195.466 13.5707 195.36 14.0347 195.36 14.568C195.36 15.1013 195.466 15.5653 195.68 15.96C195.904 16.3547 196.192 16.6587 196.544 16.872C196.906 17.0747 197.29 17.176 197.696 17.176C198.112 17.176 198.496 17.0693 198.848 16.856C199.21 16.6427 199.498 16.3387 199.712 15.944C199.936 15.5493 200.048 15.08 200.048 14.536ZM212.203 14.376C212.203 14.696 212.182 14.984 212.139 15.24H205.659C205.713 15.88 205.937 16.3813 206.331 16.744C206.726 17.1067 207.211 17.288 207.787 17.288C208.619 17.288 209.211 16.9307 209.563 16.216H211.979C211.723 17.0693 211.233 17.7733 210.507 18.328C209.782 18.872 208.891 19.144 207.835 19.144C206.982 19.144 206.214 18.9573 205.531 18.584C204.859 18.2 204.331 17.6613 203.947 16.968C203.574 16.2747 203.387 15.4747 203.387 14.568C203.387 13.6507 203.574 12.8453 203.947 12.152C204.321 11.4587 204.843 10.9253 205.515 10.552C206.187 10.1787 206.961 9.992 207.835 9.992C208.678 9.992 209.43 10.1733 210.091 10.536C210.763 10.8987 211.281 11.416 211.643 12.088C212.017 12.7493 212.203 13.512 212.203 14.376ZM209.883 13.736C209.873 13.16 209.665 12.7013 209.259 12.36C208.854 12.008 208.358 11.832 207.771 11.832C207.217 11.832 206.747 12.0027 206.363 12.344C205.99 12.6747 205.761 13.1387 205.675 13.736H209.883ZM222.318 10.136L216.83 23.192H214.446L216.366 18.776L212.814 10.136H215.326L217.614 16.328L219.934 10.136H222.318ZM227.462 19.144C226.609 19.144 225.841 18.9573 225.158 18.584C224.475 18.2 223.937 17.6613 223.542 16.968C223.158 16.2747 222.966 15.4747 222.966 14.568C222.966 13.6613 223.163 12.8613 223.558 12.168C223.963 11.4747 224.513 10.9413 225.206 10.568C225.899 10.184 226.673 9.992 227.526 9.992C228.379 9.992 229.153 10.184 229.846 10.568C230.539 10.9413 231.083 11.4747 231.478 12.168C231.883 12.8613 232.086 13.6613 232.086 14.568C232.086 15.4747 231.878 16.2747 231.462 16.968C231.057 17.6613 230.502 18.2 229.798 18.584C229.105 18.9573 228.326 19.144 227.462 19.144ZM227.462 17.192C227.867 17.192 228.246 17.096 228.598 16.904C228.961 16.7013 229.249 16.4027 229.462 16.008C229.675 15.6133 229.782 15.1333 229.782 14.568C229.782 13.7253 229.558 13.08 229.11 12.632C228.673 12.1733 228.134 11.944 227.494 11.944C226.854 11.944 226.315 12.1733 225.878 12.632C225.451 13.08 225.238 13.7253 225.238 14.568C225.238 15.4107 225.446 16.0613 225.862 16.52C226.289 16.968 226.822 17.192 227.462 17.192ZM238.641 10.008C239.697 10.008 240.55 10.344 241.201 11.016C241.852 11.6773 242.177 12.6053 242.177 13.8V19H239.937V14.104C239.937 13.4 239.761 12.8613 239.409 12.488C239.057 12.104 238.577 11.912 237.969 11.912C237.35 11.912 236.86 12.104 236.497 12.488C236.145 12.8613 235.969 13.4 235.969 14.104V19H233.729V10.136H235.969V11.24C236.268 10.856 236.646 10.5573 237.105 10.344C237.574 10.12 238.086 10.008 238.641 10.008ZM243.731 14.536C243.731 13.64 243.907 12.8453 244.259 12.152C244.622 11.4587 245.112 10.9253 245.731 10.552C246.35 10.1787 247.038 9.992 247.795 9.992C248.371 9.992 248.92 10.12 249.443 10.376C249.966 10.6213 250.382 10.952 250.691 11.368V7.16H252.963V19H250.691V17.688C250.414 18.1253 250.024 18.4773 249.523 18.744C249.022 19.0107 248.44 19.144 247.779 19.144C247.032 19.144 246.35 18.952 245.731 18.568C245.112 18.184 244.622 17.6453 244.259 16.952C243.907 16.248 243.731 15.4427 243.731 14.536ZM250.707 14.568C250.707 14.024 250.6 13.56 250.387 13.176C250.174 12.7813 249.886 12.4827 249.523 12.28C249.16 12.0667 248.771 11.96 248.355 11.96C247.939 11.96 247.555 12.0613 247.203 12.264C246.851 12.4667 246.563 12.7653 246.339 13.16C246.126 13.544 246.019 14.0027 246.019 14.536C246.019 15.0693 246.126 15.5387 246.339 15.944C246.563 16.3387 246.851 16.6427 247.203 16.856C247.566 17.0693 247.95 17.176 248.355 17.176C248.771 17.176 249.16 17.0747 249.523 16.872C249.886 16.6587 250.174 16.36 250.387 15.976C250.6 15.5813 250.707 15.112 250.707 14.568ZM261.571 11.976V16.264C261.571 16.5627 261.641 16.7813 261.779 16.92C261.929 17.048 262.174 17.112 262.515 17.112H263.555V19H262.147C260.259 19 259.315 18.0827 259.315 16.248V11.976H258.259V10.136H259.315V7.944H261.571V10.136H263.555V11.976H261.571ZM270.159 10.008C270.831 10.008 271.428 10.1573 271.951 10.456C272.473 10.744 272.879 11.176 273.167 11.752C273.465 12.3173 273.615 13 273.615 13.8V19H271.375V14.104C271.375 13.4 271.199 12.8613 270.847 12.488C270.495 12.104 270.015 11.912 269.407 11.912C268.788 11.912 268.297 12.104 267.935 12.488C267.583 12.8613 267.407 13.4 267.407 14.104V19H265.167V7.16H267.407V11.24C267.695 10.856 268.079 10.5573 268.559 10.344C269.039 10.12 269.572 10.008 270.159 10.008ZM283.985 14.376C283.985 14.696 283.963 14.984 283.921 15.24H277.441C277.494 15.88 277.718 16.3813 278.113 16.744C278.507 17.1067 278.993 17.288 279.569 17.288C280.401 17.288 280.993 16.9307 281.345 16.216H283.761C283.505 17.0693 283.014 17.7733 282.289 18.328C281.563 18.872 280.673 19.144 279.617 19.144C278.763 19.144 277.995 18.9573 277.313 18.584C276.641 18.2 276.113 17.6613 275.729 16.968C275.355 16.2747 275.169 15.4747 275.169 14.568C275.169 13.6507 275.355 12.8453 275.729 12.152C276.102 11.4587 276.625 10.9253 277.297 10.552C277.969 10.1787 278.742 9.992 279.617 9.992C280.459 9.992 281.211 10.1733 281.873 10.536C282.545 10.8987 283.062 11.416 283.425 12.088C283.798 12.7493 283.985 13.512 283.985 14.376ZM281.665 13.736C281.654 13.16 281.446 12.7013 281.041 12.36C280.635 12.008 280.139 11.832 279.553 11.832C278.998 11.832 278.529 12.0027 278.145 12.344C277.771 12.6747 277.542 13.1387 277.457 13.736H281.665ZM288.856 14.568C288.856 13.6507 289.043 12.8507 289.416 12.168C289.789 11.4747 290.307 10.9413 290.968 10.568C291.629 10.184 292.387 9.992 293.24 9.992C294.339 9.992 295.245 10.2693 295.96 10.824C296.685 11.368 297.171 12.136 297.416 13.128H295C294.872 12.744 294.653 12.4453 294.344 12.232C294.045 12.008 293.672 11.896 293.224 11.896C292.584 11.896 292.077 12.1307 291.704 12.6C291.331 13.0587 291.144 13.7147 291.144 14.568C291.144 15.4107 291.331 16.0667 291.704 16.536C292.077 16.9947 292.584 17.224 293.224 17.224C294.131 17.224 294.723 16.8187 295 16.008H297.416C297.171 16.968 296.685 17.7307 295.96 18.296C295.235 18.8613 294.328 19.144 293.24 19.144C292.387 19.144 291.629 18.9573 290.968 18.584C290.307 18.2 289.789 17.6667 289.416 16.984C289.043 16.2907 288.856 15.4853 288.856 14.568ZM301.297 7.16V19H299.057V7.16H301.297ZM302.934 14.536C302.934 13.64 303.11 12.8453 303.462 12.152C303.825 11.4587 304.31 10.9253 304.918 10.552C305.537 10.1787 306.225 9.992 306.982 9.992C307.644 9.992 308.22 10.1253 308.71 10.392C309.212 10.6587 309.612 10.9947 309.91 11.4V10.136H312.166V19H309.91V17.704C309.622 18.12 309.222 18.4667 308.71 18.744C308.209 19.0107 307.628 19.144 306.966 19.144C306.22 19.144 305.537 18.952 304.918 18.568C304.31 18.184 303.825 17.6453 303.462 16.952C303.11 16.248 302.934 15.4427 302.934 14.536ZM309.91 14.568C309.91 14.024 309.804 13.56 309.59 13.176C309.377 12.7813 309.089 12.4827 308.726 12.28C308.364 12.0667 307.974 11.96 307.558 11.96C307.142 11.96 306.758 12.0613 306.406 12.264C306.054 12.4667 305.766 12.7653 305.542 13.16C305.329 13.544 305.222 14.0027 305.222 14.536C305.222 15.0693 305.329 15.5387 305.542 15.944C305.766 16.3387 306.054 16.6427 306.406 16.856C306.769 17.0693 307.153 17.176 307.558 17.176C307.974 17.176 308.364 17.0747 308.726 16.872C309.089 16.6587 309.377 16.36 309.59 15.976C309.804 15.5813 309.91 15.112 309.91 14.568ZM317.746 19.144C317.021 19.144 316.37 19.016 315.794 18.76C315.218 18.4933 314.759 18.136 314.418 17.688C314.087 17.24 313.906 16.744 313.874 16.2H316.13C316.173 16.5413 316.338 16.824 316.626 17.048C316.925 17.272 317.293 17.384 317.73 17.384C318.157 17.384 318.487 17.2987 318.722 17.128C318.967 16.9573 319.09 16.7387 319.09 16.472C319.09 16.184 318.941 15.9707 318.642 15.832C318.354 15.6827 317.89 15.5227 317.25 15.352C316.589 15.192 316.045 15.0267 315.618 14.856C315.202 14.6853 314.839 14.424 314.53 14.072C314.231 13.72 314.082 13.2453 314.082 12.648C314.082 12.1573 314.221 11.7093 314.498 11.304C314.786 10.8987 315.191 10.5787 315.714 10.344C316.247 10.1093 316.871 9.992 317.586 9.992C318.642 9.992 319.485 10.2587 320.114 10.792C320.743 11.3147 321.09 12.024 321.154 12.92H319.01C318.978 12.568 318.829 12.2907 318.562 12.088C318.306 11.8747 317.959 11.768 317.522 11.768C317.117 11.768 316.802 11.8427 316.578 11.992C316.365 12.1413 316.258 12.3493 316.258 12.616C316.258 12.9147 316.407 13.144 316.706 13.304C317.005 13.4533 317.469 13.608 318.098 13.768C318.738 13.928 319.266 14.0933 319.682 14.264C320.098 14.4347 320.455 14.7013 320.754 15.064C321.063 15.416 321.223 15.8853 321.234 16.472C321.234 16.984 321.09 17.4427 320.802 17.848C320.525 18.2533 320.119 18.5733 319.586 18.808C319.063 19.032 318.45 19.144 317.746 19.144ZM326.465 19.144C325.739 19.144 325.089 19.016 324.513 18.76C323.937 18.4933 323.478 18.136 323.137 17.688C322.806 17.24 322.625 16.744 322.593 16.2H324.849C324.891 16.5413 325.057 16.824 325.345 17.048C325.643 17.272 326.011 17.384 326.449 17.384C326.875 17.384 327.206 17.2987 327.441 17.128C327.686 16.9573 327.809 16.7387 327.809 16.472C327.809 16.184 327.659 15.9707 327.361 15.832C327.073 15.6827 326.609 15.5227 325.969 15.352C325.307 15.192 324.763 15.0267 324.337 14.856C323.921 14.6853 323.558 14.424 323.249 14.072C322.95 13.72 322.801 13.2453 322.801 12.648C322.801 12.1573 322.939 11.7093 323.217 11.304C323.505 10.8987 323.91 10.5787 324.433 10.344C324.966 10.1093 325.59 9.992 326.305 9.992C327.361 9.992 328.203 10.2587 328.833 10.792C329.462 11.3147 329.809 12.024 329.873 12.92H327.729C327.697 12.568 327.547 12.2907 327.281 12.088C327.025 11.8747 326.678 11.768 326.241 11.768C325.835 11.768 325.521 11.8427 325.297 11.992C325.083 12.1413 324.977 12.3493 324.977 12.616C324.977 12.9147 325.126 13.144 325.425 13.304C325.723 13.4533 326.187 13.608 326.817 13.768C327.457 13.928 327.985 14.0933 328.401 14.264C328.817 14.4347 329.174 14.7013 329.473 15.064C329.782 15.416 329.942 15.8853 329.953 16.472C329.953 16.984 329.809 17.4427 329.521 17.848C329.243 18.2533 328.838 18.5733 328.305 18.808C327.782 19.032 327.169 19.144 326.465 19.144ZM334.032 11.512C334.32 11.0427 334.693 10.6747 335.152 10.408C335.621 10.1413 336.154 10.008 336.752 10.008V12.36H336.16C335.456 12.36 334.922 12.5253 334.56 12.856C334.208 13.1867 334.032 13.7627 334.032 14.584V19H331.792V10.136H334.032V11.512ZM342.196 19.144C341.343 19.144 340.575 18.9573 339.892 18.584C339.21 18.2 338.671 17.6613 338.276 16.968C337.892 16.2747 337.7 15.4747 337.7 14.568C337.7 13.6613 337.898 12.8613 338.292 12.168C338.698 11.4747 339.247 10.9413 339.94 10.568C340.634 10.184 341.407 9.992 342.26 9.992C343.114 9.992 343.887 10.184 344.58 10.568C345.274 10.9413 345.818 11.4747 346.212 12.168C346.618 12.8613 346.82 13.6613 346.82 14.568C346.82 15.4747 346.612 16.2747 346.196 16.968C345.791 17.6613 345.236 18.2 344.532 18.584C343.839 18.9573 343.06 19.144 342.196 19.144ZM342.196 17.192C342.602 17.192 342.98 17.096 343.332 16.904C343.695 16.7013 343.983 16.4027 344.196 16.008C344.41 15.6133 344.516 15.1333 344.516 14.568C344.516 13.7253 344.292 13.08 343.844 12.632C343.407 12.1733 342.868 11.944 342.228 11.944C341.588 11.944 341.05 12.1733 340.612 12.632C340.186 13.08 339.972 13.7253 339.972 14.568C339.972 15.4107 340.18 16.0613 340.596 16.52C341.023 16.968 341.556 17.192 342.196 17.192ZM352.399 19.144C351.546 19.144 350.778 18.9573 350.095 18.584C349.413 18.2 348.874 17.6613 348.479 16.968C348.095 16.2747 347.903 15.4747 347.903 14.568C347.903 13.6613 348.101 12.8613 348.495 12.168C348.901 11.4747 349.45 10.9413 350.143 10.568C350.837 10.184 351.61 9.992 352.463 9.992C353.317 9.992 354.09 10.184 354.783 10.568C355.477 10.9413 356.021 11.4747 356.415 12.168C356.821 12.8613 357.023 13.6613 357.023 14.568C357.023 15.4747 356.815 16.2747 356.399 16.968C355.994 17.6613 355.439 18.2 354.735 18.584C354.042 18.9573 353.263 19.144 352.399 19.144ZM352.399 17.192C352.805 17.192 353.183 17.096 353.535 16.904C353.898 16.7013 354.186 16.4027 354.399 16.008C354.613 15.6133 354.719 15.1333 354.719 14.568C354.719 13.7253 354.495 13.08 354.047 12.632C353.61 12.1733 353.071 11.944 352.431 11.944C351.791 11.944 351.253 12.1733 350.815 12.632C350.389 13.08 350.175 13.7253 350.175 14.568C350.175 15.4107 350.383 16.0613 350.799 16.52C351.226 16.968 351.759 17.192 352.399 17.192ZM369.675 10.008C370.763 10.008 371.637 10.344 372.299 11.016C372.971 11.6773 373.307 12.6053 373.307 13.8V19H371.067V14.104C371.067 13.4107 370.891 12.8827 370.539 12.52C370.187 12.1467 369.707 11.96 369.099 11.96C368.491 11.96 368.005 12.1467 367.643 12.52C367.291 12.8827 367.115 13.4107 367.115 14.104V19H364.875V14.104C364.875 13.4107 364.699 12.8827 364.347 12.52C363.995 12.1467 363.515 11.96 362.907 11.96C362.288 11.96 361.797 12.1467 361.435 12.52C361.083 12.8827 360.907 13.4107 360.907 14.104V19H358.667V10.136H360.907V11.208C361.195 10.8347 361.563 10.5413 362.011 10.328C362.469 10.1147 362.971 10.008 363.515 10.008C364.208 10.008 364.827 10.1573 365.371 10.456C365.915 10.744 366.336 11.16 366.635 11.704C366.923 11.192 367.339 10.7813 367.883 10.472C368.437 10.1627 369.035 10.008 369.675 10.008Z" fill="#393939"/>
<path d="M35.4034 4.33313C42.7484 4.33313 47.6667 9.4898 47.6667 17.1598V34.8636C47.6667 42.5098 42.7484 47.6665 35.4034 47.6665H16.6184C9.27342 47.6665 4.33342 42.5098 4.33342 34.8636V17.1598C4.33342 9.4898 9.27342 4.33313 16.6184 4.33313H35.4034ZM35.0568 19.4998C34.3201 18.7631 33.1068 18.7631 32.3701 19.4998L23.4218 28.4481L19.6301 24.6565C18.8934 23.9198 17.6801 23.9198 16.9434 24.6565C16.2068 25.3931 16.2068 26.5848 16.9434 27.3431L22.1001 32.4781C22.4684 32.8465 22.9451 33.0198 23.4218 33.0198C23.9201 33.0198 24.3968 32.8465 24.7651 32.4781L35.0568 22.1865C35.7934 21.4498 35.7934 20.2581 35.0568 19.4998Z" fill="#058E6E"/>
<path d="M83.4852 42.046C83.0092 42.046 82.6032 41.8827 82.2672 41.556C81.9406 41.22 81.7772 40.814 81.7772 40.338C81.7772 39.8527 81.9406 39.4467 82.2672 39.12C82.6032 38.784 83.0092 38.616 83.4852 38.616C83.9706 38.616 84.3812 38.784 84.7172 39.12C85.0532 39.4467 85.2212 39.8527 85.2212 40.338C85.2212 40.814 85.0532 41.22 84.7172 41.556C84.3812 41.8827 83.9706 42.046 83.4852 42.046ZM96.352 43.964H99.768V45H95.078V35.242H96.352V43.964ZM108.121 40.87C108.121 41.1127 108.107 41.3693 108.079 41.64H101.947C101.994 42.396 102.25 42.9887 102.717 43.418C103.193 43.838 103.767 44.048 104.439 44.048C104.99 44.048 105.447 43.922 105.811 43.67C106.184 43.4087 106.446 43.0633 106.595 42.634H107.967C107.762 43.3713 107.351 43.9733 106.735 44.44C106.119 44.8973 105.354 45.126 104.439 45.126C103.711 45.126 103.058 44.9627 102.479 44.636C101.91 44.3093 101.462 43.8473 101.135 43.25C100.808 42.6433 100.645 41.9433 100.645 41.15C100.645 40.3567 100.804 39.6613 101.121 39.064C101.438 38.4667 101.882 38.0093 102.451 37.692C103.03 37.3653 103.692 37.202 104.439 37.202C105.167 37.202 105.811 37.3607 106.371 37.678C106.931 37.9953 107.36 38.434 107.659 38.994C107.967 39.5447 108.121 40.17 108.121 40.87ZM106.805 40.604C106.805 40.1187 106.698 39.7033 106.483 39.358C106.268 39.0033 105.974 38.7373 105.601 38.56C105.237 38.3733 104.831 38.28 104.383 38.28C103.739 38.28 103.188 38.4853 102.731 38.896C102.283 39.3067 102.026 39.876 101.961 40.604H106.805ZM109.327 41.136C109.327 40.352 109.485 39.666 109.803 39.078C110.12 38.4807 110.554 38.0187 111.105 37.692C111.665 37.3653 112.285 37.202 112.967 37.202C113.639 37.202 114.222 37.3467 114.717 37.636C115.211 37.9253 115.58 38.2893 115.823 38.728V37.328H117.111V45H115.823V43.572C115.571 44.02 115.193 44.3933 114.689 44.692C114.194 44.9813 113.615 45.126 112.953 45.126C112.271 45.126 111.655 44.958 111.105 44.622C110.554 44.286 110.12 43.8147 109.803 43.208C109.485 42.6013 109.327 41.9107 109.327 41.136ZM115.823 41.15C115.823 40.5713 115.706 40.0673 115.473 39.638C115.239 39.2087 114.922 38.882 114.521 38.658C114.129 38.4247 113.695 38.308 113.219 38.308C112.743 38.308 112.309 38.42 111.917 38.644C111.525 38.868 111.212 39.1947 110.979 39.624C110.745 40.0533 110.629 40.5573 110.629 41.136C110.629 41.724 110.745 42.2373 110.979 42.676C111.212 43.1053 111.525 43.4367 111.917 43.67C112.309 43.894 112.743 44.006 113.219 44.006C113.695 44.006 114.129 43.894 114.521 43.67C114.922 43.4367 115.239 43.1053 115.473 42.676C115.706 42.2373 115.823 41.7287 115.823 41.15ZM120.538 38.574C120.762 38.1353 121.079 37.7947 121.49 37.552C121.91 37.3093 122.418 37.188 123.016 37.188V38.504H122.68C121.252 38.504 120.538 39.2787 120.538 40.828V45H119.264V37.328H120.538V38.574ZM128.224 37.188C129.158 37.188 129.914 37.4727 130.492 38.042C131.071 38.602 131.36 39.414 131.36 40.478V45H130.1V40.66C130.1 39.8947 129.909 39.3113 129.526 38.91C129.144 38.4993 128.621 38.294 127.958 38.294C127.286 38.294 126.75 38.504 126.348 38.924C125.956 39.344 125.76 39.9553 125.76 40.758V45H124.486V37.328H125.76V38.42C126.012 38.028 126.353 37.7247 126.782 37.51C127.221 37.2953 127.702 37.188 128.224 37.188ZM140.296 38.378H138.686V45H137.412V38.378H136.418V37.328H137.412V36.782C137.412 35.9233 137.631 35.298 138.07 34.906C138.518 34.5047 139.232 34.304 140.212 34.304V35.368C139.652 35.368 139.255 35.48 139.022 35.704C138.798 35.9187 138.686 36.278 138.686 36.782V37.328H140.296V38.378ZM143.055 38.574C143.279 38.1353 143.596 37.7947 144.007 37.552C144.427 37.3093 144.936 37.188 145.533 37.188V38.504H145.197C143.769 38.504 143.055 39.2787 143.055 40.828V45H141.781V37.328H143.055V38.574ZM150.35 45.126C149.631 45.126 148.978 44.9627 148.39 44.636C147.811 44.3093 147.354 43.8473 147.018 43.25C146.691 42.6433 146.528 41.9433 146.528 41.15C146.528 40.366 146.696 39.6753 147.032 39.078C147.377 38.4713 147.844 38.0093 148.432 37.692C149.02 37.3653 149.678 37.202 150.406 37.202C151.134 37.202 151.792 37.3653 152.38 37.692C152.968 38.0093 153.43 38.4667 153.766 39.064C154.111 39.6613 154.284 40.3567 154.284 41.15C154.284 41.9433 154.106 42.6433 153.752 43.25C153.406 43.8473 152.935 44.3093 152.338 44.636C151.74 44.9627 151.078 45.126 150.35 45.126ZM150.35 44.006C150.807 44.006 151.236 43.8987 151.638 43.684C152.039 43.4693 152.361 43.1473 152.604 42.718C152.856 42.2887 152.982 41.766 152.982 41.15C152.982 40.534 152.86 40.0113 152.618 39.582C152.375 39.1527 152.058 38.8353 151.666 38.63C151.274 38.4153 150.849 38.308 150.392 38.308C149.925 38.308 149.496 38.4153 149.104 38.63C148.721 38.8353 148.413 39.1527 148.18 39.582C147.946 40.0113 147.83 40.534 147.83 41.15C147.83 41.7753 147.942 42.3027 148.166 42.732C148.399 43.1613 148.707 43.4833 149.09 43.698C149.472 43.9033 149.892 44.006 150.35 44.006ZM165.185 37.188C165.782 37.188 166.314 37.314 166.781 37.566C167.248 37.8087 167.616 38.1773 167.887 38.672C168.158 39.1667 168.293 39.7687 168.293 40.478V45H167.033V40.66C167.033 39.8947 166.842 39.3113 166.459 38.91C166.086 38.4993 165.577 38.294 164.933 38.294C164.27 38.294 163.743 38.5087 163.351 38.938C162.959 39.358 162.763 39.9693 162.763 40.772V45H161.503V40.66C161.503 39.8947 161.312 39.3113 160.929 38.91C160.556 38.4993 160.047 38.294 159.403 38.294C158.74 38.294 158.213 38.5087 157.821 38.938C157.429 39.358 157.233 39.9693 157.233 40.772V45H155.959V37.328H157.233V38.434C157.485 38.0327 157.821 37.7247 158.241 37.51C158.67 37.2953 159.142 37.188 159.655 37.188C160.299 37.188 160.868 37.3327 161.363 37.622C161.858 37.9113 162.226 38.336 162.469 38.896C162.684 38.3547 163.038 37.9347 163.533 37.636C164.028 37.3373 164.578 37.188 165.185 37.188ZM173.639 41.15C173.639 40.3567 173.798 39.666 174.115 39.078C174.432 38.4807 174.871 38.0187 175.431 37.692C176 37.3653 176.649 37.202 177.377 37.202C178.32 37.202 179.094 37.4307 179.701 37.888C180.317 38.3453 180.723 38.98 180.919 39.792H179.547C179.416 39.3253 179.16 38.9567 178.777 38.686C178.404 38.4153 177.937 38.28 177.377 38.28C176.649 38.28 176.061 38.532 175.613 39.036C175.165 39.5307 174.941 40.2353 174.941 41.15C174.941 42.074 175.165 42.788 175.613 43.292C176.061 43.796 176.649 44.048 177.377 44.048C177.937 44.048 178.404 43.9173 178.777 43.656C179.15 43.3947 179.407 43.0213 179.547 42.536H180.919C180.714 43.32 180.303 43.95 179.687 44.426C179.071 44.8927 178.301 45.126 177.377 45.126C176.649 45.126 176 44.9627 175.431 44.636C174.871 44.3093 174.432 43.8473 174.115 43.25C173.798 42.6527 173.639 41.9527 173.639 41.15ZM189.619 40.87C189.619 41.1127 189.605 41.3693 189.577 41.64H183.445C183.492 42.396 183.748 42.9887 184.215 43.418C184.691 43.838 185.265 44.048 185.937 44.048C186.488 44.048 186.945 43.922 187.309 43.67C187.682 43.4087 187.944 43.0633 188.093 42.634H189.465C189.26 43.3713 188.849 43.9733 188.233 44.44C187.617 44.8973 186.852 45.126 185.937 45.126C185.209 45.126 184.556 44.9627 183.977 44.636C183.408 44.3093 182.96 43.8473 182.633 43.25C182.306 42.6433 182.143 41.9433 182.143 41.15C182.143 40.3567 182.302 39.6613 182.619 39.064C182.936 38.4667 183.38 38.0093 183.949 37.692C184.528 37.3653 185.19 37.202 185.937 37.202C186.665 37.202 187.309 37.3607 187.869 37.678C188.429 37.9953 188.858 38.434 189.157 38.994C189.465 39.5447 189.619 40.17 189.619 40.87ZM188.303 40.604C188.303 40.1187 188.196 39.7033 187.981 39.358C187.766 39.0033 187.472 38.7373 187.099 38.56C186.735 38.3733 186.329 38.28 185.881 38.28C185.237 38.28 184.686 38.4853 184.229 38.896C183.781 39.3067 183.524 39.876 183.459 40.604H188.303ZM192.575 38.574C192.799 38.1353 193.116 37.7947 193.527 37.552C193.947 37.3093 194.455 37.188 195.053 37.188V38.504H194.717C193.289 38.504 192.575 39.2787 192.575 40.828V45H191.301V37.328H192.575V38.574ZM198.077 38.378V42.9C198.077 43.2733 198.157 43.5393 198.315 43.698C198.474 43.8473 198.749 43.922 199.141 43.922H200.079V45H198.931C198.222 45 197.69 44.8367 197.335 44.51C196.981 44.1833 196.803 43.6467 196.803 42.9V38.378H195.809V37.328H196.803V35.396H198.077V37.328H200.079V38.378H198.077ZM202.281 36.082C202.038 36.082 201.833 35.998 201.665 35.83C201.497 35.662 201.413 35.4567 201.413 35.214C201.413 34.9713 201.497 34.766 201.665 34.598C201.833 34.43 202.038 34.346 202.281 34.346C202.514 34.346 202.71 34.43 202.869 34.598C203.037 34.766 203.121 34.9713 203.121 35.214C203.121 35.4567 203.037 35.662 202.869 35.83C202.71 35.998 202.514 36.082 202.281 36.082ZM202.897 37.328V45H201.623V37.328H202.897ZM208.19 38.378H206.58V45H205.306V38.378H204.312V37.328H205.306V36.782C205.306 35.9233 205.526 35.298 205.964 34.906C206.412 34.5047 207.126 34.304 208.106 34.304V35.368C207.546 35.368 207.15 35.48 206.916 35.704C206.692 35.9187 206.58 36.278 206.58 36.782V37.328H208.19V38.378ZM210.334 36.082C210.091 36.082 209.886 35.998 209.718 35.83C209.55 35.662 209.466 35.4567 209.466 35.214C209.466 34.9713 209.55 34.766 209.718 34.598C209.886 34.43 210.091 34.346 210.334 34.346C210.567 34.346 210.763 34.43 210.922 34.598C211.09 34.766 211.174 34.9713 211.174 35.214C211.174 35.4567 211.09 35.662 210.922 35.83C210.763 35.998 210.567 36.082 210.334 36.082ZM210.95 37.328V45H209.676V37.328H210.95ZM220.121 40.87C220.121 41.1127 220.107 41.3693 220.079 41.64H213.947C213.994 42.396 214.25 42.9887 214.717 43.418C215.193 43.838 215.767 44.048 216.439 44.048C216.99 44.048 217.447 43.922 217.811 43.67C218.184 43.4087 218.446 43.0633 218.595 42.634H219.967C219.762 43.3713 219.351 43.9733 218.735 44.44C218.119 44.8973 217.354 45.126 216.439 45.126C215.711 45.126 215.058 44.9627 214.479 44.636C213.91 44.3093 213.462 43.8473 213.135 43.25C212.808 42.6433 212.645 41.9433 212.645 41.15C212.645 40.3567 212.804 39.6613 213.121 39.064C213.438 38.4667 213.882 38.0093 214.451 37.692C215.03 37.3653 215.692 37.202 216.439 37.202C217.167 37.202 217.811 37.3607 218.371 37.678C218.931 37.9953 219.36 38.434 219.659 38.994C219.967 39.5447 220.121 40.17 220.121 40.87ZM218.805 40.604C218.805 40.1187 218.698 39.7033 218.483 39.358C218.268 39.0033 217.974 38.7373 217.601 38.56C217.237 38.3733 216.831 38.28 216.383 38.28C215.739 38.28 215.188 38.4853 214.731 38.896C214.283 39.3067 214.026 39.876 213.961 40.604H218.805ZM221.327 41.136C221.327 40.352 221.485 39.666 221.803 39.078C222.12 38.4807 222.554 38.0187 223.105 37.692C223.665 37.3653 224.29 37.202 224.981 37.202C225.578 37.202 226.133 37.342 226.647 37.622C227.16 37.8927 227.552 38.252 227.823 38.7V34.64H229.111V45H227.823V43.558C227.571 44.0153 227.197 44.3933 226.703 44.692C226.208 44.9813 225.629 45.126 224.967 45.126C224.285 45.126 223.665 44.958 223.105 44.622C222.554 44.286 222.12 43.8147 221.803 43.208C221.485 42.6013 221.327 41.9107 221.327 41.136ZM227.823 41.15C227.823 40.5713 227.706 40.0673 227.473 39.638C227.239 39.2087 226.922 38.882 226.521 38.658C226.129 38.4247 225.695 38.308 225.219 38.308C224.743 38.308 224.309 38.42 223.917 38.644C223.525 38.868 223.212 39.1947 222.979 39.624C222.745 40.0533 222.629 40.5573 222.629 41.136C222.629 41.724 222.745 42.2373 222.979 42.676C223.212 43.1053 223.525 43.4367 223.917 43.67C224.309 43.894 224.743 44.006 225.219 44.006C225.695 44.006 226.129 43.894 226.521 43.67C226.922 43.4367 227.239 43.1053 227.473 42.676C227.706 42.2373 227.823 41.7287 227.823 41.15ZM236.55 38.378V42.9C236.55 43.2733 236.629 43.5393 236.788 43.698C236.947 43.8473 237.222 43.922 237.614 43.922H238.552V45H237.404C236.695 45 236.163 44.8367 235.808 44.51C235.453 44.1833 235.276 43.6467 235.276 42.9V38.378H234.282V37.328H235.276V35.396H236.55V37.328H238.552V38.378H236.55ZM247.096 40.87C247.096 41.1127 247.082 41.3693 247.054 41.64H240.922C240.968 42.396 241.225 42.9887 241.692 43.418C242.168 43.838 242.742 44.048 243.414 44.048C243.964 44.048 244.422 43.922 244.786 43.67C245.159 43.4087 245.42 43.0633 245.57 42.634H246.942C246.736 43.3713 246.326 43.9733 245.71 44.44C245.094 44.8973 244.328 45.126 243.414 45.126C242.686 45.126 242.032 44.9627 241.454 44.636C240.884 44.3093 240.436 43.8473 240.11 43.25C239.783 42.6433 239.62 41.9433 239.62 41.15C239.62 40.3567 239.778 39.6613 240.096 39.064C240.413 38.4667 240.856 38.0093 241.426 37.692C242.004 37.3653 242.667 37.202 243.414 37.202C244.142 37.202 244.786 37.3607 245.346 37.678C245.906 37.9953 246.335 38.434 246.634 38.994C246.942 39.5447 247.096 40.17 247.096 40.87ZM245.78 40.604C245.78 40.1187 245.672 39.7033 245.458 39.358C245.243 39.0033 244.949 38.7373 244.576 38.56C244.212 38.3733 243.806 38.28 243.358 38.28C242.714 38.28 242.163 38.4853 241.706 38.896C241.258 39.3067 241.001 39.876 240.936 40.604H245.78ZM248.301 41.136C248.301 40.352 248.46 39.666 248.777 39.078C249.095 38.4807 249.529 38.0187 250.079 37.692C250.639 37.3653 251.26 37.202 251.941 37.202C252.613 37.202 253.197 37.3467 253.691 37.636C254.186 37.9253 254.555 38.2893 254.797 38.728V37.328H256.085V45H254.797V43.572C254.545 44.02 254.167 44.3933 253.663 44.692C253.169 44.9813 252.59 45.126 251.927 45.126C251.246 45.126 250.63 44.958 250.079 44.622C249.529 44.286 249.095 43.8147 248.777 43.208C248.46 42.6013 248.301 41.9107 248.301 41.136ZM254.797 41.15C254.797 40.5713 254.681 40.0673 254.447 39.638C254.214 39.2087 253.897 38.882 253.495 38.658C253.103 38.4247 252.669 38.308 252.193 38.308C251.717 38.308 251.283 38.42 250.891 38.644C250.499 38.868 250.187 39.1947 249.953 39.624C249.72 40.0533 249.603 40.5573 249.603 41.136C249.603 41.724 249.72 42.2373 249.953 42.676C250.187 43.1053 250.499 43.4367 250.891 43.67C251.283 43.894 251.717 44.006 252.193 44.006C252.669 44.006 253.103 43.894 253.495 43.67C253.897 43.4367 254.214 43.1053 254.447 42.676C254.681 42.2373 254.797 41.7287 254.797 41.15ZM257.762 41.15C257.762 40.3567 257.921 39.666 258.238 39.078C258.555 38.4807 258.994 38.0187 259.554 37.692C260.123 37.3653 260.772 37.202 261.5 37.202C262.443 37.202 263.217 37.4307 263.824 37.888C264.44 38.3453 264.846 38.98 265.042 39.792H263.67C263.539 39.3253 263.283 38.9567 262.9 38.686C262.527 38.4153 262.06 38.28 261.5 38.28C260.772 38.28 260.184 38.532 259.736 39.036C259.288 39.5307 259.064 40.2353 259.064 41.15C259.064 42.074 259.288 42.788 259.736 43.292C260.184 43.796 260.772 44.048 261.5 44.048C262.06 44.048 262.527 43.9173 262.9 43.656C263.273 43.3947 263.53 43.0213 263.67 42.536H265.042C264.837 43.32 264.426 43.95 263.81 44.426C263.194 44.8927 262.424 45.126 261.5 45.126C260.772 45.126 260.123 44.9627 259.554 44.636C258.994 44.3093 258.555 43.8473 258.238 43.25C257.921 42.6527 257.762 41.9527 257.762 41.15ZM270.55 37.188C271.129 37.188 271.651 37.314 272.118 37.566C272.585 37.8087 272.949 38.1773 273.21 38.672C273.481 39.1667 273.616 39.7687 273.616 40.478V45H272.356V40.66C272.356 39.8947 272.165 39.3113 271.782 38.91C271.399 38.4993 270.877 38.294 270.214 38.294C269.542 38.294 269.005 38.504 268.604 38.924C268.212 39.344 268.016 39.9553 268.016 40.758V45H266.742V34.64H268.016V38.42C268.268 38.028 268.613 37.7247 269.052 37.51C269.5 37.2953 269.999 37.188 270.55 37.188ZM282.697 40.87C282.697 41.1127 282.683 41.3693 282.655 41.64H276.523C276.57 42.396 276.826 42.9887 277.293 43.418C277.769 43.838 278.343 44.048 279.015 44.048C279.566 44.048 280.023 43.922 280.387 43.67C280.76 43.4087 281.022 43.0633 281.171 42.634H282.543C282.338 43.3713 281.927 43.9733 281.311 44.44C280.695 44.8973 279.93 45.126 279.015 45.126C278.287 45.126 277.634 44.9627 277.055 44.636C276.486 44.3093 276.038 43.8473 275.711 43.25C275.384 42.6433 275.221 41.9433 275.221 41.15C275.221 40.3567 275.38 39.6613 275.697 39.064C276.014 38.4667 276.458 38.0093 277.027 37.692C277.606 37.3653 278.268 37.202 279.015 37.202C279.743 37.202 280.387 37.3607 280.947 37.678C281.507 37.9953 281.936 38.434 282.235 38.994C282.543 39.5447 282.697 40.17 282.697 40.87ZM281.381 40.604C281.381 40.1187 281.274 39.7033 281.059 39.358C280.844 39.0033 280.55 38.7373 280.177 38.56C279.813 38.3733 279.407 38.28 278.959 38.28C278.315 38.28 277.764 38.4853 277.307 38.896C276.859 39.3067 276.602 39.876 276.537 40.604H281.381ZM285.653 38.574C285.877 38.1353 286.194 37.7947 286.605 37.552C287.025 37.3093 287.533 37.188 288.131 37.188V38.504H287.795C286.367 38.504 285.653 39.2787 285.653 40.828V45H284.379V37.328H285.653V38.574ZM292.317 45.126C291.729 45.126 291.202 45.028 290.735 44.832C290.269 44.6267 289.9 44.3467 289.629 43.992C289.359 43.628 289.209 43.2127 289.181 42.746H290.497C290.535 43.1287 290.712 43.4413 291.029 43.684C291.356 43.9267 291.781 44.048 292.303 44.048C292.789 44.048 293.171 43.9407 293.451 43.726C293.731 43.5113 293.871 43.2407 293.871 42.914C293.871 42.578 293.722 42.3307 293.423 42.172C293.125 42.004 292.663 41.8407 292.037 41.682C291.468 41.5327 291.001 41.3833 290.637 41.234C290.283 41.0753 289.975 40.8467 289.713 40.548C289.461 40.24 289.335 39.8387 289.335 39.344C289.335 38.952 289.452 38.5927 289.685 38.266C289.919 37.9393 290.25 37.6827 290.679 37.496C291.109 37.3 291.599 37.202 292.149 37.202C292.999 37.202 293.685 37.4167 294.207 37.846C294.73 38.2753 295.01 38.8633 295.047 39.61H293.773C293.745 39.2087 293.582 38.8867 293.283 38.644C292.994 38.4013 292.602 38.28 292.107 38.28C291.65 38.28 291.286 38.378 291.015 38.574C290.745 38.77 290.609 39.0267 290.609 39.344C290.609 39.596 290.689 39.806 290.847 39.974C291.015 40.1327 291.221 40.2633 291.463 40.366C291.715 40.4593 292.061 40.5667 292.499 40.688C293.05 40.8373 293.498 40.9867 293.843 41.136C294.189 41.276 294.483 41.4907 294.725 41.78C294.977 42.0693 295.108 42.4473 295.117 42.914C295.117 43.334 295.001 43.712 294.767 44.048C294.534 44.384 294.203 44.65 293.773 44.846C293.353 45.0327 292.868 45.126 292.317 45.126ZM310.868 37.328L308.474 45H307.158L305.31 38.91L303.462 45H302.146L299.738 37.328H301.04L302.804 43.768L304.708 37.328H306.01L307.872 43.782L309.608 37.328H310.868ZM312.791 36.082C312.548 36.082 312.343 35.998 312.175 35.83C312.007 35.662 311.923 35.4567 311.923 35.214C311.923 34.9713 312.007 34.766 312.175 34.598C312.343 34.43 312.548 34.346 312.791 34.346C313.024 34.346 313.22 34.43 313.379 34.598C313.547 34.766 313.631 34.9713 313.631 35.214C313.631 35.4567 313.547 35.662 313.379 35.83C313.22 35.998 313.024 36.082 312.791 36.082ZM313.407 37.328V45H312.133V37.328H313.407ZM317.132 38.378V42.9C317.132 43.2733 317.211 43.5393 317.37 43.698C317.529 43.8473 317.804 43.922 318.196 43.922H319.134V45H317.986C317.277 45 316.745 44.8367 316.39 44.51C316.035 44.1833 315.858 43.6467 315.858 42.9V38.378H314.864V37.328H315.858V35.396H317.132V37.328H319.134V38.378H317.132ZM324.486 37.188C325.064 37.188 325.587 37.314 326.054 37.566C326.52 37.8087 326.884 38.1773 327.146 38.672C327.416 39.1667 327.552 39.7687 327.552 40.478V45H326.292V40.66C326.292 39.8947 326.1 39.3113 325.718 38.91C325.335 38.4993 324.812 38.294 324.15 38.294C323.478 38.294 322.941 38.504 322.54 38.924C322.148 39.344 321.952 39.9553 321.952 40.758V45H320.678V34.64H321.952V38.42C322.204 38.028 322.549 37.7247 322.988 37.51C323.436 37.2953 323.935 37.188 324.486 37.188ZM334.639 38.742C334.891 38.3033 335.264 37.9393 335.759 37.65C336.263 37.3513 336.846 37.202 337.509 37.202C338.19 37.202 338.806 37.3653 339.357 37.692C339.917 38.0187 340.356 38.4807 340.673 39.078C340.99 39.666 341.149 40.352 341.149 41.136C341.149 41.9107 340.99 42.6013 340.673 43.208C340.356 43.8147 339.917 44.286 339.357 44.622C338.806 44.958 338.19 45.126 337.509 45.126C336.856 45.126 336.277 44.9813 335.773 44.692C335.278 44.3933 334.9 44.0247 334.639 43.586V48.64H333.365V37.328H334.639V38.742ZM339.847 41.136C339.847 40.5573 339.73 40.0533 339.497 39.624C339.264 39.1947 338.946 38.868 338.545 38.644C338.153 38.42 337.719 38.308 337.243 38.308C336.776 38.308 336.342 38.4247 335.941 38.658C335.549 38.882 335.232 39.2133 334.989 39.652C334.756 40.0813 334.639 40.5807 334.639 41.15C334.639 41.7287 334.756 42.2373 334.989 42.676C335.232 43.1053 335.549 43.4367 335.941 43.67C336.342 43.894 336.776 44.006 337.243 44.006C337.719 44.006 338.153 43.894 338.545 43.67C338.946 43.4367 339.264 43.1053 339.497 42.676C339.73 42.2373 339.847 41.724 339.847 41.136ZM344.1 38.574C344.324 38.1353 344.641 37.7947 345.052 37.552C345.472 37.3093 345.981 37.188 346.578 37.188V38.504H346.242C344.814 38.504 344.1 39.2787 344.1 40.828V45H342.826V37.328H344.1V38.574ZM351.395 45.126C350.676 45.126 350.023 44.9627 349.435 44.636C348.856 44.3093 348.399 43.8473 348.063 43.25C347.736 42.6433 347.573 41.9433 347.573 41.15C347.573 40.366 347.741 39.6753 348.077 39.078C348.422 38.4713 348.889 38.0093 349.477 37.692C350.065 37.3653 350.723 37.202 351.451 37.202C352.179 37.202 352.837 37.3653 353.425 37.692C354.013 38.0093 354.475 38.4667 354.811 39.064C355.156 39.6613 355.329 40.3567 355.329 41.15C355.329 41.9433 355.151 42.6433 354.797 43.25C354.451 43.8473 353.98 44.3093 353.383 44.636C352.785 44.9627 352.123 45.126 351.395 45.126ZM351.395 44.006C351.852 44.006 352.281 43.8987 352.683 43.684C353.084 43.4693 353.406 43.1473 353.649 42.718C353.901 42.2887 354.027 41.766 354.027 41.15C354.027 40.534 353.905 40.0113 353.663 39.582C353.42 39.1527 353.103 38.8353 352.711 38.63C352.319 38.4153 351.894 38.308 351.437 38.308C350.97 38.308 350.541 38.4153 350.149 38.63C349.766 38.8353 349.458 39.1527 349.225 39.582C348.991 40.0113 348.875 40.534 348.875 41.15C348.875 41.7753 348.987 42.3027 349.211 42.732C349.444 43.1613 349.752 43.4833 350.135 43.698C350.517 43.9033 350.937 44.006 351.395 44.006ZM359.86 43.824L362.24 37.328H363.598L360.588 45H359.104L356.094 37.328H357.466L359.86 43.824ZM371.851 40.87C371.851 41.1127 371.837 41.3693 371.809 41.64H365.677C365.724 42.396 365.981 42.9887 366.447 43.418C366.923 43.838 367.497 44.048 368.169 44.048C368.72 44.048 369.177 43.922 369.541 43.67C369.915 43.4087 370.176 43.0633 370.325 42.634H371.697C371.492 43.3713 371.081 43.9733 370.465 44.44C369.849 44.8973 369.084 45.126 368.169 45.126C367.441 45.126 366.788 44.9627 366.209 44.636C365.64 44.3093 365.192 43.8473 364.865 43.25C364.539 42.6433 364.375 41.9433 364.375 41.15C364.375 40.3567 364.534 39.6613 364.851 39.064C365.169 38.4667 365.612 38.0093 366.181 37.692C366.76 37.3653 367.423 37.202 368.169 37.202C368.897 37.202 369.541 37.3607 370.101 37.678C370.661 37.9953 371.091 38.434 371.389 38.994C371.697 39.5447 371.851 40.17 371.851 40.87ZM370.535 40.604C370.535 40.1187 370.428 39.7033 370.213 39.358C369.999 39.0033 369.705 38.7373 369.331 38.56C368.967 38.3733 368.561 38.28 368.113 38.28C367.469 38.28 366.919 38.4853 366.461 38.896C366.013 39.3067 365.757 39.876 365.691 40.604H370.535ZM377.271 37.188C378.204 37.188 378.96 37.4727 379.539 38.042C380.118 38.602 380.407 39.414 380.407 40.478V45H379.147V40.66C379.147 39.8947 378.956 39.3113 378.573 38.91C378.19 38.4993 377.668 38.294 377.005 38.294C376.333 38.294 375.796 38.504 375.395 38.924C375.003 39.344 374.807 39.9553 374.807 40.758V45H373.533V37.328H374.807V38.42C375.059 38.028 375.4 37.7247 375.829 37.51C376.268 37.2953 376.748 37.188 377.271 37.188ZM102.078 62.87C102.078 63.1127 102.064 63.3693 102.036 63.64H95.904C95.9507 64.396 96.2073 64.9887 96.674 65.418C97.15 65.838 97.724 66.048 98.396 66.048C98.9467 66.048 99.404 65.922 99.768 65.67C100.141 65.4087 100.403 65.0633 100.552 64.634H101.924C101.719 65.3713 101.308 65.9733 100.692 66.44C100.076 66.8973 99.3107 67.126 98.396 67.126C97.668 67.126 97.0147 66.9627 96.436 66.636C95.8667 66.3093 95.4187 65.8473 95.092 65.25C94.7653 64.6433 94.602 63.9433 94.602 63.15C94.602 62.3567 94.7607 61.6613 95.078 61.064C95.3953 60.4667 95.8387 60.0093 96.408 59.692C96.9867 59.3653 97.6493 59.202 98.396 59.202C99.124 59.202 99.768 59.3607 100.328 59.678C100.888 59.9953 101.317 60.434 101.616 60.994C101.924 61.5447 102.078 62.17 102.078 62.87ZM100.762 62.604C100.762 62.1187 100.655 61.7033 100.44 61.358C100.225 61.0033 99.9313 60.7373 99.558 60.56C99.194 60.3733 98.788 60.28 98.34 60.28C97.696 60.28 97.1453 60.4853 96.688 60.896C96.24 61.3067 95.9833 61.876 95.918 62.604H100.762ZM107.764 67L105.944 64.144L104.194 67H102.864L105.342 63.192L102.864 59.328H104.306L106.126 62.17L107.862 59.328H109.192L106.728 63.122L109.206 67H107.764ZM111.733 60.742C111.985 60.3033 112.358 59.9393 112.853 59.65C113.357 59.3513 113.94 59.202 114.603 59.202C115.284 59.202 115.9 59.3653 116.451 59.692C117.011 60.0187 117.45 60.4807 117.767 61.078C118.084 61.666 118.243 62.352 118.243 63.136C118.243 63.9107 118.084 64.6013 117.767 65.208C117.45 65.8147 117.011 66.286 116.451 66.622C115.9 66.958 115.284 67.126 114.603 67.126C113.95 67.126 113.371 66.9813 112.867 66.692C112.372 66.3933 111.994 66.0247 111.733 65.586V70.64H110.459V59.328H111.733V60.742ZM116.941 63.136C116.941 62.5573 116.824 62.0533 116.591 61.624C116.358 61.1947 116.04 60.868 115.639 60.644C115.247 60.42 114.813 60.308 114.337 60.308C113.87 60.308 113.436 60.4247 113.035 60.658C112.643 60.882 112.326 61.2133 112.083 61.652C111.85 62.0813 111.733 62.5807 111.733 63.15C111.733 63.7287 111.85 64.2373 112.083 64.676C112.326 65.1053 112.643 65.4367 113.035 65.67C113.436 65.894 113.87 66.006 114.337 66.006C114.813 66.006 115.247 65.894 115.639 65.67C116.04 65.4367 116.358 65.1053 116.591 64.676C116.824 64.2373 116.941 63.724 116.941 63.136ZM126.92 62.87C126.92 63.1127 126.906 63.3693 126.878 63.64H120.746C120.792 64.396 121.049 64.9887 121.516 65.418C121.992 65.838 122.566 66.048 123.238 66.048C123.788 66.048 124.246 65.922 124.61 65.67C124.983 65.4087 125.244 65.0633 125.394 64.634H126.766C126.56 65.3713 126.15 65.9733 125.534 66.44C124.918 66.8973 124.152 67.126 123.238 67.126C122.51 67.126 121.856 66.9627 121.278 66.636C120.708 66.3093 120.26 65.8473 119.934 65.25C119.607 64.6433 119.444 63.9433 119.444 63.15C119.444 62.3567 119.602 61.6613 119.92 61.064C120.237 60.4667 120.68 60.0093 121.25 59.692C121.828 59.3653 122.491 59.202 123.238 59.202C123.966 59.202 124.61 59.3607 125.17 59.678C125.73 59.9953 126.159 60.434 126.458 60.994C126.766 61.5447 126.92 62.17 126.92 62.87ZM125.604 62.604C125.604 62.1187 125.496 61.7033 125.282 61.358C125.067 61.0033 124.773 60.7373 124.4 60.56C124.036 60.3733 123.63 60.28 123.182 60.28C122.538 60.28 121.987 60.4853 121.53 60.896C121.082 61.3067 120.825 61.876 120.76 62.604H125.604ZM129.875 60.574C130.099 60.1353 130.417 59.7947 130.827 59.552C131.247 59.3093 131.756 59.188 132.353 59.188V60.504H132.017C130.589 60.504 129.875 61.2787 129.875 62.828V67H128.601V59.328H129.875V60.574ZM134.482 58.082C134.239 58.082 134.034 57.998 133.866 57.83C133.698 57.662 133.614 57.4567 133.614 57.214C133.614 56.9713 133.698 56.766 133.866 56.598C134.034 56.43 134.239 56.346 134.482 56.346C134.715 56.346 134.911 56.43 135.07 56.598C135.238 56.766 135.322 56.9713 135.322 57.214C135.322 57.4567 135.238 57.662 135.07 57.83C134.911 57.998 134.715 58.082 134.482 58.082ZM135.098 59.328V67H133.824V59.328H135.098ZM144.269 62.87C144.269 63.1127 144.255 63.3693 144.227 63.64H138.095C138.142 64.396 138.399 64.9887 138.865 65.418C139.341 65.838 139.915 66.048 140.587 66.048C141.138 66.048 141.595 65.922 141.959 65.67C142.333 65.4087 142.594 65.0633 142.743 64.634H144.115C143.91 65.3713 143.499 65.9733 142.883 66.44C142.267 66.8973 141.502 67.126 140.587 67.126C139.859 67.126 139.206 66.9627 138.627 66.636C138.058 66.3093 137.61 65.8473 137.283 65.25C136.957 64.6433 136.793 63.9433 136.793 63.15C136.793 62.3567 136.952 61.6613 137.269 61.064C137.587 60.4667 138.03 60.0093 138.599 59.692C139.178 59.3653 139.841 59.202 140.587 59.202C141.315 59.202 141.959 59.3607 142.519 59.678C143.079 59.9953 143.509 60.434 143.807 60.994C144.115 61.5447 144.269 62.17 144.269 62.87ZM142.953 62.604C142.953 62.1187 142.846 61.7033 142.631 61.358C142.417 61.0033 142.123 60.7373 141.749 60.56C141.385 60.3733 140.979 60.28 140.531 60.28C139.887 60.28 139.337 60.4853 138.879 60.896C138.431 61.3067 138.175 61.876 138.109 62.604H142.953ZM149.689 59.188C150.622 59.188 151.378 59.4727 151.957 60.042C152.536 60.602 152.825 61.414 152.825 62.478V67H151.565V62.66C151.565 61.8947 151.374 61.3113 150.991 60.91C150.608 60.4993 150.086 60.294 149.423 60.294C148.751 60.294 148.214 60.504 147.813 60.924C147.421 61.344 147.225 61.9553 147.225 62.758V67H145.951V59.328H147.225V60.42C147.477 60.028 147.818 59.7247 148.247 59.51C148.686 59.2953 149.166 59.188 149.689 59.188ZM154.43 63.15C154.43 62.3567 154.589 61.666 154.906 61.078C155.223 60.4807 155.662 60.0187 156.222 59.692C156.791 59.3653 157.44 59.202 158.168 59.202C159.111 59.202 159.885 59.4307 160.492 59.888C161.108 60.3453 161.514 60.98 161.71 61.792H160.338C160.207 61.3253 159.951 60.9567 159.568 60.686C159.195 60.4153 158.728 60.28 158.168 60.28C157.44 60.28 156.852 60.532 156.404 61.036C155.956 61.5307 155.732 62.2353 155.732 63.15C155.732 64.074 155.956 64.788 156.404 65.292C156.852 65.796 157.44 66.048 158.168 66.048C158.728 66.048 159.195 65.9173 159.568 65.656C159.941 65.3947 160.198 65.0213 160.338 64.536H161.71C161.505 65.32 161.094 65.95 160.478 66.426C159.862 66.8927 159.092 67.126 158.168 67.126C157.44 67.126 156.791 66.9627 156.222 66.636C155.662 66.3093 155.223 65.8473 154.906 65.25C154.589 64.6527 154.43 63.9527 154.43 63.15ZM170.41 62.87C170.41 63.1127 170.396 63.3693 170.368 63.64H164.236C164.283 64.396 164.539 64.9887 165.006 65.418C165.482 65.838 166.056 66.048 166.728 66.048C167.279 66.048 167.736 65.922 168.1 65.67C168.473 65.4087 168.735 65.0633 168.884 64.634H170.256C170.051 65.3713 169.64 65.9733 169.024 66.44C168.408 66.8973 167.643 67.126 166.728 67.126C166 67.126 165.347 66.9627 164.768 66.636C164.199 66.3093 163.751 65.8473 163.424 65.25C163.097 64.6433 162.934 63.9433 162.934 63.15C162.934 62.3567 163.093 61.6613 163.41 61.064C163.727 60.4667 164.171 60.0093 164.74 59.692C165.319 59.3653 165.981 59.202 166.728 59.202C167.456 59.202 168.1 59.3607 168.66 59.678C169.22 59.9953 169.649 60.434 169.948 60.994C170.256 61.5447 170.41 62.17 170.41 62.87ZM169.094 62.604C169.094 62.1187 168.987 61.7033 168.772 61.358C168.557 61.0033 168.263 60.7373 167.89 60.56C167.526 60.3733 167.12 60.28 166.672 60.28C166.028 60.28 165.477 60.4853 165.02 60.896C164.572 61.3067 164.315 61.876 164.25 62.604H169.094ZM172.498 67.084C172.255 67.084 172.05 67 171.882 66.832C171.714 66.664 171.63 66.4587 171.63 66.216C171.63 65.9733 171.714 65.768 171.882 65.6C172.05 65.432 172.255 65.348 172.498 65.348C172.731 65.348 172.927 65.432 173.086 65.6C173.254 65.768 173.338 65.9733 173.338 66.216C173.338 66.4587 173.254 66.664 173.086 66.832C172.927 67 172.731 67.084 172.498 67.084ZM175.437 67.084C175.194 67.084 174.989 67 174.821 66.832C174.653 66.664 174.569 66.4587 174.569 66.216C174.569 65.9733 174.653 65.768 174.821 65.6C174.989 65.432 175.194 65.348 175.437 65.348C175.67 65.348 175.866 65.432 176.025 65.6C176.193 65.768 176.277 65.9733 176.277 66.216C176.277 66.4587 176.193 66.664 176.025 66.832C175.866 67 175.67 67.084 175.437 67.084ZM178.377 67.084C178.134 67.084 177.929 67 177.761 66.832C177.593 66.664 177.509 66.4587 177.509 66.216C177.509 65.9733 177.593 65.768 177.761 65.6C177.929 65.432 178.134 65.348 178.377 65.348C178.61 65.348 178.806 65.432 178.965 65.6C179.133 65.768 179.217 65.9733 179.217 66.216C179.217 66.4587 179.133 66.664 178.965 66.832C178.806 67 178.61 67.084 178.377 67.084Z" fill="#8D8D8D"/>
<path d="M185.916 60.574C186.14 60.1353 186.458 59.7947 186.868 59.552C187.288 59.3093 187.797 59.188 188.394 59.188V60.504H188.058C186.63 60.504 185.916 61.2787 185.916 62.828V67H184.642V59.328H185.916V60.574ZM196.865 62.87C196.865 63.1127 196.851 63.3693 196.823 63.64H190.691C190.738 64.396 190.994 64.9887 191.461 65.418C191.937 65.838 192.511 66.048 193.183 66.048C193.734 66.048 194.191 65.922 194.555 65.67C194.928 65.4087 195.19 65.0633 195.339 64.634H196.711C196.506 65.3713 196.095 65.9733 195.479 66.44C194.863 66.8973 194.098 67.126 193.183 67.126C192.455 67.126 191.802 66.9627 191.223 66.636C190.654 66.3093 190.206 65.8473 189.879 65.25C189.552 64.6433 189.389 63.9433 189.389 63.15C189.389 62.3567 189.548 61.6613 189.865 61.064C190.182 60.4667 190.626 60.0093 191.195 59.692C191.774 59.3653 192.436 59.202 193.183 59.202C193.911 59.202 194.555 59.3607 195.115 59.678C195.675 59.9953 196.104 60.434 196.403 60.994C196.711 61.5447 196.865 62.17 196.865 62.87ZM195.549 62.604C195.549 62.1187 195.442 61.7033 195.227 61.358C195.012 61.0033 194.718 60.7373 194.345 60.56C193.981 60.3733 193.575 60.28 193.127 60.28C192.483 60.28 191.932 60.4853 191.475 60.896C191.027 61.3067 190.77 61.876 190.705 62.604H195.549ZM198.071 63.136C198.071 62.352 198.229 61.666 198.547 61.078C198.864 60.4807 199.298 60.0187 199.849 59.692C200.409 59.3653 201.029 59.202 201.711 59.202C202.383 59.202 202.966 59.3467 203.461 59.636C203.955 59.9253 204.324 60.2893 204.567 60.728V59.328H205.855V67H204.567V65.572C204.315 66.02 203.937 66.3933 203.433 66.692C202.938 66.9813 202.359 67.126 201.697 67.126C201.015 67.126 200.399 66.958 199.849 66.622C199.298 66.286 198.864 65.8147 198.547 65.208C198.229 64.6013 198.071 63.9107 198.071 63.136ZM204.567 63.15C204.567 62.5713 204.45 62.0673 204.217 61.638C203.983 61.2087 203.666 60.882 203.265 60.658C202.873 60.4247 202.439 60.308 201.963 60.308C201.487 60.308 201.053 60.42 200.661 60.644C200.269 60.868 199.956 61.1947 199.723 61.624C199.489 62.0533 199.373 62.5573 199.373 63.136C199.373 63.724 199.489 64.2373 199.723 64.676C199.956 65.1053 200.269 65.4367 200.661 65.67C201.053 65.894 201.487 66.006 201.963 66.006C202.439 66.006 202.873 65.894 203.265 65.67C203.666 65.4367 203.983 65.1053 204.217 64.676C204.45 64.2373 204.567 63.7287 204.567 63.15ZM207.532 63.136C207.532 62.352 207.69 61.666 208.008 61.078C208.325 60.4807 208.759 60.0187 209.31 59.692C209.87 59.3653 210.495 59.202 211.186 59.202C211.783 59.202 212.338 59.342 212.852 59.622C213.365 59.8927 213.757 60.252 214.028 60.7V56.64H215.316V67H214.028V65.558C213.776 66.0153 213.402 66.3933 212.908 66.692C212.413 66.9813 211.834 67.126 211.172 67.126C210.49 67.126 209.87 66.958 209.31 66.622C208.759 66.286 208.325 65.8147 208.008 65.208C207.69 64.6013 207.532 63.9107 207.532 63.136ZM214.028 63.15C214.028 62.5713 213.911 62.0673 213.678 61.638C213.444 61.2087 213.127 60.882 212.726 60.658C212.334 60.4247 211.9 60.308 211.424 60.308C210.948 60.308 210.514 60.42 210.122 60.644C209.73 60.868 209.417 61.1947 209.184 61.624C208.95 62.0533 208.834 62.5573 208.834 63.136C208.834 63.724 208.95 64.2373 209.184 64.676C209.417 65.1053 209.73 65.4367 210.122 65.67C210.514 65.894 210.948 66.006 211.424 66.006C211.9 66.006 212.334 65.894 212.726 65.67C213.127 65.4367 213.444 65.1053 213.678 64.676C213.911 64.2373 214.028 63.7287 214.028 63.15ZM230.427 59.188C231.024 59.188 231.556 59.314 232.023 59.566C232.49 59.8087 232.858 60.1773 233.129 60.672C233.4 61.1667 233.535 61.7687 233.535 62.478V67H232.275V62.66C232.275 61.8947 232.084 61.3113 231.701 60.91C231.328 60.4993 230.819 60.294 230.175 60.294C229.512 60.294 228.985 60.5087 228.593 60.938C228.201 61.358 228.005 61.9693 228.005 62.772V67H226.745V62.66C226.745 61.8947 226.554 61.3113 226.171 60.91C225.798 60.4993 225.289 60.294 224.645 60.294C223.982 60.294 223.455 60.5087 223.063 60.938C222.671 61.358 222.475 61.9693 222.475 62.772V67H221.201V59.328H222.475V60.434C222.727 60.0327 223.063 59.7247 223.483 59.51C223.912 59.2953 224.384 59.188 224.897 59.188C225.541 59.188 226.11 59.3327 226.605 59.622C227.1 59.9113 227.468 60.336 227.711 60.896C227.926 60.3547 228.28 59.9347 228.775 59.636C229.27 59.3373 229.82 59.188 230.427 59.188ZM238.971 67.126C238.252 67.126 237.599 66.9627 237.011 66.636C236.432 66.3093 235.975 65.8473 235.639 65.25C235.312 64.6433 235.149 63.9433 235.149 63.15C235.149 62.366 235.317 61.6753 235.653 61.078C235.998 60.4713 236.465 60.0093 237.053 59.692C237.641 59.3653 238.299 59.202 239.027 59.202C239.755 59.202 240.413 59.3653 241.001 59.692C241.589 60.0093 242.051 60.4667 242.387 61.064C242.732 61.6613 242.905 62.3567 242.905 63.15C242.905 63.9433 242.728 64.6433 242.373 65.25C242.028 65.8473 241.556 66.3093 240.959 66.636C240.362 66.9627 239.699 67.126 238.971 67.126ZM238.971 66.006C239.428 66.006 239.858 65.8987 240.259 65.684C240.66 65.4693 240.982 65.1473 241.225 64.718C241.477 64.2887 241.603 63.766 241.603 63.15C241.603 62.534 241.482 62.0113 241.239 61.582C240.996 61.1527 240.679 60.8353 240.287 60.63C239.895 60.4153 239.47 60.308 239.013 60.308C238.546 60.308 238.117 60.4153 237.725 60.63C237.342 60.8353 237.034 61.1527 236.801 61.582C236.568 62.0113 236.451 62.534 236.451 63.15C236.451 63.7753 236.563 64.3027 236.787 64.732C237.02 65.1613 237.328 65.4833 237.711 65.698C238.094 65.9033 238.514 66.006 238.971 66.006ZM245.854 60.574C246.078 60.1353 246.395 59.7947 246.806 59.552C247.226 59.3093 247.735 59.188 248.332 59.188V60.504H247.996C246.568 60.504 245.854 61.2787 245.854 62.828V67H244.58V59.328H245.854V60.574ZM256.803 62.87C256.803 63.1127 256.789 63.3693 256.761 63.64H250.629C250.675 64.396 250.932 64.9887 251.399 65.418C251.875 65.838 252.449 66.048 253.121 66.048C253.671 66.048 254.129 65.922 254.493 65.67C254.866 65.4087 255.127 65.0633 255.277 64.634H256.649C256.443 65.3713 256.033 65.9733 255.417 66.44C254.801 66.8973 254.035 67.126 253.121 67.126C252.393 67.126 251.739 66.9627 251.161 66.636C250.591 66.3093 250.143 65.8473 249.817 65.25C249.49 64.6433 249.327 63.9433 249.327 63.15C249.327 62.3567 249.485 61.6613 249.803 61.064C250.12 60.4667 250.563 60.0093 251.133 59.692C251.711 59.3653 252.374 59.202 253.121 59.202C253.849 59.202 254.493 59.3607 255.053 59.678C255.613 59.9953 256.042 60.434 256.341 60.994C256.649 61.5447 256.803 62.17 256.803 62.87ZM255.487 62.604C255.487 62.1187 255.379 61.7033 255.165 61.358C254.95 61.0033 254.656 60.7373 254.283 60.56C253.919 60.3733 253.513 60.28 253.065 60.28C252.421 60.28 251.87 60.4853 251.413 60.896C250.965 61.3067 250.708 61.876 250.643 62.604H255.487Z" fill="#058E6E"/>
</svg>
