<svg width="1068" height="800" viewBox="0 0 1068 800" fill="none" xmlns="http://www.w3.org/2000/svg">
<g filter="url(#filter0_dd_1_787)">
<rect x="111" y="353" width="600" height="86" rx="16" fill="white"/>
</g>
<circle cx="156.5" cy="393.5" r="22.5" fill="#FB9C46"/>
<path d="M219.364 390.126C218.536 390.126 217.792 389.982 217.132 389.694C216.484 389.394 215.974 388.986 215.602 388.47C215.23 387.942 215.038 387.336 215.026 386.652H216.772C216.832 387.24 217.072 387.738 217.492 388.146C217.924 388.542 218.548 388.74 219.364 388.74C220.144 388.74 220.756 388.548 221.2 388.164C221.656 387.768 221.884 387.264 221.884 386.652C221.884 386.172 221.752 385.782 221.488 385.482C221.224 385.182 220.894 384.954 220.498 384.798C220.102 384.642 219.568 384.474 218.896 384.294C218.068 384.078 217.402 383.862 216.898 383.646C216.406 383.43 215.98 383.094 215.62 382.638C215.272 382.17 215.098 381.546 215.098 380.766C215.098 380.082 215.272 379.476 215.62 378.948C215.968 378.42 216.454 378.012 217.078 377.724C217.714 377.436 218.44 377.292 219.256 377.292C220.432 377.292 221.392 377.586 222.136 378.174C222.892 378.762 223.318 379.542 223.414 380.514H221.614C221.554 380.034 221.302 379.614 220.858 379.254C220.414 378.882 219.826 378.696 219.094 378.696C218.41 378.696 217.852 378.876 217.42 379.236C216.988 379.584 216.772 380.076 216.772 380.712C216.772 381.168 216.898 381.54 217.15 381.828C217.414 382.116 217.732 382.338 218.104 382.494C218.488 382.638 219.022 382.806 219.706 382.998C220.534 383.226 221.2 383.454 221.704 383.682C222.208 383.898 222.64 384.24 223 384.708C223.36 385.164 223.54 385.788 223.54 386.58C223.54 387.192 223.378 387.768 223.054 388.308C222.73 388.848 222.25 389.286 221.614 389.622C220.978 389.958 220.228 390.126 219.364 390.126ZM227.948 381.486V387.3C227.948 387.78 228.05 388.122 228.254 388.326C228.458 388.518 228.812 388.614 229.316 388.614H230.522V390H229.046C228.134 390 227.45 389.79 226.994 389.37C226.538 388.95 226.31 388.26 226.31 387.3V381.486H225.032V380.136H226.31V377.652H227.948V380.136H230.522V381.486H227.948ZM231.895 385.032C231.895 384.024 232.099 383.142 232.507 382.386C232.915 381.618 233.473 381.024 234.181 380.604C234.901 380.184 235.699 379.974 236.575 379.974C237.439 379.974 238.189 380.16 238.825 380.532C239.461 380.904 239.935 381.372 240.247 381.936V380.136H241.903V390H240.247V388.164C239.923 388.74 239.437 389.22 238.789 389.604C238.153 389.976 237.409 390.162 236.557 390.162C235.681 390.162 234.889 389.946 234.181 389.514C233.473 389.082 232.915 388.476 232.507 387.696C232.099 386.916 231.895 386.028 231.895 385.032ZM240.247 385.05C240.247 384.306 240.097 383.658 239.797 383.106C239.497 382.554 239.089 382.134 238.573 381.846C238.069 381.546 237.511 381.396 236.899 381.396C236.287 381.396 235.729 381.54 235.225 381.828C234.721 382.116 234.319 382.536 234.019 383.088C233.719 383.64 233.569 384.288 233.569 385.032C233.569 385.788 233.719 386.448 234.019 387.012C234.319 387.564 234.721 387.99 235.225 388.29C235.729 388.578 236.287 388.722 236.899 388.722C237.511 388.722 238.069 388.578 238.573 388.29C239.089 387.99 239.497 387.564 239.797 387.012C240.097 386.448 240.247 385.794 240.247 385.05ZM246.309 381.738C246.597 381.174 247.005 380.736 247.533 380.424C248.073 380.112 248.727 379.956 249.495 379.956V381.648H249.063C247.227 381.648 246.309 382.644 246.309 384.636V390H244.671V380.136H246.309V381.738ZM253.384 381.486V387.3C253.384 387.78 253.486 388.122 253.69 388.326C253.894 388.518 254.248 388.614 254.752 388.614H255.958V390H254.482C253.57 390 252.886 389.79 252.43 389.37C251.974 388.95 251.746 388.26 251.746 387.3V381.486H250.468V380.136H251.746V377.652H253.384V380.136H255.958V381.486H253.384ZM264.379 376.68V390H262.741V376.68H264.379ZM276.171 384.69C276.171 385.002 276.153 385.332 276.117 385.68H268.233C268.293 386.652 268.623 387.414 269.223 387.966C269.835 388.506 270.573 388.776 271.437 388.776C272.145 388.776 272.733 388.614 273.201 388.29C273.681 387.954 274.017 387.51 274.209 386.958H275.973C275.709 387.906 275.181 388.68 274.389 389.28C273.597 389.868 272.613 390.162 271.437 390.162C270.501 390.162 269.661 389.952 268.917 389.532C268.185 389.112 267.609 388.518 267.189 387.75C266.769 386.97 266.559 386.07 266.559 385.05C266.559 384.03 266.763 383.136 267.171 382.368C267.579 381.6 268.149 381.012 268.881 380.604C269.625 380.184 270.477 379.974 271.437 379.974C272.373 379.974 273.201 380.178 273.921 380.586C274.641 380.994 275.193 381.558 275.577 382.278C275.973 382.986 276.171 383.79 276.171 384.69ZM274.479 384.348C274.479 383.724 274.341 383.19 274.065 382.746C273.789 382.29 273.411 381.948 272.931 381.72C272.463 381.48 271.941 381.36 271.365 381.36C270.537 381.36 269.829 381.624 269.241 382.152C268.665 382.68 268.335 383.412 268.251 384.348H274.479ZM277.721 385.032C277.721 384.024 277.925 383.142 278.333 382.386C278.741 381.618 279.299 381.024 280.007 380.604C280.727 380.184 281.525 379.974 282.401 379.974C283.265 379.974 284.015 380.16 284.651 380.532C285.287 380.904 285.761 381.372 286.073 381.936V380.136H287.729V390H286.073V388.164C285.749 388.74 285.263 389.22 284.615 389.604C283.979 389.976 283.235 390.162 282.383 390.162C281.507 390.162 280.715 389.946 280.007 389.514C279.299 389.082 278.741 388.476 278.333 387.696C277.925 386.916 277.721 386.028 277.721 385.032ZM286.073 385.05C286.073 384.306 285.923 383.658 285.623 383.106C285.323 382.554 284.915 382.134 284.399 381.846C283.895 381.546 283.337 381.396 282.725 381.396C282.113 381.396 281.555 381.54 281.051 381.828C280.547 382.116 280.145 382.536 279.845 383.088C279.545 383.64 279.395 384.288 279.395 385.032C279.395 385.788 279.545 386.448 279.845 387.012C280.145 387.564 280.547 387.99 281.051 388.29C281.555 388.578 282.113 388.722 282.725 388.722C283.337 388.722 283.895 388.578 284.399 388.29C284.915 387.99 285.323 387.564 285.623 387.012C285.923 386.448 286.073 385.794 286.073 385.05ZM292.135 381.738C292.423 381.174 292.831 380.736 293.359 380.424C293.899 380.112 294.553 379.956 295.321 379.956V381.648H294.889C293.053 381.648 292.135 382.644 292.135 384.636V390H290.497V380.136H292.135V381.738ZM302.018 379.956C303.218 379.956 304.19 380.322 304.934 381.054C305.678 381.774 306.05 382.818 306.05 384.186V390H304.43V384.42C304.43 383.436 304.184 382.686 303.692 382.17C303.2 381.642 302.528 381.378 301.676 381.378C300.812 381.378 300.122 381.648 299.606 382.188C299.102 382.728 298.85 383.514 298.85 384.546V390H297.212V380.136H298.85V381.54C299.174 381.036 299.612 380.646 300.164 380.37C300.728 380.094 301.346 379.956 302.018 379.956ZM309.572 378.534C309.26 378.534 308.996 378.426 308.78 378.21C308.564 377.994 308.456 377.73 308.456 377.418C308.456 377.106 308.564 376.842 308.78 376.626C308.996 376.41 309.26 376.302 309.572 376.302C309.872 376.302 310.124 376.41 310.328 376.626C310.544 376.842 310.652 377.106 310.652 377.418C310.652 377.73 310.544 377.994 310.328 378.21C310.124 378.426 309.872 378.534 309.572 378.534ZM310.364 380.136V390H308.726V380.136H310.364ZM317.962 379.956C319.162 379.956 320.134 380.322 320.878 381.054C321.622 381.774 321.994 382.818 321.994 384.186V390H320.374V384.42C320.374 383.436 320.128 382.686 319.636 382.17C319.144 381.642 318.472 381.378 317.62 381.378C316.756 381.378 316.066 381.648 315.55 382.188C315.046 382.728 314.794 383.514 314.794 384.546V390H313.156V380.136H314.794V381.54C315.118 381.036 315.556 380.646 316.108 380.37C316.672 380.094 317.29 379.956 317.962 379.956ZM328.737 379.974C329.589 379.974 330.333 380.16 330.969 380.532C331.617 380.904 332.097 381.372 332.409 381.936V380.136H334.065V390.216C334.065 391.116 333.873 391.914 333.489 392.61C333.105 393.318 332.553 393.87 331.833 394.266C331.125 394.662 330.297 394.86 329.349 394.86C328.053 394.86 326.973 394.554 326.109 393.942C325.245 393.33 324.735 392.496 324.579 391.44H326.199C326.379 392.04 326.751 392.52 327.315 392.88C327.879 393.252 328.557 393.438 329.349 393.438C330.249 393.438 330.981 393.156 331.545 392.592C332.121 392.028 332.409 391.236 332.409 390.216V388.146C332.085 388.722 331.605 389.202 330.969 389.586C330.333 389.97 329.589 390.162 328.737 390.162C327.861 390.162 327.063 389.946 326.343 389.514C325.635 389.082 325.077 388.476 324.669 387.696C324.261 386.916 324.057 386.028 324.057 385.032C324.057 384.024 324.261 383.142 324.669 382.386C325.077 381.618 325.635 381.024 326.343 380.604C327.063 380.184 327.861 379.974 328.737 379.974ZM332.409 385.05C332.409 384.306 332.259 383.658 331.959 383.106C331.659 382.554 331.251 382.134 330.735 381.846C330.231 381.546 329.673 381.396 329.061 381.396C328.449 381.396 327.891 381.54 327.387 381.828C326.883 382.116 326.481 382.536 326.181 383.088C325.881 383.64 325.731 384.288 325.731 385.032C325.731 385.788 325.881 386.448 326.181 387.012C326.481 387.564 326.883 387.99 327.387 388.29C327.891 388.578 328.449 388.722 329.061 388.722C329.673 388.722 330.231 388.578 330.735 388.29C331.251 387.99 331.659 387.564 331.959 387.012C332.259 386.448 332.409 385.794 332.409 385.05Z" fill="#FB9C46"/>
<path d="M218.088 412.098C217.444 412.098 216.875 411.986 216.38 411.762C215.895 411.538 215.512 411.225 215.232 410.824C214.952 410.423 214.803 409.975 214.784 409.48H215.82C215.867 409.956 216.077 410.376 216.45 410.74C216.823 411.095 217.369 411.272 218.088 411.272C218.751 411.272 219.273 411.104 219.656 410.768C220.048 410.423 220.244 409.989 220.244 409.466C220.244 409.046 220.137 408.71 219.922 408.458C219.707 408.197 219.441 408.005 219.124 407.884C218.807 407.753 218.368 407.613 217.808 407.464C217.155 407.287 216.637 407.114 216.254 406.946C215.871 406.778 215.545 406.517 215.274 406.162C215.003 405.807 214.868 405.327 214.868 404.72C214.868 404.216 214.999 403.768 215.26 403.376C215.521 402.975 215.89 402.662 216.366 402.438C216.842 402.214 217.388 402.102 218.004 402.102C218.909 402.102 219.637 402.326 220.188 402.774C220.748 403.213 221.07 403.782 221.154 404.482H220.09C220.025 404.081 219.805 403.726 219.432 403.418C219.059 403.101 218.555 402.942 217.92 402.942C217.332 402.942 216.842 403.101 216.45 403.418C216.058 403.726 215.862 404.151 215.862 404.692C215.862 405.103 215.969 405.434 216.184 405.686C216.399 405.938 216.665 406.129 216.982 406.26C217.309 406.391 217.747 406.531 218.298 406.68C218.933 406.857 219.446 407.035 219.838 407.212C220.23 407.38 220.561 407.641 220.832 407.996C221.103 408.351 221.238 408.827 221.238 409.424C221.238 409.881 221.117 410.315 220.874 410.726C220.631 411.137 220.272 411.468 219.796 411.72C219.32 411.972 218.751 412.098 218.088 412.098ZM223.622 402.914C223.426 402.914 223.258 402.844 223.118 402.704C222.978 402.564 222.908 402.391 222.908 402.186C222.908 401.981 222.978 401.813 223.118 401.682C223.258 401.542 223.426 401.472 223.622 401.472C223.818 401.472 223.986 401.542 224.126 401.682C224.266 401.813 224.336 401.981 224.336 402.186C224.336 402.391 224.266 402.564 224.126 402.704C223.986 402.844 223.818 402.914 223.622 402.914ZM224.112 404.356V412H223.132V404.356H224.112ZM235.431 404.216C236.327 404.216 237.055 404.501 237.615 405.07C238.184 405.63 238.469 406.447 238.469 407.52V412H237.503V407.632C237.503 406.801 237.302 406.167 236.901 405.728C236.5 405.289 235.954 405.07 235.263 405.07C234.544 405.07 233.97 405.308 233.541 405.784C233.112 406.26 232.897 406.951 232.897 407.856V412H231.931V407.632C231.931 406.801 231.73 406.167 231.329 405.728C230.928 405.289 230.377 405.07 229.677 405.07C228.958 405.07 228.384 405.308 227.955 405.784C227.526 406.26 227.311 406.951 227.311 407.856V412H226.331V404.356H227.311V405.672C227.554 405.196 227.899 404.837 228.347 404.594C228.795 404.342 229.294 404.216 229.845 404.216C230.508 404.216 231.086 404.375 231.581 404.692C232.085 405.009 232.449 405.476 232.673 406.092C232.878 405.485 233.228 405.023 233.723 404.706C234.227 404.379 234.796 404.216 235.431 404.216ZM241.611 406.036C241.854 405.523 242.237 405.098 242.759 404.762C243.291 404.417 243.921 404.244 244.649 404.244C245.34 404.244 245.961 404.407 246.511 404.734C247.071 405.051 247.505 405.509 247.813 406.106C248.131 406.694 248.289 407.38 248.289 408.164C248.289 408.948 248.131 409.639 247.813 410.236C247.505 410.833 247.071 411.295 246.511 411.622C245.961 411.949 245.34 412.112 244.649 412.112C243.931 412.112 243.305 411.944 242.773 411.608C242.241 411.263 241.854 410.833 241.611 410.32V415.612H240.645V404.356H241.611V406.036ZM247.295 408.164C247.295 407.529 247.169 406.983 246.917 406.526C246.675 406.059 246.339 405.705 245.909 405.462C245.48 405.219 244.995 405.098 244.453 405.098C243.931 405.098 243.45 405.224 243.011 405.476C242.582 405.728 242.241 406.087 241.989 406.554C241.737 407.021 241.611 407.562 241.611 408.178C241.611 408.794 241.737 409.335 241.989 409.802C242.241 410.269 242.582 410.628 243.011 410.88C243.45 411.132 243.931 411.258 244.453 411.258C244.995 411.258 245.48 411.137 245.909 410.894C246.339 410.642 246.675 410.283 246.917 409.816C247.169 409.34 247.295 408.789 247.295 408.164ZM251.073 401.64V412H250.093V401.64H251.073ZM260.208 407.786C260.208 408.122 260.199 408.379 260.18 408.556H253.838C253.866 409.135 254.006 409.629 254.258 410.04C254.51 410.451 254.841 410.763 255.252 410.978C255.663 411.183 256.111 411.286 256.596 411.286C257.231 411.286 257.763 411.132 258.192 410.824C258.631 410.516 258.92 410.101 259.06 409.578H260.096C259.909 410.325 259.508 410.936 258.892 411.412C258.285 411.879 257.52 412.112 256.596 412.112C255.877 412.112 255.233 411.953 254.664 411.636C254.095 411.309 253.647 410.852 253.32 410.264C253.003 409.667 252.844 408.971 252.844 408.178C252.844 407.385 253.003 406.689 253.32 406.092C253.637 405.495 254.081 405.037 254.65 404.72C255.219 404.403 255.868 404.244 256.596 404.244C257.324 404.244 257.959 404.403 258.5 404.72C259.051 405.037 259.471 405.467 259.76 406.008C260.059 406.54 260.208 407.133 260.208 407.786ZM259.214 407.758C259.223 407.189 259.107 406.703 258.864 406.302C258.631 405.901 258.309 405.597 257.898 405.392C257.487 405.187 257.039 405.084 256.554 405.084C255.826 405.084 255.205 405.317 254.692 405.784C254.179 406.251 253.894 406.909 253.838 407.758H259.214ZM265.395 408.164C265.395 407.38 265.549 406.694 265.857 406.106C266.174 405.509 266.608 405.051 267.159 404.734C267.719 404.407 268.349 404.244 269.049 404.244C269.777 404.244 270.402 404.412 270.925 404.748C271.457 405.084 271.839 405.513 272.073 406.036V404.356H273.053V412H272.073V410.306C271.83 410.829 271.443 411.263 270.911 411.608C270.388 411.944 269.763 412.112 269.035 412.112C268.344 412.112 267.719 411.949 267.159 411.622C266.608 411.295 266.174 410.833 265.857 410.236C265.549 409.639 265.395 408.948 265.395 408.164ZM272.073 408.178C272.073 407.562 271.947 407.021 271.695 406.554C271.443 406.087 271.097 405.728 270.659 405.476C270.229 405.224 269.753 405.098 269.231 405.098C268.689 405.098 268.204 405.219 267.775 405.462C267.345 405.705 267.005 406.059 266.753 406.526C266.51 406.983 266.389 407.529 266.389 408.164C266.389 408.789 266.51 409.34 266.753 409.816C267.005 410.283 267.345 410.642 267.775 410.894C268.204 411.137 268.689 411.258 269.231 411.258C269.753 411.258 270.229 411.132 270.659 410.88C271.097 410.628 271.443 410.269 271.695 409.802C271.947 409.335 272.073 408.794 272.073 408.178ZM277.922 412.112C277.045 412.112 276.326 411.911 275.766 411.51C275.215 411.099 274.907 410.544 274.842 409.844H275.85C275.897 410.273 276.097 410.623 276.452 410.894C276.816 411.155 277.301 411.286 277.908 411.286C278.44 411.286 278.855 411.16 279.154 410.908C279.462 410.656 279.616 410.343 279.616 409.97C279.616 409.709 279.532 409.494 279.364 409.326C279.196 409.158 278.981 409.027 278.72 408.934C278.468 408.831 278.123 408.724 277.684 408.612C277.115 408.463 276.653 408.313 276.298 408.164C275.943 408.015 275.64 407.795 275.388 407.506C275.145 407.207 275.024 406.811 275.024 406.316C275.024 405.943 275.136 405.597 275.36 405.28C275.584 404.963 275.901 404.711 276.312 404.524C276.723 404.337 277.189 404.244 277.712 404.244C278.533 404.244 279.196 404.454 279.7 404.874C280.204 405.285 280.475 405.854 280.512 406.582H279.532C279.504 406.134 279.327 405.775 279 405.504C278.683 405.224 278.244 405.084 277.684 405.084C277.189 405.084 276.788 405.201 276.48 405.434C276.172 405.667 276.018 405.957 276.018 406.302C276.018 406.601 276.107 406.848 276.284 407.044C276.471 407.231 276.699 407.38 276.97 407.492C277.241 407.595 277.605 407.711 278.062 407.842C278.613 407.991 279.051 408.136 279.378 408.276C279.705 408.416 279.985 408.621 280.218 408.892C280.451 409.163 280.573 409.522 280.582 409.97C280.582 410.381 280.47 410.749 280.246 411.076C280.022 411.393 279.709 411.645 279.308 411.832C278.907 412.019 278.445 412.112 277.922 412.112ZM287.542 405.182V409.928C287.542 410.395 287.631 410.717 287.808 410.894C287.986 411.071 288.298 411.16 288.746 411.16H289.642V412H288.592C287.902 412 287.388 411.841 287.052 411.524C286.716 411.197 286.548 410.665 286.548 409.928V405.182H285.484V404.356H286.548V402.438H287.542V404.356H289.642V405.182H287.542ZM294.899 404.216C295.477 404.216 295.995 404.337 296.453 404.58C296.919 404.823 297.283 405.196 297.545 405.7C297.815 406.195 297.951 406.801 297.951 407.52V412H296.985V407.632C296.985 406.801 296.775 406.167 296.355 405.728C295.944 405.289 295.379 405.07 294.661 405.07C293.923 405.07 293.335 405.303 292.897 405.77C292.458 406.237 292.239 406.923 292.239 407.828V412H291.259V401.64H292.239V405.658C292.481 405.201 292.836 404.846 293.303 404.594C293.779 404.342 294.311 404.216 294.899 404.216ZM299.67 408.164C299.67 407.38 299.824 406.694 300.132 406.106C300.449 405.509 300.883 405.051 301.434 404.734C301.994 404.407 302.624 404.244 303.324 404.244C304.052 404.244 304.677 404.412 305.2 404.748C305.732 405.084 306.115 405.513 306.348 406.036V404.356H307.328V412H306.348V410.306C306.105 410.829 305.718 411.263 305.186 411.608C304.663 411.944 304.038 412.112 303.31 412.112C302.619 412.112 301.994 411.949 301.434 411.622C300.883 411.295 300.449 410.833 300.132 410.236C299.824 409.639 299.67 408.948 299.67 408.164ZM306.348 408.178C306.348 407.562 306.222 407.021 305.97 406.554C305.718 406.087 305.373 405.728 304.934 405.476C304.505 405.224 304.029 405.098 303.506 405.098C302.965 405.098 302.479 405.219 302.05 405.462C301.621 405.705 301.28 406.059 301.028 406.526C300.785 406.983 300.664 407.529 300.664 408.164C300.664 408.789 300.785 409.34 301.028 409.816C301.28 410.283 301.621 410.642 302.05 410.894C302.479 411.137 302.965 411.258 303.506 411.258C304.029 411.258 304.505 411.132 304.934 410.88C305.373 410.628 305.718 410.269 305.97 409.802C306.222 409.335 306.348 408.794 306.348 408.178ZM310.839 405.182V409.928C310.839 410.395 310.928 410.717 311.105 410.894C311.283 411.071 311.595 411.16 312.043 411.16H312.939V412H311.889C311.199 412 310.685 411.841 310.349 411.524C310.013 411.197 309.845 410.665 309.845 409.928V405.182H308.781V404.356H309.845V402.438H310.839V404.356H312.939V405.182H310.839ZM315.452 410.376L313.996 414.044H313.324L314.36 410.376H315.452ZM327.117 404.356L322.581 415.598H321.559L323.043 411.958L319.907 404.356H320.985L323.589 410.88L326.109 404.356H327.117ZM331.792 412.112C331.074 412.112 330.425 411.953 329.846 411.636C329.277 411.309 328.824 410.852 328.488 410.264C328.162 409.667 327.998 408.971 327.998 408.178C327.998 407.385 328.166 406.694 328.502 406.106C328.838 405.509 329.296 405.051 329.874 404.734C330.453 404.407 331.102 404.244 331.82 404.244C332.539 404.244 333.188 404.407 333.766 404.734C334.354 405.051 334.812 405.509 335.138 406.106C335.474 406.694 335.642 407.385 335.642 408.178C335.642 408.962 335.474 409.653 335.138 410.25C334.802 410.847 334.34 411.309 333.752 411.636C333.164 411.953 332.511 412.112 331.792 412.112ZM331.792 411.258C332.296 411.258 332.763 411.146 333.192 410.922C333.622 410.689 333.967 410.343 334.228 409.886C334.499 409.419 334.634 408.85 334.634 408.178C334.634 407.506 334.504 406.941 334.242 406.484C333.981 406.017 333.636 405.672 333.206 405.448C332.777 405.215 332.31 405.098 331.806 405.098C331.302 405.098 330.836 405.215 330.406 405.448C329.977 405.672 329.632 406.017 329.37 406.484C329.118 406.941 328.992 407.506 328.992 408.178C328.992 408.85 329.118 409.419 329.37 409.886C329.632 410.343 329.972 410.689 330.392 410.922C330.822 411.146 331.288 411.258 331.792 411.258ZM344.051 404.356V412H343.071V410.656C342.847 411.132 342.501 411.496 342.035 411.748C341.568 412 341.045 412.126 340.467 412.126C339.552 412.126 338.805 411.846 338.227 411.286C337.648 410.717 337.359 409.895 337.359 408.822V404.356H338.325V408.71C338.325 409.541 338.53 410.175 338.941 410.614C339.361 411.053 339.93 411.272 340.649 411.272C341.386 411.272 341.974 411.039 342.413 410.572C342.851 410.105 343.071 409.419 343.071 408.514V404.356H344.051ZM346.414 402.214H347.548L346.316 405.238H345.602L346.414 402.214ZM350.03 405.714C350.244 405.238 350.571 404.869 351.01 404.608C351.458 404.347 352.004 404.216 352.648 404.216V405.238H352.382C351.672 405.238 351.103 405.429 350.674 405.812C350.244 406.195 350.03 406.834 350.03 407.73V412H349.05V404.356H350.03V405.714ZM361.038 407.786C361.038 408.122 361.029 408.379 361.01 408.556H354.668C354.696 409.135 354.836 409.629 355.088 410.04C355.34 410.451 355.671 410.763 356.082 410.978C356.493 411.183 356.941 411.286 357.426 411.286C358.061 411.286 358.593 411.132 359.022 410.824C359.461 410.516 359.75 410.101 359.89 409.578H360.926C360.739 410.325 360.338 410.936 359.722 411.412C359.115 411.879 358.35 412.112 357.426 412.112C356.707 412.112 356.063 411.953 355.494 411.636C354.925 411.309 354.477 410.852 354.15 410.264C353.833 409.667 353.674 408.971 353.674 408.178C353.674 407.385 353.833 406.689 354.15 406.092C354.467 405.495 354.911 405.037 355.48 404.72C356.049 404.403 356.698 404.244 357.426 404.244C358.154 404.244 358.789 404.403 359.33 404.72C359.881 405.037 360.301 405.467 360.59 406.008C360.889 406.54 361.038 407.133 361.038 407.786ZM360.044 407.758C360.053 407.189 359.937 406.703 359.694 406.302C359.461 405.901 359.139 405.597 358.728 405.392C358.317 405.187 357.869 405.084 357.384 405.084C356.656 405.084 356.035 405.317 355.522 405.784C355.009 406.251 354.724 406.909 354.668 407.758H360.044ZM367.653 401.64V412H366.673V401.64H367.653ZM376.788 407.786C376.788 408.122 376.779 408.379 376.76 408.556H370.418C370.446 409.135 370.586 409.629 370.838 410.04C371.09 410.451 371.421 410.763 371.832 410.978C372.243 411.183 372.691 411.286 373.176 411.286C373.811 411.286 374.343 411.132 374.772 410.824C375.211 410.516 375.5 410.101 375.64 409.578H376.676C376.489 410.325 376.088 410.936 375.472 411.412C374.865 411.879 374.1 412.112 373.176 412.112C372.457 412.112 371.813 411.953 371.244 411.636C370.675 411.309 370.227 410.852 369.9 410.264C369.583 409.667 369.424 408.971 369.424 408.178C369.424 407.385 369.583 406.689 369.9 406.092C370.217 405.495 370.661 405.037 371.23 404.72C371.799 404.403 372.448 404.244 373.176 404.244C373.904 404.244 374.539 404.403 375.08 404.72C375.631 405.037 376.051 405.467 376.34 406.008C376.639 406.54 376.788 407.133 376.788 407.786ZM375.794 407.758C375.803 407.189 375.687 406.703 375.444 406.302C375.211 405.901 374.889 405.597 374.478 405.392C374.067 405.187 373.619 405.084 373.134 405.084C372.406 405.084 371.785 405.317 371.272 405.784C370.759 406.251 370.474 406.909 370.418 407.758H375.794ZM378.133 408.164C378.133 407.38 378.287 406.694 378.595 406.106C378.912 405.509 379.346 405.051 379.897 404.734C380.457 404.407 381.087 404.244 381.787 404.244C382.515 404.244 383.14 404.412 383.663 404.748C384.195 405.084 384.578 405.513 384.811 406.036V404.356H385.791V412H384.811V410.306C384.568 410.829 384.181 411.263 383.649 411.608C383.126 411.944 382.501 412.112 381.773 412.112C381.082 412.112 380.457 411.949 379.897 411.622C379.346 411.295 378.912 410.833 378.595 410.236C378.287 409.639 378.133 408.948 378.133 408.164ZM384.811 408.178C384.811 407.562 384.685 407.021 384.433 406.554C384.181 406.087 383.836 405.728 383.397 405.476C382.968 405.224 382.492 405.098 381.969 405.098C381.428 405.098 380.942 405.219 380.513 405.462C380.084 405.705 379.743 406.059 379.491 406.526C379.248 406.983 379.127 407.529 379.127 408.164C379.127 408.789 379.248 409.34 379.491 409.816C379.743 410.283 380.084 410.642 380.513 410.894C380.942 411.137 381.428 411.258 381.969 411.258C382.492 411.258 382.968 411.132 383.397 410.88C383.836 410.628 384.181 410.269 384.433 409.802C384.685 409.335 384.811 408.794 384.811 408.178ZM389.008 405.714C389.223 405.238 389.55 404.869 389.988 404.608C390.436 404.347 390.982 404.216 391.626 404.216V405.238H391.36C390.651 405.238 390.082 405.429 389.652 405.812C389.223 406.195 389.008 406.834 389.008 407.73V412H388.028V404.356H389.008V405.714ZM396.684 404.216C397.599 404.216 398.346 404.501 398.924 405.07C399.503 405.63 399.792 406.447 399.792 407.52V412H398.826V407.632C398.826 406.801 398.616 406.167 398.196 405.728C397.786 405.289 397.221 405.07 396.502 405.07C395.765 405.07 395.177 405.303 394.738 405.77C394.3 406.237 394.08 406.923 394.08 407.828V412H393.1V404.356H394.08V405.658C394.323 405.191 394.673 404.837 395.13 404.594C395.588 404.342 396.106 404.216 396.684 404.216ZM402.45 402.914C402.254 402.914 402.086 402.844 401.946 402.704C401.806 402.564 401.736 402.391 401.736 402.186C401.736 401.981 401.806 401.813 401.946 401.682C402.086 401.542 402.254 401.472 402.45 401.472C402.646 401.472 402.814 401.542 402.954 401.682C403.094 401.813 403.164 401.981 403.164 402.186C403.164 402.391 403.094 402.564 402.954 402.704C402.814 402.844 402.646 402.914 402.45 402.914ZM402.94 404.356V412H401.96V404.356H402.94ZM408.743 404.216C409.658 404.216 410.404 404.501 410.983 405.07C411.562 405.63 411.851 406.447 411.851 407.52V412H410.885V407.632C410.885 406.801 410.675 406.167 410.255 405.728C409.844 405.289 409.28 405.07 408.561 405.07C407.824 405.07 407.236 405.303 406.797 405.77C406.358 406.237 406.139 406.923 406.139 407.828V412H405.159V404.356H406.139V405.658C406.382 405.191 406.732 404.837 407.189 404.594C407.646 404.342 408.164 404.216 408.743 404.216ZM417.224 404.244C417.943 404.244 418.568 404.412 419.1 404.748C419.632 405.084 420.015 405.509 420.248 406.022V404.356H421.228V412.196C421.228 412.896 421.074 413.517 420.766 414.058C420.468 414.599 420.048 415.015 419.506 415.304C418.965 415.603 418.349 415.752 417.658 415.752C416.678 415.752 415.862 415.519 415.208 415.052C414.564 414.585 414.163 413.951 414.004 413.148H414.97C415.138 413.68 415.456 414.105 415.922 414.422C416.398 414.739 416.977 414.898 417.658 414.898C418.153 414.898 418.596 414.791 418.988 414.576C419.38 414.371 419.688 414.063 419.912 413.652C420.136 413.241 420.248 412.756 420.248 412.196V410.306C420.006 410.829 419.618 411.263 419.086 411.608C418.564 411.944 417.943 412.112 417.224 412.112C416.524 412.112 415.894 411.949 415.334 411.622C414.784 411.295 414.35 410.833 414.032 410.236C413.724 409.639 413.57 408.948 413.57 408.164C413.57 407.38 413.724 406.694 414.032 406.106C414.35 405.509 414.784 405.051 415.334 404.734C415.894 404.407 416.524 404.244 417.224 404.244ZM420.248 408.178C420.248 407.562 420.122 407.021 419.87 406.554C419.618 406.087 419.273 405.728 418.834 405.476C418.405 405.224 417.929 405.098 417.406 405.098C416.865 405.098 416.38 405.219 415.95 405.462C415.521 405.705 415.18 406.059 414.928 406.526C414.686 406.983 414.564 407.529 414.564 408.164C414.564 408.789 414.686 409.34 414.928 409.816C415.18 410.283 415.521 410.642 415.95 410.894C416.38 411.137 416.865 411.258 417.406 411.258C417.929 411.258 418.405 411.132 418.834 410.88C419.273 410.628 419.618 410.269 419.87 409.802C420.122 409.335 420.248 408.794 420.248 408.178ZM426.86 408.164C426.86 407.38 427.014 406.694 427.322 406.106C427.639 405.509 428.073 405.051 428.624 404.734C429.184 404.407 429.814 404.244 430.514 404.244C431.242 404.244 431.867 404.412 432.39 404.748C432.922 405.084 433.304 405.513 433.538 406.036V404.356H434.518V412H433.538V410.306C433.295 410.829 432.908 411.263 432.376 411.608C431.853 411.944 431.228 412.112 430.5 412.112C429.809 412.112 429.184 411.949 428.624 411.622C428.073 411.295 427.639 410.833 427.322 410.236C427.014 409.639 426.86 408.948 426.86 408.164ZM433.538 408.178C433.538 407.562 433.412 407.021 433.16 406.554C432.908 406.087 432.562 405.728 432.124 405.476C431.694 405.224 431.218 405.098 430.696 405.098C430.154 405.098 429.669 405.219 429.24 405.462C428.81 405.705 428.47 406.059 428.218 406.526C427.975 406.983 427.854 407.529 427.854 408.164C427.854 408.789 427.975 409.34 428.218 409.816C428.47 410.283 428.81 410.642 429.24 410.894C429.669 411.137 430.154 411.258 430.696 411.258C431.218 411.258 431.694 411.132 432.124 410.88C432.562 410.628 432.908 410.269 433.16 409.802C433.412 409.335 433.538 408.794 433.538 408.178ZM441.577 401.64V412H440.597V401.64H441.577ZM443.348 408.164C443.348 407.38 443.502 406.694 443.81 406.106C444.127 405.509 444.561 405.051 445.112 404.734C445.672 404.407 446.302 404.244 447.002 404.244C447.73 404.244 448.355 404.412 448.878 404.748C449.41 405.084 449.792 405.513 450.026 406.036V404.356H451.006V412H450.026V410.306C449.783 410.829 449.396 411.263 448.864 411.608C448.341 411.944 447.716 412.112 446.988 412.112C446.297 412.112 445.672 411.949 445.112 411.622C444.561 411.295 444.127 410.833 443.81 410.236C443.502 409.639 443.348 408.948 443.348 408.164ZM450.026 408.178C450.026 407.562 449.9 407.021 449.648 406.554C449.396 406.087 449.05 405.728 448.612 405.476C448.182 405.224 447.706 405.098 447.184 405.098C446.642 405.098 446.157 405.219 445.728 405.462C445.298 405.705 444.958 406.059 444.706 406.526C444.463 406.983 444.342 407.529 444.342 408.164C444.342 408.789 444.463 409.34 444.706 409.816C444.958 410.283 445.298 410.642 445.728 410.894C446.157 411.137 446.642 411.258 447.184 411.258C447.706 411.258 448.182 411.132 448.612 410.88C449.05 410.628 449.396 410.269 449.648 409.802C449.9 409.335 450.026 408.794 450.026 408.178ZM456.827 404.216C457.742 404.216 458.488 404.501 459.067 405.07C459.646 405.63 459.935 406.447 459.935 407.52V412H458.969V407.632C458.969 406.801 458.759 406.167 458.339 405.728C457.928 405.289 457.364 405.07 456.645 405.07C455.908 405.07 455.32 405.303 454.881 405.77C454.442 406.237 454.223 406.923 454.223 407.828V412H453.243V404.356H454.223V405.658C454.466 405.191 454.816 404.837 455.273 404.594C455.73 404.342 456.248 404.216 456.827 404.216ZM465.308 404.244C466.027 404.244 466.652 404.412 467.184 404.748C467.716 405.084 468.099 405.509 468.332 406.022V404.356H469.312V412.196C469.312 412.896 469.158 413.517 468.85 414.058C468.552 414.599 468.132 415.015 467.59 415.304C467.049 415.603 466.433 415.752 465.742 415.752C464.762 415.752 463.946 415.519 463.292 415.052C462.648 414.585 462.247 413.951 462.088 413.148H463.054C463.222 413.68 463.54 414.105 464.006 414.422C464.482 414.739 465.061 414.898 465.742 414.898C466.237 414.898 466.68 414.791 467.072 414.576C467.464 414.371 467.772 414.063 467.996 413.652C468.22 413.241 468.332 412.756 468.332 412.196V410.306C468.09 410.829 467.702 411.263 467.17 411.608C466.648 411.944 466.027 412.112 465.308 412.112C464.608 412.112 463.978 411.949 463.418 411.622C462.868 411.295 462.434 410.833 462.116 410.236C461.808 409.639 461.654 408.948 461.654 408.164C461.654 407.38 461.808 406.694 462.116 406.106C462.434 405.509 462.868 405.051 463.418 404.734C463.978 404.407 464.608 404.244 465.308 404.244ZM468.332 408.178C468.332 407.562 468.206 407.021 467.954 406.554C467.702 406.087 467.357 405.728 466.918 405.476C466.489 405.224 466.013 405.098 465.49 405.098C464.949 405.098 464.464 405.219 464.034 405.462C463.605 405.705 463.264 406.059 463.012 406.526C462.77 406.983 462.648 407.529 462.648 408.164C462.648 408.789 462.77 409.34 463.012 409.816C463.264 410.283 463.605 410.642 464.034 410.894C464.464 411.137 464.949 411.258 465.49 411.258C466.013 411.258 466.489 411.132 466.918 410.88C467.357 410.628 467.702 410.269 467.954 409.802C468.206 409.335 468.332 408.794 468.332 408.178ZM478.172 404.356V412H477.192V410.656C476.968 411.132 476.622 411.496 476.156 411.748C475.689 412 475.166 412.126 474.588 412.126C473.673 412.126 472.926 411.846 472.348 411.286C471.769 410.717 471.48 409.895 471.48 408.822V404.356H472.446V408.71C472.446 409.541 472.651 410.175 473.062 410.614C473.482 411.053 474.051 411.272 474.77 411.272C475.507 411.272 476.095 411.039 476.534 410.572C476.972 410.105 477.192 409.419 477.192 408.514V404.356H478.172ZM479.961 408.164C479.961 407.38 480.115 406.694 480.423 406.106C480.74 405.509 481.174 405.051 481.725 404.734C482.285 404.407 482.915 404.244 483.615 404.244C484.343 404.244 484.968 404.412 485.491 404.748C486.023 405.084 486.406 405.513 486.639 406.036V404.356H487.619V412H486.639V410.306C486.396 410.829 486.009 411.263 485.477 411.608C484.954 411.944 484.329 412.112 483.601 412.112C482.91 412.112 482.285 411.949 481.725 411.622C481.174 411.295 480.74 410.833 480.423 410.236C480.115 409.639 479.961 408.948 479.961 408.164ZM486.639 408.178C486.639 407.562 486.513 407.021 486.261 406.554C486.009 406.087 485.664 405.728 485.225 405.476C484.796 405.224 484.32 405.098 483.797 405.098C483.256 405.098 482.77 405.219 482.341 405.462C481.912 405.705 481.571 406.059 481.319 406.526C481.076 406.983 480.955 407.529 480.955 408.164C480.955 408.789 481.076 409.34 481.319 409.816C481.571 410.283 481.912 410.642 482.341 410.894C482.77 411.137 483.256 411.258 483.797 411.258C484.32 411.258 484.796 411.132 485.225 410.88C485.664 410.628 486.009 410.269 486.261 409.802C486.513 409.335 486.639 408.794 486.639 408.178ZM493.062 404.244C493.781 404.244 494.406 404.412 494.938 404.748C495.47 405.084 495.853 405.509 496.086 406.022V404.356H497.066V412.196C497.066 412.896 496.912 413.517 496.604 414.058C496.306 414.599 495.886 415.015 495.344 415.304C494.803 415.603 494.187 415.752 493.496 415.752C492.516 415.752 491.7 415.519 491.046 415.052C490.402 414.585 490.001 413.951 489.842 413.148H490.808C490.976 413.68 491.294 414.105 491.76 414.422C492.236 414.739 492.815 414.898 493.496 414.898C493.991 414.898 494.434 414.791 494.826 414.576C495.218 414.371 495.526 414.063 495.75 413.652C495.974 413.241 496.086 412.756 496.086 412.196V410.306C495.844 410.829 495.456 411.263 494.924 411.608C494.402 411.944 493.781 412.112 493.062 412.112C492.362 412.112 491.732 411.949 491.172 411.622C490.622 411.295 490.188 410.833 489.87 410.236C489.562 409.639 489.408 408.948 489.408 408.164C489.408 407.38 489.562 406.694 489.87 406.106C490.188 405.509 490.622 405.051 491.172 404.734C491.732 404.407 492.362 404.244 493.062 404.244ZM496.086 408.178C496.086 407.562 495.96 407.021 495.708 406.554C495.456 406.087 495.111 405.728 494.672 405.476C494.243 405.224 493.767 405.098 493.244 405.098C492.703 405.098 492.218 405.219 491.788 405.462C491.359 405.705 491.018 406.059 490.766 406.526C490.524 406.983 490.402 407.529 490.402 408.164C490.402 408.789 490.524 409.34 490.766 409.816C491.018 410.283 491.359 410.642 491.788 410.894C492.218 411.137 492.703 411.258 493.244 411.258C493.767 411.258 494.243 411.132 494.672 410.88C495.111 410.628 495.456 410.269 495.708 409.802C495.96 409.335 496.086 408.794 496.086 408.178ZM506.22 407.786C506.22 408.122 506.21 408.379 506.192 408.556H499.85C499.878 409.135 500.018 409.629 500.27 410.04C500.522 410.451 500.853 410.763 501.264 410.978C501.674 411.183 502.122 411.286 502.608 411.286C503.242 411.286 503.774 411.132 504.204 410.824C504.642 410.516 504.932 410.101 505.072 409.578H506.108C505.921 410.325 505.52 410.936 504.904 411.412C504.297 411.879 503.532 412.112 502.608 412.112C501.889 412.112 501.245 411.953 500.676 411.636C500.106 411.309 499.658 410.852 499.332 410.264C499.014 409.667 498.856 408.971 498.856 408.178C498.856 407.385 499.014 406.689 499.332 406.092C499.649 405.495 500.092 405.037 500.662 404.72C501.231 404.403 501.88 404.244 502.608 404.244C503.336 404.244 503.97 404.403 504.512 404.72C505.062 405.037 505.482 405.467 505.772 406.008C506.07 406.54 506.22 407.133 506.22 407.786ZM505.226 407.758C505.235 407.189 505.118 406.703 504.876 406.302C504.642 405.901 504.32 405.597 503.91 405.392C503.499 405.187 503.051 405.084 502.566 405.084C501.838 405.084 501.217 405.317 500.704 405.784C500.19 406.251 499.906 406.909 499.85 407.758H505.226ZM508.181 412.07C507.975 412.07 507.803 412 507.663 411.86C507.532 411.72 507.467 411.547 507.467 411.342C507.467 411.137 507.532 410.969 507.663 410.838C507.803 410.698 507.975 410.628 508.181 410.628C508.377 410.628 508.54 410.698 508.671 410.838C508.811 410.969 508.881 411.137 508.881 411.342C508.881 411.547 508.811 411.72 508.671 411.86C508.54 412 508.377 412.07 508.181 412.07Z" fill="#393939"/>
<path d="M149.438 385.75C148.89 385.75 148.366 385.967 147.979 386.354C147.592 386.741 147.375 387.265 147.375 387.812V399.5H166.625V387.812C166.625 387.265 166.408 386.741 166.021 386.354C165.634 385.967 165.11 385.75 164.562 385.75H149.438ZM146 400.188H168C168 400.735 167.783 401.259 167.396 401.646C167.009 402.033 166.485 402.25 165.938 402.25H148.062C147.515 402.25 146.991 402.033 146.604 401.646C146.217 401.259 146 400.735 146 400.188V400.188Z" fill="white"/>
<defs>
<filter id="filter0_dd_1_787" x="-246" y="0" width="1314" height="800" filterUnits="userSpaceOnUse" color-interpolation-filters="sRGB">
<feFlood flood-opacity="0" result="BackgroundImageFix"/>
<feColorMatrix in="SourceAlpha" type="matrix" values="0 0 0 0 0 0 0 0 0 0 0 0 0 0 0 0 0 0 127 0" result="hardAlpha"/>
<feOffset dy="0.500862"/>
<feGaussianBlur stdDeviation="22.351"/>
<feColorMatrix type="matrix" values="0 0 0 0 1 0 0 0 0 0.572549 0 0 0 0 0.184314 0 0 0 0.075 0"/>
<feBlend mode="normal" in2="BackgroundImageFix" result="effect1_dropShadow_1_787"/>
<feColorMatrix in="SourceAlpha" type="matrix" values="0 0 0 0 0 0 0 0 0 0 0 0 0 0 0 0 0 0 127 0" result="hardAlpha"/>
<feOffset dy="4"/>
<feGaussianBlur stdDeviation="178.5"/>
<feColorMatrix type="matrix" values="0 0 0 0 1 0 0 0 0 0.572549 0 0 0 0 0.184314 0 0 0 0.15 0"/>
<feBlend mode="normal" in2="effect1_dropShadow_1_787" result="effect2_dropShadow_1_787"/>
<feBlend mode="normal" in="SourceGraphic" in2="effect2_dropShadow_1_787" result="shape"/>
</filter>
</defs>
</svg>
