<svg width="128" height="15" viewBox="0 0 128 15" fill="none" xmlns="http://www.w3.org/2000/svg">
<path d="M2.762 1.436V14H0.242V1.436H2.762ZM23.3648 4.028L20.4488 14H17.7308L15.9128 7.034L14.0948 14H11.3588L8.42483 4.028H10.9808L12.7448 11.624L14.6528 4.028H17.3168L19.1888 11.606L20.9528 4.028H23.3648ZM24.0803 8.978C24.0803 7.97 24.2783 7.076 24.6743 6.296C25.0823 5.516 25.6283 4.916 26.3123 4.496C27.0083 4.076 27.7823 3.866 28.6343 3.866C29.3783 3.866 30.0263 4.016 30.5783 4.316C31.1423 4.616 31.5923 4.994 31.9283 5.45V4.028H34.4663V14H31.9283V12.542C31.6043 13.01 31.1543 13.4 30.5783 13.712C30.0143 14.012 29.3603 14.162 28.6163 14.162C27.7763 14.162 27.0083 13.946 26.3123 13.514C25.6283 13.082 25.0823 12.476 24.6743 11.696C24.2783 10.904 24.0803 9.998 24.0803 8.978ZM31.9283 9.014C31.9283 8.402 31.8083 7.88 31.5683 7.448C31.3283 7.004 31.0043 6.668 30.5963 6.44C30.1883 6.2 29.7503 6.08 29.2823 6.08C28.8143 6.08 28.3823 6.194 27.9863 6.422C27.5903 6.65 27.2663 6.986 27.0143 7.43C26.7743 7.862 26.6543 8.378 26.6543 8.978C26.6543 9.578 26.7743 10.106 27.0143 10.562C27.2663 11.006 27.5903 11.348 27.9863 11.588C28.3943 11.828 28.8263 11.948 29.2823 11.948C29.7503 11.948 30.1883 11.834 30.5963 11.606C31.0043 11.366 31.3283 11.03 31.5683 10.598C31.8083 10.154 31.9283 9.626 31.9283 9.014ZM42.4535 3.884C43.6415 3.884 44.6015 4.262 45.3335 5.018C46.0655 5.762 46.4315 6.806 46.4315 8.15V14H43.9115V8.492C43.9115 7.7 43.7135 7.094 43.3175 6.674C42.9215 6.242 42.3815 6.026 41.6975 6.026C41.0015 6.026 40.4495 6.242 40.0415 6.674C39.6455 7.094 39.4475 7.7 39.4475 8.492V14H36.9275V4.028H39.4475V5.27C39.7835 4.838 40.2095 4.502 40.7255 4.262C41.2535 4.01 41.8295 3.884 42.4535 3.884ZM51.7619 6.098V10.922C51.7619 11.258 51.8399 11.504 51.9959 11.66C52.1639 11.804 52.4399 11.876 52.8239 11.876H53.9939V14H52.4099C50.2859 14 49.2239 12.968 49.2239 10.904V6.098H48.0359V4.028H49.2239V1.562H51.7619V4.028H53.9939V6.098H51.7619ZM63.0295 6.098V10.922C63.0295 11.258 63.1075 11.504 63.2635 11.66C63.4315 11.804 63.7075 11.876 64.0915 11.876H65.2615V14H63.6775C61.5535 14 60.4915 12.968 60.4915 10.904V6.098H59.3035V4.028H60.4915V1.562H63.0295V4.028H65.2615V6.098H63.0295ZM71.502 14.162C70.542 14.162 69.678 13.952 68.91 13.532C68.142 13.1 67.536 12.494 67.092 11.714C66.66 10.934 66.444 10.034 66.444 9.014C66.444 7.994 66.666 7.094 67.11 6.314C67.566 5.534 68.184 4.934 68.964 4.514C69.744 4.082 70.614 3.866 71.574 3.866C72.534 3.866 73.404 4.082 74.184 4.514C74.964 4.934 75.576 5.534 76.02 6.314C76.476 7.094 76.704 7.994 76.704 9.014C76.704 10.034 76.47 10.934 76.002 11.714C75.546 12.494 74.922 13.1 74.13 13.532C73.35 13.952 72.474 14.162 71.502 14.162ZM71.502 11.966C71.958 11.966 72.384 11.858 72.78 11.642C73.188 11.414 73.512 11.078 73.752 10.634C73.992 10.19 74.112 9.65 74.112 9.014C74.112 8.066 73.86 7.34 73.356 6.836C72.864 6.32 72.258 6.062 71.538 6.062C70.818 6.062 70.212 6.32 69.72 6.836C69.24 7.34 69 8.066 69 9.014C69 9.962 69.234 10.694 69.702 11.21C70.182 11.714 70.782 11.966 71.502 11.966ZM85.3616 0.68V14H82.8416V0.68H85.3616ZM97.1214 8.798C97.1214 9.158 97.0974 9.482 97.0494 9.77H89.7594C89.8194 10.49 90.0714 11.054 90.5154 11.462C90.9594 11.87 91.5054 12.074 92.1534 12.074C93.0894 12.074 93.7554 11.672 94.1514 10.868H96.8694C96.5814 11.828 96.0294 12.62 95.2134 13.244C94.3974 13.856 93.3954 14.162 92.2074 14.162C91.2474 14.162 90.3834 13.952 89.6154 13.532C88.8594 13.1 88.2654 12.494 87.8334 11.714C87.4134 10.934 87.2034 10.034 87.2034 9.014C87.2034 7.982 87.4134 7.076 87.8334 6.296C88.2534 5.516 88.8414 4.916 89.5974 4.496C90.3534 4.076 91.2234 3.866 92.2074 3.866C93.1554 3.866 94.0014 4.07 94.7454 4.478C95.5014 4.886 96.0834 5.468 96.4914 6.224C96.9114 6.968 97.1214 7.826 97.1214 8.798ZM94.5114 8.078C94.4994 7.43 94.2654 6.914 93.8094 6.53C93.3534 6.134 92.7954 5.936 92.1354 5.936C91.5114 5.936 90.9834 6.128 90.5514 6.512C90.1314 6.884 89.8734 7.406 89.7774 8.078H94.5114ZM98.3127 8.978C98.3127 7.97 98.5107 7.076 98.9067 6.296C99.3148 5.516 99.8608 4.916 100.545 4.496C101.241 4.076 102.015 3.866 102.867 3.866C103.611 3.866 104.259 4.016 104.811 4.316C105.375 4.616 105.825 4.994 106.161 5.45V4.028H108.699V14H106.161V12.542C105.837 13.01 105.387 13.4 104.811 13.712C104.247 14.012 103.593 14.162 102.849 14.162C102.009 14.162 101.241 13.946 100.545 13.514C99.8608 13.082 99.3148 12.476 98.9067 11.696C98.5107 10.904 98.3127 9.998 98.3127 8.978ZM106.161 9.014C106.161 8.402 106.041 7.88 105.801 7.448C105.561 7.004 105.237 6.668 104.829 6.44C104.421 6.2 103.983 6.08 103.515 6.08C103.047 6.08 102.615 6.194 102.219 6.422C101.823 6.65 101.499 6.986 101.247 7.43C101.007 7.862 100.887 8.378 100.887 8.978C100.887 9.578 101.007 10.106 101.247 10.562C101.499 11.006 101.823 11.348 102.219 11.588C102.627 11.828 103.059 11.948 103.515 11.948C103.983 11.948 104.421 11.834 104.829 11.606C105.237 11.366 105.561 11.03 105.801 10.598C106.041 10.154 106.161 9.626 106.161 9.014ZM113.68 5.576C114.004 5.048 114.424 4.634 114.94 4.334C115.468 4.034 116.068 3.884 116.74 3.884V6.53H116.074C115.282 6.53 114.682 6.716 114.274 7.088C113.878 7.46 113.68 8.108 113.68 9.032V14H111.16V4.028H113.68V5.576ZM123.963 3.884C125.151 3.884 126.111 4.262 126.843 5.018C127.575 5.762 127.941 6.806 127.941 8.15V14H125.421V8.492C125.421 7.7 125.223 7.094 124.827 6.674C124.431 6.242 123.891 6.026 123.207 6.026C122.511 6.026 121.959 6.242 121.551 6.674C121.155 7.094 120.957 7.7 120.957 8.492V14H118.437V4.028H120.957V5.27C121.293 4.838 121.719 4.502 122.235 4.262C122.763 4.01 123.339 3.884 123.963 3.884Z" fill="#FB9C46"/>
</svg>
