<svg width="303" height="272" viewBox="0 0 303 272" fill="none" xmlns="http://www.w3.org/2000/svg">
<g filter="url(#filter0_ddddd_1_61)">
<mask id="mask0_1_61" style="mask-type:alpha" maskUnits="userSpaceOnUse" x="89" y="104" width="54" height="53">
<ellipse cx="115.785" cy="130.5" rx="26.7849" ry="26.5" fill="#C4C4C4"/>
</mask>
<g mask="url(#mask0_1_61)">
<path d="M81 103H161V163H81V103Z" fill="#DE2910"/>
<path d="M90.6 125.2L95.9999 109L101.4 125.2L87 115.3H105L90.6 125.2Z" fill="#FFDE00"/>
<path d="M114.021 109.31L108.464 110.542L112.171 106.222L111.807 112.036L108.724 106.889L114.021 109.31Z" fill="#FFDE00"/>
<path d="M119.63 116.418L114.03 115.398L119.122 112.854L116.532 118.072L115.686 112.132L119.63 116.418Z" fill="#FFDE00"/>
<path d="M118.813 126.391L114.116 123.175L119.802 122.929L115.31 126.637L116.96 120.868L118.813 126.391Z" fill="#FFDE00"/>
<path d="M111.749 132.905L108.658 128.125L113.998 130.095L108.423 131.779L112.172 127.096L111.749 132.905Z" fill="#FFDE00"/>
</g>
</g>
<defs>
<filter id="filter0_ddddd_1_61" x="0" y="0" width="302.8" height="271.6" filterUnits="userSpaceOnUse" color-interpolation-filters="sRGB">
<feFlood flood-opacity="0" result="BackgroundImageFix"/>
<feColorMatrix in="SourceAlpha" type="matrix" values="0 0 0 0 0 0 0 0 0 0 0 0 0 0 0 0 0 0 127 0" result="hardAlpha"/>
<feOffset dy="-0.240442"/>
<feGaussianBlur stdDeviation="1.52853"/>
<feColorMatrix type="matrix" values="0 0 0 0 0 0 0 0 0 0 0 0 0 0 0 0 0 0 0.0527031 0"/>
<feBlend mode="normal" in2="BackgroundImageFix" result="effect1_dropShadow_1_61"/>
<feColorMatrix in="SourceAlpha" type="matrix" values="0 0 0 0 0 0 0 0 0 0 0 0 0 0 0 0 0 0 127 0" result="hardAlpha"/>
<feOffset dy="-0.608097"/>
<feGaussianBlur stdDeviation="3.86576"/>
<feColorMatrix type="matrix" values="0 0 0 0 0 0 0 0 0 0 0 0 0 0 0 0 0 0 0.0754306 0"/>
<feBlend mode="normal" in2="effect1_dropShadow_1_61" result="effect2_dropShadow_1_61"/>
<feColorMatrix in="SourceAlpha" type="matrix" values="0 0 0 0 0 0 0 0 0 0 0 0 0 0 0 0 0 0 127 0" result="hardAlpha"/>
<feOffset dy="-1.24046"/>
<feGaussianBlur stdDeviation="7.88579"/>
<feColorMatrix type="matrix" values="0 0 0 0 0 0 0 0 0 0 0 0 0 0 0 0 0 0 0.0945694 0"/>
<feBlend mode="normal" in2="effect2_dropShadow_1_61" result="effect3_dropShadow_1_61"/>
<feColorMatrix in="SourceAlpha" type="matrix" values="0 0 0 0 0 0 0 0 0 0 0 0 0 0 0 0 0 0 127 0" result="hardAlpha"/>
<feOffset dy="-2.55512"/>
<feGaussianBlur stdDeviation="16.2432"/>
<feColorMatrix type="matrix" values="0 0 0 0 0 0 0 0 0 0 0 0 0 0 0 0 0 0 0.117297 0"/>
<feBlend mode="normal" in2="effect3_dropShadow_1_61" result="effect4_dropShadow_1_61"/>
<feColorMatrix in="SourceAlpha" type="matrix" values="0 0 0 0 0 0 0 0 0 0 0 0 0 0 0 0 0 0 127 0" result="hardAlpha"/>
<feOffset dy="-7"/>
<feGaussianBlur stdDeviation="44.5"/>
<feColorMatrix type="matrix" values="0 0 0 0 0 0 0 0 0 0 0 0 0 0 0 0 0 0 0.17 0"/>
<feBlend mode="normal" in2="effect4_dropShadow_1_61" result="effect5_dropShadow_1_61"/>
<feBlend mode="normal" in="SourceGraphic" in2="effect5_dropShadow_1_61" result="shape"/>
</filter>
</defs>
</svg>
